<svg xmlns="http://www.w3.org/2000/svg" xmlns:xlink="http://www.w3.org/1999/xlink" preserveAspectRatio="xMidYMid" width="20" height="19" viewBox="0 0 20 19">
  <defs>
    <style>
      .cls-1 {
        fill: #000;
        fill-rule: evenodd;
      }
    </style>
  </defs>
  <path d="M18.000,17.000 L9.000,12.000 L7.000,12.000 L7.000,17.000 C7.042,18.042 7.013,19.000 5.641,19.000 C4.766,19.000 4.505,18.156 4.000,17.000 L2.333,12.000 L2.000,12.000 C0.895,12.000 -0.000,11.105 -0.000,10.000 L-0.000,7.000 C-0.000,5.895 0.895,5.000 2.000,5.000 L9.000,5.000 L18.000,-0.000 C19.105,-0.000 20.000,0.895 20.000,2.000 L20.000,15.000 C20.000,16.105 19.105,17.000 18.000,17.000 ZM9.000,7.000 L2.000,7.000 L2.000,10.000 L9.000,10.000 L9.000,7.000 ZM18.000,2.288 L11.000,6.177 L11.000,7.000 L11.000,10.000 L11.000,10.823 L18.000,14.712 L18.000,2.288 Z" class="cls-1"/>
</svg>
