<svg xmlns="http://www.w3.org/2000/svg" xmlns:xlink="http://www.w3.org/1999/xlink" preserveAspectRatio="xMidYMid" width="16" height="10" viewBox="0 0 16 10">
  <defs>
    <style>
      .cls-1 {
        fill: #000;
        fill-rule: evenodd;
      }
    </style>
  </defs>
  <path d="M15.000,5.999 L10.000,5.999 C9.448,5.999 9.000,5.552 9.000,4.999 C9.000,4.447 9.448,3.999 10.000,3.999 L15.000,3.999 C15.552,3.999 16.000,4.447 16.000,4.999 C16.000,5.552 15.552,5.999 15.000,5.999 ZM15.000,1.999 L10.000,1.999 C9.448,1.999 9.000,1.552 9.000,0.999 C9.000,0.447 9.448,-0.001 10.000,-0.001 L15.000,-0.001 C15.552,-0.001 16.000,0.447 16.000,0.999 C16.000,1.552 15.552,1.999 15.000,1.999 ZM5.000,5.999 L4.000,5.999 L4.000,6.999 C4.000,7.552 3.552,8.000 3.000,8.000 C2.448,8.000 2.000,7.552 2.000,6.999 L2.000,5.999 L1.000,5.999 C0.448,5.999 -0.000,5.552 -0.000,4.999 C-0.000,4.447 0.448,3.999 1.000,3.999 L2.000,3.999 L2.000,2.999 C2.000,2.447 2.448,1.999 3.000,1.999 C3.552,1.999 4.000,2.447 4.000,2.999 L4.000,3.999 L5.000,3.999 C5.552,3.999 6.000,4.447 6.000,4.999 C6.000,5.552 5.552,5.999 5.000,5.999 ZM10.000,8.000 L15.000,8.000 C15.552,8.000 16.000,8.447 16.000,8.999 C16.000,9.552 15.552,9.999 15.000,9.999 L10.000,9.999 C9.448,9.999 9.000,9.552 9.000,8.999 C9.000,8.447 9.448,8.000 10.000,8.000 Z" class="cls-1"/>
</svg>
