<svg xmlns="http://www.w3.org/2000/svg" width="16" height="19" viewBox="0 0 16 19">
  <defs>
    <style>
      .cls-1 {
        fill: #4aa429;
        fill-rule: evenodd;
      }
    </style>
  </defs>
  <path id="Bell" class="cls-1" d="M1180.79,38.023c-1.38-1.2-.79-0.286-0.79-4.023,0-2.829-1.38-5.321-3.89-6.2a2.137,2.137,0,0,0-4.22,0c-2.51.878-3.89,3.371-3.89,6.2,0,3.737.59,2.825-.79,4.023a3.527,3.527,0,0,0-1.21,2.665A2.176,2.176,0,0,0,1168,43h4a1.9,1.9,0,0,0,2,2,2.149,2.149,0,0,0,2.14-2.156L1180,43a2.176,2.176,0,0,0,2-2.312A3.527,3.527,0,0,0,1180.79,38.023ZM1168,41a2.27,2.27,0,0,1,.61-1.346c1.92-1.664,1.39-1.306,1.39-5.654a4.019,4.019,0,1,1,8,0c0,4.348-.53,3.989,1.39,5.654A2.269,2.269,0,0,1,1180,41h-12Z" transform="translate(-1166 -26)"/>
</svg>
