<svg xmlns="http://www.w3.org/2000/svg" xmlns:xlink="http://www.w3.org/1999/xlink" preserveAspectRatio="xMidYMid" width="20" height="20" viewBox="0 0 20 20">
  <defs>
    <style>
      .cls-1 {
        fill: #000;
        fill-rule: evenodd;
      }
    </style>
  </defs>
  <path d="M13.858,17.000 C13.411,18.720 11.858,20.000 10.000,20.000 C8.142,20.000 6.589,18.720 6.142,17.000 L-0.000,17.000 L-0.000,15.000 C1.691,15.000 2.151,13.223 2.736,9.451 C3.353,5.462 4.200,-0.000 10.000,-0.000 C15.800,-0.000 16.646,5.462 17.264,9.451 C17.849,13.223 18.309,15.000 20.000,15.000 L20.000,17.000 L13.858,17.000 ZM10.000,18.000 C10.737,18.000 11.375,17.595 11.722,17.000 L8.278,17.000 C8.625,17.595 9.263,18.000 10.000,18.000 ZM15.288,9.757 C14.562,5.071 13.802,2.000 10.000,2.000 C6.198,2.000 5.438,5.071 4.712,9.757 C4.426,11.603 4.115,13.578 3.318,15.000 L16.682,15.000 C15.885,13.578 15.574,11.603 15.288,9.757 Z" class="cls-1"/>
</svg>
