<svg xmlns="http://www.w3.org/2000/svg" xmlns:xlink="http://www.w3.org/1999/xlink" preserveAspectRatio="xMidYMid" width="16.031" height="20" viewBox="0 0 16.031 20">
  <defs>
    <style>
      .cls-1 {
        fill: #000;
        fill-rule: evenodd;
      }
    </style>
  </defs>
  <path d="M15.735,12.423 L8.739,19.718 C8.737,19.720 8.734,19.721 8.732,19.723 C8.644,19.812 8.541,19.884 8.427,19.934 C8.320,19.980 8.206,20.000 8.092,20.004 C8.081,20.005 8.072,20.011 8.060,20.011 C8.049,20.011 8.040,20.005 8.029,20.004 C8.006,20.003 7.985,19.992 7.962,19.990 C7.684,20.021 7.397,19.940 7.183,19.718 L0.287,12.526 C-0.088,12.136 -0.088,11.502 0.287,11.112 C0.662,10.721 1.269,10.721 1.644,11.112 L7.101,16.803 L7.101,1.005 C7.101,0.453 7.531,0.005 8.060,0.005 C8.590,0.005 9.020,0.453 9.020,1.005 L9.020,16.596 L14.378,11.008 C14.753,10.617 15.360,10.617 15.735,11.008 C16.109,11.399 16.109,12.032 15.735,12.423 Z" class="cls-1"/>
</svg>
