<svg xmlns="http://www.w3.org/2000/svg" xmlns:xlink="http://www.w3.org/1999/xlink" preserveAspectRatio="xMidYMid" width="16" height="20" viewBox="0 0 16 20">
  <defs>
    <style>
      .cls-1 {
        fill: #000;
        fill-rule: evenodd;
      }
    </style>
  </defs>
  <path d="M15.713,8.888 C15.338,9.278 14.731,9.278 14.356,8.888 L8.899,3.197 L8.899,18.994 C8.899,19.547 8.469,19.995 7.939,19.995 C7.410,19.995 6.980,19.547 6.980,18.994 L6.980,3.404 L1.622,8.991 C1.247,9.382 0.640,9.382 0.265,8.991 C-0.109,8.601 -0.109,7.967 0.265,7.577 L7.261,0.282 C7.349,0.190 7.455,0.117 7.573,0.066 C7.690,0.016 7.814,-0.011 7.939,-0.011 C7.939,-0.011 7.939,-0.011 7.939,-0.011 C7.939,-0.011 7.939,-0.011 7.939,-0.011 C7.973,-0.011 8.004,0.006 8.037,0.010 C8.316,-0.022 8.603,0.059 8.816,0.282 L15.713,7.473 C16.088,7.864 16.088,8.497 15.713,8.888 Z" class="cls-1"/>
</svg>
