<svg xmlns="http://www.w3.org/2000/svg" xmlns:xlink="http://www.w3.org/1999/xlink" preserveAspectRatio="xMidYMid" width="20" height="16" viewBox="0 0 20 16">
  <defs>
    <style>
      .cls-1 {
        fill: #000;
        fill-rule: evenodd;
      }
    </style>
  </defs>
  <path d="M18.994,9.002 L3.405,9.002 L8.992,14.350 C9.382,14.724 9.382,15.330 8.992,15.704 C8.601,16.078 7.968,16.078 7.577,15.704 L0.282,8.722 C0.282,8.722 0.282,8.722 0.282,8.722 L0.282,8.722 C0.282,8.722 0.282,8.722 0.282,8.722 C0.190,8.634 0.117,8.528 0.066,8.411 C0.016,8.294 -0.011,8.169 -0.011,8.045 C-0.011,8.045 -0.011,8.045 -0.011,8.045 C-0.011,8.045 -0.011,8.045 -0.011,8.045 C-0.011,8.012 0.006,7.980 0.010,7.947 C-0.021,7.669 0.059,7.383 0.282,7.170 L7.473,0.286 C7.864,-0.087 8.497,-0.087 8.888,0.286 C9.279,0.660 9.279,1.266 8.888,1.640 L3.197,7.087 L18.994,7.087 C19.547,7.087 19.995,7.516 19.995,8.045 C19.995,8.574 19.547,9.002 18.994,9.002 Z" class="cls-1"/>
</svg>
