<svg xmlns="http://www.w3.org/2000/svg" xmlns:xlink="http://www.w3.org/1999/xlink" preserveAspectRatio="xMidYMid" width="20" height="16" viewBox="0 0 20 16">
  <defs>
    <style>
      .cls-1 {
        fill: #000;
        fill-rule: evenodd;
      }
    </style>
  </defs>
  <path d="M19.990,7.950 C20.006,8.106 19.997,8.263 19.934,8.411 C19.883,8.527 19.810,8.632 19.719,8.720 C19.718,8.721 19.718,8.721 19.718,8.722 L12.423,15.704 C12.032,16.078 11.399,16.078 11.008,15.704 C10.618,15.330 10.618,14.724 11.008,14.350 L16.595,9.002 L1.006,9.002 C0.453,9.002 0.005,8.574 0.005,8.045 C0.005,7.516 0.453,7.087 1.006,7.087 L16.803,7.087 L11.112,1.640 C10.721,1.266 10.721,0.660 11.112,0.286 C11.502,-0.087 12.136,-0.087 12.526,0.286 L19.718,7.170 C19.941,7.383 20.022,7.671 19.990,7.950 Z" class="cls-1"/>
</svg>
