<svg xmlns="http://www.w3.org/2000/svg" xmlns:xlink="http://www.w3.org/1999/xlink" preserveAspectRatio="xMidYMid" width="22" height="20" viewBox="0 0 22 20">
  <defs>
    <style>
      .cls-1 {
        fill: #111;
        fill-rule: evenodd;
      }
    </style>
  </defs>
  <path d="M4.000,19.997 C1.794,19.997 -0.000,18.202 -0.000,15.996 L-0.000,3.992 C-0.000,1.786 1.794,-0.009 4.000,-0.009 L18.000,-0.009 C20.206,-0.009 22.000,1.786 22.000,3.992 L22.000,15.996 C22.000,18.202 20.206,19.997 18.000,19.997 L4.000,19.997 ZM20.000,3.992 C20.000,2.888 19.102,1.991 18.000,1.991 L4.000,1.991 C2.897,1.991 2.000,2.888 2.000,3.992 L2.000,15.996 C2.000,17.099 2.897,17.997 4.000,17.997 L18.000,17.997 C19.102,17.997 20.000,17.099 20.000,15.996 L20.000,3.992 ZM15.750,11.745 C15.561,11.874 15.339,11.946 15.110,11.955 L15.090,11.955 C14.796,11.954 14.515,11.835 14.310,11.625 C13.948,11.265 13.947,10.679 14.307,10.317 C14.311,10.313 14.316,10.309 14.320,10.304 C14.340,10.284 14.430,10.214 14.450,10.194 C14.691,10.038 14.838,9.771 14.840,9.484 C14.829,9.202 14.684,8.942 14.450,8.784 C14.027,8.500 13.911,7.929 14.190,7.503 L14.310,7.353 C14.526,7.149 14.812,7.034 15.110,7.033 C15.342,7.042 15.567,7.114 15.760,7.243 C16.362,7.643 16.779,8.265 16.920,8.974 C17.058,9.684 16.903,10.420 16.490,11.015 C16.296,11.306 16.044,11.554 15.750,11.745 ZM11.710,14.435 L10.980,14.435 C10.861,14.435 10.746,14.389 10.660,14.305 L8.240,11.925 L7.130,11.925 C6.481,11.932 5.948,11.412 5.940,10.762 C5.940,10.760 5.940,10.757 5.940,10.754 L5.940,8.233 C5.943,7.584 6.472,7.060 7.122,7.063 C7.125,7.063 7.127,7.063 7.130,7.063 L8.240,7.063 L10.660,4.682 C10.746,4.599 10.861,4.552 10.980,4.552 L11.710,4.552 C11.754,4.553 11.798,4.560 11.840,4.572 C12.480,4.754 12.924,5.336 12.930,6.003 L12.930,12.985 C12.924,13.651 12.480,14.234 11.840,14.415 C11.799,14.432 11.754,14.439 11.710,14.435 ZM11.000,7.083 L9.250,8.814 C9.163,8.895 9.049,8.941 8.930,8.944 L7.870,8.944 L7.870,10.044 L8.930,10.044 C9.049,10.047 9.163,10.093 9.250,10.174 L11.000,11.905 L11.000,7.083 Z" class="cls-1"/>
</svg>
