<svg xmlns="http://www.w3.org/2000/svg" xmlns:xlink="http://www.w3.org/1999/xlink" preserveAspectRatio="xMidYMid" width="20" height="20" viewBox="0 0 20 20">
  <defs>
    <style>
      .cls-1 {
        fill: #000;
        fill-rule: evenodd;
      }
    </style>
  </defs>
  <path d="M18.000,19.990 L2.000,19.990 C0.895,19.990 -0.000,19.096 -0.000,17.993 L-0.000,7.010 C-0.000,5.907 0.895,5.013 2.000,5.013 L7.134,5.013 L5.132,1.515 C4.857,1.036 5.024,0.426 5.504,0.153 C5.983,-0.122 6.595,0.045 6.868,0.524 L9.437,5.013 L11.323,5.013 L13.071,0.648 C13.276,0.137 13.862,-0.111 14.371,0.092 C14.884,0.297 15.134,0.878 14.929,1.390 L13.477,5.013 L18.000,5.013 C19.104,5.013 20.000,5.907 20.000,7.010 L20.000,17.993 C20.000,19.096 19.104,19.990 18.000,19.990 ZM18.000,7.010 L12.002,7.010 C12.001,7.010 12.001,7.011 12.000,7.011 C11.999,7.011 11.999,7.010 11.998,7.010 L10.580,7.010 L10.868,7.513 C11.142,7.992 10.975,8.602 10.496,8.876 C10.340,8.965 10.169,9.007 10.001,9.007 C9.653,9.007 9.316,8.827 9.132,8.504 L8.277,7.010 L2.000,7.010 L2.000,17.993 L18.000,17.993 L18.000,7.010 ZM6.500,9.007 C8.430,9.007 10.000,10.575 10.000,12.502 C10.000,14.428 8.430,15.996 6.500,15.996 C4.570,15.996 3.000,14.428 3.000,12.502 C3.000,10.575 4.570,9.007 6.500,9.007 ZM6.500,13.999 C7.327,13.999 8.000,13.327 8.000,12.502 C8.000,11.676 7.327,11.004 6.500,11.004 C5.673,11.004 5.000,11.676 5.000,12.502 C5.000,13.327 5.673,13.999 6.500,13.999 ZM17.000,12.002 L12.000,12.002 L12.000,10.006 L17.000,10.006 L17.000,12.002 ZM17.000,14.998 L12.000,14.998 L12.000,13.001 L17.000,13.001 L17.000,14.998 Z" class="cls-1"/>
</svg>
