<svg xmlns="http://www.w3.org/2000/svg" xmlns:xlink="http://www.w3.org/1999/xlink" preserveAspectRatio="xMidYMid" width="21" height="21" viewBox="0 0 21 21">
  <defs>
    <style>
      .cls-1 {
        fill: #000;
        fill-rule: evenodd;
      }
    </style>
  </defs>
  <path d="M20.687,9.070 L15.057,14.065 L15.057,20.151 C15.013,20.598 14.655,21.000 14.164,21.000 L0.894,21.000 C0.402,21.000 0.000,20.598 0.000,20.107 L0.000,4.423 C0.000,3.932 0.402,3.530 0.894,3.530 L3.129,3.530 L3.262,2.234 C3.306,1.787 3.664,1.430 4.111,1.430 L6.613,1.430 L6.613,0.894 C6.613,0.402 7.015,0.000 7.506,0.000 C7.998,0.000 8.400,0.402 8.400,0.894 L8.400,1.430 L10.902,1.430 C11.349,1.430 11.706,1.787 11.751,2.234 L11.879,3.440 L14.164,3.440 C14.655,3.440 15.057,3.843 15.057,4.334 L15.057,6.206 L16.755,4.691 C17.113,4.379 17.649,4.423 18.006,4.781 L20.777,7.819 C20.911,7.998 21.000,8.221 21.000,8.445 C21.000,8.668 20.866,8.891 20.687,9.070 ZM10.142,3.172 L4.915,3.172 L4.692,5.362 L10.366,5.362 L10.142,3.172 ZM13.270,5.228 L12.068,5.228 L12.153,6.032 C12.153,6.121 12.198,6.166 12.198,6.255 C12.198,6.702 11.796,7.104 11.349,7.104 L3.753,7.104 C3.485,7.104 3.262,7.015 3.083,6.836 C2.904,6.657 2.815,6.389 2.860,6.166 L2.946,5.317 L1.743,5.317 L1.743,19.302 L13.270,19.302 L13.270,15.651 L11.572,17.158 C11.438,17.247 11.304,17.336 11.126,17.381 L7.283,18.051 C7.283,18.051 7.238,18.051 7.149,18.051 C6.881,18.051 6.657,17.962 6.479,17.738 C6.300,17.515 6.211,17.202 6.300,16.934 L7.372,13.225 C7.417,13.047 7.506,12.913 7.641,12.823 L13.270,7.801 L13.270,5.228 ZM17.291,6.613 L9.025,13.940 L8.400,16.085 L10.589,15.727 L18.855,8.355 L17.291,6.613 Z" class="cls-1"/>
</svg>
