<svg xmlns="http://www.w3.org/2000/svg" xmlns:xlink="http://www.w3.org/1999/xlink" preserveAspectRatio="xMidYMid" width="20" height="20" viewBox="0 0 20 20">
  <defs>
    <style>
      .cls-1 {
        fill: #000;
        fill-rule: evenodd;
      }
    </style>
  </defs>
  <path d="M18.000,20.000 L2.000,20.000 C0.895,20.000 -0.000,19.104 -0.000,18.000 L-0.000,9.000 L-0.000,7.000 L-0.000,4.000 C-0.000,2.895 0.895,2.000 2.000,2.000 L5.000,2.000 L5.000,1.000 C5.000,0.447 5.448,-0.000 6.000,-0.000 C6.552,-0.000 7.000,0.447 7.000,1.000 L7.000,2.000 L13.000,2.000 L13.000,1.000 C13.000,0.447 13.448,-0.000 14.000,-0.000 C14.552,-0.000 15.000,0.447 15.000,1.000 L15.000,2.000 L18.000,2.000 C19.105,2.000 20.000,2.895 20.000,4.000 L20.000,7.000 L20.000,9.000 L20.000,18.000 C20.000,19.104 19.105,20.000 18.000,20.000 ZM18.000,4.000 L15.000,4.000 L15.000,5.000 C15.000,5.552 14.552,6.000 14.000,6.000 C13.448,6.000 13.000,5.552 13.000,5.000 L13.000,4.000 L7.000,4.000 L7.000,5.000 C7.000,5.552 6.552,6.000 6.000,6.000 C5.448,6.000 5.000,5.552 5.000,5.000 L5.000,4.000 L2.000,4.000 L2.000,7.000 L18.000,7.000 L18.000,4.000 ZM18.000,9.000 L2.000,9.000 L2.000,18.000 L18.000,18.000 L18.000,9.000 ZM7.000,13.000 L5.000,13.000 L5.000,11.000 L7.000,11.000 L7.000,13.000 ZM7.000,16.000 L5.000,16.000 L5.000,14.000 L7.000,14.000 L7.000,16.000 ZM11.000,13.000 L9.000,13.000 L9.000,11.000 L11.000,11.000 L11.000,13.000 ZM11.000,16.000 L9.000,16.000 L9.000,14.000 L11.000,14.000 L11.000,16.000 ZM15.000,13.000 L13.000,13.000 L13.000,11.000 L15.000,11.000 L15.000,13.000 ZM15.000,16.000 L13.000,16.000 L13.000,14.000 L15.000,14.000 L15.000,16.000 Z" class="cls-1"/>
</svg>
