<svg xmlns="http://www.w3.org/2000/svg" xmlns:xlink="http://www.w3.org/1999/xlink" preserveAspectRatio="xMidYMid" width="16" height="18" viewBox="0 0 16 18">
  <defs>
    <style>
      .cls-1 {
        fill: #000;
        fill-rule: evenodd;
      }
    </style>
  </defs>
  <path d="M14.000,18.000 L2.000,18.000 C0.895,18.000 -0.000,17.104 -0.000,16.000 L-0.000,9.000 L-0.000,7.000 L-0.000,4.000 C-0.000,2.895 0.895,2.000 2.000,2.000 L4.000,2.000 L4.000,1.000 C4.000,0.448 4.448,-0.000 5.000,-0.000 C5.552,-0.000 6.000,0.448 6.000,1.000 L6.000,2.000 L10.000,2.000 L10.000,1.000 C10.000,0.448 10.448,-0.000 11.000,-0.000 C11.552,-0.000 12.000,0.448 12.000,1.000 L12.000,2.000 L14.000,2.000 C15.105,2.000 16.000,2.895 16.000,4.000 L16.000,7.000 L16.000,9.000 L16.000,16.000 C16.000,17.104 15.105,18.000 14.000,18.000 ZM14.000,4.000 L12.000,4.000 L12.000,5.000 C12.000,5.552 11.552,6.000 11.000,6.000 C10.448,6.000 10.000,5.552 10.000,5.000 L10.000,4.000 L6.000,4.000 L6.000,5.000 C6.000,5.552 5.552,6.000 5.000,6.000 C4.448,6.000 4.000,5.552 4.000,5.000 L4.000,4.000 L2.000,4.000 L2.000,7.000 L14.000,7.000 L14.000,4.000 ZM14.000,9.000 L2.000,9.000 L2.000,16.000 L14.000,16.000 L14.000,9.000 ZM7.000,12.000 L5.000,12.000 L5.000,10.000 L7.000,10.000 L7.000,12.000 ZM7.000,15.000 L5.000,15.000 L5.000,13.000 L7.000,13.000 L7.000,15.000 ZM11.000,12.000 L9.000,12.000 L9.000,10.000 L11.000,10.000 L11.000,12.000 ZM11.000,15.000 L9.000,15.000 L9.000,13.000 L11.000,13.000 L11.000,15.000 Z" class="cls-1"/>
</svg>
