<svg xmlns="http://www.w3.org/2000/svg" xmlns:xlink="http://www.w3.org/1999/xlink" preserveAspectRatio="xMidYMid" width="10" height="8" viewBox="0 0 10 8">
  <defs>
    <style>
      .cls-1 {
        fill: #000;
        fill-rule: evenodd;
      }
    </style>
  </defs>
  <path d="M5.198,7.640 C4.997,7.880 4.733,8.000 4.469,8.000 C4.205,8.000 3.941,7.880 3.740,7.640 L0.302,4.549 C0.090,4.297 -0.003,3.963 0.008,3.633 C0.018,3.336 0.111,3.041 0.302,2.814 C0.493,2.587 0.741,2.476 0.990,2.464 C1.268,2.450 1.548,2.561 1.760,2.814 L4.469,5.037 L8.240,0.359 C8.452,0.107 8.732,-0.004 9.010,0.010 C9.260,0.022 9.507,0.132 9.698,0.359 C9.889,0.586 9.982,0.881 9.992,1.179 C10.003,1.509 9.910,1.843 9.698,2.095 L5.198,7.640 Z" class="cls-1"/>
</svg>
