<svg xmlns="http://www.w3.org/2000/svg" xmlns:xlink="http://www.w3.org/1999/xlink" preserveAspectRatio="xMidYMid" width="16" height="20" viewBox="0 0 16 20">
  <defs>
    <style>
      .cls-1 {
        fill: #000;
        fill-rule: evenodd;
      }
    </style>
  </defs>
  <path d="M14.000,20.000 L2.000,20.000 C0.895,20.000 -0.000,19.104 -0.000,18.000 L-0.000,5.000 C-0.000,3.895 0.895,3.000 2.000,3.000 L3.000,3.000 L3.000,2.000 C3.000,0.895 3.895,-0.000 5.000,-0.000 L11.000,-0.000 C12.105,-0.000 13.000,0.895 13.000,2.000 L13.000,3.000 L14.000,3.000 C15.105,3.000 16.000,3.895 16.000,5.000 L16.000,18.000 C16.000,19.104 15.105,20.000 14.000,20.000 ZM11.000,2.000 L5.000,2.000 L5.000,4.000 L11.000,4.000 L11.000,2.000 ZM14.000,5.000 L12.723,5.000 C12.376,5.595 11.738,6.000 11.000,6.000 L5.000,6.000 C4.262,6.000 3.624,5.595 3.277,5.000 L2.000,5.000 L2.000,18.000 L14.000,18.000 L14.000,5.000 ZM6.000,10.000 L4.000,10.000 L4.000,8.000 L6.000,8.000 L6.000,10.000 ZM6.000,13.000 L4.000,13.000 L4.000,11.000 L6.000,11.000 L6.000,13.000 ZM6.000,16.000 L4.000,16.000 L4.000,14.000 L6.000,14.000 L6.000,16.000 ZM12.000,10.000 L7.000,10.000 L7.000,8.000 L12.000,8.000 L12.000,10.000 ZM12.000,13.000 L7.000,13.000 L7.000,11.000 L12.000,11.000 L12.000,13.000 ZM12.000,16.000 L7.000,16.000 L7.000,14.000 L12.000,14.000 L12.000,16.000 Z" class="cls-1"/>
</svg>
