<svg xmlns="http://www.w3.org/2000/svg" xmlns:xlink="http://www.w3.org/1999/xlink" preserveAspectRatio="xMidYMid" width="12" height="16" viewBox="0 0 12 16">
  <defs>
    <style>
      .cls-1 {
        fill: #000;
        fill-rule: evenodd;
      }
    </style>
  </defs>
  <path d="M6.970,15.995 L5.006,15.995 C2.238,15.995 -0.013,14.563 -0.013,12.804 L-0.013,12.037 L-0.013,3.199 L-0.013,2.401 C-0.013,1.082 1.645,0.008 3.684,0.008 L4.992,0.008 C7.031,0.008 8.689,1.082 8.689,2.401 L8.689,5.286 L8.689,11.053 L8.689,11.209 L8.668,11.209 C8.557,12.229 7.405,13.037 5.988,13.037 C4.499,13.037 3.287,12.147 3.287,11.053 L3.287,5.286 L5.448,5.286 L5.448,11.053 C5.448,11.264 5.696,11.442 5.988,11.442 C6.281,11.442 6.528,11.264 6.528,11.053 L6.528,5.286 L6.528,2.401 C6.528,1.976 5.811,1.603 4.992,1.603 L3.684,1.603 C2.865,1.603 2.148,1.976 2.148,2.401 L2.148,3.199 L2.148,12.037 L2.148,12.804 C2.148,13.669 3.457,14.399 5.006,14.399 L6.970,14.399 C8.519,14.399 9.828,13.669 9.828,12.804 L9.828,3.199 L11.989,3.199 L11.989,12.804 C11.989,14.563 9.738,15.995 6.970,15.995 Z" class="cls-1"/>
</svg>
