<svg xmlns="http://www.w3.org/2000/svg" xmlns:xlink="http://www.w3.org/1999/xlink" preserveAspectRatio="xMidYMid" width="21" height="19.97" viewBox="0 0 21 19.97">
  <defs>
    <style>
      .cls-1 {
        fill: #000;
        fill-rule: evenodd;
      }
    </style>
  </defs>
  <path d="M19.404,1.717 L19.305,1.615 C17.131,-0.576 13.647,-0.553 11.499,1.683 L1.556,12.033 C0.807,12.814 -0.000,14.233 -0.000,15.503 C-0.000,16.694 0.447,17.817 1.257,18.659 C2.069,19.504 3.148,19.969 4.296,19.969 L4.296,19.969 C5.444,19.968 6.523,19.503 7.334,18.659 L15.917,9.725 C16.507,9.112 16.830,8.261 16.801,7.391 C16.774,6.593 16.460,5.843 15.917,5.279 C15.346,4.685 14.587,4.358 13.780,4.358 C12.972,4.358 12.214,4.685 11.644,5.279 L5.070,12.120 C4.904,12.291 4.801,12.527 4.801,12.788 C4.801,13.305 5.204,13.724 5.701,13.724 C5.949,13.724 6.174,13.620 6.337,13.451 L6.337,13.451 L12.917,6.603 C13.152,6.357 13.477,6.238 13.800,6.243 C14.110,6.248 14.418,6.369 14.645,6.604 C14.864,6.832 14.991,7.135 15.002,7.455 C15.014,7.813 14.886,8.150 14.644,8.401 L6.061,17.335 C5.589,17.825 4.963,18.095 4.296,18.096 L4.296,18.096 C3.629,18.096 3.002,17.825 2.530,17.335 C2.060,16.845 1.800,16.194 1.800,15.503 C1.800,14.921 2.272,13.939 2.830,13.358 L12.772,3.007 C14.229,1.490 16.593,1.480 18.063,2.970 L18.158,3.070 C19.568,4.604 19.548,7.045 18.099,8.553 L9.869,17.118 C9.704,17.288 9.602,17.523 9.602,17.783 C9.602,18.300 10.004,18.720 10.502,18.720 C10.750,18.720 10.974,18.616 11.137,18.446 L11.137,18.447 L19.372,9.878 C21.532,7.629 21.543,3.978 19.404,1.717 Z" class="cls-1"/>
</svg>
