<svg xmlns="http://www.w3.org/2000/svg" width="4.95mm" height="5.47mm" viewBox="0 0 14.032 15.505"><defs><style>.cls-1{isolation:isolate;}.cls-2{fill:#b4b4b4;fill-rule:evenodd;}</style></defs><title>clip_sk</title><g id="Фигура_2" data-name="Фигура 2" class="cls-1"><g id="Фигура_2-2" data-name="Фигура 2"><path class="cls-2" d="M13.631,10.921,7.206,4.5a1.979,1.979,0,0,0-2.8,2.8l3.543,3.543.707-.707L5.115,6.588A.979.979,0,0,1,6.5,5.2l6.424,6.425A1.958,1.958,0,0,1,10.154,14.4L2.333,6.576A3,3,0,0,1,6.576,2.333l6.351,6.351.707-.707L7.283,1.626A4,4,0,0,0,1.626,7.283L9.447,15.1a2.958,2.958,0,0,0,4.184-4.184Z" transform="translate(-0.461 -0.461)"/></g></g></svg>