<svg xmlns="http://www.w3.org/2000/svg" xmlns:xlink="http://www.w3.org/1999/xlink" preserveAspectRatio="xMidYMid" width="14" height="14" viewBox="0 0 14 14">
  <defs>
    <style>
      .cls-1 {
        fill: #000;
        fill-rule: evenodd;
      }
    </style>
  </defs>
  <path d="M7.000,13.999 C3.128,13.999 0.002,10.872 0.002,6.998 C0.002,3.124 3.128,-0.003 7.000,-0.003 C10.872,-0.003 13.997,3.124 13.997,6.998 C13.997,10.872 10.872,13.999 7.000,13.999 ZM7.000,1.242 C3.827,1.242 1.246,3.825 1.246,6.998 C1.246,10.172 3.827,12.755 7.000,12.755 C10.172,12.755 12.753,10.172 12.753,6.998 C12.753,3.825 10.172,1.242 7.000,1.242 ZM9.690,8.087 L6.673,8.087 C6.331,8.087 6.051,7.807 6.051,7.465 C6.051,7.418 6.051,7.356 6.067,7.310 C6.067,7.263 6.051,7.216 6.051,7.154 L6.051,4.136 C6.051,3.793 6.331,3.513 6.673,3.513 C7.015,3.513 7.295,3.793 7.295,4.136 L7.295,6.843 L9.690,6.843 C10.032,6.843 10.312,7.123 10.312,7.465 C10.312,7.807 10.032,8.087 9.690,8.087 Z" class="cls-1"/>
</svg>
