<svg xmlns="http://www.w3.org/2000/svg" width="18" height="18" viewBox="0 0 18 18">
  <defs>
    <style>
      .cls-1 {
        fill-rule: evenodd;
      }
    </style>
  </defs>
  <path  class="cls-1" d="M360.889,3322.08a2.789,2.789,0,0,1-1.027-.19,23.037,23.037,0,0,1-11.563-11.55,3.055,3.055,0,0,1,.771-3.26l2.368-2.37a2.12,2.12,0,0,1,3,0l2.368,2.37a2.11,2.11,0,0,1,0,2.99l-0.734.74a16.226,16.226,0,0,0,1.524,1.79,16.655,16.655,0,0,0,1.79,1.52l0.735-.74a2.138,2.138,0,0,1,3,0l2.367,2.37a2.124,2.124,0,0,1,0,3l-2.367,2.36A3.094,3.094,0,0,1,360.889,3322.08Zm-7.951-15.98a0.116,0.116,0,0,0-.078.03l-2.368,2.37a1.055,1.055,0,0,0-.333,1.08,21,21,0,0,0,10.524,10.47,1.01,1.01,0,0,0,1.017-.36l2.368-2.36a0.115,0.115,0,0,0,0-.16l-2.368-2.37a0.146,0.146,0,0,0-.156,0l-1.919,1.92-0.687-.46a17.209,17.209,0,0,1-5.008-5l-0.464-.69,1.919-1.92a0.1,0.1,0,0,0,0-.15l-2.368-2.37A0.116,0.116,0,0,0,352.938,3306.1Z" transform="translate(-348.125 -3304.09)"/>
</svg>
