<svg xmlns="http://www.w3.org/2000/svg" xmlns:xlink="http://www.w3.org/1999/xlink" preserveAspectRatio="xMidYMid" width="16" height="18" viewBox="0 0 16 18">
  <defs>
    <style>
      .cls-1 {
        fill: #000;
        fill-rule: evenodd;
      }
    </style>
  </defs>
  <path d="M16.000,13.000 C16.000,14.103 15.102,15.000 14.000,15.000 L14.000,16.000 C14.000,17.102 13.102,18.000 12.000,18.000 L2.000,18.000 C0.897,18.000 -0.000,17.102 -0.000,16.000 L-0.000,4.000 C-0.000,2.897 0.897,2.000 2.000,2.000 L3.000,2.000 C3.000,0.897 3.897,-0.000 5.000,-0.000 L11.000,-0.000 L11.000,1.000 L11.000,1.000 L11.707,0.293 L15.707,4.293 L15.000,4.999 L16.000,4.999 L16.000,13.000 ZM3.000,13.000 L3.000,9.000 L3.000,7.000 L3.000,4.000 L2.000,4.000 L2.000,16.000 L12.000,16.000 L12.000,15.000 L9.000,15.000 L8.000,15.000 L5.000,15.000 C3.897,15.000 3.000,14.103 3.000,13.000 ZM9.000,5.000 L9.000,2.000 L5.000,2.000 L5.000,7.000 L5.000,9.000 L5.000,13.000 L8.000,13.000 L9.000,13.000 L14.000,13.000 L14.000,7.000 L11.000,7.000 C9.897,7.000 9.000,6.103 9.000,5.000 ZM11.000,2.414 L11.000,5.000 L13.586,5.000 L11.000,2.414 Z" class="cls-1"/>
</svg>
