<svg xmlns="http://www.w3.org/2000/svg" xmlns:xlink="http://www.w3.org/1999/xlink" preserveAspectRatio="xMidYMid" width="20" height="20" viewBox="0 0 20 20">
  <defs>
    <style>
      .cls-1 {
        fill: #000;
        fill-rule: evenodd;
      }
    </style>
  </defs>
  <path d="M18.000,4.000 L15.000,4.000 L15.000,2.000 C15.000,0.897 14.103,-0.000 13.000,-0.000 L7.000,-0.000 C5.897,-0.000 5.000,0.897 5.000,2.000 L5.000,4.000 L2.000,4.000 C0.895,4.000 -0.000,4.895 -0.000,6.000 L-0.000,18.000 C-0.000,19.104 0.895,20.000 2.000,20.000 L18.000,20.000 C19.104,20.000 20.000,19.104 20.000,18.000 L20.000,6.000 C20.000,4.895 19.104,4.000 18.000,4.000 ZM7.000,2.000 L13.000,2.000 L13.000,4.000 L7.000,4.000 L7.000,2.000 ZM18.000,6.000 L18.000,7.411 L10.000,11.856 L2.000,7.411 L2.000,6.000 L18.000,6.000 ZM2.000,18.000 L2.000,9.699 L9.514,13.874 L10.000,13.000 L10.486,13.874 L18.000,9.699 L18.000,18.000 L2.000,18.000 Z" class="cls-1"/>
</svg>
