<svg xmlns="http://www.w3.org/2000/svg" xmlns:xlink="http://www.w3.org/1999/xlink" preserveAspectRatio="xMidYMid" width="10" height="10" viewBox="0 0 10 10">
  <defs>
    <style>
      .cls-1 {
        fill: #000;
        fill-rule: evenodd;
      }
    </style>
  </defs>
  <path d="M9.991,9.039 C9.982,9.281 9.891,9.521 9.706,9.706 C9.521,9.891 9.282,9.981 9.040,9.991 C8.770,10.002 8.498,9.912 8.292,9.706 L5.000,6.413 L1.708,9.706 C1.502,9.912 1.230,10.002 0.960,9.991 C0.718,9.981 0.479,9.891 0.294,9.706 C0.109,9.521 0.018,9.281 0.008,9.039 C-0.003,8.769 0.088,8.498 0.294,8.292 L3.586,5.000 L0.294,1.707 C0.088,1.501 -0.003,1.229 0.008,0.960 C0.018,0.718 0.109,0.478 0.294,0.293 C0.479,0.108 0.718,0.018 0.960,0.008 C1.230,-0.003 1.502,0.087 1.708,0.293 L5.000,3.585 L8.292,0.293 C8.498,0.087 8.770,-0.003 9.040,0.008 C9.282,0.018 9.521,0.108 9.706,0.293 C9.891,0.478 9.982,0.718 9.991,0.960 C10.003,1.229 9.912,1.501 9.706,1.707 L6.414,5.000 L9.706,8.292 C9.912,8.498 10.003,8.769 9.991,9.039 Z" class="cls-1"/>
</svg>
