<svg xmlns="http://www.w3.org/2000/svg" xmlns:xlink="http://www.w3.org/1999/xlink" preserveAspectRatio="xMidYMid" width="16" height="16" viewBox="0 0 16 16">
  <defs>
    <style>
      .cls-1 {
        fill: #000;
        fill-rule: evenodd;
      }
    </style>
  </defs>
  <path d="M8.642,15.998 C4.548,15.998 1.228,12.573 1.228,8.430 C1.228,8.231 1.236,8.400 1.251,7.703 L2.791,7.703 C3.168,7.703 3.471,7.539 3.492,7.159 C3.520,6.648 3.630,6.288 3.835,5.826 C4.040,5.362 4.310,4.943 4.670,4.578 C5.030,4.214 5.412,3.924 5.869,3.717 C6.326,3.510 6.748,3.390 7.253,3.362 C7.629,3.340 7.791,3.025 7.791,2.645 L7.791,1.087 C8.480,1.071 8.313,1.063 8.510,1.063 C12.605,1.063 15.991,4.388 15.991,8.531 C15.991,12.673 12.737,15.998 8.642,15.998 ZM11.826,5.343 C10.975,4.483 9.845,4.009 8.642,4.009 C7.440,4.009 6.309,4.483 5.459,5.343 C4.608,6.204 4.140,7.347 4.140,8.564 C4.140,9.781 4.608,10.924 5.459,11.785 C6.309,12.645 7.440,13.119 8.642,13.119 C9.845,13.119 10.975,12.645 11.826,11.785 C12.676,10.924 13.145,9.781 13.145,8.564 C13.145,7.347 12.676,6.204 11.826,5.343 ZM8.642,11.938 C6.803,11.938 5.307,10.424 5.307,8.564 C5.307,6.704 6.803,5.190 8.642,5.190 C10.481,5.190 11.977,6.704 11.977,8.564 C11.977,10.424 10.481,11.938 8.642,11.938 ZM8.729,11.473 C9.074,11.473 9.355,11.189 9.355,10.839 C9.355,10.490 9.074,10.206 8.729,10.206 C8.383,10.206 8.102,10.490 8.102,10.839 C8.102,11.189 8.383,11.473 8.729,11.473 ZM6.665,8.051 C6.320,8.051 6.039,8.335 6.039,8.685 C6.039,9.035 6.320,9.318 6.665,9.318 C7.011,9.318 7.292,9.035 7.292,8.685 C7.292,8.335 7.011,8.051 6.665,8.051 ZM8.733,6.031 C8.387,6.031 8.106,6.314 8.106,6.664 C8.106,7.014 8.387,7.298 8.733,7.298 C9.079,7.298 9.359,7.014 9.359,6.664 C9.359,6.314 9.079,6.031 8.733,6.031 ZM8.733,7.415 C8.009,7.415 7.423,8.008 7.423,8.739 C7.423,9.471 8.009,10.064 8.733,10.064 C9.456,10.064 10.042,9.471 10.042,8.739 C10.042,8.008 9.456,7.415 8.733,7.415 ZM11.420,8.750 C11.420,8.400 11.140,8.116 10.794,8.116 C10.448,8.116 10.168,8.400 10.168,8.750 C10.168,9.100 10.448,9.383 10.794,9.383 C11.140,9.383 11.420,9.100 11.420,8.750 ZM6.734,2.576 C5.699,2.635 4.607,3.095 3.869,3.842 C3.130,4.590 2.700,5.615 2.642,6.662 C2.634,6.799 2.522,7.006 2.386,7.006 L0.262,7.006 C0.117,7.006 0.000,6.861 0.006,6.715 C0.141,3.102 3.012,0.037 6.584,0.037 C6.587,0.037 6.590,0.037 6.593,0.037 C6.733,0.037 7.102,0.000 7.102,0.143 L7.102,2.293 C7.102,2.430 6.869,2.568 6.734,2.576 Z" class="cls-1"/>
</svg>
