<svg xmlns="http://www.w3.org/2000/svg" xmlns:xlink="http://www.w3.org/1999/xlink" preserveAspectRatio="xMidYMid" width="22" height="20" viewBox="0 0 22 20">
  <defs>
    <style>
      .cls-1 {
        fill: #111;
        fill-rule: evenodd;
      }
    </style>
  </defs>
  <path d="M4.005,19.986 C1.799,19.986 0.005,18.194 0.005,15.991 L0.005,4.005 C0.005,1.802 1.799,0.010 4.005,0.010 L18.005,0.010 C20.211,0.010 22.005,1.802 22.005,4.005 L22.005,15.991 C22.005,18.194 20.211,19.986 18.005,19.986 L4.005,19.986 ZM20.005,4.005 C20.005,2.904 19.107,2.008 18.005,2.008 L4.005,2.008 C2.902,2.008 2.005,2.904 2.005,4.005 L2.005,15.991 C2.005,17.093 2.902,17.989 4.005,17.989 L18.005,17.989 C19.107,17.989 20.005,17.093 20.005,15.991 L20.005,4.005 ZM6.460,10.997 C5.886,11.002 5.415,10.559 5.410,10.008 C5.404,9.456 5.866,9.005 6.440,8.999 L15.550,8.999 C16.124,8.994 16.594,9.437 16.600,9.989 C16.606,10.540 16.144,10.992 15.570,10.997 L6.460,10.997 ZM11.390,6.662 L6.020,6.662 C5.566,6.519 5.293,6.076 5.380,5.625 C5.322,5.204 5.581,4.802 6.000,4.664 L11.380,4.664 C11.834,4.806 12.105,5.252 12.010,5.702 C12.073,6.124 11.811,6.528 11.390,6.662 ZM6.240,13.304 L13.510,13.304 C14.084,13.404 14.466,13.933 14.362,14.484 C14.283,14.900 13.944,15.226 13.510,15.302 L6.240,15.302 C5.712,15.256 5.320,14.811 5.360,14.303 C5.327,13.797 5.715,13.357 6.240,13.304 Z" class="cls-1"/>
</svg>
