<svg xmlns="http://www.w3.org/2000/svg" xmlns:xlink="http://www.w3.org/1999/xlink" preserveAspectRatio="xMidYMid" width="22" height="20" viewBox="0 0 22 20">
  <defs>
    <style>
      .cls-1 {
        fill: #111;
        fill-rule: evenodd;
      }
    </style>
  </defs>
  <path d="M4.007,20.000 C1.801,20.000 0.007,18.204 0.007,15.998 L0.007,3.994 C0.007,1.788 1.801,-0.007 4.007,-0.007 L18.007,-0.007 C20.213,-0.007 22.007,1.788 22.007,3.994 L22.007,15.998 C22.007,18.204 20.213,20.000 18.007,20.000 L4.007,20.000 ZM20.007,3.994 C20.007,2.891 19.109,1.993 18.007,1.993 L4.007,1.993 C2.905,1.993 2.007,2.891 2.007,3.994 L2.007,15.998 C2.007,17.101 2.905,17.999 4.007,17.999 L18.007,17.999 C19.109,17.999 20.007,17.101 20.007,15.998 L20.007,3.994 ZM14.068,15.723 L14.068,15.723 L5.478,15.723 C4.903,15.719 4.441,15.269 4.444,14.716 C4.448,14.169 4.909,13.726 5.478,13.722 L14.068,13.722 C14.641,13.731 15.100,14.181 15.098,14.733 C15.098,15.279 14.638,15.722 14.070,15.723 C14.069,15.723 14.068,15.723 14.068,15.723 ZM14.088,12.072 L5.478,12.072 C4.903,12.052 4.453,11.571 4.472,10.996 C4.490,10.456 4.918,10.020 5.458,9.991 L14.068,9.991 C14.642,10.011 15.092,10.492 15.073,11.067 C15.055,11.607 14.627,12.043 14.088,12.072 ZM5.478,8.460 C4.907,8.457 4.446,7.992 4.448,7.420 L4.448,5.259 C4.447,4.691 4.907,4.230 5.476,4.229 C5.476,4.229 5.477,4.229 5.478,4.229 L9.238,4.229 C9.806,4.229 10.267,4.689 10.268,5.257 C10.268,5.258 10.268,5.259 10.268,5.259 L10.268,7.420 C10.269,7.992 9.809,8.457 9.238,8.460 L5.478,8.460 Z" class="cls-1"/>
</svg>
