<svg xmlns="http://www.w3.org/2000/svg" xmlns:xlink="http://www.w3.org/1999/xlink" preserveAspectRatio="xMidYMid" width="37" height="10" viewBox="0 0 37 10">
  <defs>
    <style>
      .cls-1 {
        fill: #000;
        fill-rule: evenodd;
      }
    </style>
  </defs>
  <path d="M31.955,10.000 C29.173,10.000 26.909,7.757 26.909,5.000 C26.909,2.243 29.173,0.000 31.955,0.000 C34.737,0.000 37.000,2.243 37.000,5.000 C37.000,7.757 34.737,10.000 31.955,10.000 ZM28.591,5.000 C28.591,6.838 30.100,8.333 31.955,8.333 C33.810,8.333 35.319,6.838 35.319,5.000 C35.319,3.162 33.810,1.667 31.955,1.667 C30.100,1.667 28.591,3.162 28.591,5.000 ZM13.455,5.000 C13.455,2.243 15.718,0.000 18.500,0.000 C21.283,0.000 23.546,2.243 23.546,5.000 C23.546,7.757 21.283,10.000 18.500,10.000 C15.718,10.000 13.455,7.757 13.455,5.000 ZM18.500,1.667 C16.646,1.667 15.137,3.162 15.137,5.000 C15.137,6.838 16.646,8.333 18.500,8.333 C20.355,8.333 21.864,6.838 21.864,5.000 C21.864,3.162 20.355,1.667 18.500,1.667 ZM0.000,5.000 C0.000,2.243 2.263,0.000 5.045,0.000 C7.828,0.000 10.091,2.243 10.091,5.000 C10.091,7.757 7.828,10.000 5.045,10.000 C2.263,10.000 0.000,7.757 0.000,5.000 ZM5.045,1.667 C3.191,1.667 1.682,3.162 1.682,5.000 C1.682,6.838 3.191,8.333 5.045,8.333 C6.900,8.333 8.409,6.838 8.409,5.000 C8.409,3.162 6.900,1.667 5.045,1.667 Z" class="cls-1"/>
</svg>
