<svg xmlns="http://www.w3.org/2000/svg" xmlns:xlink="http://www.w3.org/1999/xlink" preserveAspectRatio="xMidYMid" width="12" height="17" viewBox="0 0 12 17">
  <defs>
    <style>
      .cls-1 {
        fill: #000;
        fill-rule: evenodd;
      }
    </style>
  </defs>
  <path d="M11.000,17.000 L1.000,17.000 C0.448,17.000 -0.000,16.552 -0.000,15.999 C-0.000,15.447 0.448,15.000 1.000,15.000 L11.000,15.000 C11.552,15.000 12.000,15.447 12.000,15.999 C12.000,16.552 11.552,17.000 11.000,17.000 ZM8.000,12.000 C7.748,12.252 6.331,14.000 6.000,14.000 C5.670,14.000 4.252,12.252 4.000,12.000 L1.000,9.000 C0.495,8.495 0.495,7.504 1.000,7.000 C1.504,6.495 2.495,7.495 3.000,8.000 L5.000,10.000 L5.000,1.000 C5.000,0.287 5.287,-0.000 6.000,-0.000 C6.713,-0.000 6.999,0.354 7.000,1.000 L7.000,10.000 L9.000,8.000 C9.505,7.495 10.496,6.495 11.000,7.000 C11.505,7.504 11.505,8.495 11.000,9.000 L8.000,12.000 Z" class="cls-1"/>
</svg>
