<svg xmlns="http://www.w3.org/2000/svg" xmlns:xlink="http://www.w3.org/1999/xlink" preserveAspectRatio="xMidYMid" width="8" height="11" viewBox="0 0 8 11">
  <defs>
    <style>
      .cls-1 {
        fill: #000;
        fill-rule: evenodd;
      }
    </style>
  </defs>
  <path d="M7.143,3.988 C7.092,3.988 7.048,3.971 7.000,3.964 L7.000,3.988 L1.000,3.988 L1.000,3.964 C0.951,3.971 0.908,3.988 0.857,3.988 C0.384,3.988 -0.000,3.689 -0.000,3.322 C-0.000,3.148 0.087,2.992 0.227,2.873 L0.225,2.871 L3.368,0.207 C3.530,0.069 3.759,-0.010 4.000,-0.010 C4.240,-0.010 4.469,0.069 4.631,0.207 L7.774,2.871 L7.772,2.873 C7.912,2.992 8.000,3.148 8.000,3.322 C8.000,3.689 7.616,3.988 7.143,3.988 ZM0.857,7.012 C0.908,7.012 0.952,7.029 1.000,7.036 L1.000,7.012 L7.000,7.012 L7.000,7.036 C7.049,7.029 7.092,7.012 7.143,7.012 C7.616,7.012 8.000,7.310 8.000,7.678 C8.000,7.852 7.912,8.008 7.773,8.127 L7.775,8.128 L4.632,10.793 C4.469,10.931 4.241,11.009 4.000,11.009 C3.760,11.009 3.531,10.931 3.368,10.793 L0.226,8.128 L0.228,8.127 C0.088,8.008 0.000,7.852 0.000,7.678 C0.000,7.310 0.384,7.012 0.857,7.012 Z" class="cls-1"/>
</svg>
