<svg xmlns="http://www.w3.org/2000/svg" xmlns:xlink="http://www.w3.org/1999/xlink" preserveAspectRatio="xMidYMid" width="43" height="44" viewBox="0 0 43 44">
  <defs>
    <style>
      .cls-1 {
        fill: #000;
        fill-rule: evenodd;
      }
    </style>
  </defs>
  <path d="M39.027,44.002 L3.973,44.002 C1.783,44.002 0.001,42.207 0.001,40.001 L0.001,8.998 C0.001,6.792 1.783,4.998 3.973,4.998 L9.584,4.998 L9.584,0.997 C9.584,0.445 10.029,-0.003 10.577,-0.003 C11.126,-0.003 11.570,0.445 11.570,0.997 L11.570,4.998 L20.507,4.998 L20.507,0.997 C20.507,0.445 20.952,-0.003 21.500,-0.003 C22.048,-0.003 22.493,0.445 22.493,0.997 L22.493,4.998 L31.430,4.998 L31.430,0.997 C31.430,0.445 31.874,-0.003 32.423,-0.003 C32.971,-0.003 33.415,0.445 33.415,0.997 L33.415,4.998 L39.027,4.998 C41.217,4.998 42.999,6.792 42.999,8.998 L42.999,40.001 C42.999,42.207 41.217,44.002 39.027,44.002 ZM41.013,8.998 C41.013,7.895 40.122,6.998 39.027,6.998 L33.415,6.998 L33.415,10.998 C33.415,11.550 32.971,11.998 32.423,11.998 C31.874,11.998 31.430,11.550 31.430,10.998 L31.430,6.998 L22.493,6.998 L22.493,10.998 C22.493,11.550 22.048,11.998 21.500,11.998 C20.952,11.998 20.507,11.550 20.507,10.998 L20.507,6.998 L11.570,6.998 L11.570,10.998 C11.570,11.550 11.126,11.998 10.577,11.998 C10.029,11.998 9.584,11.550 9.584,10.998 L9.584,6.998 L3.973,6.998 C2.878,6.998 1.987,7.895 1.987,8.998 L1.987,40.001 C1.987,41.104 2.878,42.001 3.973,42.001 L39.027,42.001 C40.122,42.001 41.013,41.104 41.013,40.001 L41.013,8.998 ZM28.451,27.000 L36.394,27.000 L36.394,35.001 L28.451,35.001 L28.451,27.000 ZM30.437,33.000 L34.408,33.000 L34.408,29.000 L30.437,29.000 L30.437,33.000 ZM28.451,15.999 L36.394,15.999 L36.394,23.999 L28.451,23.999 L28.451,15.999 ZM30.437,21.999 L34.408,21.999 L34.408,17.999 L30.437,17.999 L30.437,21.999 ZM17.528,27.000 L25.472,27.000 L25.472,35.001 L17.528,35.001 L17.528,27.000 ZM19.514,33.000 L23.486,33.000 L23.486,29.000 L19.514,29.000 L19.514,33.000 ZM17.528,15.999 L25.472,15.999 L25.472,23.999 L17.528,23.999 L17.528,15.999 ZM19.514,21.999 L23.486,21.999 L23.486,17.999 L19.514,17.999 L19.514,21.999 ZM6.606,27.000 L14.549,27.000 L14.549,35.001 L6.606,35.001 L6.606,27.000 ZM8.592,33.000 L12.563,33.000 L12.563,29.000 L8.592,29.000 L8.592,33.000 ZM6.606,15.999 L14.549,15.999 L14.549,23.999 L6.606,23.999 L6.606,15.999 ZM8.592,21.999 L12.563,21.999 L12.563,17.999 L8.592,17.999 L8.592,21.999 Z" class="cls-1"/>
</svg>
