<svg xmlns="http://www.w3.org/2000/svg" xmlns:xlink="http://www.w3.org/1999/xlink" preserveAspectRatio="xMidYMid" width="22" height="22" viewBox="0 0 22 22">
  <defs>
    <style>
      .cls-1 {
        fill: #000;
        fill-rule: evenodd;
      }
    </style>
  </defs>
  <path d="M18.000,22.000 L4.000,22.000 C1.794,22.000 0.000,20.206 0.000,18.000 L0.000,4.000 C0.000,1.794 1.794,0.000 4.000,0.000 L18.000,0.000 C20.206,0.000 22.000,1.794 22.000,4.000 L22.000,18.000 C22.000,20.206 20.206,22.000 18.000,22.000 ZM18.000,20.000 C19.103,20.000 20.000,19.103 20.000,18.000 L20.000,17.178 L17.000,17.178 L17.000,20.000 L18.000,20.000 ZM15.000,20.000 L15.000,17.178 L12.000,17.178 L12.000,20.000 L15.000,20.000 ZM7.000,10.178 L10.000,10.178 L10.000,7.178 L7.000,7.178 L7.000,10.178 ZM7.000,12.178 L7.000,15.178 L10.000,15.178 L10.000,12.178 L7.000,12.178 ZM12.000,10.178 L15.000,10.178 L15.000,7.178 L12.000,7.178 L12.000,10.178 ZM12.000,12.178 L12.000,15.178 L15.000,15.178 L15.000,12.178 L12.000,12.178 ZM10.000,20.000 L10.000,17.178 L7.000,17.178 L7.000,20.000 L10.000,20.000 ZM4.000,20.000 L5.000,20.000 L5.000,17.178 L2.000,17.178 L2.000,18.000 C2.000,19.103 2.897,20.000 4.000,20.000 ZM5.000,2.000 L4.000,2.000 C2.897,2.000 2.000,2.897 2.000,4.000 L2.000,5.178 L5.000,5.178 L5.000,2.000 ZM5.000,7.178 L2.000,7.178 L2.000,10.178 L5.000,10.178 L5.000,7.178 ZM2.000,12.178 L2.000,15.178 L5.000,15.178 L5.000,12.178 L2.000,12.178 ZM20.000,4.000 C20.000,2.897 19.103,2.000 18.000,2.000 L7.000,2.000 L7.000,5.178 L20.000,5.178 L20.000,4.000 ZM20.000,7.178 L17.000,7.178 L17.000,10.178 L20.000,10.178 L20.000,7.178 ZM17.000,12.178 L17.000,15.178 L20.000,15.178 L20.000,12.178 L17.000,12.178 Z" class="cls-1"/>
</svg>
