<svg xmlns="http://www.w3.org/2000/svg" xmlns:xlink="http://www.w3.org/1999/xlink" preserveAspectRatio="xMidYMid" width="22" height="20" viewBox="0 0 22 20">
  <defs>
    <style>
      .cls-1 {
        fill: #111;
        fill-rule: evenodd;
      }
    </style>
  </defs>
  <path d="M3.991,20.002 C1.785,20.002 -0.009,18.207 -0.009,16.000 L-0.009,3.996 C-0.009,1.790 1.785,-0.005 3.991,-0.005 L17.991,-0.005 C20.197,-0.005 21.991,1.790 21.991,3.996 L21.991,16.000 C21.991,18.207 20.197,20.002 17.991,20.002 L3.991,20.002 ZM12.011,18.001 L15.123,18.001 L15.123,14.643 L12.011,14.643 L12.011,18.001 ZM12.011,12.614 L15.123,12.614 L15.123,9.467 L12.011,9.467 L12.011,12.614 ZM6.977,18.001 L9.961,18.001 L9.961,14.643 L6.977,14.643 L6.977,18.001 ZM6.977,12.614 L9.961,12.614 L9.961,9.467 L6.977,9.467 L6.977,12.614 ZM4.938,1.996 L3.991,1.996 C2.889,1.996 1.991,2.893 1.991,3.996 L1.991,7.438 L4.938,7.438 L4.938,1.996 ZM4.938,9.467 L1.991,9.467 L1.991,12.614 L4.938,12.614 L4.938,9.467 ZM4.938,14.643 L1.991,14.643 L1.991,16.000 C1.991,17.104 2.889,18.001 3.991,18.001 L4.938,18.001 L4.938,14.643 ZM19.991,3.996 C19.991,2.893 19.094,1.996 17.991,1.996 L6.977,1.996 L6.977,7.438 L19.991,7.438 L19.991,3.996 ZM19.991,9.467 L17.173,9.467 L17.173,12.614 L19.991,12.614 L19.991,9.467 ZM19.991,14.643 L17.173,14.643 L17.173,18.001 L17.991,18.001 C19.094,18.001 19.991,17.104 19.991,16.000 L19.991,14.643 Z" class="cls-1"/>
</svg>
