<svg xmlns="http://www.w3.org/2000/svg" xmlns:xlink="http://www.w3.org/1999/xlink" preserveAspectRatio="xMidYMid" width="19.625" height="20" viewBox="0 0 19.625 20">
  <defs>
    <style>
      .cls-1 {
        fill: #000;
        fill-rule: evenodd;
      }
    </style>
  </defs>
  <path d="M9.812,3.666 L11.145,6.572 C11.531,7.413 12.298,7.999 13.198,8.139 L16.372,8.636 L13.984,11.139 C13.386,11.767 13.110,12.658 13.248,13.523 L13.791,16.928 L11.130,15.423 C10.728,15.195 10.272,15.075 9.812,15.075 C9.352,15.075 8.896,15.195 8.493,15.423 L5.832,16.928 L6.375,13.523 C6.513,12.658 6.238,11.767 5.639,11.139 L3.252,8.636 L6.426,8.139 C7.325,7.999 8.092,7.413 8.478,6.572 L9.812,3.666 M9.812,-0.000 C9.536,-0.000 9.260,0.149 9.124,0.447 L6.702,5.724 C6.594,5.959 6.379,6.123 6.129,6.163 L0.653,7.018 C0.042,7.114 -0.208,7.877 0.224,8.330 L4.234,12.533 C4.402,12.710 4.479,12.958 4.440,13.201 L3.500,19.095 C3.420,19.597 3.810,20.000 4.250,20.000 C4.372,20.000 4.498,19.969 4.618,19.901 L9.444,17.172 C9.558,17.107 9.685,17.075 9.812,17.075 C9.938,17.075 10.065,17.107 10.179,17.172 L15.006,19.901 C15.126,19.969 15.251,20.000 15.373,20.000 C15.813,20.000 16.204,19.597 16.124,19.095 L15.184,13.201 C15.145,12.958 15.221,12.710 15.390,12.533 L19.399,8.330 C19.831,7.877 19.582,7.114 18.970,7.018 L13.495,6.163 C13.244,6.123 13.029,5.959 12.921,5.724 L10.500,0.447 C10.363,0.149 10.087,-0.000 9.812,-0.000 L9.812,-0.000 Z" class="cls-1"/>
</svg>
