<svg xmlns="http://www.w3.org/2000/svg" width="20" height="20" viewBox="0 0 20 20">
  <defs>
    <style>
      .cls-1 {
        fill: #4aa429;
        fill-rule: evenodd;
      }
    </style>
  </defs>
  <path id="Star" class="cls-1" d="M1103,28.458l1.48,3.319a1.848,1.848,0,0,0,1.34,1.077l4.19,0.839-2.87,2.87a1.883,1.883,0,0,0-.52,1.687l0.81,4.106-3.67-1.624a1.872,1.872,0,0,0-1.52,0l-3.67,1.626,0.81-4.108a1.881,1.881,0,0,0-.52-1.686l-2.87-2.872,4.19-.839a1.883,1.883,0,0,0,1.35-1.077l1.47-3.318M1103,25a0.809,0.809,0,0,0-.73.471l-2.46,5.543-6.18,1.237a0.81,0.81,0,0,0-.6.549,0.8,0.8,0,0,0,.2.79l4.31,4.3-1.21,6.157a0.776,0.776,0,0,0,.25.779,0.82,0.82,0,0,0,.5.17,0.717,0.717,0,0,0,.32-0.069l5.6-2.482,5.61,2.485a0.694,0.694,0,0,0,.31.069,0.788,0.788,0,0,0,.49-0.17,0.767,0.767,0,0,0,.26-0.781l-1.21-6.158,4.31-4.3a0.8,0.8,0,0,0,.2-0.789,0.811,0.811,0,0,0-.6-0.55l-6.18-1.237-2.47-5.544A0.782,0.782,0,0,0,1103,25h0Z" transform="translate(-1093 -25)"/>
</svg>
