<svg xmlns="http://www.w3.org/2000/svg" xmlns:xlink="http://www.w3.org/1999/xlink" preserveAspectRatio="xMidYMid" width="16" height="16" viewBox="0 0 16 16">
  <defs>
    <style>
      .cls-1 {
        fill: #000;
        fill-rule: evenodd;
      }
    </style>
  </defs>
  <path d="M8.306,3.883 L8.969,5.884 C9.131,6.257 9.460,6.527 9.851,6.607 L12.599,7.170 L10.714,9.097 C10.425,9.393 10.298,9.818 10.377,10.229 L10.903,12.985 L8.501,11.895 C8.343,11.823 8.173,11.786 8.003,11.786 C7.833,11.786 7.664,11.823 7.505,11.895 L5.102,12.986 L5.629,10.229 C5.707,9.818 5.580,9.393 5.291,9.097 L3.408,7.170 L6.155,6.607 C6.546,6.527 6.875,6.257 7.037,5.884 L7.694,3.883 L8.353,3.184 L8.306,3.883 ZM8.013,0.000 C7.763,0.000 7.535,0.149 7.432,0.377 L5.459,4.811 L0.507,5.801 C0.278,5.848 0.094,6.016 0.026,6.240 C-0.043,6.462 0.019,6.704 0.185,6.872 L3.634,10.312 L2.670,15.238 C2.622,15.478 2.685,15.711 2.871,15.861 C2.982,15.948 3.125,15.996 3.273,15.996 C3.362,15.996 3.450,15.978 3.528,15.942 L8.013,13.957 L12.505,15.945 C12.582,15.982 12.666,16.000 12.758,16.000 C12.900,16.000 13.041,15.952 13.152,15.864 C13.339,15.715 13.402,15.475 13.357,15.239 L12.390,10.312 L15.842,6.872 C16.008,6.706 16.070,6.464 16.002,6.241 C15.934,6.017 15.748,5.848 15.519,5.801 L10.568,4.811 L8.594,0.376 C8.492,0.147 8.264,0.000 8.013,0.000 L8.013,0.000 Z" class="cls-1"/>
</svg>
