<svg xmlns="http://www.w3.org/2000/svg" xmlns:xlink="http://www.w3.org/1999/xlink" preserveAspectRatio="xMidYMid" width="16" height="16" viewBox="0 0 16 16">
  <defs>
    <style>
      .cls-1 {
        fill: #000;
        fill-rule: evenodd;
      }
    </style>
  </defs>
  <path d="M8.013,0.000 C7.763,0.000 7.535,0.149 7.432,0.377 L5.459,4.812 L0.507,5.801 C0.278,5.848 0.094,6.016 0.026,6.240 C-0.043,6.462 0.019,6.704 0.185,6.872 L3.634,10.312 L2.670,15.238 C2.622,15.478 2.685,15.711 2.871,15.861 C2.982,15.948 3.125,15.996 3.273,15.996 C3.362,15.996 3.450,15.978 3.528,15.942 L8.013,13.957 L12.505,15.945 C12.582,15.982 12.666,16.000 12.758,16.000 C12.900,16.000 13.041,15.952 13.152,15.864 C13.339,15.715 13.402,15.475 13.357,15.239 L12.390,10.312 L15.842,6.872 C16.008,6.706 16.070,6.464 16.002,6.241 C15.934,6.017 15.748,5.848 15.519,5.801 L10.568,4.812 L8.594,0.376 C8.492,0.147 8.264,0.000 8.013,0.000 L8.013,0.000 Z" class="cls-1"/>
</svg>
