<svg xmlns="http://www.w3.org/2000/svg" xmlns:xlink="http://www.w3.org/1999/xlink" preserveAspectRatio="xMidYMid" width="15" height="15" viewBox="0 0 15 15">
  <defs>
    <style>
      .cls-1 {
        fill: #000;
        fill-rule: evenodd;
      }
    </style>
  </defs>
  <path d="M14.254,14.999 L0.746,14.999 C0.334,14.999 -0.000,14.667 -0.000,14.256 L-0.000,8.035 L6.235,9.596 L6.235,10.901 C6.235,11.106 6.403,11.273 6.609,11.273 L8.474,11.273 C8.680,11.273 8.847,11.106 8.847,10.901 L8.847,9.597 L15.000,8.041 L15.000,14.256 C15.000,14.667 14.666,14.999 14.254,14.999 ZM8.847,7.673 C8.847,7.467 8.680,7.301 8.474,7.301 L6.609,7.301 C6.403,7.301 6.235,7.467 6.235,7.673 L6.235,8.387 L-0.000,6.826 L-0.000,4.341 C-0.000,3.930 0.334,3.598 0.746,3.598 L14.254,3.598 C14.666,3.598 15.000,3.930 15.000,4.341 L15.000,6.832 L8.847,8.388 L8.847,7.673 ZM10.421,1.873 C10.421,1.318 9.967,0.866 9.410,0.866 L5.673,0.866 C5.116,0.866 4.662,1.318 4.662,1.873 L4.662,2.854 L3.784,2.854 L3.784,1.873 C3.784,0.836 4.632,-0.007 5.673,-0.007 L9.410,-0.007 C10.451,-0.007 11.298,0.836 11.298,1.873 L11.298,2.854 L10.421,2.854 L10.421,1.873 Z" class="cls-1"/>
</svg>
