<svg xmlns="http://www.w3.org/2000/svg" xmlns:xlink="http://www.w3.org/1999/xlink" preserveAspectRatio="xMidYMid" width="20" height="20" viewBox="0 0 20 20">
  <defs>
    <style>
      .cls-1 {
        fill: #010101;
        fill-rule: evenodd;
      }
    </style>
  </defs>
  <path d="M19.091,20.003 L0.909,20.003 C0.412,20.003 -0.000,19.591 -0.000,19.094 C-0.000,18.585 0.412,18.185 0.909,18.185 L1.212,18.185 L1.212,12.427 C1.212,10.584 2.703,9.093 4.546,9.093 L4.958,9.093 L4.958,4.547 C4.958,4.037 5.370,3.637 5.867,3.637 C6.376,3.637 6.776,4.037 6.776,4.547 L6.776,9.093 L9.091,9.093 L9.091,4.547 C9.091,4.037 9.503,3.637 10.000,3.637 C10.509,3.637 10.909,4.037 10.909,4.547 L10.909,9.093 L13.224,9.093 L13.224,4.547 C13.224,4.037 13.624,3.637 14.134,3.637 C14.630,3.637 15.043,4.037 15.043,4.547 L15.043,9.093 L15.454,9.093 C17.297,9.093 18.788,10.584 18.788,12.427 L18.788,18.185 L19.091,18.185 C19.600,18.185 20.000,18.585 20.000,19.094 C20.000,19.591 19.600,20.003 19.091,20.003 ZM3.030,18.185 L16.970,18.185 L16.970,15.312 C16.654,15.215 16.351,15.021 16.109,14.766 C16.024,14.669 15.915,14.633 15.794,14.633 C15.673,14.633 15.576,14.669 15.479,14.766 C15.042,15.227 14.436,15.457 13.855,15.457 C13.285,15.457 12.691,15.227 12.242,14.766 L11.939,14.633 C11.818,14.633 11.721,14.669 11.624,14.766 C11.188,15.227 10.582,15.457 10.000,15.457 C9.418,15.457 8.824,15.227 8.376,14.766 C8.291,14.669 8.182,14.633 8.061,14.633 L7.758,14.766 C7.321,15.227 6.715,15.457 6.145,15.457 C5.564,15.457 4.958,15.227 4.521,14.766 C4.424,14.669 4.327,14.633 4.206,14.633 C4.085,14.633 3.988,14.669 3.891,14.766 C3.648,15.021 3.345,15.215 3.030,15.312 L3.030,18.185 ZM16.970,12.427 L16.970,12.427 C16.970,11.590 16.291,10.911 15.455,10.911 L4.546,10.911 C3.709,10.911 3.030,11.590 3.030,12.427 L3.030,13.154 C3.394,12.924 3.806,12.815 4.206,12.815 C4.788,12.815 5.394,13.045 5.830,13.505 C5.927,13.602 6.024,13.639 6.146,13.639 L6.449,13.505 C6.897,13.045 7.491,12.815 8.061,12.815 C8.643,12.815 9.249,13.045 9.685,13.505 C9.782,13.602 9.879,13.639 10.000,13.639 C10.121,13.639 10.230,13.602 10.315,13.505 C10.764,13.045 11.358,12.815 11.939,12.815 C12.509,12.815 13.115,13.045 13.552,13.505 L13.855,13.639 C13.976,13.639 14.085,13.602 14.170,13.505 C14.606,13.045 15.212,12.815 15.794,12.815 C16.194,12.815 16.607,12.924 16.970,13.154 L16.970,12.427 ZM15.273,1.843 C15.067,2.292 14.521,2.498 14.073,2.279 C13.612,2.074 13.418,1.528 13.624,1.067 L13.891,0.522 C14.097,0.073 14.643,-0.133 15.091,0.085 C15.552,0.291 15.746,0.837 15.527,1.298 L15.273,1.843 ZM11.152,1.843 C10.933,2.292 10.388,2.498 9.939,2.279 C9.479,2.074 9.285,1.528 9.503,1.067 L9.757,0.522 C9.964,0.073 10.509,-0.133 10.958,0.085 C11.418,0.291 11.612,0.837 11.406,1.298 L11.152,1.843 ZM7.018,1.843 C6.800,2.292 6.267,2.498 5.806,2.279 C5.358,2.074 5.152,1.528 5.370,1.067 L5.624,0.522 C5.842,0.073 6.376,-0.133 6.837,0.085 C7.285,0.291 7.479,0.837 7.273,1.298 L7.018,1.843 Z" class="cls-1"/>
</svg>
