<svg xmlns="http://www.w3.org/2000/svg" xmlns:xlink="http://www.w3.org/1999/xlink" preserveAspectRatio="xMidYMid" width="20" height="20" viewBox="0 0 20 20">
  <defs>
    <style>
      .cls-1 {
        fill: #000;
        fill-rule: evenodd;
      }
    </style>
  </defs>
  <path d="M10.000,20.000 C4.486,20.000 -0.000,15.514 -0.000,10.000 C-0.000,4.486 4.486,-0.000 10.000,-0.000 C15.514,-0.000 20.000,4.486 20.000,10.000 C20.000,15.514 15.514,20.000 10.000,20.000 ZM10.000,2.000 C5.589,2.000 2.000,5.589 2.000,10.000 C2.000,14.411 5.589,18.000 10.000,18.000 C14.411,18.000 18.000,14.411 18.000,10.000 C18.000,5.589 14.411,2.000 10.000,2.000 ZM12.154,10.863 C11.435,11.241 11.000,11.470 11.000,13.000 L9.000,13.000 C9.000,10.262 10.338,9.558 11.223,9.093 C11.850,8.762 12.000,8.684 12.000,8.000 C12.000,7.791 11.951,7.480 11.532,7.209 C11.163,6.969 10.618,6.832 10.036,6.832 C9.249,6.832 8.000,7.149 8.000,8.000 L6.000,8.000 C6.000,6.164 7.697,4.832 10.036,4.832 C12.370,4.832 14.000,6.135 14.000,8.000 C14.000,9.892 12.889,10.476 12.154,10.863 ZM11.000,16.000 L9.000,16.000 L9.000,14.000 L11.000,14.000 L11.000,16.000 Z" class="cls-1"/>
</svg>
