<svg xmlns="http://www.w3.org/2000/svg" width="8.466mm" height="5.996mm" viewBox="0 0 23.998 16.995"><defs><style>.cls-1{isolation:isolate;}.cls-2{fill:#fff;fill-rule:evenodd;}</style></defs><title>eye_sk</title><g id="Фигура_1" data-name="Фигура 1" class="cls-1"><g id="Фигура_1-2" data-name="Фигура 1"><path class="cls-2" d="M23.5,6.755A13.563,13.563,0,0,0,11.987,0,13.565,13.565,0,0,0,.471,6.755a3.37,3.37,0,0,0,0,3.478,13.565,13.565,0,0,0,11.516,6.758A13.563,13.563,0,0,0,23.5,10.233,3.369,3.369,0,0,0,23.5,6.755ZM21.824,8.992a11.586,11.586,0,0,1-9.837,5.775A11.588,11.588,0,0,1,2.149,8.992a.975.975,0,0,1,0-1,11.588,11.588,0,0,1,9.838-5.775A11.586,11.586,0,0,1,21.824,8,.975.975,0,0,1,21.824,8.992ZM11.987,3.549A4.741,4.741,0,0,0,7.494,8.494a4.741,4.741,0,0,0,4.493,4.946,4.741,4.741,0,0,0,4.492-4.946A4.741,4.741,0,0,0,11.987,3.549Zm0,7.666A2.608,2.608,0,0,1,9.515,8.494a2.608,2.608,0,0,1,2.472-2.72,2.608,2.608,0,0,1,2.471,2.72A2.608,2.608,0,0,1,11.987,11.215Z" transform="translate(0.012 0.004)"/></g></g></svg>