<svg xmlns="http://www.w3.org/2000/svg" xmlns:xlink="http://www.w3.org/1999/xlink" preserveAspectRatio="xMidYMid" width="22" height="20" viewBox="0 0 22 20">
  <defs>
    <style>
      .cls-1 {
        fill: #111;
        fill-rule: evenodd;
      }
    </style>
  </defs>
  <path d="M4.000,20.004 C1.794,20.004 -0.000,18.209 -0.000,16.002 L-0.000,3.996 C-0.000,1.789 1.794,-0.006 4.000,-0.006 L18.000,-0.006 C20.206,-0.006 22.000,1.789 22.000,3.996 L22.000,16.002 C22.000,18.209 20.206,20.004 18.000,20.004 L4.000,20.004 ZM4.000,18.003 L4.243,18.003 L7.354,14.891 L5.627,13.163 L2.117,16.675 C2.393,17.449 3.133,18.003 4.000,18.003 ZM20.000,3.996 C20.000,2.892 19.103,1.995 18.000,1.995 L4.000,1.995 C2.897,1.995 2.000,2.892 2.000,3.996 L2.000,13.962 L5.627,10.333 L8.768,13.476 L14.102,8.140 L20.000,14.042 L20.000,3.996 ZM14.102,10.969 L7.071,18.003 L18.000,18.003 C18.845,18.003 19.569,17.476 19.862,16.733 L14.102,10.969 ZM5.879,6.479 C5.879,4.780 7.256,3.403 8.954,3.403 C10.651,3.403 12.028,4.780 12.028,6.479 C12.028,8.177 10.651,9.555 8.954,9.555 C7.256,9.555 5.879,8.177 5.879,6.479 Z" class="cls-1"/>
</svg>
