<svg xmlns="http://www.w3.org/2000/svg" xmlns:xlink="http://www.w3.org/1999/xlink" preserveAspectRatio="xMidYMid" width="22" height="20" viewBox="0 0 22 20">
  <defs>
    <style>
      .cls-1 {
        fill: #111;
        fill-rule: evenodd;
      }
    </style>
  </defs>
  <path d="M3.995,19.999 C1.788,19.999 -0.005,18.204 -0.005,15.998 L-0.005,3.994 C-0.005,1.787 1.788,-0.008 3.995,-0.008 L17.995,-0.008 C20.201,-0.008 21.995,1.787 21.995,3.994 L21.995,15.998 C21.995,18.204 20.201,19.999 17.995,19.999 L3.995,19.999 ZM19.995,3.994 C19.995,2.890 19.097,1.993 17.995,1.993 L3.995,1.993 C2.892,1.993 1.995,2.890 1.995,3.994 L1.995,15.998 C1.995,17.101 2.892,17.998 3.995,17.998 L17.995,17.998 C19.097,17.998 19.995,17.101 19.995,15.998 L19.995,3.994 ZM15.416,8.769 C15.442,9.084 15.434,9.401 15.393,9.715 C15.397,12.796 13.087,15.355 10.247,15.355 C10.245,15.355 10.244,15.355 10.242,15.355 C8.338,15.355 6.448,14.876 4.774,13.968 L4.057,13.579 L4.728,13.116 C5.767,12.399 6.387,11.217 6.386,9.953 C6.380,9.864 6.379,9.745 6.382,9.627 C6.454,7.288 8.430,5.472 10.751,5.510 C11.179,5.470 11.656,5.465 12.133,5.497 L14.355,3.678 C14.885,3.309 15.557,3.369 15.988,3.792 L17.112,4.923 C17.347,5.160 17.477,5.475 17.477,5.811 L17.477,5.814 C17.475,6.075 17.395,6.325 17.243,6.539 L15.416,8.769 ZM10.737,7.548 C10.662,7.549 10.602,7.549 10.540,7.554 C9.329,7.644 8.415,8.704 8.505,9.916 C8.506,10.990 8.241,12.001 7.732,12.897 C8.538,13.150 9.374,13.288 10.222,13.311 C12.068,13.307 13.354,11.380 13.354,9.650 C13.354,8.206 11.997,7.548 10.737,7.548 ZM15.025,5.841 L14.157,6.524 C14.237,6.597 14.313,6.673 14.385,6.753 L15.072,5.888 L15.025,5.841 Z" class="cls-1"/>
</svg>
