<svg xmlns="http://www.w3.org/2000/svg" xmlns:xlink="http://www.w3.org/1999/xlink" preserveAspectRatio="xMidYMid" width="20.781" height="20" viewBox="0 0 20.781 20">
  <defs>
    <style>
      .cls-1 {
        fill: #000;
        fill-rule: evenodd;
      }
    </style>
  </defs>
  <path d="M20.194,10.449 L20.157,10.485 L20.157,18.000 C20.157,19.103 19.253,20.000 18.141,20.000 L5.035,20.000 C3.923,20.000 3.019,19.103 3.019,18.000 L3.019,15.000 L2.011,15.000 C0.899,15.000 -0.005,14.135 -0.005,13.071 L-0.005,1.928 C-0.005,0.865 0.899,-0.000 2.011,-0.000 L10.076,-0.000 C11.100,-0.000 11.939,0.736 12.066,1.683 C12.838,1.239 13.830,1.310 14.490,1.964 L20.193,7.621 C20.979,8.401 20.979,9.669 20.194,10.449 ZM18.141,18.000 L18.141,12.485 L12.582,18.000 L18.141,18.000 ZM5.035,18.000 L8.650,18.000 L5.626,15.000 L5.035,15.000 L5.035,18.000 ZM10.076,1.928 L2.011,2.000 L2.011,13.071 L5.035,13.000 L10.076,13.000 C10.096,13.000 10.104,12.994 10.104,12.994 L10.076,1.928 ZM13.064,3.378 L12.092,4.343 L12.092,13.071 C12.092,14.135 11.188,15.000 10.076,15.000 L8.477,15.000 L10.616,17.121 L18.768,9.035 L13.064,3.378 ZM3.019,9.000 L9.068,9.000 L9.068,11.000 L3.019,11.000 L3.019,9.000 ZM3.019,6.000 L9.068,6.000 L9.068,8.000 L3.019,8.000 L3.019,6.000 ZM3.019,3.000 L9.068,3.000 L9.068,5.000 L3.019,5.000 L3.019,3.000 Z" class="cls-1"/>
</svg>
