<svg xmlns="http://www.w3.org/2000/svg" xmlns:xlink="http://www.w3.org/1999/xlink" preserveAspectRatio="xMidYMid" width="17" height="17" viewBox="0 0 17 17">
  <defs>
    <style>
      .cls-1 {
        fill: #000;
        fill-rule: evenodd;
      }
    </style>
  </defs>
  <path d="M8.500,-0.000 C3.806,-0.000 -0.000,3.805 -0.000,8.500 C-0.000,13.194 3.806,17.000 8.500,17.000 C13.194,17.000 17.000,13.194 17.000,8.500 C17.000,3.805 13.194,-0.000 8.500,-0.000 ZM8.500,14.000 C7.671,14.000 7.000,13.328 7.000,12.500 C7.000,11.671 7.671,11.000 8.500,11.000 C9.328,11.000 10.000,11.671 10.000,12.500 C10.000,13.328 9.328,14.000 8.500,14.000 ZM8.500,9.000 C7.671,9.000 7.000,5.328 7.000,4.500 C7.000,3.671 7.671,3.000 8.500,3.000 C9.328,3.000 10.000,3.671 10.000,4.500 C10.000,5.328 9.328,9.000 8.500,9.000 Z" class="cls-1"/>
</svg>
