<svg xmlns="http://www.w3.org/2000/svg" xmlns:xlink="http://www.w3.org/1999/xlink" preserveAspectRatio="xMidYMid" width="20.156" height="20.563" viewBox="0 0 20.156 20.563">
  <defs>
    <style>
      .cls-1 {
        fill: #000;
        fill-rule: evenodd;
      }
    </style>
  </defs>
  <path d="M18.282,6.579 C18.674,7.443 18.941,8.379 19.050,9.363 L19.106,9.363 L19.106,11.374 L5.949,11.374 C5.273,12.190 4.693,12.953 4.205,13.655 C5.364,15.876 7.626,17.408 10.255,17.408 C12.557,17.408 14.698,16.238 15.980,14.278 L17.615,15.398 C15.966,17.916 13.215,19.419 10.255,19.419 C8.929,19.419 7.674,19.111 6.544,18.574 C5.022,19.954 3.443,20.578 2.231,20.578 C1.526,20.578 0.944,20.372 0.572,19.991 C-0.421,18.975 -0.160,17.115 1.348,14.465 C1.526,14.152 1.752,13.818 1.959,13.493 C1.606,12.517 1.404,11.468 1.404,10.369 C1.404,5.378 5.375,1.318 10.255,1.318 C11.348,1.318 12.390,1.531 13.357,1.903 C13.613,1.736 13.879,1.545 14.126,1.398 C16.719,-0.145 18.537,-0.411 19.531,0.604 C20.591,1.689 20.323,4.324 18.282,6.579 ZM1.975,18.584 C2.208,18.681 3.406,18.527 4.780,17.466 C4.102,16.918 3.504,16.272 3.007,15.548 C2.080,17.203 1.815,18.282 1.975,18.584 ZM10.255,3.329 C6.796,3.329 3.953,5.961 3.470,9.363 L5.066,9.363 C5.684,8.644 6.338,7.924 7.034,7.212 C8.429,5.786 9.855,4.518 11.236,3.431 C10.913,3.383 10.591,3.329 10.255,3.329 ZM13.496,4.197 C12.056,5.233 10.343,6.673 8.425,8.634 C8.181,8.884 7.967,9.121 7.739,9.363 L17.067,9.363 C16.747,7.122 15.378,5.235 13.496,4.197 ZM18.115,1.996 C17.852,1.857 16.870,2.115 15.357,2.986 C16.055,3.492 16.677,4.097 17.205,4.783 C18.292,3.370 18.249,2.221 18.115,1.996 Z" class="cls-1"/>
</svg>
