<svg xmlns="http://www.w3.org/2000/svg" xmlns:xlink="http://www.w3.org/1999/xlink" preserveAspectRatio="xMidYMid" width="18" height="17" viewBox="0 0 18 17">
  <defs>
    <style>
      .cls-1 {
        fill: #000;
        fill-rule: evenodd;
      }
    </style>
  </defs>
  <path d="M17.592,7.245 L11.059,0.426 C10.798,0.153 10.443,-0.000 10.074,-0.000 L1.429,-0.000 C0.659,-0.000 0.000,0.651 0.000,1.454 L0.000,15.593 C0.000,16.396 0.659,17.000 1.429,17.000 L12.226,17.000 C12.226,13.421 14.811,11.020 18.000,11.020 L18.000,8.274 C18.000,7.888 17.853,7.518 17.592,7.245 ZM11.121,13.854 C10.663,14.686 9.809,15.202 8.892,15.202 C8.205,15.202 7.560,14.871 7.075,14.364 C6.827,14.105 6.636,13.421 6.509,13.421 L1.821,13.421 L1.849,11.632 L6.509,11.632 C6.636,11.632 6.827,10.941 7.075,10.682 C7.560,10.176 8.205,9.867 8.891,9.867 C9.578,9.867 10.223,10.132 10.708,10.638 C10.870,10.807 11.010,10.991 11.123,11.198 C11.173,11.289 11.173,11.402 11.122,11.492 C11.071,11.584 10.978,11.636 10.869,11.636 C10.869,11.636 9.582,11.640 9.154,11.640 C9.109,11.640 9.056,11.696 9.039,11.719 L9.064,11.736 C8.850,12.004 8.571,12.343 8.571,12.492 C8.571,12.502 8.571,12.510 8.571,12.520 C8.571,12.530 8.571,12.540 8.571,12.550 C8.571,12.702 8.854,13.046 9.073,13.318 L9.055,13.317 L9.054,13.331 C9.056,13.333 9.054,13.337 9.059,13.342 C9.085,13.369 9.128,13.401 9.197,13.401 C9.643,13.401 10.869,13.406 10.869,13.406 C10.979,13.406 11.047,13.453 11.085,13.492 C11.173,13.584 11.187,13.733 11.121,13.854 ZM11.947,8.090 L1.714,8.127 L1.714,1.789 L9.834,1.789 L14.734,6.861 C14.734,6.861 15.536,7.997 11.947,8.090 Z" class="cls-1"/>
</svg>
