<svg xmlns="http://www.w3.org/2000/svg" width="19" height="19" viewBox="0 0 19 19">
  <path id="link" class="cls-1" d="M941.957,401.631a0.39,0.39,0,0,1-.55.02l-3.061-3.06a0.392,0.392,0,0,1,.02-0.551l4.062-4.062-1.523-1.523-4.062,4.062a2.633,2.633,0,0,0-.137,3.713l3.061,3.061a2.633,2.633,0,0,0,3.713-.137l4.062-4.062-1.523-1.523Zm12.337-12.867-3.061-3.061a2.632,2.632,0,0,0-3.713.138l-4.061,4.06,1.523,1.523,4.061-4.06a0.391,0.391,0,0,1,.551-0.021l3.06,3.061a0.39,0.39,0,0,1-.02.55l-4.061,4.061,1.523,1.523,4.061-4.061A2.633,2.633,0,0,0,954.294,388.764Zm-5.695,1.111-7.721,7.721,1.523,1.523,7.721-7.721Z" transform="translate(-936 -385)"/>
</svg>
