<svg xmlns="http://www.w3.org/2000/svg" xmlns:xlink="http://www.w3.org/1999/xlink" preserveAspectRatio="xMidYMid" width="15" height="10" viewBox="0 0 15 10">
  <defs>
    <style>
      .cls-1 {
        fill: #000;
        fill-rule: evenodd;
      }
    </style>
  </defs>
  <path d="M13.817,0.003 L1.189,0.003 C0.534,0.003 0.002,0.516 0.002,1.146 L0.002,8.858 C0.002,9.488 0.534,10.000 1.189,10.000 L13.817,10.000 C14.472,10.000 15.005,9.488 15.005,8.858 L15.005,1.146 C15.004,0.516 14.472,0.003 13.817,0.003 ZM7.409,6.635 C7.389,6.653 7.374,6.666 7.363,6.674 C7.353,6.668 7.341,6.658 7.327,6.645 L1.751,0.977 L13.137,0.977 L7.409,6.635 ZM4.741,5.433 L1.014,8.513 L1.014,1.644 L4.741,5.433 ZM5.437,6.140 L6.602,7.324 C6.833,7.546 7.097,7.656 7.361,7.656 C7.628,7.656 7.895,7.544 8.128,7.319 L9.490,5.975 L13.097,9.026 L1.945,9.026 L5.437,6.140 ZM13.993,8.488 L10.197,5.276 L13.993,1.527 L13.993,8.488 Z" class="cls-1"/>
</svg>
