<svg xmlns="http://www.w3.org/2000/svg" xmlns:xlink="http://www.w3.org/1999/xlink" preserveAspectRatio="xMidYMid" width="16" height="20" viewBox="0 0 16 20">
  <defs>
    <style>
      .cls-1 {
        fill: #000;
        fill-rule: evenodd;
      }
    </style>
  </defs>
  <path d="M10.000,-0.000 L2.000,-0.000 C0.895,-0.000 -0.000,0.895 -0.000,2.000 L-0.000,18.000 C-0.000,19.105 0.895,20.000 2.000,20.000 L14.000,20.000 C15.105,20.000 16.000,19.105 16.000,18.000 L16.000,6.999 L10.000,-0.000 ZM10.000,3.073 L12.509,6.000 L10.000,6.000 L10.000,3.073 ZM2.000,18.000 L2.000,2.000 L8.000,2.000 L8.000,6.000 C8.000,7.103 8.897,8.000 10.000,8.000 L14.000,8.000 L14.000,18.000 L2.000,18.000 Z" class="cls-1"/>
</svg>
