<svg xmlns="http://www.w3.org/2000/svg" xmlns:xlink="http://www.w3.org/1999/xlink" preserveAspectRatio="xMidYMid" width="20" height="16" viewBox="0 0 20 16">
  <defs>
    <style>
      .cls-1 {
        fill: #000;
        fill-rule: evenodd;
      }
    </style>
  </defs>
  <path d="M18.000,16.000 L2.000,16.000 C0.895,16.000 -0.000,15.104 -0.000,14.000 L-0.000,2.000 C-0.000,0.895 0.895,-0.000 2.000,-0.000 L18.000,-0.000 C19.105,-0.000 20.000,0.895 20.000,2.000 L20.000,14.000 C20.000,15.104 19.105,16.000 18.000,16.000 ZM2.000,14.000 L18.000,14.000 L18.000,3.414 L10.707,10.707 L10.000,10.000 L9.293,10.707 L2.000,3.414 L2.000,14.000 ZM2.000,2.000 L2.000,2.000 L2.000,2.000 L2.000,2.000 ZM10.000,8.586 L16.586,2.000 L3.414,2.000 L10.000,8.586 ZM18.000,2.000 L18.000,2.000 L18.000,2.000 L18.000,2.000 Z" class="cls-1"/>
</svg>
