<svg xmlns="http://www.w3.org/2000/svg" xmlns:xlink="http://www.w3.org/1999/xlink" preserveAspectRatio="xMidYMid" width="19" height="17" viewBox="0 0 19 17">
  <defs>
    <style>
      .cls-1 {
        fill: #000;
        fill-rule: evenodd;
      }
    </style>
  </defs>
  <path d="M17.736,6.582 L18.128,8.202 C18.221,8.398 18.270,8.614 18.271,8.834 L18.284,11.531 C18.285,11.614 18.280,11.697 18.269,11.779 L17.904,14.682 L9.500,14.682 L1.096,14.682 L0.731,11.779 C0.720,11.697 0.715,11.614 0.716,11.531 L0.729,8.834 C0.730,8.614 0.779,8.398 0.872,8.202 L1.264,6.582 C1.264,6.582 0.000,6.236 0.000,5.409 C0.000,4.645 0.740,4.636 0.740,4.636 L1.719,4.636 L2.558,1.164 C2.738,0.667 3.191,0.393 3.692,0.339 C4.964,0.202 7.475,-0.000 9.500,-0.000 C11.525,-0.000 14.036,0.202 15.308,0.339 C15.809,0.393 16.262,0.667 16.442,1.164 L17.280,4.636 L18.261,4.636 C18.261,4.636 19.000,4.645 19.000,5.409 C19.000,6.236 17.736,6.582 17.736,6.582 ZM9.500,12.973 L17.082,12.973 L16.610,11.926 L9.500,11.913 L2.390,11.926 L1.918,12.973 L9.500,12.973 ZM15.435,2.118 C15.333,1.798 15.046,1.630 14.730,1.583 C13.578,1.409 11.677,1.244 9.500,1.244 C7.323,1.244 5.422,1.409 4.270,1.583 C3.954,1.630 3.667,1.798 3.565,2.118 L3.021,4.648 C5.115,4.906 9.500,4.781 9.500,4.781 C9.500,4.781 13.885,4.906 15.979,4.648 L15.435,2.118 ZM17.538,8.190 L14.376,8.552 L10.140,8.552 C9.963,8.430 9.742,8.355 9.500,8.355 C9.258,8.355 9.038,8.430 8.860,8.552 L4.623,8.552 L1.462,8.190 L1.462,9.703 L3.289,10.154 L5.115,9.856 L5.115,9.739 L8.587,9.739 C8.767,10.023 9.106,10.218 9.500,10.218 C9.894,10.218 10.233,10.023 10.413,9.739 L13.885,9.739 L13.885,9.856 L15.712,10.154 L17.538,9.703 L17.538,8.190 ZM10.550,9.286 C10.550,9.176 10.525,9.071 10.485,8.973 L13.885,8.973 L13.885,9.528 L10.510,9.528 C10.534,9.451 10.550,9.371 10.550,9.286 ZM8.490,9.528 L5.115,9.528 L5.115,8.973 L8.515,8.973 C8.475,9.071 8.449,9.176 8.449,9.286 C8.449,9.371 8.466,9.451 8.490,9.528 ZM3.974,16.375 C3.974,16.720 3.685,17.000 3.328,17.000 L1.696,17.000 C1.339,17.000 1.050,16.720 1.050,16.375 L1.050,14.682 L3.974,14.682 L3.974,16.375 ZM17.949,16.375 C17.949,16.720 17.661,17.000 17.304,17.000 L15.672,17.000 C15.315,17.000 15.026,16.720 15.026,16.375 L15.026,14.682 L17.949,14.682 L17.949,16.375 Z" class="cls-1"/>
</svg>
