<svg xmlns="http://www.w3.org/2000/svg" xmlns:xlink="http://www.w3.org/1999/xlink" preserveAspectRatio="xMidYMid" width="18" height="17" viewBox="0 0 18 17">
  <defs>
    <style>
      .cls-1 {
        fill: #000;
        fill-rule: evenodd;
      }
    </style>
  </defs>
  <path d="M17.512,6.489 L16.687,6.489 L16.075,7.135 C16.033,7.141 15.990,7.146 15.949,7.152 C10.936,7.917 9.372,11.134 9.000,12.271 C8.639,11.166 7.164,8.110 2.483,7.215 C2.306,7.181 2.112,7.162 1.925,7.135 L1.313,6.489 L0.488,6.489 C0.218,6.489 -0.000,6.284 -0.000,6.030 L-0.000,5.498 C-0.000,5.244 0.218,5.038 0.488,5.038 L1.889,5.038 C2.151,5.038 2.360,5.234 2.372,5.477 C2.412,5.334 2.440,5.189 2.485,5.048 L3.336,2.384 C3.172,2.281 3.057,2.113 3.057,1.913 C3.057,1.593 3.332,1.335 3.671,1.335 L3.753,1.335 C4.085,0.588 6.305,0.010 9.000,0.010 C11.696,0.010 13.916,0.588 14.247,1.335 L14.330,1.335 C14.669,1.335 14.943,1.593 14.943,1.913 C14.943,2.113 14.829,2.281 14.665,2.384 L15.515,5.048 C15.560,5.189 15.589,5.334 15.628,5.477 C15.640,5.233 15.849,5.038 16.111,5.038 L17.513,5.038 C17.782,5.038 18.000,5.244 18.000,5.498 L18.000,6.030 C18.000,6.284 17.782,6.489 17.512,6.489 ZM8.609,3.466 C8.609,3.114 8.306,2.828 7.931,2.828 L5.003,2.828 C4.675,2.828 4.395,3.048 4.336,3.350 L3.717,6.494 C3.681,6.680 3.734,6.872 3.862,7.018 C3.991,7.164 4.182,7.248 4.384,7.248 L7.931,7.248 C8.306,7.248 8.609,6.962 8.609,6.610 L8.609,3.466 ZM13.665,3.350 C13.606,3.048 13.326,2.828 12.999,2.828 L10.053,2.828 C9.678,2.828 9.375,3.114 9.375,3.466 L9.375,6.610 C9.375,6.962 9.678,7.248 10.053,7.248 L13.617,7.248 C13.818,7.248 14.009,7.164 14.138,7.018 C14.267,6.872 14.320,6.680 14.283,6.494 L13.665,3.350 ZM1.525,7.999 C6.446,8.765 8.124,11.978 8.380,12.865 L1.513,12.865 L1.560,9.232 C1.507,8.732 1.504,8.499 1.525,7.999 ZM4.367,12.366 C4.980,12.366 5.478,11.749 5.478,10.988 C5.478,10.226 4.980,9.609 4.367,9.609 C3.753,9.609 3.255,10.226 3.255,10.988 C3.255,11.749 3.753,12.366 4.367,12.366 ZM9.717,12.865 C9.974,11.978 11.579,8.765 16.500,7.999 C16.521,8.499 16.518,8.732 16.465,9.232 L16.512,12.865 L9.717,12.865 ZM13.433,9.609 C12.802,9.609 12.290,10.226 12.290,10.988 C12.290,11.749 12.802,12.366 13.433,12.366 C14.064,12.366 14.576,11.749 14.576,10.988 C14.576,10.226 14.064,9.609 13.433,9.609 ZM1.883,13.707 L16.117,13.707 C16.468,13.707 16.753,13.966 16.753,14.285 C16.753,14.604 16.468,14.863 16.117,14.863 L14.904,14.863 L14.904,16.363 C14.904,16.715 14.589,17.001 14.201,17.001 L12.664,17.001 C12.276,17.001 11.962,16.715 11.962,16.363 L11.962,14.863 L5.838,14.863 L5.838,16.363 C5.838,16.715 5.524,17.001 5.135,17.001 L3.598,17.001 C3.210,17.001 2.896,16.715 2.896,16.363 L2.896,14.863 L1.883,14.863 C1.532,14.863 1.247,14.604 1.247,14.285 C1.247,13.966 1.532,13.707 1.883,13.707 Z" class="cls-1"/>
</svg>
