<svg xmlns="http://www.w3.org/2000/svg" xmlns:xlink="http://www.w3.org/1999/xlink" preserveAspectRatio="xMidYMid" width="21.97" height="20" viewBox="0 0 21.97 20">
  <defs>
    <style>
      .cls-1 {
        fill: #111;
        fill-rule: evenodd;
      }
    </style>
  </defs>
  <path d="M3.987,19.986 C1.781,19.986 -0.013,18.194 -0.013,15.991 L-0.013,4.006 C-0.013,1.803 1.781,0.010 3.987,0.010 L17.987,0.010 C20.193,0.010 21.987,1.803 21.987,4.006 L21.987,15.991 C21.987,18.194 20.193,19.986 17.987,19.986 L3.987,19.986 ZM19.987,4.006 C19.987,2.904 19.089,2.008 17.987,2.008 L3.987,2.008 C2.884,2.008 1.987,2.904 1.987,4.006 L1.987,15.991 C1.987,17.093 2.884,17.989 3.987,17.989 L17.987,17.989 C19.089,17.989 19.987,17.093 19.987,15.991 L19.987,4.006 ZM15.400,12.785 L15.400,12.785 C14.105,12.760 13.076,11.692 13.100,10.398 C13.125,9.105 14.195,8.077 15.490,8.101 C16.769,8.126 17.792,9.170 17.790,10.448 C17.776,11.752 16.706,12.799 15.400,12.785 ZM15.606,10.888 C15.812,10.840 15.958,10.658 15.960,10.448 C15.929,10.170 15.679,9.968 15.400,9.998 C15.154,10.055 15.001,10.300 15.058,10.546 C15.115,10.792 15.360,10.944 15.606,10.888 ZM10.830,12.795 C10.757,12.797 10.683,12.793 10.610,12.785 C9.734,12.683 9.022,12.100 8.723,11.321 C8.395,12.248 7.521,12.921 6.480,12.945 L6.480,12.945 C5.113,12.999 3.961,11.935 3.908,10.570 C3.854,9.204 4.919,8.054 6.286,8.000 C7.400,7.957 8.371,8.655 8.721,9.654 C8.848,9.308 9.051,8.992 9.320,8.730 C9.767,8.294 10.376,8.066 11.000,8.101 L11.050,8.101 C11.650,8.169 12.197,8.475 12.570,8.950 C13.371,9.957 13.235,11.415 12.260,12.256 C11.864,12.603 11.356,12.794 10.830,12.795 ZM6.480,9.898 C6.162,9.884 5.893,10.130 5.879,10.447 C5.864,10.765 6.110,11.034 6.428,11.048 C6.746,11.062 7.015,10.816 7.030,10.499 C7.030,10.489 7.030,10.478 7.030,10.468 C7.031,10.160 6.787,9.908 6.480,9.898 ZM11.160,10.158 C11.098,10.073 11.004,10.015 10.900,9.998 C10.771,9.995 10.645,10.041 10.550,10.128 C10.458,10.226 10.401,10.353 10.390,10.488 C10.406,10.703 10.575,10.876 10.790,10.897 C10.902,10.904 11.013,10.868 11.100,10.797 C11.194,10.721 11.252,10.609 11.260,10.488 C11.277,10.368 11.241,10.248 11.160,10.158 Z" class="cls-1"/>
</svg>
