<svg xmlns="http://www.w3.org/2000/svg" xmlns:xlink="http://www.w3.org/1999/xlink" preserveAspectRatio="xMidYMid" width="20" height="20" viewBox="0 0 20 20">
  <defs>
    <style>
      .cls-1 {
        fill: #000;
        fill-rule: evenodd;
      }
    </style>
  </defs>
  <path d="M18.000,-0.000 L2.000,-0.000 C0.895,-0.000 -0.000,0.895 -0.000,2.000 L-0.000,12.000 C-0.000,13.105 0.895,14.000 2.000,14.000 L7.000,14.000 L7.000,18.000 L4.000,18.000 L4.000,20.000 L7.000,20.000 L13.000,20.000 L16.000,20.000 L16.000,18.000 L13.000,18.000 L13.000,14.000 L18.000,14.000 C19.105,14.000 20.000,13.105 20.000,12.000 L20.000,2.000 C20.000,0.895 19.105,-0.000 18.000,-0.000 ZM11.000,18.000 L9.000,18.000 L9.000,14.000 L11.000,14.000 L11.000,18.000 ZM18.000,12.000 L13.000,12.000 L7.000,12.000 L2.000,12.000 L2.000,2.000 L18.000,2.000 L18.000,12.000 Z" class="cls-1"/>
</svg>
