<svg xmlns="http://www.w3.org/2000/svg" xmlns:xlink="http://www.w3.org/1999/xlink" preserveAspectRatio="xMidYMid" width="22" height="22" viewBox="0 0 22 22">
  <defs>
    <style>
      .cls-1 {
        fill: #000;
        fill-rule: evenodd;
      }
    </style>
  </defs>
  <path d="M18.000,22.000 L4.000,22.000 C1.795,22.000 -0.000,20.206 -0.000,18.000 L-0.000,4.000 C-0.000,1.794 1.795,0.000 4.000,0.000 L18.000,0.000 C20.206,0.000 22.000,1.794 22.000,4.000 L22.000,18.000 C22.000,20.206 20.206,22.000 18.000,22.000 ZM20.000,4.000 C20.000,2.897 19.103,2.000 18.000,2.000 L4.000,2.000 C2.897,2.000 2.000,2.897 2.000,4.000 L2.000,18.000 C2.000,19.103 2.897,20.000 4.000,20.000 L18.000,20.000 C19.103,20.000 20.000,19.103 20.000,18.000 L20.000,4.000 ZM4.251,16.053 L17.710,16.053 L17.710,17.685 L4.251,17.685 L4.251,16.053 ZM4.251,13.053 L17.710,13.053 L17.710,14.684 L4.251,14.684 L4.251,13.053 ZM12.267,10.562 L6.267,10.562 C5.164,10.562 4.267,9.666 4.267,8.562 L4.267,6.563 C4.267,5.459 5.164,4.563 6.267,4.563 L12.267,4.563 C13.370,4.563 14.267,5.459 14.267,6.563 L14.267,8.562 C14.267,9.666 13.370,10.562 12.267,10.562 ZM12.267,6.563 L6.267,6.563 L6.267,8.562 L12.269,8.562 L12.267,6.563 Z" class="cls-1"/>
</svg>
