<svg xmlns="http://www.w3.org/2000/svg" xmlns:xlink="http://www.w3.org/1999/xlink" preserveAspectRatio="xMidYMid" width="19" height="19" viewBox="0 0 19 19">
  <defs>
    <style>
      .cls-1 {
        fill: #000;
        fill-rule: evenodd;
      }
    </style>
  </defs>
  <path d="M13.963,19.000 C13.466,19.000 12.976,18.916 12.507,18.751 C6.705,16.698 2.109,11.981 0.212,6.133 C-0.357,4.375 0.247,2.441 1.716,1.321 L2.652,0.607 C3.172,0.210 3.795,0.000 4.452,0.000 C5.568,0.000 6.581,0.618 7.093,1.614 L8.676,4.689 C8.826,4.981 8.905,5.309 8.905,5.637 C8.905,6.157 8.711,6.656 8.358,7.040 L8.029,7.399 C7.700,7.755 7.630,8.282 7.851,8.712 C8.392,9.759 9.232,10.599 10.281,11.139 C10.703,11.357 11.247,11.283 11.595,10.963 L11.955,10.634 C12.579,10.059 13.553,9.927 14.307,10.315 L17.385,11.897 C18.381,12.408 19.001,13.420 19.001,14.536 C19.001,15.320 18.696,16.060 18.143,16.620 L17.072,17.704 C16.258,18.528 15.125,19.000 13.963,19.000 ZM4.452,1.780 C4.189,1.780 3.941,1.864 3.734,2.022 L2.797,2.736 C1.927,3.399 1.570,4.544 1.907,5.584 C3.634,10.909 7.819,15.204 13.101,17.072 C14.027,17.400 15.116,17.149 15.804,16.453 L16.875,15.369 C17.097,15.145 17.219,14.849 17.219,14.536 C17.219,14.090 16.971,13.685 16.571,13.480 L13.493,11.898 C13.369,11.835 13.217,11.891 13.159,11.944 L12.800,12.274 C11.913,13.087 10.537,13.273 9.465,12.721 C8.085,12.010 6.978,10.906 6.268,9.527 C5.706,8.437 5.885,7.097 6.716,6.195 L7.045,5.837 C7.081,5.798 7.123,5.731 7.123,5.637 C7.123,5.590 7.112,5.545 7.091,5.503 L5.509,2.428 C5.303,2.028 4.898,1.780 4.452,1.780 Z" class="cls-1"/>
</svg>
