<svg xmlns="http://www.w3.org/2000/svg" xmlns:xlink="http://www.w3.org/1999/xlink" preserveAspectRatio="xMidYMid" width="31" height="16" viewBox="0 0 31 16">
  <defs>
    <style>
      .cls-1 {
        fill: #000;
        fill-rule: evenodd;
      }
    </style>
  </defs>
  <path d="M29.133,13.193 L26.499,13.901 C25.820,15.146 24.517,16.000 23.000,16.000 C21.523,16.000 20.248,15.190 19.555,14.000 L10.445,14.000 C9.752,15.190 8.477,16.000 7.000,16.000 C5.449,16.000 4.119,15.107 3.455,13.817 L3.445,13.832 L-0.000,11.535 L-0.000,6.236 C-0.000,5.003 1.003,4.000 2.236,4.000 C2.326,4.000 2.407,3.949 2.448,3.869 L3.465,1.834 C4.030,0.703 5.168,-0.000 6.434,-0.000 L15.887,-0.000 C16.872,-0.000 17.798,0.383 18.494,1.080 L21.503,4.089 L28.464,5.673 C29.923,5.965 31.000,7.279 31.000,8.792 L31.000,10.916 C31.000,12.019 30.215,12.977 29.133,13.193 ZM23.000,14.000 C24.103,14.000 25.000,13.103 25.000,12.000 C25.000,10.897 24.103,10.000 23.000,10.000 C21.897,10.000 21.000,10.897 21.000,12.000 C21.000,13.103 21.897,14.000 23.000,14.000 ZM7.000,14.000 C8.103,14.000 9.000,13.103 9.000,12.000 C9.000,10.897 8.103,10.000 7.000,10.000 C5.897,10.000 5.000,10.897 5.000,12.000 C5.000,13.103 5.897,14.000 7.000,14.000 ZM29.000,8.792 C29.000,8.229 28.599,7.740 28.046,7.629 L20.497,5.911 L17.080,2.494 C16.762,2.175 16.338,2.000 15.887,2.000 L6.434,2.000 C5.931,2.000 5.478,2.279 5.254,2.728 L4.236,4.764 C3.853,5.527 3.088,6.000 2.236,6.000 C2.106,6.000 2.000,6.106 2.000,6.236 L2.000,10.465 L3.083,11.187 C3.459,9.368 5.069,8.000 7.000,8.000 C9.209,8.000 11.000,9.791 11.000,12.000 L19.000,12.000 C19.000,9.791 20.791,8.000 23.000,8.000 C25.108,8.000 26.816,9.636 26.970,11.704 L28.678,11.246 C28.891,11.202 29.000,11.069 29.000,10.916 L29.000,8.792 Z" class="cls-1"/>
</svg>
