<svg xmlns="http://www.w3.org/2000/svg" xmlns:xlink="http://www.w3.org/1999/xlink" preserveAspectRatio="xMidYMid" width="20" height="20" viewBox="0 0 20 20">
  <defs>
    <style>
      .cls-1 {
        fill: #000;
        fill-rule: evenodd;
      }
    </style>
  </defs>
  <path d="M18.000,16.000 L16.000,16.000 C14.895,16.000 14.000,15.105 14.000,14.000 L14.000,2.000 C14.000,0.895 14.895,-0.000 16.000,-0.000 L18.000,-0.000 C19.105,-0.000 20.000,0.895 20.000,2.000 L20.000,14.000 C20.000,15.105 19.105,16.000 18.000,16.000 ZM18.000,2.000 L16.000,2.000 L16.000,14.000 L18.000,14.000 L18.000,2.000 ZM11.000,16.000 L9.000,16.000 C7.895,16.000 7.000,15.105 7.000,14.000 L7.000,7.000 C7.000,5.895 7.895,5.000 9.000,5.000 L11.000,5.000 C12.105,5.000 13.000,5.895 13.000,7.000 L13.000,14.000 C13.000,15.105 12.105,16.000 11.000,16.000 ZM11.000,7.000 L9.000,7.000 L9.000,14.000 L11.000,14.000 L11.000,7.000 ZM4.000,16.000 L2.000,16.000 C0.895,16.000 -0.000,15.105 -0.000,14.000 L-0.000,12.000 C-0.000,10.895 0.895,10.000 2.000,10.000 L4.000,10.000 C5.105,10.000 6.000,10.895 6.000,12.000 L6.000,14.000 C6.000,15.105 5.105,16.000 4.000,16.000 ZM4.000,12.000 L2.000,12.000 L2.000,14.000 L4.000,14.000 L4.000,12.000 ZM1.000,18.000 L19.000,18.000 C19.552,18.000 20.000,18.447 20.000,19.000 C20.000,19.552 19.552,20.000 19.000,20.000 L1.000,20.000 C0.448,20.000 -0.000,19.552 -0.000,19.000 C-0.000,18.447 0.448,18.000 1.000,18.000 Z" class="cls-1"/>
</svg>
