<svg xmlns="http://www.w3.org/2000/svg" xmlns:xlink="http://www.w3.org/1999/xlink" preserveAspectRatio="xMidYMid" width="20" height="20" viewBox="0 0 20 20">
  <defs>
    <style>
      .cls-1 {
        fill: #000;
        fill-rule: evenodd;
      }
    </style>
  </defs>
  <path d="M19.169,20.001 C19.113,20.010 19.059,20.014 19.004,20.014 C18.524,20.014 18.100,19.667 18.019,19.178 L15.898,6.430 L14.007,14.006 C14.007,14.217 13.965,14.415 13.906,14.606 C13.994,14.803 14.033,15.024 13.977,15.251 L12.977,19.256 C12.864,19.710 12.457,20.014 12.008,20.014 C11.929,20.014 11.847,20.005 11.766,19.984 C11.229,19.850 10.904,19.307 11.038,18.770 L11.727,16.009 L3.011,16.009 C2.938,16.009 2.868,15.995 2.797,15.987 L1.981,19.256 C1.868,19.710 1.461,20.014 1.013,20.014 C0.933,20.014 0.851,20.005 0.770,19.984 C0.234,19.850 -0.092,19.307 0.042,18.770 L1.042,14.765 C1.056,14.707 1.092,14.663 1.115,14.611 C1.054,14.419 1.012,14.219 1.012,14.006 L4.011,1.991 C4.011,0.885 4.906,-0.012 6.010,-0.012 L15.006,-0.012 C15.218,-0.012 15.418,0.030 15.609,0.091 C15.685,0.057 15.757,0.016 15.842,0.002 C16.389,-0.087 16.902,0.280 16.992,0.825 L19.991,18.848 C20.082,19.394 19.714,19.909 19.169,20.001 ZM6.010,1.991 L6.010,2.237 L5.950,2.477 L3.073,14.006 L12.008,14.006 L12.008,13.760 L12.067,13.521 L14.945,1.991 L6.010,1.991 ZM8.009,3.993 L12.008,3.993 L12.008,5.996 L8.009,5.996 L8.009,3.993 ZM11.008,9.000 L7.009,9.000 L7.009,6.998 L11.008,6.998 L11.008,9.000 ZM10.008,12.004 L6.010,12.004 L6.010,10.002 L10.008,10.002 L10.008,12.004 Z" class="cls-1"/>
</svg>
