<svg xmlns="http://www.w3.org/2000/svg" xmlns:xlink="http://www.w3.org/1999/xlink" preserveAspectRatio="xMidYMid" width="22" height="20" viewBox="0 0 22 20">
  <defs>
    <style>
      .cls-1 {
        fill: #111;
        fill-rule: evenodd;
      }
    </style>
  </defs>
  <path d="M18.000,20.000 L4.000,20.000 C1.794,20.000 -0.000,18.206 -0.000,16.000 L-0.000,4.000 C-0.000,1.794 1.794,-0.000 4.000,-0.000 L18.000,-0.000 C20.206,-0.000 22.000,1.794 22.000,4.000 L22.000,16.000 C22.000,18.206 20.206,20.000 18.000,20.000 ZM20.000,4.000 C20.000,2.897 19.103,2.000 18.000,2.000 L4.000,2.000 C2.897,2.000 2.000,2.897 2.000,4.000 L2.000,16.000 C2.000,17.103 2.897,18.000 4.000,18.000 L18.000,18.000 C19.103,18.000 20.000,17.103 20.000,16.000 L20.000,4.000 ZM15.851,6.429 L15.851,10.414 C15.851,11.517 14.953,12.414 13.851,12.414 L12.542,12.414 L14.173,14.744 L12.548,15.881 L10.986,13.649 L9.423,15.881 L7.798,14.744 L9.429,12.414 L8.156,12.414 C7.054,12.414 6.156,11.517 6.156,10.414 L6.156,6.429 C6.156,6.426 6.157,6.424 6.157,6.421 L5.435,6.421 L5.435,4.438 L8.071,4.438 C8.100,4.436 8.127,4.429 8.156,4.429 L13.851,4.429 C13.880,4.429 13.907,4.436 13.935,4.438 L16.566,4.438 L16.566,6.421 L15.850,6.421 C15.850,6.424 15.851,6.426 15.851,6.429 ZM8.156,6.429 L8.156,10.414 L13.848,10.414 L13.851,6.429 L8.156,6.429 ZM11.485,9.387 L10.493,9.387 C9.948,9.387 9.502,8.941 9.502,8.396 C9.502,7.850 9.948,7.404 10.493,7.404 L11.485,7.404 C12.030,7.404 12.477,7.850 12.477,8.396 C12.477,8.941 12.030,9.387 11.485,9.387 Z" class="cls-1"/>
</svg>
