<svg xmlns="http://www.w3.org/2000/svg" xmlns:xlink="http://www.w3.org/1999/xlink" preserveAspectRatio="xMidYMid" width="20" height="20" viewBox="0 0 20 20">
  <defs>
    <style>
      .cls-1 {
        fill: #000;
        fill-rule: evenodd;
      }
    </style>
  </defs>
  <path d="M15.000,20.000 L14.000,20.000 L5.000,20.000 C2.238,20.000 -0.000,17.761 -0.000,15.000 L-0.000,2.000 C-0.000,0.895 0.895,-0.000 2.000,-0.000 L14.000,-0.000 C15.104,-0.000 16.000,0.895 16.000,2.000 L16.000,7.000 L18.000,7.000 C19.104,7.000 20.000,7.895 20.000,9.000 L20.000,15.000 C20.000,17.761 17.761,20.000 15.000,20.000 ZM18.000,9.000 L16.000,9.000 L16.000,15.000 C16.000,15.552 15.552,16.000 15.000,16.000 C14.447,16.000 14.000,15.552 14.000,15.000 L14.000,9.000 L14.000,2.000 L2.000,2.000 L2.000,15.000 C2.000,16.657 3.343,18.000 5.000,18.000 L14.000,18.000 L16.000,18.000 L16.000,17.828 C17.164,17.416 18.000,16.304 18.000,15.000 L18.000,9.000 ZM4.000,10.000 L12.000,10.000 L12.000,12.000 L4.000,12.000 L4.000,10.000 ZM8.000,7.000 L12.000,7.000 L12.000,9.000 L8.000,9.000 L8.000,7.000 ZM8.000,4.000 L12.000,4.000 L12.000,6.000 L8.000,6.000 L8.000,4.000 ZM4.000,4.000 L7.000,4.000 L7.000,9.000 L4.000,9.000 L4.000,4.000 ZM10.000,15.000 L4.000,15.000 L4.000,13.000 L10.000,13.000 L10.000,15.000 Z" class="cls-1"/>
</svg>
