<svg xmlns="http://www.w3.org/2000/svg" xmlns:xlink="http://www.w3.org/1999/xlink" preserveAspectRatio="xMidYMid" width="19.781" height="20" viewBox="0 0 19.781 20">
  <defs>
    <style>
      .cls-1 {
        fill: #000;
        fill-rule: evenodd;
      }
    </style>
  </defs>
  <path d="M14.649,13.005 C16.532,13.515 19.129,14.215 19.786,16.763 C19.886,17.151 19.482,17.575 19.166,17.955 C18.184,19.135 15.539,19.823 10.791,19.969 L10.791,20.000 C10.435,20.000 10.122,19.989 9.786,19.984 C9.450,19.989 9.136,20.000 8.780,20.000 L8.780,19.969 C4.041,19.823 1.433,19.135 0.451,17.955 C0.135,17.575 -0.104,17.151 -0.004,16.763 C0.653,14.215 3.171,13.515 5.054,13.005 C6.298,12.667 7.152,12.397 7.167,12.010 C7.092,11.971 6.960,11.921 6.869,11.882 C5.469,11.280 4.208,10.281 4.208,6.000 C4.208,4.400 5.345,1.185 8.780,0.261 L8.780,-0.000 C9.166,-0.000 9.528,0.018 9.870,0.050 C10.163,0.018 10.470,-0.000 10.791,-0.000 L10.791,0.180 C14.955,0.992 15.425,4.355 15.425,6.000 C15.425,10.281 14.079,11.280 12.679,11.882 C12.592,11.920 12.554,11.967 12.479,12.005 C12.553,12.418 13.453,12.680 14.649,13.005 ZM11.914,10.061 C12.650,9.745 13.290,9.352 13.290,6.000 C13.290,5.279 12.877,2.573 9.786,2.083 C6.701,2.573 6.318,5.279 6.318,6.000 C6.318,9.352 7.114,9.745 7.849,10.061 C8.382,10.290 9.313,10.715 9.313,12.000 C9.313,13.930 7.246,14.483 5.609,14.927 C3.827,15.410 2.800,15.824 2.319,16.864 C2.828,17.181 4.564,17.914 9.857,17.992 C15.912,17.914 16.813,17.181 17.321,16.864 C16.841,15.824 15.737,15.410 13.955,14.927 C12.318,14.483 10.353,13.930 10.353,12.000 C10.353,10.715 11.381,10.290 11.914,10.061 Z" class="cls-1"/>
</svg>
