<svg xmlns="http://www.w3.org/2000/svg" width="5.647mm" height="6.35mm" viewBox="0 0 16.007 18"><defs><style>.cls-1{isolation:isolate;}.cls-2{fill:#4aa429;fill-rule:evenodd;}</style></defs><title>xxzxzxzx</title><g id="Profile" class="cls-1"><g id="Profile-2" data-name="Profile"><path class="cls-2" d="M15.632,14.833A9.893,9.893,0,0,0,12.053,10.7a7.579,7.579,0,0,0,1.671-4.844A5.471,5.471,0,0,0,8,0,5.471,5.471,0,0,0,2.276,5.861,7.58,7.58,0,0,0,3.945,10.7,9.871,9.871,0,0,0,.368,14.833C-1.063,17.967,2.1,18,2.1,18H13.9S17.063,18,15.632,14.833ZM8,2.111a3.39,3.39,0,0,1,3.643,3.75c0,2.623-1.631,4.75-3.643,4.75S4.357,8.484,4.357,5.861A3.39,3.39,0,0,1,8,2.111ZM13.176,16H2.823c-.924,0,.458-1.8.458-1.8L6.588,12c.922.2-.013,0,.941,0H9.412l3.307,2.2S14.16,16,13.176,16Z" transform="translate(0.004 0)"/></g></g></svg>