<svg xmlns="http://www.w3.org/2000/svg" xmlns:xlink="http://www.w3.org/1999/xlink" preserveAspectRatio="xMidYMid" width="13" height="8" viewBox="0 0 13 8">
  <defs>
    <style>
      .cls-1 {
        fill: #000;
        fill-rule: evenodd;
      }
    </style>
  </defs>
  <path d="M11.134,7.680 C10.911,7.893 10.617,8.000 10.324,8.000 C10.030,8.000 9.737,7.893 9.513,7.680 C9.064,7.255 9.064,6.564 9.513,6.138 C9.857,5.809 10.104,5.447 10.279,5.090 C8.823,5.068 7.647,3.935 7.647,2.545 C7.647,1.142 8.848,-0.000 10.324,-0.000 C11.656,-0.000 13.000,1.012 13.000,3.272 C13.000,4.064 12.818,6.079 11.134,7.680 ZM10.613,2.577 C10.612,2.571 10.610,2.567 10.608,2.562 L10.386,2.562 C10.386,2.573 10.396,2.579 10.405,2.580 L10.613,2.577 ZM2.676,8.000 C2.383,8.000 2.089,7.893 1.865,7.680 C1.417,7.255 1.417,6.564 1.865,6.138 C2.211,5.809 2.457,5.447 2.632,5.090 C1.176,5.068 -0.000,3.935 -0.000,2.545 C-0.000,1.142 1.201,-0.000 2.676,-0.000 C4.009,-0.000 5.353,1.012 5.353,3.272 C5.353,4.064 5.171,6.079 3.487,7.680 C3.263,7.893 2.970,8.000 2.676,8.000 Z" class="cls-1"/>
</svg>
