<svg xmlns="http://www.w3.org/2000/svg" xmlns:xlink="http://www.w3.org/1999/xlink" preserveAspectRatio="xMidYMid" width="20" height="19.875" viewBox="0 0 20 19.875">
  <defs>
    <style>
      .cls-1 {
        fill: #000;
        fill-rule: evenodd;
      }
    </style>
  </defs>
  <path d="M18.000,17.881 L17.000,17.881 L17.000,19.870 L15.000,19.870 L15.000,17.881 L5.000,17.881 L5.000,19.870 L3.000,19.870 L3.000,17.881 L2.000,17.881 C0.895,17.881 -0.000,16.991 -0.000,15.892 L-0.000,6.941 C-0.000,5.843 0.895,4.952 2.000,4.952 L2.015,4.952 C2.015,4.527 2.276,4.133 2.706,4.002 L15.706,0.023 C16.229,-0.140 16.793,0.155 16.955,0.681 C17.118,1.206 16.822,1.763 16.294,1.924 L6.399,4.952 L18.000,4.952 C19.104,4.952 20.000,5.843 20.000,6.941 L20.000,15.892 C20.000,16.991 19.104,17.881 18.000,17.881 ZM18.000,6.941 L2.000,6.941 L2.000,15.892 L18.000,15.892 L18.000,6.941 ZM8.000,10.919 L4.000,10.919 L4.000,8.930 L8.000,8.930 L8.000,10.919 ZM8.000,13.903 L4.000,13.903 L4.000,11.914 L8.000,11.914 L8.000,13.903 ZM13.500,7.936 C15.433,7.936 17.000,9.494 17.000,11.417 C17.000,13.339 15.433,14.898 13.500,14.898 C11.567,14.898 10.000,13.339 10.000,11.417 C10.000,9.494 11.567,7.936 13.500,7.936 ZM13.500,12.909 C14.327,12.909 15.000,12.239 15.000,11.417 C15.000,10.594 14.327,9.925 13.500,9.925 C12.673,9.925 12.000,10.594 12.000,11.417 C12.000,12.239 12.673,12.909 13.500,12.909 Z" class="cls-1"/>
</svg>
