<svg xmlns="http://www.w3.org/2000/svg" xmlns:xlink="http://www.w3.org/1999/xlink" preserveAspectRatio="xMidYMid" width="17" height="17" viewBox="0 0 17 17">
  <defs>
    <style>
      .cls-1 {
        fill: #000;
        fill-rule: evenodd;
      }
    </style>
  </defs>
  <path d="M8.500,-0.000 C3.806,-0.000 -0.000,3.806 -0.000,8.500 C-0.000,13.194 3.806,17.000 8.500,17.000 C13.194,17.000 17.000,13.194 17.000,8.500 C17.000,3.806 13.194,-0.000 8.500,-0.000 ZM12.271,11.129 C12.427,11.288 12.510,11.506 12.499,11.728 C12.480,12.169 12.106,12.511 11.664,12.492 C11.466,12.483 11.278,12.402 11.137,12.263 L8.500,9.627 L5.863,12.263 C5.554,12.575 5.051,12.579 4.738,12.272 C4.591,12.128 4.507,11.933 4.501,11.728 C4.490,11.505 4.573,11.288 4.730,11.129 L7.367,8.501 L4.730,5.872 C4.573,5.713 4.490,5.496 4.501,5.273 C4.520,4.832 4.894,4.490 5.336,4.509 C5.534,4.518 5.722,4.599 5.863,4.738 L8.500,7.366 L11.137,4.738 C11.444,4.425 11.948,4.420 12.261,4.727 C12.408,4.871 12.494,5.067 12.499,5.273 C12.510,5.496 12.427,5.713 12.271,5.872 L9.634,8.501 L12.271,11.129 Z" class="cls-1"/>
</svg>
