<svg xmlns="http://www.w3.org/2000/svg" xmlns:xlink="http://www.w3.org/1999/xlink" preserveAspectRatio="xMidYMid" width="19.906" height="20" viewBox="0 0 19.906 20">
  <defs>
    <style>
      .cls-1 {
        fill: #000;
        fill-rule: evenodd;
      }
    </style>
  </defs>
  <path d="M19.604,19.707 C19.410,19.902 19.155,20.000 18.900,20.000 C18.646,20.000 18.391,19.902 18.197,19.707 L12.825,14.311 C11.476,15.366 9.787,16.000 7.949,16.000 C3.558,16.000 -0.016,12.411 -0.016,8.000 C-0.016,3.589 3.558,-0.000 7.949,-0.000 C12.341,-0.000 15.914,3.589 15.914,8.000 C15.914,9.845 15.282,11.542 14.233,12.897 L19.604,18.293 C19.993,18.683 19.993,19.316 19.604,19.707 ZM7.949,2.000 C4.655,2.000 1.976,4.691 1.976,8.000 C1.976,11.308 4.655,14.000 7.949,14.000 C11.243,14.000 13.923,11.308 13.923,8.000 C13.923,4.691 11.243,2.000 7.949,2.000 Z" class="cls-1"/>
</svg>
