<?xml version="1.0" encoding="utf-8"?>
<!-- Generator: Adobe Illustrator 20.0.0, SVG Export Plug-In . SVG Version: 6.00 Build 0)  -->
<svg version="1.1" id="Search_1_" xmlns="http://www.w3.org/2000/svg" xmlns:xlink="http://www.w3.org/1999/xlink" x="0px" y="0px"
	 width="16px" height="16px" viewBox="0 0 16 16" style="enable-background:new 0 0 16 16;" xml:space="preserve">
<style type="text/css">
	.st0{fill-rule:evenodd;clip-rule:evenodd;fill:#B4B4B4;}
</style>
<path class="st0" d="M11.976,9.976h-0.005c0.641-1.007,1.018-2.199,1.018-3.481C12.989,2.908,10.081,0,6.495,0S0,2.908,0,6.495
	c0,3.587,2.908,6.495,6.495,6.495c1.283,0,2.476-0.377,3.483-1.019l-0.001,0.007L14,16l2-2L11.976,9.976z M6.51,11.013
	c-2.487,0-4.503-2.016-4.503-4.503c0-2.487,2.016-4.503,4.503-4.503c2.487,0,4.503,2.016,4.503,4.503
	C11.012,8.997,8.996,11.013,6.51,11.013z"/>
</svg>
