<svg xmlns="http://www.w3.org/2000/svg" xmlns:xlink="http://www.w3.org/1999/xlink" preserveAspectRatio="xMidYMid" width="17" height="17" viewBox="0 0 17 17">
  <defs>
    <style>
      .cls-1 {
        fill: #000;
        fill-rule: evenodd;
      }
    </style>
  </defs>
  <path d="M16.204,11.850 L15.587,11.850 C15.421,11.850 15.226,12.001 15.163,12.179 C15.104,12.345 15.035,12.510 14.958,12.670 C14.876,12.839 14.906,13.083 15.024,13.201 L15.462,13.639 C15.770,13.947 15.770,14.447 15.462,14.755 L14.750,15.468 C14.601,15.617 14.403,15.699 14.193,15.699 C13.982,15.699 13.784,15.617 13.635,15.468 L13.196,15.029 C13.126,14.958 13.008,14.916 12.881,14.916 C12.804,14.916 12.727,14.933 12.665,14.963 C12.506,15.040 12.341,15.109 12.175,15.167 C11.996,15.231 11.846,15.425 11.846,15.592 L11.846,16.209 C11.846,16.643 11.492,16.997 11.057,16.997 L10.049,16.997 C9.615,16.997 9.261,16.643 9.261,16.209 L9.261,15.592 C9.261,15.425 9.110,15.231 8.932,15.167 C8.766,15.109 8.601,15.040 8.441,14.963 C8.379,14.932 8.304,14.916 8.225,14.916 C8.099,14.916 7.981,14.958 7.911,15.029 L7.472,15.468 C7.323,15.617 7.125,15.699 6.914,15.699 C6.704,15.699 6.506,15.617 6.357,15.468 L5.644,14.754 C5.336,14.447 5.336,13.947 5.644,13.639 L6.082,13.200 C6.201,13.082 6.231,12.839 6.149,12.669 C6.072,12.510 6.003,12.345 5.944,12.179 C5.881,12.000 5.686,11.850 5.519,11.850 L4.903,11.850 C4.468,11.850 4.115,11.496 4.115,11.061 L4.115,10.054 C4.115,9.619 4.468,9.265 4.903,9.265 L5.519,9.265 C5.686,9.265 5.881,9.114 5.944,8.936 C6.003,8.770 6.072,8.605 6.149,8.445 C6.231,8.276 6.201,8.033 6.082,7.915 L5.644,7.476 C5.495,7.327 5.413,7.129 5.413,6.918 C5.413,6.707 5.495,6.510 5.644,6.361 L6.357,5.648 C6.506,5.499 6.704,5.417 6.914,5.417 C7.125,5.417 7.323,5.499 7.472,5.648 L7.910,6.086 C7.980,6.157 8.098,6.199 8.225,6.199 C8.302,6.199 8.379,6.182 8.441,6.152 C8.601,6.075 8.766,6.007 8.931,5.948 C9.110,5.884 9.261,5.690 9.261,5.523 L9.261,4.906 C9.261,4.472 9.615,4.118 10.049,4.118 L11.057,4.118 C11.492,4.118 11.845,4.472 11.845,4.906 L11.845,5.523 C11.845,5.690 11.996,5.884 12.175,5.948 C12.341,6.007 12.506,6.076 12.665,6.153 C12.729,6.184 12.804,6.199 12.882,6.199 C13.008,6.199 13.126,6.158 13.196,6.087 L13.635,5.648 C13.784,5.499 13.982,5.418 14.193,5.418 C14.403,5.418 14.601,5.499 14.750,5.648 L15.462,6.360 C15.770,6.668 15.770,7.168 15.462,7.476 L15.023,7.915 C14.905,8.033 14.875,8.276 14.957,8.445 C15.035,8.605 15.103,8.770 15.162,8.936 C15.226,9.114 15.420,9.265 15.587,9.265 L16.203,9.265 C16.638,9.265 16.992,9.619 16.992,10.054 L16.992,11.061 C16.992,11.496 16.638,11.850 16.204,11.850 ZM10.553,8.246 C9.279,8.246 8.243,9.284 8.243,10.557 C8.243,11.832 9.279,12.869 10.553,12.869 C11.827,12.869 12.863,11.832 12.863,10.557 C12.863,9.283 11.827,8.246 10.553,8.246 ZM6.173,4.129 L5.864,4.129 C5.841,4.129 5.791,4.164 5.776,4.206 C5.745,4.294 5.709,4.380 5.668,4.465 C5.649,4.504 5.659,4.564 5.676,4.580 L5.895,4.799 C6.100,5.004 6.100,5.338 5.895,5.543 L5.539,5.899 C5.440,5.999 5.308,6.053 5.168,6.053 C5.027,6.053 4.895,5.999 4.796,5.899 L4.576,5.680 C4.569,5.673 4.546,5.662 4.512,5.662 C4.493,5.662 4.474,5.666 4.461,5.672 C4.377,5.713 4.290,5.749 4.203,5.780 C4.161,5.795 4.125,5.845 4.125,5.868 L4.125,6.177 C4.125,6.467 3.890,6.703 3.600,6.703 L3.096,6.703 C2.806,6.703 2.570,6.467 2.570,6.177 L2.570,5.868 C2.570,5.845 2.535,5.795 2.493,5.780 C2.406,5.749 2.319,5.713 2.235,5.672 C2.221,5.665 2.203,5.662 2.184,5.662 C2.150,5.662 2.126,5.672 2.119,5.679 L1.900,5.899 C1.801,5.998 1.669,6.053 1.528,6.053 C1.388,6.053 1.256,5.998 1.157,5.899 L0.801,5.543 C0.702,5.444 0.647,5.311 0.647,5.171 C0.647,5.031 0.702,4.899 0.801,4.799 L1.020,4.580 C1.036,4.564 1.047,4.504 1.027,4.465 C0.987,4.381 0.951,4.294 0.920,4.206 C0.905,4.164 0.855,4.129 0.831,4.129 L0.523,4.129 C0.233,4.129 -0.003,3.893 -0.003,3.603 L-0.003,3.100 C-0.003,2.810 0.233,2.574 0.523,2.574 L0.832,2.574 C0.855,2.574 0.905,2.538 0.920,2.496 C0.951,2.409 0.987,2.322 1.027,2.238 C1.047,2.199 1.036,2.139 1.020,2.123 L0.801,1.904 C0.596,1.699 0.596,1.365 0.801,1.160 L1.157,0.804 C1.256,0.705 1.388,0.650 1.528,0.650 C1.669,0.650 1.801,0.705 1.900,0.804 L2.119,1.023 C2.126,1.030 2.150,1.041 2.184,1.041 C2.203,1.041 2.221,1.037 2.235,1.031 C2.318,0.990 2.405,0.954 2.493,0.923 C2.535,0.908 2.570,0.858 2.570,0.835 L2.570,0.526 C2.570,0.236 2.806,0.000 3.096,0.000 L3.600,0.000 C3.890,0.000 4.125,0.236 4.125,0.526 L4.125,0.835 C4.125,0.858 4.161,0.908 4.203,0.923 C4.290,0.954 4.377,0.990 4.461,1.031 C4.475,1.037 4.493,1.041 4.512,1.041 C4.546,1.041 4.570,1.030 4.576,1.023 L4.795,0.804 C4.895,0.705 5.027,0.650 5.167,0.650 C5.308,0.650 5.440,0.704 5.539,0.804 L5.895,1.160 C6.100,1.365 6.100,1.698 5.895,1.904 L5.676,2.123 C5.659,2.139 5.649,2.199 5.668,2.238 C5.709,2.322 5.745,2.409 5.776,2.496 C5.791,2.538 5.841,2.574 5.864,2.574 L6.173,2.574 C6.463,2.574 6.698,2.810 6.698,3.099 L6.698,3.603 C6.698,3.893 6.463,4.129 6.173,4.129 ZM3.348,1.943 C2.572,1.943 1.940,2.575 1.940,3.351 C1.940,4.128 2.572,4.760 3.348,4.760 C4.125,4.760 4.756,4.128 4.756,3.351 C4.756,2.575 4.125,1.943 3.348,1.943 Z" class="cls-1"/>
</svg>
