<svg xmlns="http://www.w3.org/2000/svg" xmlns:xlink="http://www.w3.org/1999/xlink" preserveAspectRatio="xMidYMid" width="22" height="20" viewBox="0 0 22 20">
  <defs>
    <style>
      .cls-1 {
        fill: #111;
        fill-rule: evenodd;
      }
    </style>
  </defs>
  <path d="M4.009,19.998 C1.803,19.998 0.010,18.203 0.010,15.996 L0.010,3.992 C0.010,1.786 1.803,-0.009 4.009,-0.009 L18.010,-0.009 C20.216,-0.009 22.009,1.786 22.009,3.992 L22.009,15.996 C22.009,18.203 20.216,19.998 18.010,19.998 L4.009,19.998 ZM20.010,3.992 C20.010,2.889 19.112,1.992 18.010,1.992 L4.009,1.992 C2.907,1.992 2.010,2.889 2.010,3.992 L2.010,15.996 C2.010,17.100 2.907,17.997 4.009,17.997 L18.010,17.997 C19.112,17.997 20.010,17.100 20.010,15.996 L20.010,3.992 ZM14.240,8.904 L14.240,11.045 L11.700,11.045 C11.377,11.985 10.915,12.872 10.330,13.676 C9.508,14.749 8.221,15.363 6.870,15.327 L6.870,15.327 L6.740,15.327 L6.740,13.176 C8.450,13.216 9.070,11.965 9.910,9.744 C10.283,8.576 10.837,7.472 11.550,6.473 C12.437,5.314 13.820,4.643 15.280,4.663 L15.280,6.814 C13.890,6.833 13.190,7.594 12.570,8.904 L14.240,8.904 Z" class="cls-1"/>
</svg>
