<svg xmlns="http://www.w3.org/2000/svg" xmlns:xlink="http://www.w3.org/1999/xlink" preserveAspectRatio="xMidYMid" width="18" height="22" viewBox="0 0 18 22">
  <defs>
    <style>
      .cls-1 {
        fill: #000;
        fill-rule: evenodd;
      }
    </style>
  </defs>
  <path d="M16.000,22.000 L2.000,22.000 C0.896,22.000 -0.000,21.104 -0.000,20.000 L-0.000,5.000 C-0.000,3.895 0.896,3.000 2.000,3.000 L4.000,3.000 L4.000,2.000 C4.000,0.895 4.895,-0.000 6.000,-0.000 L12.000,-0.000 C13.104,-0.000 14.000,0.895 14.000,2.000 L14.000,3.000 L16.000,3.000 C17.104,3.000 18.000,3.895 18.000,5.000 L18.000,20.000 C18.000,21.104 17.104,22.000 16.000,22.000 ZM12.000,2.000 L6.000,2.000 L6.000,4.000 L12.000,4.000 L12.000,2.000 ZM16.000,5.000 L13.723,5.000 C13.376,5.595 12.738,6.000 12.000,6.000 L6.000,6.000 C5.261,6.000 4.624,5.595 4.277,5.000 L2.000,5.000 L2.000,20.000 L16.000,20.000 L16.000,5.000 ZM6.000,10.000 L4.000,10.000 L4.000,8.000 L6.000,8.000 L6.000,10.000 ZM6.000,14.000 L4.000,14.000 L4.000,12.000 L6.000,12.000 L6.000,14.000 ZM6.000,18.000 L4.000,18.000 L4.000,16.000 L6.000,16.000 L6.000,18.000 ZM14.000,10.000 L8.000,10.000 L8.000,8.000 L14.000,8.000 L14.000,10.000 ZM14.000,14.000 L8.000,14.000 L8.000,12.000 L14.000,12.000 L14.000,14.000 ZM14.000,18.000 L8.000,18.000 L8.000,16.000 L14.000,16.000 L14.000,18.000 Z" class="cls-1"/>
</svg>
