<svg xmlns="http://www.w3.org/2000/svg" width="4.939mm" height="5.641mm" viewBox="0 0 14 15.989"><defs><style>.cls-1{isolation:isolate;}.cls-2{fill:#c0c7c9;fill-rule:evenodd;}</style></defs><title>Trash</title><g id="Recycle_Bin_copy" data-name="Recycle_Bin copy" class="cls-1"><g id="Recycle_Bin_copy-2" data-name="Recycle_Bin copy"><path class="cls-2" d="M13,3H10V2A2.183,2.183,0,0,0,8,0H6A2.21,2.21,0,0,0,4,2V3H1A1.074,1.074,0,0,0,0,4,1.074,1.074,0,0,0,1,5v8.994a2.267,2.267,0,0,0,2,2h8a2.084,2.084,0,0,0,2-2V5a1.074,1.074,0,0,0,1-1A1.074,1.074,0,0,0,13,3ZM6,2H8V3H6Zm5,11.992H3V5h8Z" transform="translate(0 -0.001)"/></g></g></svg>