<svg xmlns="http://www.w3.org/2000/svg" xmlns:xlink="http://www.w3.org/1999/xlink" preserveAspectRatio="xMidYMid" width="45" height="50" viewBox="0 0 45 50">
  <defs>
    <style>
      .cls-1 {
        fill: #000;
        fill-rule: evenodd;
      }
    </style>
  </defs>
  <path d="M41.538,50.000 L3.461,50.000 C1.549,50.000 -0.000,48.508 -0.000,46.667 L-0.000,3.334 C-0.000,1.493 1.549,0.000 3.461,0.000 L36.346,0.000 C37.504,-0.017 37.965,0.024 38.077,0.024 L38.077,0.000 L45.000,6.667 C45.000,7.891 45.000,8.073 45.000,8.334 L45.000,46.667 C45.000,48.508 43.450,50.000 41.538,50.000 ZM38.077,1.667 C38.077,3.651 38.077,5.000 38.077,5.000 C38.077,5.921 38.852,6.667 39.807,6.667 L43.269,6.667 L38.077,1.667 ZM43.269,8.334 C41.254,8.334 39.807,8.334 39.807,8.334 C37.896,8.334 36.346,6.841 36.346,5.000 C36.346,5.000 36.306,3.663 36.322,1.667 L3.461,1.667 C2.506,1.667 1.731,2.413 1.731,3.334 L1.731,46.667 C1.731,47.587 2.506,48.333 3.461,48.333 L41.538,48.333 C42.494,48.333 43.269,47.587 43.269,46.667 L43.269,8.334 ZM31.468,38.044 L14.657,38.044 C12.776,38.044 11.250,36.570 11.250,34.752 L11.250,18.510 C11.250,16.692 12.776,15.218 14.657,15.218 L31.468,15.218 C33.349,15.218 34.875,16.692 34.875,18.510 L34.875,34.752 C34.875,36.570 33.349,38.044 31.468,38.044 ZM33.058,31.020 L33.058,28.387 L33.058,18.604 C33.058,17.704 32.302,16.974 31.370,16.974 L14.755,16.974 C13.823,16.974 13.067,17.704 13.067,18.604 L13.067,31.899 L13.067,34.532 C13.067,35.433 13.823,36.288 14.755,36.288 L27.606,36.288 L30.332,36.288 L31.370,36.288 C32.302,36.288 33.058,35.558 33.058,34.657 L33.058,31.020 ZM29.415,29.939 C29.211,30.084 28.962,30.156 28.715,30.156 C28.404,30.156 28.094,30.043 27.879,29.825 C27.492,29.433 27.552,28.850 28.014,28.522 C28.678,28.050 29.060,27.360 29.060,26.631 C29.060,25.901 28.678,25.211 28.014,24.739 C27.552,24.411 27.492,23.828 27.879,23.436 C28.094,23.218 28.404,23.106 28.715,23.106 C28.962,23.106 29.211,23.177 29.415,23.322 C30.575,24.146 31.240,25.353 31.240,26.631 C31.240,27.909 30.575,29.115 29.415,29.939 ZM24.426,34.532 L23.119,34.532 L18.548,30.115 L16.191,30.115 C15.470,30.115 14.884,29.550 14.884,28.853 L14.884,24.408 C14.884,23.711 15.470,23.146 16.191,23.146 L18.548,23.146 L23.119,18.729 L24.426,18.729 C25.147,18.729 25.788,19.788 25.788,20.485 L25.788,32.776 C25.788,33.473 25.147,34.532 24.426,34.532 ZM23.971,20.485 L19.428,24.875 L16.702,24.875 L16.702,28.387 L19.428,28.387 L23.971,32.776 L23.971,20.485 Z" class="cls-1"/>
</svg>
