<svg xmlns="http://www.w3.org/2000/svg" xmlns:xlink="http://www.w3.org/1999/xlink" preserveAspectRatio="xMidYMid" width="44.94" height="49.94" viewBox="0 0 44.94 49.94">
  <defs>
    <style>
      .cls-1 {
        fill: #000;
        fill-rule: evenodd;
      }
    </style>
  </defs>
  <path d="M41.770,49.942 C41.703,49.944 41.636,49.944 41.569,49.942 L3.494,49.942 C1.602,49.969 0.042,48.467 -0.003,46.576 L-0.003,3.360 C0.042,1.469 1.602,-0.033 3.494,-0.006 L38.072,-0.006 L44.946,6.617 L44.946,46.576 C44.999,48.382 43.577,49.890 41.770,49.942 ZM38.192,1.732 L38.192,5.099 C38.230,6.005 38.973,6.722 39.881,6.727 L43.368,6.727 L38.192,1.732 ZM39.881,8.355 C37.989,8.382 36.429,6.880 36.384,4.989 L36.384,1.622 L3.494,1.622 C2.593,1.586 1.833,2.287 1.797,3.188 C1.796,3.208 1.796,3.229 1.796,3.251 L1.796,46.466 C1.796,47.367 2.528,48.096 3.429,48.096 C3.450,48.096 3.472,48.095 3.494,48.094 L41.569,48.094 C42.469,48.126 43.225,47.422 43.257,46.523 C43.257,46.504 43.258,46.485 43.258,46.466 L43.368,8.355 L39.881,8.355 ZM29.740,36.916 L15.323,36.916 C12.526,36.932 10.226,34.716 10.138,31.921 L10.138,18.015 C10.226,15.220 12.526,13.004 15.323,13.020 L29.740,13.020 C32.537,13.004 34.838,15.220 34.925,18.015 L34.925,31.921 C34.838,34.716 32.537,36.932 29.740,36.916 ZM29.158,34.958 L29.740,34.958 C31.350,34.952 32.670,33.741 32.862,32.169 L29.158,32.169 L29.158,34.958 ZM32.897,30.171 L32.897,27.550 L29.158,27.550 L29.158,30.171 L32.897,30.171 ZM23.472,34.958 L27.159,34.958 L27.159,32.169 L23.472,32.169 L23.472,34.958 ZM27.159,30.171 L27.159,27.550 L23.472,27.550 L23.472,30.171 L27.159,30.171 ZM17.738,25.552 L21.473,25.552 L21.473,22.491 L17.738,22.491 L17.738,25.552 ZM23.472,25.552 L27.159,25.552 L27.159,22.491 L23.472,22.491 L23.472,25.552 ZM17.738,34.958 L21.473,34.958 L21.473,32.169 L17.738,32.169 L17.738,34.958 ZM21.473,30.171 L21.473,27.550 L17.738,27.550 L17.738,30.171 L21.473,30.171 ZM15.323,34.958 L15.739,34.958 L15.739,32.169 L12.200,32.169 C12.388,33.743 13.711,34.957 15.323,34.958 ZM15.739,30.171 L15.739,27.550 L12.166,27.550 L12.166,30.171 L15.739,30.171 ZM15.739,14.978 L15.323,14.978 C13.626,14.978 12.232,16.319 12.166,18.015 L12.166,20.494 L15.739,20.494 L15.739,14.978 ZM12.166,22.491 L12.166,25.552 L15.739,25.552 L15.739,22.491 L12.166,22.491 ZM32.897,18.015 C32.827,16.321 31.436,14.983 29.740,14.978 L17.738,14.978 L17.738,20.494 L32.897,20.494 L32.897,18.015 ZM29.158,22.491 L29.158,25.552 L32.897,25.552 L32.897,22.491 L29.158,22.491 Z" class="cls-1"/>
</svg>
