<svg xmlns="http://www.w3.org/2000/svg" xmlns:xlink="http://www.w3.org/1999/xlink" preserveAspectRatio="xMidYMid" width="45" height="50" viewBox="0 0 45 50">
  <defs>
    <style>
      .cls-1 {
        fill: #000;
        fill-rule: evenodd;
      }
    </style>
  </defs>
  <path d="M41.610,50.000 L3.496,50.000 C1.579,50.000 -0.000,48.478 -0.000,46.631 L-0.000,3.369 C-0.000,1.522 1.579,-0.000 3.496,-0.000 L36.423,-0.000 C37.550,-0.000 38.001,-0.000 38.114,-0.000 L44.993,6.630 L44.993,46.631 C45.106,48.478 43.527,50.000 41.610,50.000 ZM38.227,1.739 L38.227,5.109 C38.227,5.978 39.016,6.739 39.919,6.739 L43.414,6.739 L38.227,1.739 ZM39.919,8.369 C38.001,8.369 36.423,6.848 36.423,5.000 C36.423,5.000 36.423,3.696 36.423,1.630 L3.496,1.630 C2.481,1.630 1.804,2.391 1.804,3.261 L1.804,46.522 C1.804,47.500 2.594,48.152 3.496,48.152 L41.610,48.152 C42.625,48.152 43.301,47.391 43.301,46.522 L43.414,8.369 L39.919,8.369 ZM29.770,36.956 L15.336,36.956 C12.517,36.956 10.149,34.674 10.149,31.956 L10.149,18.043 C10.149,15.326 12.517,13.043 15.336,13.043 L29.770,13.043 C32.589,13.043 34.957,15.326 34.957,18.043 L34.957,31.956 C34.957,34.674 32.589,36.956 29.770,36.956 ZM32.927,18.043 C32.927,16.413 31.574,15.109 29.770,15.000 L15.336,15.000 C13.645,15.000 12.292,16.304 12.179,18.043 L12.179,31.956 C12.179,33.587 13.532,34.891 15.336,35.000 L29.770,35.000 C31.461,35.000 32.815,33.696 32.927,31.956 L32.927,18.043 ZM28.477,27.089 C27.079,27.089 25.940,25.992 25.940,24.643 C25.940,23.295 27.079,22.198 28.477,22.198 C29.876,22.198 31.014,23.295 31.014,24.643 C31.014,25.992 29.876,27.089 28.477,27.089 ZM28.477,23.828 C28.011,23.828 27.631,24.194 27.631,24.643 C27.631,25.093 28.011,25.459 28.477,25.459 C28.943,25.459 29.323,25.093 29.323,24.643 C29.323,24.194 28.943,23.828 28.477,23.828 ZM22.514,27.055 C21.116,27.055 19.977,25.958 19.977,24.609 C19.977,23.261 21.116,22.163 22.514,22.163 C23.913,22.163 25.051,23.261 25.051,24.609 C25.051,25.958 23.913,27.055 22.514,27.055 ZM22.514,23.794 C22.048,23.794 21.668,24.160 21.668,24.609 C21.668,25.059 22.048,25.425 22.514,25.425 C22.980,25.425 23.360,25.059 23.360,24.609 C23.360,24.160 22.980,23.794 22.514,23.794 ZM16.497,27.059 C15.099,27.059 13.960,25.962 13.960,24.613 C13.960,23.264 15.099,22.167 16.497,22.167 C17.896,22.167 19.034,23.264 19.034,24.613 C19.034,25.962 17.896,27.059 16.497,27.059 ZM16.497,23.798 C16.031,23.798 15.651,24.163 15.651,24.613 C15.651,25.063 16.031,25.428 16.497,25.428 C16.963,25.428 17.343,25.063 17.343,24.613 C17.343,24.163 16.963,23.798 16.497,23.798 Z" class="cls-1"/>
</svg>
