<svg xmlns="http://www.w3.org/2000/svg" xmlns:xlink="http://www.w3.org/1999/xlink" preserveAspectRatio="xMidYMid" width="45" height="50" viewBox="0 0 45 50">
  <defs>
    <style>
      .cls-1 {
        fill: #000;
        fill-rule: evenodd;
      }
    </style>
  </defs>
  <path d="M41.538,50.000 L3.461,50.000 C1.550,50.000 0.000,48.508 0.000,46.667 L0.000,3.333 C0.000,1.492 1.550,-0.000 3.461,-0.000 L36.346,-0.000 C37.505,-0.018 37.965,0.024 38.077,0.024 L38.077,-0.000 L45.000,6.666 C45.000,7.891 45.000,8.073 45.000,8.333 L45.000,46.667 C45.000,48.508 43.450,50.000 41.538,50.000 ZM38.077,1.667 C38.077,3.651 38.077,5.000 38.077,5.000 C38.077,5.920 38.852,6.666 39.808,6.666 L43.269,6.666 L38.077,1.667 ZM43.269,8.333 C41.254,8.333 39.808,8.333 39.808,8.333 C37.896,8.333 36.346,6.841 36.346,5.000 C36.346,5.000 36.306,3.662 36.321,1.667 L3.461,1.667 C2.506,1.667 1.731,2.413 1.731,3.333 L1.731,46.667 C1.731,47.587 2.506,48.333 3.461,48.333 L41.538,48.333 C42.494,48.333 43.269,47.587 43.269,46.667 L43.269,8.333 ZM33.300,29.385 C33.300,31.250 32.006,32.533 30.150,32.533 L26.212,32.533 L29.362,38.043 L26.991,38.033 L23.850,32.533 L22.275,32.533 L19.134,38.033 L16.762,38.043 L19.912,32.533 L15.975,32.533 C14.119,32.533 12.825,31.250 12.825,29.385 C12.825,29.385 12.825,18.069 12.825,16.791 L11.250,16.791 L11.250,15.217 L34.875,15.217 L34.875,16.791 L33.300,16.791 C33.300,18.155 33.300,29.385 33.300,29.385 ZM14.388,16.783 C14.388,17.780 14.400,29.385 14.400,29.385 C14.400,30.352 15.025,30.959 15.975,30.959 L30.150,30.959 C31.100,30.959 31.725,30.352 31.725,29.385 C31.725,29.385 31.736,18.370 31.736,16.783 L14.388,16.783 ZM27.787,28.598 C27.352,28.598 27.000,28.246 27.000,27.811 L27.000,22.301 C27.000,21.867 27.352,21.514 27.787,21.514 C28.223,21.514 28.575,21.867 28.575,22.301 L28.575,27.811 C28.575,28.246 28.223,28.598 27.787,28.598 ZM23.062,28.598 C22.627,28.598 22.275,28.246 22.275,27.811 L22.275,19.939 C22.275,19.505 22.627,19.152 23.062,19.152 C23.498,19.152 23.850,19.505 23.850,19.939 L23.850,27.811 C23.850,28.246 23.498,28.598 23.062,28.598 ZM18.337,28.598 C17.902,28.598 17.550,28.246 17.550,27.811 L17.550,24.662 C17.550,24.228 17.902,23.875 18.337,23.875 C18.772,23.875 19.125,24.228 19.125,24.662 L19.125,27.811 C19.125,28.246 18.772,28.598 18.337,28.598 Z" class="cls-1"/>
</svg>
