<svg xmlns="http://www.w3.org/2000/svg" xmlns:xlink="http://www.w3.org/1999/xlink" preserveAspectRatio="xMidYMid" width="45" height="50" viewBox="0 0 45 50">
  <defs>
    <style>
      .cls-1 {
        fill: #000;
        fill-rule: evenodd;
      }
    </style>
  </defs>
  <path d="M41.538,50.000 L3.461,50.000 C1.550,50.000 0.000,48.508 0.000,46.667 L0.000,3.334 C0.000,1.492 1.550,-0.000 3.461,-0.000 L36.346,-0.000 C37.504,-0.017 37.966,0.024 38.077,0.024 L38.077,-0.000 L45.000,6.667 C45.000,7.890 45.000,8.073 45.000,8.333 L45.000,46.667 C45.000,48.508 43.450,50.000 41.538,50.000 ZM38.077,1.667 C38.077,3.651 38.077,5.000 38.077,5.000 C38.077,5.920 38.852,6.667 39.808,6.667 L43.269,6.667 L38.077,1.667 ZM43.269,8.333 C41.254,8.333 39.808,8.333 39.808,8.333 C37.896,8.333 36.346,6.841 36.346,5.000 C36.346,5.000 36.306,3.662 36.321,1.667 L3.461,1.667 C2.506,1.667 1.731,2.413 1.731,3.334 L1.731,46.667 C1.731,47.587 2.506,48.333 3.461,48.333 L41.538,48.333 C42.494,48.333 43.269,47.587 43.269,46.667 L43.269,8.333 ZM29.336,36.956 L14.538,36.956 C12.722,36.956 11.250,35.534 11.250,33.779 L11.250,19.481 C11.250,17.726 12.722,16.304 14.538,16.304 L19.471,16.304 C21.287,16.304 22.759,17.726 22.759,19.481 L29.336,19.481 C31.152,19.481 32.625,20.904 32.625,22.658 L32.625,33.779 C32.625,35.534 31.152,36.956 29.336,36.956 ZM30.981,22.658 C30.981,21.781 30.244,21.070 29.336,21.070 L21.115,21.070 L21.115,19.481 C21.115,18.604 20.379,17.892 19.471,17.892 L14.538,17.892 C13.631,17.892 12.894,18.604 12.894,19.481 L12.894,24.247 L30.981,24.247 L30.981,22.658 ZM30.981,25.836 L12.894,25.836 L12.894,33.779 C12.894,34.656 13.631,35.368 14.538,35.368 L29.336,35.368 C30.244,35.368 30.981,34.656 30.981,33.779 L30.981,25.836 Z" class="cls-1"/>
</svg>
