<svg xmlns="http://www.w3.org/2000/svg" xmlns:xlink="http://www.w3.org/1999/xlink" preserveAspectRatio="xMidYMid" width="45" height="50" viewBox="0 0 45 50">
  <defs>
    <style>
      .cls-1 {
        fill: #000;
        fill-rule: evenodd;
      }
    </style>
  </defs>
  <path d="M30.506,36.952 L14.496,36.952 C12.703,36.952 11.250,35.548 11.250,33.816 L11.250,33.816 L11.250,18.348 C11.250,16.616 12.703,15.212 14.496,15.212 L14.496,15.212 L30.506,15.212 C32.297,15.212 33.750,16.615 33.750,18.347 C33.750,18.347 33.750,18.347 33.750,18.348 L33.750,33.816 C33.751,35.547 32.298,36.951 30.507,36.952 C30.506,36.952 30.506,36.952 30.506,36.952 ZM30.412,35.280 C31.300,35.280 32.020,34.585 32.020,33.727 L32.020,33.727 L32.020,30.262 L27.692,26.082 L24.231,29.426 L24.231,30.262 L29.423,35.280 L30.412,35.280 L30.412,35.280 ZM12.981,33.607 C12.972,34.488 13.678,35.223 14.588,35.280 L26.827,35.280 L19.038,27.754 L12.981,33.607 L12.981,33.607 L12.981,33.607 ZM32.020,18.437 C32.020,17.579 31.300,16.884 30.412,16.884 L30.412,16.884 L14.588,16.884 C13.701,16.884 12.981,17.579 12.981,18.436 L12.981,18.437 L12.981,31.098 L19.038,25.246 L22.500,28.591 L27.692,23.573 L32.020,27.754 L32.020,18.437 ZM17.740,24.619 C15.948,24.619 14.495,23.215 14.495,21.483 C14.495,19.751 15.948,18.347 17.740,18.347 C19.533,18.347 20.986,19.751 20.986,21.483 C20.986,21.483 20.986,21.483 20.986,21.484 C20.986,23.215 19.533,24.619 17.741,24.619 L17.740,24.619 L17.740,24.619 ZM17.740,19.915 C16.844,19.916 16.118,20.618 16.119,21.484 C16.120,22.350 16.846,23.051 17.742,23.050 C18.637,23.049 19.363,22.349 19.364,21.484 C19.364,20.618 18.637,19.915 17.740,19.915 L17.740,19.915 ZM41.538,49.996 L3.462,49.996 C1.553,49.999 0.003,48.506 0.000,46.662 L0.000,46.662 L0.000,3.328 C0.003,1.484 1.553,-0.009 3.462,-0.006 L3.462,-0.006 L36.346,-0.006 C37.504,-0.023 37.965,0.018 38.077,0.018 L38.077,-0.006 L45.000,6.660 L45.000,46.662 C44.997,48.506 43.447,49.999 41.538,49.996 L41.538,49.996 ZM38.077,1.660 L38.077,4.994 C38.079,5.916 38.854,6.662 39.808,6.660 L39.808,6.660 L43.269,6.660 L38.077,1.660 ZM43.269,8.328 L39.808,8.328 C37.900,8.331 36.350,6.838 36.346,4.994 L36.346,4.994 C36.346,4.994 36.306,3.656 36.322,1.660 L3.462,1.660 C2.507,1.658 1.732,2.404 1.730,3.327 C1.730,3.327 1.730,3.327 1.730,3.328 L1.730,46.662 C1.732,47.584 2.507,48.330 3.462,48.328 L3.462,48.328 L41.538,48.328 C42.492,48.330 43.267,47.584 43.269,46.663 L43.269,46.662 L43.269,8.328 L43.269,8.328 Z" class="cls-1"/>
</svg>
