<svg xmlns="http://www.w3.org/2000/svg" xmlns:xlink="http://www.w3.org/1999/xlink" preserveAspectRatio="xMidYMid" width="40" height="46" viewBox="0 0 40 46">
  <defs>
    <style>
      .cls-1 {
        fill: #000;
        fill-rule: evenodd;
      }
    </style>
  </defs>
  <path d="M36.923,46.000 L3.077,46.000 C1.378,46.000 -0.000,44.627 -0.000,42.933 L-0.000,3.067 C-0.000,1.373 1.378,-0.000 3.077,-0.000 L32.307,-0.000 C33.337,-0.016 33.747,0.022 33.846,0.022 L33.846,-0.000 L40.000,6.133 C40.000,7.259 40.000,7.427 40.000,7.667 L40.000,42.933 C40.000,44.627 38.622,46.000 36.923,46.000 ZM33.846,1.533 C33.846,3.359 33.846,4.600 33.846,4.600 C33.846,5.447 34.535,6.133 35.385,6.133 L38.462,6.133 L33.846,1.533 ZM38.462,7.667 C36.670,7.667 35.385,7.667 35.385,7.667 C33.685,7.667 32.307,6.293 32.307,4.600 C32.307,4.600 32.272,3.370 32.286,1.533 L3.077,1.533 C2.227,1.533 1.538,2.220 1.538,3.067 L1.538,42.933 C1.538,43.780 2.227,44.466 3.077,44.466 L36.923,44.466 C37.772,44.466 38.462,43.780 38.462,42.933 L38.462,7.667 ZM27.115,34.500 L12.884,34.500 C11.291,34.500 10.000,33.213 10.000,31.625 L10.000,17.442 C10.000,15.854 11.291,14.566 12.884,14.566 L27.115,14.566 C28.708,14.566 30.000,15.854 30.000,17.442 L30.000,31.625 C30.000,33.213 28.708,34.500 27.115,34.500 ZM28.461,28.367 L28.461,26.066 L28.461,17.524 C28.461,16.737 27.822,16.100 27.033,16.100 L12.967,16.100 C12.178,16.100 11.538,16.737 11.538,17.524 L11.538,29.133 L11.538,31.433 C11.538,32.219 12.178,32.966 12.967,32.966 L23.846,32.966 L26.154,32.966 L27.033,32.966 C27.822,32.966 28.461,32.329 28.461,31.543 L28.461,28.367 ZM16.991,29.780 C16.633,30.038 16.154,29.905 16.154,29.153 L16.154,19.901 C16.154,19.144 16.601,19.041 16.991,19.274 L23.568,23.972 C23.936,24.242 23.947,24.788 23.568,25.082 L16.991,29.780 ZM17.692,21.643 C17.692,22.333 17.692,27.242 17.692,27.423 L21.549,24.527 L17.692,21.643 Z" class="cls-1"/>
</svg>
