<svg xmlns="http://www.w3.org/2000/svg" xmlns:xlink="http://www.w3.org/1999/xlink" preserveAspectRatio="xMidYMid" width="45" height="50" viewBox="0 0 45 50">
  <defs>
    <style>
      .cls-1 {
        fill: #000;
        fill-rule: evenodd;
      }
    </style>
  </defs>
  <path d="M41.538,50.000 L3.462,50.000 C1.550,50.000 -0.000,48.508 -0.000,46.667 L-0.000,3.333 C-0.000,1.492 1.550,-0.000 3.462,-0.000 L36.346,-0.000 C37.504,-0.018 37.966,0.024 38.077,0.024 L38.077,-0.000 L45.000,6.667 C45.000,7.890 45.000,8.073 45.000,8.333 L45.000,46.667 C45.000,48.508 43.450,50.000 41.538,50.000 ZM38.077,1.666 C38.077,3.651 38.077,5.000 38.077,5.000 C38.077,5.921 38.851,6.667 39.808,6.667 L43.269,6.667 L38.077,1.666 ZM43.269,8.333 C41.254,8.333 39.808,8.333 39.808,8.333 C37.896,8.333 36.346,6.841 36.346,5.000 C36.346,5.000 36.306,3.662 36.322,1.666 L3.462,1.666 C2.506,1.666 1.731,2.413 1.731,3.333 L1.731,46.667 C1.731,47.587 2.506,48.333 3.462,48.333 L41.538,48.333 C42.494,48.333 43.269,47.587 43.269,46.667 L43.269,8.333 ZM31.468,38.044 L14.658,38.044 C12.776,38.044 11.250,36.570 11.250,34.751 L11.250,18.510 C11.250,16.692 12.776,15.218 14.658,15.218 L28.514,15.217 L26.697,16.973 L14.755,16.973 C13.823,16.973 13.067,17.703 13.067,18.604 L13.067,31.898 L13.067,34.532 C13.067,35.432 13.823,36.288 14.755,36.288 L27.606,36.288 L30.332,36.288 L31.370,36.288 C32.302,36.288 33.058,35.558 33.058,34.657 L33.058,34.532 L33.058,31.020 L33.058,24.874 L34.875,23.118 L34.875,34.751 C34.875,36.570 33.350,38.044 31.468,38.044 ZM31.241,23.997 C31.397,24.571 31.241,25.130 31.241,25.753 C31.241,30.317 27.808,34.530 23.119,34.530 C19.812,34.530 16.695,33.719 13.976,32.291 C15.944,30.973 17.241,28.767 17.241,26.266 C17.241,22.404 20.003,19.607 23.971,19.607 C24.610,19.607 26.107,19.454 26.697,19.607 L30.851,16.331 C31.356,15.980 32.090,16.037 32.531,16.465 L34.493,18.374 C34.738,18.612 34.875,18.932 34.875,19.273 C34.875,19.541 34.790,19.797 34.630,20.014 L31.241,23.997 ZM23.971,21.363 C21.090,21.363 19.201,23.462 19.201,26.266 C19.201,28.236 18.551,30.124 17.391,31.678 C19.223,32.300 21.107,32.776 23.063,32.776 C26.663,32.776 29.423,29.258 29.423,25.753 C29.423,22.948 26.852,21.363 23.971,21.363 ZM31.539,18.196 L28.514,20.485 C29.347,21.015 29.788,21.431 30.332,22.241 L32.716,19.341 L31.539,18.196 Z" class="cls-1"/>
</svg>
