<svg xmlns="http://www.w3.org/2000/svg" xmlns:xlink="http://www.w3.org/1999/xlink" preserveAspectRatio="xMidYMid" width="12" height="17" viewBox="0 0 12 17">
  <defs>
    <style>
      .cls-1 {
        fill: #000;
        fill-rule: evenodd;
      }
    </style>
  </defs>
  <path d="M11.000,17.000 L1.000,17.000 C0.448,17.000 0.000,16.552 0.000,16.000 C0.000,15.447 0.448,15.000 1.000,15.000 L11.000,15.000 C11.552,15.000 12.000,15.447 12.000,16.000 C12.000,16.552 11.552,17.000 11.000,17.000 ZM9.000,6.000 L7.000,4.000 L7.000,13.000 C7.000,13.713 6.713,14.000 6.000,14.000 C5.286,14.000 5.001,13.646 5.000,13.000 L5.000,4.000 L3.000,6.000 C2.495,6.505 1.504,7.504 1.000,7.000 C0.495,6.495 0.495,5.504 1.000,5.000 L4.000,2.000 C4.252,1.747 5.669,-0.001 6.000,-0.001 C6.330,-0.001 7.747,1.747 8.000,2.000 L11.000,5.000 C11.504,5.504 11.504,6.495 11.000,7.000 C10.495,7.504 9.504,6.505 9.000,6.000 Z" class="cls-1"/>
</svg>
