<svg xmlns="http://www.w3.org/2000/svg" xmlns:xlink="http://www.w3.org/1999/xlink" preserveAspectRatio="xMidYMid" width="38" height="40" viewBox="0 0 38 40">
  <defs>
    <style>
      .cls-1 {
        fill: #000;
        fill-rule: evenodd;
      }
    </style>
  </defs>
  <path d="M37.345,36.087 C36.248,37.470 32.703,39.738 20.006,39.978 L20.006,40.002 C19.616,40.002 19.263,39.993 18.888,39.990 C18.513,39.993 18.160,40.002 17.769,40.002 L17.769,39.978 C5.084,39.738 1.644,37.470 0.547,36.086 C0.108,35.533 -0.078,34.944 0.048,34.431 C1.226,29.642 5.861,28.321 9.591,27.260 C12.699,26.375 14.601,25.754 14.601,24.198 C14.601,23.620 14.502,23.523 13.446,23.047 C10.813,21.861 8.268,20.001 8.268,11.601 C8.268,8.291 10.599,1.405 17.769,0.198 L17.769,-0.004 C18.159,-0.004 18.522,0.030 18.888,0.059 C19.254,0.030 19.617,-0.004 20.006,-0.004 L20.006,0.197 C27.197,1.403 29.630,8.290 29.630,11.601 C29.630,20.001 27.133,21.861 24.500,23.047 C23.445,23.523 23.384,23.620 23.384,24.198 C23.384,25.754 25.308,26.375 28.415,27.260 C32.145,28.321 36.796,29.642 37.974,34.431 C38.100,34.944 37.784,35.533 37.345,36.087 ZM27.743,29.390 C24.482,28.463 21.147,27.503 21.147,24.198 C21.147,22.139 22.590,21.498 23.630,21.029 C25.273,20.289 27.384,19.276 27.384,11.601 C27.384,9.831 25.762,2.964 18.888,2.280 C12.025,2.964 10.504,9.831 10.504,11.601 C10.504,19.276 12.740,20.289 14.383,21.029 C15.423,21.498 16.841,22.139 16.841,24.198 C16.841,27.503 13.466,28.463 10.205,29.390 C6.787,30.363 3.280,31.367 2.304,34.705 C2.725,35.216 5.354,37.642 18.888,37.773 C32.429,37.642 35.173,35.216 35.595,34.705 C34.617,31.367 31.160,30.363 27.743,29.390 Z" class="cls-1"/>
</svg>
