<svg xmlns="http://www.w3.org/2000/svg" xmlns:xlink="http://www.w3.org/1999/xlink" preserveAspectRatio="xMidYMid" width="22" height="22" viewBox="0 0 22 22">
  <defs>
    <style>
      .cls-1 {
        fill: #000;
        fill-rule: evenodd;
      }
    </style>
  </defs>
  <path d="M21.751,19.790 C20.611,21.157 17.196,21.908 11.787,21.992 L11.787,22.008 C11.612,22.008 11.455,22.001 11.284,22.000 C11.113,22.001 10.960,22.008 10.785,22.008 L10.785,21.992 C5.331,21.908 1.573,21.157 0.433,19.790 C0.114,19.408 -0.098,18.988 0.000,18.607 C0.711,15.859 3.495,15.094 5.561,14.535 C7.137,14.108 8.072,13.808 8.072,13.246 C8.072,13.169 8.050,13.139 8.050,13.138 C8.017,13.119 7.790,13.024 7.629,12.955 C6.114,12.306 4.676,11.222 4.676,6.543 C4.676,4.617 5.656,0.534 10.785,0.062 L10.785,0.014 C10.944,0.014 11.090,0.031 11.243,0.040 C11.424,0.031 11.596,0.014 11.787,0.014 L11.787,0.083 C16.021,0.636 17.507,4.641 17.507,6.543 C17.507,11.222 15.785,12.306 14.269,12.955 C14.117,13.020 13.862,13.107 13.793,13.159 C13.796,13.166 13.765,13.196 13.765,13.246 C13.765,13.809 14.709,14.108 16.286,14.535 C18.351,15.094 21.174,15.859 21.885,18.607 C21.983,18.988 22.069,19.408 21.751,19.790 ZM15.824,16.348 C13.957,15.843 11.788,15.271 11.788,13.246 C11.788,11.922 12.763,11.494 13.361,11.237 C14.234,10.864 15.517,10.399 15.517,6.543 C15.517,5.662 14.846,2.230 11.284,1.931 C7.693,2.230 6.677,5.662 6.677,6.543 C6.677,10.399 7.671,10.864 8.544,11.237 C9.142,11.494 10.098,11.922 10.098,13.246 C10.098,15.271 7.958,15.843 6.091,16.348 C3.969,16.922 2.672,17.414 2.151,18.740 C2.619,19.090 4.683,20.068 11.285,20.117 C17.869,20.068 19.572,19.090 20.041,18.740 C19.520,17.414 17.947,16.922 15.824,16.348 Z" class="cls-1"/>
</svg>
