<svg xmlns="http://www.w3.org/2000/svg" xmlns:xlink="http://www.w3.org/1999/xlink" preserveAspectRatio="xMidYMid" width="22" height="20" viewBox="0 0 22 20">
  <defs>
    <style>
      .cls-1 {
        fill: #111;
        fill-rule: evenodd;
      }
    </style>
  </defs>
  <path d="M17.995,0.005 C20.201,0.005 21.995,1.799 21.995,4.004 L21.995,16.000 C21.995,18.206 20.201,19.999 17.995,19.999 L3.995,19.999 C1.789,19.999 -0.005,18.206 -0.005,16.000 L-0.005,4.004 C-0.005,1.799 1.789,0.005 3.995,0.005 L17.995,0.005 ZM1.995,16.000 C1.995,17.103 2.892,18.000 3.995,18.000 L17.995,18.000 C19.098,18.000 19.995,17.103 19.995,16.000 L19.995,4.004 C19.995,2.902 19.098,2.005 17.995,2.005 L3.995,2.005 C2.892,2.005 1.995,2.902 1.995,4.004 L1.995,16.000 ZM8.500,5.604 L14.730,9.533 C14.986,9.685 15.071,10.016 14.920,10.273 C14.870,10.348 14.805,10.412 14.730,10.463 L14.730,10.463 L8.500,14.392 C8.160,14.612 7.710,14.501 7.710,13.872 L7.710,6.124 C7.710,5.494 8.130,5.404 8.500,5.604 ZM9.170,12.422 L12.820,10.003 L9.170,7.584 L9.170,12.422 Z" class="cls-1"/>
</svg>
