<svg xmlns="http://www.w3.org/2000/svg" xmlns:xlink="http://www.w3.org/1999/xlink" preserveAspectRatio="xMidYMid" width="18" height="13" viewBox="0 0 18 13">
  <defs>
    <style>
      .cls-1 {
        fill: #000;
        fill-rule: evenodd;
      }
    </style>
  </defs>
  <path d="M17.627,7.825 C15.688,11.061 12.460,12.994 8.990,12.994 C5.521,12.994 2.292,11.061 0.354,7.825 C-0.130,7.017 -0.130,5.973 0.354,5.165 C2.292,1.930 5.521,-0.003 8.990,-0.003 C12.460,-0.003 15.688,1.930 17.627,5.165 C18.110,5.973 18.110,7.017 17.627,7.825 ZM16.368,6.115 C14.712,3.349 11.954,1.699 8.990,1.699 C6.027,1.699 3.268,3.349 1.612,6.115 C1.475,6.342 1.475,6.648 1.612,6.876 C3.268,9.641 6.027,11.292 8.990,11.292 C11.954,11.292 14.712,9.641 16.368,6.876 C16.505,6.648 16.505,6.342 16.368,6.115 ZM8.990,10.277 C7.132,10.277 5.621,8.581 5.621,6.495 C5.621,4.410 7.132,2.713 8.990,2.713 C10.848,2.713 12.360,4.410 12.360,6.495 C12.360,8.581 10.848,10.277 8.990,10.277 ZM8.990,4.415 C7.968,4.415 7.136,5.348 7.136,6.495 C7.136,7.642 7.968,8.576 8.990,8.576 C10.012,8.576 10.844,7.642 10.844,6.495 C10.844,5.348 10.012,4.415 8.990,4.415 Z" class="cls-1"/>
</svg>
