<svg xmlns="http://www.w3.org/2000/svg" xmlns:xlink="http://www.w3.org/1999/xlink" preserveAspectRatio="xMidYMid" width="19.969" height="13" viewBox="0 0 19.969 13">
  <defs>
    <style>
      .cls-1 {
        fill: #000;
        fill-rule: evenodd;
      }
    </style>
  </defs>
  <path d="M19.967,6.888 C17.256,10.829 13.710,13.000 9.983,13.000 C9.982,13.000 9.981,13.000 9.979,13.000 C6.248,12.998 2.704,10.827 -0.001,6.888 L1.285,6.032 L0.056,5.036 C2.768,1.788 6.294,-0.000 9.982,-0.000 C9.984,-0.000 9.986,-0.000 9.988,-0.000 C13.682,0.001 17.206,1.790 19.912,5.037 L18.681,6.031 L19.967,6.888 ZM6.936,5.000 C6.936,6.654 8.303,8.000 9.983,8.000 C11.664,8.000 13.031,6.654 13.031,5.000 C13.031,3.346 11.664,2.000 9.983,2.000 C8.303,2.000 6.936,3.346 6.936,5.000 ZM14.738,3.293 C14.937,3.828 15.063,4.398 15.063,5.000 C15.063,7.757 12.784,10.000 9.983,10.000 C7.183,10.000 4.904,7.757 4.904,5.000 C4.904,4.399 5.030,3.830 5.228,3.295 C4.026,3.966 2.893,4.876 1.879,6.030 C4.164,9.229 7.028,10.998 9.980,11.000 C9.981,11.000 9.982,11.000 9.983,11.000 C12.933,11.000 15.797,9.230 18.088,6.029 C17.075,4.875 15.941,3.964 14.738,3.293 Z" class="cls-1"/>
</svg>
