<?xml version="1.0" standalone="no"?>
<!DOCTYPE svg PUBLIC "-//W3C//DTD SVG 1.1//EN" "http://www.w3.org/Graphics/SVG/1.1/DTD/svg11.dtd" >
<svg xmlns="http://www.w3.org/2000/svg">
<metadata></metadata>
<defs>
<font id="skoda_prolight" horiz-adv-x="778" >
<font-face units-per-em="2048" ascent="1638" descent="-410" />
<missing-glyph horiz-adv-x="508" />
<glyph horiz-adv-x="0" />
<glyph unicode="&#xd;" horiz-adv-x="508" />
<glyph unicode=" "  horiz-adv-x="508" />
<glyph unicode="&#x09;" horiz-adv-x="508" />
<glyph unicode="&#xa0;" horiz-adv-x="508" />
<glyph unicode="!" horiz-adv-x="464" d="M195 12v181q0 12 12 15l49 14q12 3 12 -9v-201q0 -12 -12 -12h-49q-12 0 -12 12zM197 1463q0 12 12 15l45 14q12 3 12 -9l-4 -1061q0 -12 -12 -12h-37q-12 0 -12 12z" />
<glyph unicode="&#x22;" horiz-adv-x="618" d="M151 1056v407q0 12 12 15l57 14q12 3 12 -9v-427q0 -12 -12 -12h-57q-12 0 -12 12zM386 1056v407q0 12 12 15l58 14q12 3 12 -9v-427q0 -12 -12 -12h-58q-12 0 -12 12z" />
<glyph unicode="#" horiz-adv-x="1458" d="M86 424l8 39q1 12 14 12h275l93 524h-270q-11 0 -10 12l7 40q1 12 14 12h271l71 400q1 12 14 12h41q11 0 10 -12l-71 -400h467l71 400q1 12 14 12h42q11 0 10 -12l-71 -400h276q11 0 10 -12l-8 -40q-1 -12 -14 -12h-276l-93 -524h270q11 0 10 -12l-8 -39q-1 -12 -14 -12 h-269l-71 -400q-1 -12 -14 -12h-42q-11 0 -10 12l71 400h-467l-71 -400q-1 -12 -14 -12h-41q-11 0 -10 12l71 400h-276q-11 0 -10 12zM448 475h467l93 524h-467z" />
<glyph unicode="$" horiz-adv-x="1041" d="M114 1149q0 82 20 143.5t65.5 103.5t119 66t180.5 30v237q0 12 12 12h38q12 0 12 -12v-234h28q78 0 152 -6.5t127 -17.5q12 -3 9 -15l-8 -33q-3 -12 -15 -9q-26 5 -58.5 9t-68 6.5t-71 3.5t-67.5 1h-28v-661l63 -25q88 -36 147.5 -71t95.5 -78.5t51 -98.5t15 -131 q0 -78 -13 -144t-53 -116t-113 -82t-193 -42v-239q0 -12 -12 -12h-38q-12 0 -12 12v235q-13 0 -26 -0.5t-27 -0.5q-39 0 -81 2t-82.5 5.5t-77.5 9t-67 12.5q-13 3 -7 14l13 34q5 10 17 9q85 -14 154.5 -19.5t130.5 -5.5h27t26 1v690l-74 30q-71 29 -128.5 60t-98 73.5 t-62.5 103.5t-22 150zM176 1149q0 -81 19 -133.5t58.5 -89.5t99.5 -65t142 -61l4 631q-89 -5 -151 -23t-100 -51.5t-55 -84.5t-17 -123zM561 45q105 10 167 37.5t94 69.5t41 97t9 120q0 68 -13.5 115t-48.5 83.5t-95 69t-154 70.5v-662z" />
<glyph unicode="%" horiz-adv-x="1740" d="M122 967v147q0 111 21.5 184.5t62 117t98.5 61.5t130 18q73 0 130.5 -18t97.5 -61.5t61.5 -117t21.5 -184.5v-147q0 -111 -21 -184t-61 -116.5t-98 -61t-131 -17.5q-72 0 -130 17.5t-98.5 61t-62 116.5t-21.5 184zM182 967q0 -95 17.5 -157t50.5 -98.5t79.5 -51.5 t104.5 -15t104.5 15t79 52t50 99.5t17.5 157.5v145q0 95 -17.5 157.5t-50.5 99.5t-79.5 52t-103.5 15q-58 0 -104.5 -15t-79.5 -52t-50.5 -99.5t-17.5 -157.5v-147zM378 10l899 1455q5 10 18 10h52q13 0 6 -10l-899 -1455q-5 -10 -18 -10h-52q-13 0 -6 10zM995 358v148 q0 111 21.5 184.5t61.5 117t98 61.5t130 18q73 0 131 -18t98 -61.5t61 -117t21 -184.5v-148q0 -111 -21 -183.5t-60.5 -116t-97.5 -61t-132 -17.5q-72 0 -130 17.5t-98 61t-61.5 116t-21.5 183.5zM1054 358q0 -95 17.5 -156.5t50.5 -98.5t79.5 -51.5t104.5 -14.5t105 14.5 t79.5 51.5t50 99.5t17.5 157.5v146q0 95 -17.5 157.5t-50.5 99t-79.5 51.5t-104.5 15t-104.5 -15t-79.5 -51.5t-50.5 -99t-17.5 -157.5v-148z" />
<glyph unicode="&#x26;" horiz-adv-x="1402" d="M124 391q0 81 7.5 139.5t23 100t40 70t59.5 50.5t80.5 41t102.5 42q-51 54 -84 98t-52 88t-26.5 92.5t-7.5 112.5q0 78 18 129.5t58 83t103.5 44.5t154.5 13q88 0 149.5 -13t100.5 -44.5t56.5 -83t17.5 -129.5q0 -57 -4 -99.5t-17 -76.5t-37.5 -61.5t-66.5 -54.5 t-103.5 -55.5t-147.5 -63.5l468 -491q76 94 128.5 200.5t77.5 212.5q3 12 15 12h41q12 0 9 -12q-28 -121 -86 -239t-142 -219l260 -269q7 -9 -4 -9h-66q-12 0 -20 9l-213 221q-53 -56 -113 -102t-126 -79t-138.5 -51t-148.5 -18q-49 0 -95.5 3.5t-87 16.5t-74.5 39.5 t-58.5 72t-38 114t-13.5 165.5zM185 395q0 -85 11 -144.5t31 -99t48 -61.5t62 -33t73 -13.5t81 -2.5q70 0 136.5 17t127.5 48t116 74t103 94l-491 513q-85 -34 -142 -61t-91.5 -66.5t-49.5 -100.5t-15 -164zM329 1225q0 -64 6 -107t25 -81t53 -78.5t90 -97.5 q84 35 143.5 61.5t99.5 50.5t63 47.5t35 52t15.5 65.5t3.5 87q0 59 -10.5 99.5t-39 66t-80 36.5t-132.5 11q-84 0 -137 -11t-83 -36.5t-41 -66t-11 -99.5z" />
<glyph unicode="'" horiz-adv-x="383" d="M151 1056v407q0 12 12 15l57 14q12 3 12 -9v-427q0 -12 -12 -12h-57q-12 0 -12 12z" />
<glyph unicode="(" horiz-adv-x="506" d="M134 516v53q0 104 13 223.5t40.5 239.5t71.5 232t106 201q6 10 19 10h41q12 0 5 -10q-62 -89 -106 -201t-72.5 -232t-42 -239.5t-13.5 -223.5v-53q0 -104 13.5 -223.5t42 -239t73 -232t105.5 -200.5q7 -10 -5 -10h-41q-13 0 -19 10q-62 88 -106 200.5t-71.5 232 t-40.5 239t-13 223.5z" />
<glyph unicode=")" horiz-adv-x="506" d="M76 -379q61 88 105.5 200.5t73 232t42 239t13.5 223.5v53q0 104 -13.5 223.5t-42 239.5t-72.5 232t-106 201q-7 10 5 10h41q13 0 19 -10q62 -89 106 -201t71.5 -232t40.5 -239.5t13 -223.5v-53q0 -104 -13 -223.5t-40.5 -239t-71.5 -232t-106 -200.5q-6 -10 -19 -10h-41 q-12 0 -5 10z" />
<glyph unicode="*" horiz-adv-x="908" d="M135 1037q-6 10 4 16l224 129q7 4 14 7t12 5q6 3 12 5q-7 2 -13 5q-5 2 -12 5t-13 7l-224 130q-10 6 -4 16l18 33q6 10 16 4l228 -131q12 -8 21 -15l9 -9q-1 6 -2 13q-1 6 -1.5 13.5t-0.5 15.5v258q0 12 12 12h38q12 0 12 -12v-258q0 -9 -0.5 -17t-1.5 -13q-1 -7 -2 -12 q4 5 9 9q4 4 9.5 7.5t11.5 7.5l228 131q10 6 16 -4l19 -33q6 -10 -4 -16l-223 -129q-13 -8 -27 -13q-7 -3 -13 -5q5 -2 12 -5q6 -2 13.5 -5.5t16.5 -8.5l221 -127q10 -6 4 -16l-19 -34q-6 -10 -16 -4l-221 128q-8 4 -14.5 9t-11.5 9q-6 4 -11 9q1 -6 2 -13q1 -6 1.5 -15 t0.5 -20v-254q0 -12 -12 -12h-38q-12 0 -12 12v258q0 10 0.5 18t1.5 14q1 7 2 12q-5 -4 -9 -8t-9.5 -7.5t-11.5 -7.5l-228 -132q-10 -6 -16 4z" />
<glyph unicode="+" horiz-adv-x="998" d="M110 788v38q0 12 12 12h346v346q0 12 12 12h38q12 0 12 -12v-346h346q12 0 12 -12v-38q0 -12 -12 -12h-346v-346q0 -12 -12 -12h-38q-12 0 -12 12v346h-346q-12 0 -12 12z" />
<glyph unicode="," horiz-adv-x="415" d="M89 -213l82 406q1 12 14 15l66 14q12 3 9 -9l-107 -426q-3 -12 -15 -12h-39q-11 0 -10 12z" />
<glyph unicode="-" horiz-adv-x="817" d="M169 598v37q0 12 12 12h455q12 0 12 -12v-37q0 -12 -12 -12h-455q-12 0 -12 12z" />
<glyph unicode="." horiz-adv-x="395" d="M157 12v181q0 12 12 15l49 14q12 3 12 -9v-201q0 -12 -12 -12h-49q-12 0 -12 12z" />
<glyph unicode="/" horiz-adv-x="753" d="M98 11l506 1534q4 11 16 11h39q13 0 8 -11l-506 -1534q-4 -11 -16 -11h-39q-13 0 -8 11z" />
<glyph unicode="0" horiz-adv-x="1285" d="M171 594v285q0 133 13.5 230.5t39.5 166t65.5 111t91.5 67t117 33t142 8.5q79 0 145 -8.5t118.5 -33t92 -67t65.5 -111t39 -166t13 -230.5v-285q0 -133 -13 -230.5t-39 -165.5t-65.5 -110.5t-92 -66.5t-118.5 -32.5t-145 -8.5q-77 0 -142 8.5t-117 32.5t-91.5 66.5 t-65.5 110.5t-39.5 165.5t-13.5 230.5zM232 590q0 -123 12 -211.5t35 -149.5t57.5 -98t79.5 -57t101 -26.5t123 -6.5q68 0 125 6.5t102.5 26.5t80.5 57t58 98.5t34.5 150t11.5 212.5v291q0 123 -11.5 212t-34.5 150t-58 98.5t-80.5 57.5t-102.5 26.5t-125 6.5 q-66 0 -122.5 -6.5t-101.5 -26.5t-79.5 -57.5t-57.5 -98.5t-35 -150t-12 -212v-293z" />
<glyph unicode="1" horiz-adv-x="701" d="M39 1411q-1 11 10 14l363 48q5 1 12 1.5t12 0.5h37q12 0 12 -12v-1451q0 -12 -12 -12h-37q-12 0 -12 12v1401l-365 -49q-13 -3 -14 10z" />
<glyph unicode="2" horiz-adv-x="1063" d="M111 12v49q0 98 14.5 174t50 142.5t94 128.5t146.5 133l231 186q47 38 87.5 72.5t70 72t46.5 82t17 103.5q0 81 -18 134.5t-63 85.5t-122 45.5t-194 13.5q-66 0 -143.5 -5.5t-153.5 -21.5q-12 -1 -15 10l-9 35q-3 12 9 15q34 7 74.5 12.5t82 9t81.5 5t72 1.5 q127 0 214.5 -16.5t142.5 -56t79.5 -105t24.5 -162.5q0 -65 -16.5 -114t-48 -92t-76.5 -83t-103 -86l-209 -166q-90 -72 -149 -132.5t-93.5 -122.5t-48.5 -133t-14 -165h738q12 0 12 -12v-37q0 -12 -12 -12h-787q-12 0 -12 12z" />
<glyph unicode="3" horiz-adv-x="1128" d="M156 22l2 38q0 11 12 10q63 -12 139 -20.5t146 -8.5q115 0 199 18t139 59.5t81.5 109t26.5 167.5v41q0 54 -15 114t-52 110t-100 83t-159 33h-371q-12 0 -12 12v38q0 12 12 12h371q99 0 162 29t99.5 71t50.5 90t14 86v25q0 89 -31 146.5t-88.5 91t-140.5 46.5t-186 13 q-70 0 -144 -9.5t-139 -19.5q-12 -1 -13 10l-2 37q-1 13 11 14q59 11 134 19t153 8q119 0 213 -16.5t159.5 -57t100.5 -109.5t35 -173v-25q0 -48 -14 -97t-44.5 -91t-79 -74t-116.5 -47q76 -19 125 -60.5t77.5 -94t40 -109t11.5 -105.5v-41q0 -120 -34.5 -200t-100 -128 t-159.5 -67.5t-214 -19.5q-78 0 -153 8.5t-134 19.5q-12 1 -12 14z" />
<glyph unicode="4" horiz-adv-x="1161" d="M67 428v74q0 12 7 22l697 941q6 10 19 10h79q12 0 12 -12v-986h186q12 0 12 -12v-37q0 -12 -12 -12h-186v-404q0 -12 -12 -12h-38q-12 0 -12 12v404h-740q-12 0 -12 12zM125 477h694v928h-14z" />
<glyph unicode="5" horiz-adv-x="1110" d="M121 23l14 34q4 10 16 9q72 -14 141 -19.5t140 -5.5q229 0 353 95t124 286v49q0 91 -28 159.5t-87.5 114.5t-152.5 69.5t-223 23.5q-33 0 -69 -3t-69 -7.5t-59.5 -9t-40.5 -7.5q-12 -1 -12 10v37q0 5 0.5 12t0.5 12l61 581q1 12 13 12h714q12 0 9 -12l-11 -38 q-3 -12 -15 -12h-655l-56 -534l20.5 3t49 6t61 6t56.5 3q147 0 252 -27t172.5 -80.5t99 -133.5t31.5 -185v-49q0 -112 -37 -195t-106.5 -138t-169.5 -82t-226 -27q-93 0 -167.5 7.5t-135.5 21.5q-12 3 -8 14z" />
<glyph unicode="6" horiz-adv-x="1208" d="M164 643v225q0 177 33 297t102 193.5t175 105t253 31.5q72 0 138 -7t118 -18q12 -1 9 -14l-8 -33q-3 -11 -15 -10q-49 8 -111.5 14.5t-130.5 6.5q-136 0 -231.5 -28t-155.5 -94t-87.5 -174t-27.5 -268v-14q34 7 81 14.5t100.5 14t110.5 10.5t110 4q111 0 197.5 -23.5 t145 -76t89 -137t30.5 -207.5v-11q0 -98 -28.5 -183t-86.5 -147.5t-144.5 -98t-202.5 -35.5q-111 0 -197.5 28.5t-145.5 102.5t-89.5 203t-30.5 329zM225 643q0 -184 26.5 -301t77.5 -184t126 -92t172 -25q103 0 179 29.5t125 82.5t73 127t24 164v11q0 107 -25 180.5 t-75 118.5t-125.5 64.5t-175.5 19.5q-54 0 -111 -4t-110 -10t-100 -13t-81 -14v-154z" />
<glyph unicode="7" horiz-adv-x="987" d="M58 1463q-3 12 9 12h871q12 0 12 -12v-40q0 -10 -5 -23l-709 -1389q-6 -11 -17 -11h-45q-12 0 -7 11l718 1402h-804q-12 0 -15 12z" />
<glyph unicode="8" horiz-adv-x="1258" d="M150 393v51q0 40 11 91t39 100t75 90t118 61q-58 16 -97 50t-62.5 78.5t-33.5 96.5t-10 103v16q0 91 30 159.5t87 114.5t138.5 68.5t183.5 22.5t183 -22.5t138 -68.5t87 -114.5t30 -159.5v-16q0 -51 -10 -103t-33 -96.5t-62.5 -78.5t-97.5 -50q72 -20 119 -61t74.5 -90 t39 -100t11.5 -91v-51q0 -113 -34 -191.5t-97 -128t-151.5 -71.5t-196.5 -22t-196.5 22t-151.5 71.5t-97 128t-34 191.5zM211 393q0 -95 26.5 -161.5t79 -109t130.5 -62t182 -19.5q103 0 181.5 19.5t131 62t79 109t26.5 161.5v51q0 23 -5.5 55.5t-19.5 67.5t-38 69t-61 61 t-89 44t-121 17h-168q-70 0 -121.5 -17t-89 -44t-61.5 -61t-37.5 -69t-19 -67.5t-5.5 -55.5v-51zM252 1114q0 -44 11.5 -95.5t44 -96t89.5 -74t148 -29.5h168q90 0 147.5 29.5t89.5 74t44 96t12 95.5v16q0 156 -93.5 230t-283.5 74t-283.5 -74t-93.5 -230v-16z" />
<glyph unicode="9" horiz-adv-x="1207" d="M121 1035q0 103 27 187.5t83 145t141 94t201 33.5q108 0 195 -26.5t149 -97t95.5 -193.5t33.5 -316v-164q0 -204 -33 -341.5t-102 -221.5t-175 -119.5t-253 -35.5q-73 0 -138 7t-118 17q-12 1 -9 14l8 33q3 11 15 10q49 -8 111.5 -14t130.5 -6q129 0 221 28.5t152.5 95.5 t91 178t36.5 275q-35 -7 -82 -14.5t-100 -14t-109.5 -10.5t-108.5 -4q-111 0 -197.5 24t-145.5 78t-89.5 142t-30.5 216zM182 1035q0 -113 25 -189t75 -122.5t125.5 -66.5t176.5 -20q53 0 109.5 3.5t109.5 9t100 12t81 13.5q0 5 0.5 10.5t0.5 10.5v166q0 179 -29.5 290.5 t-83.5 174t-130 85t-169 22.5q-104 0 -178 -27t-121 -78.5t-69.5 -125.5t-22.5 -168z" />
<glyph unicode=":" horiz-adv-x="412" d="M169 12v181q0 12 12 15l49 14q12 3 12 -9v-201q0 -12 -12 -12h-49q-12 0 -12 12zM169 688v181q0 12 12 15l49 14q12 3 12 -9v-201q0 -12 -12 -12h-49q-12 0 -12 12z" />
<glyph unicode=";" horiz-adv-x="490" d="M132 -213l82 406q1 12 14 15l66 14q12 3 9 -9l-107 -426q-3 -12 -15 -12h-39q-11 0 -10 12zM220 688v181q0 12 12 15l49 14q12 3 12 -9v-201q0 -12 -12 -12h-49q-12 0 -12 12z" />
<glyph unicode="&#x3c;" horiz-adv-x="848" d="M88 760v37q0 13 10 19l551 406q10 7 13 -5l11 -40q3 -13 -7 -19l-523 -380l523 -380q10 -6 7 -19l-11 -39q-3 -12 -13 -5l-551 406q-10 6 -10 19z" />
<glyph unicode="=" horiz-adv-x="1142" d="M182 579v38q0 12 12 12h754q12 0 12 -12v-38q0 -12 -12 -12h-754q-12 0 -12 12zM182 983v37q0 12 12 12h754q12 0 12 -12v-37q0 -12 -12 -12h-754q-12 0 -12 12z" />
<glyph unicode="&#x3e;" horiz-adv-x="848" d="M175 379q-3 13 7 19l523 380l-523 380q-10 6 -7 19l11 40q3 12 13 5l551 -406q10 -6 10 -19v-37q0 -13 -10 -19l-551 -406q-10 -7 -13 5z" />
<glyph unicode="?" horiz-adv-x="826" d="M92 1463q-3 13 9 14q28 4 61 7.5t66 6t65.5 3.5t61.5 1q83 0 152 -11t118.5 -39t77 -76.5t27.5 -123.5v-13q0 -41 -10 -80.5t-35 -82t-66 -91.5t-102 -110l-62 -63q-51 -53 -78.5 -88t-40.5 -66.5t-15.5 -66.5t-2.5 -88v-111q0 -12 -12 -12h-37q-12 0 -12 12v111 q0 61 4 102.5t20 77.5t47.5 75t85.5 95l56 57q51 51 88.5 94t61.5 82t36 75t12 74v21q0 51 -21 86.5t-61 57.5t-98 31.5t-133 9.5q-54 0 -111.5 -3.5t-128.5 -13.5q-12 -3 -15 10zM263 12v181q0 12 12 15l49 14q12 3 12 -9v-201q0 -12 -12 -12h-49q-12 0 -12 12z" />
<glyph unicode="@" horiz-adv-x="1703" d="M126 344.5q-2 105.5 11 216.5l14 125q22 193 91 329t177 221t250.5 124t312.5 39q122 0 213 -21.5t156.5 -59.5t107.5 -90.5t67 -113t34.5 -127.5t9.5 -135q0 -169 -31 -292.5t-84 -210t-123.5 -140.5t-148.5 -83.5t-160 -40.5t-158 -11h-16q-120 0 -196.5 24t-117.5 78 t-51 141.5t3 215.5l10 96q14 127 43.5 211.5t82.5 134.5t134 71t197 21q53 0 112 -5t124 -21q12 -3 11 -15l-62 -855q75 26 142 74.5t118 129t80.5 198t29.5 281.5q0 102 -26.5 190t-88 153.5t-162.5 102.5t-250 37q-167 0 -301 -41t-231.5 -125t-158 -212t-79.5 -302 l-10 -94q-11 -105 -9.5 -204t21 -185.5t59 -159t104.5 -124.5t157.5 -82t218.5 -31q12 0 11 -12l-4 -42q-1 -12 -13 -12q-138 1 -240 34t-174.5 90.5t-117 136.5t-66 173t-23.5 199.5zM543.5 343.5q5.5 -77.5 39.5 -124t100 -65.5t174 -19q36 0 66 1t56.5 3t50 5.5t47.5 9.5 l57 835q-43 6 -90.5 12.5t-95.5 6.5q-107 0 -177 -19.5t-113.5 -66t-66.5 -124t-35 -194.5l-6 -67q-12 -116 -6.5 -193.5z" />
<glyph unicode="A" horiz-adv-x="1272" d="M43 11l545 1453q4 11 16 11h64q12 0 16 -11l547 -1453q1 -3 1 -5q0 -6 -9 -6h-44q-12 0 -16 11l-172 458h-711l-172 -458q-4 -11 -16 -11h-41q-9 0 -9 6q0 2 1 5zM303 530h665l-333 883z" />
<glyph unicode="B" horiz-adv-x="1282" d="M214 8v1455q0 12 12 13q62 8 144 11.5t166 3.5q133 0 234 -12.5t169.5 -48.5t103.5 -101t35 -170v-12q0 -65 -13.5 -116.5t-37 -89.5t-55.5 -63.5t-69 -38.5q56 -12 100.5 -40t75 -74t47 -112t16.5 -154v-56q0 -93 -16 -160.5t-48.5 -114.5t-80.5 -76t-111.5 -45 t-142.5 -21.5t-173 -5.5q-38 0 -81.5 1t-88 2.5t-89 4.5t-85.5 7q-12 1 -12 13zM275 51q72 -5 145 -7.5t150 -2.5q88 0 160 3.5t128.5 16t98 36.5t69 64t41 99.5t13.5 142.5v58q0 95 -22 158t-61.5 100.5t-94 53t-119.5 15.5h-508v-737zM275 850h449q77 2 132.5 23.5 t91 59.5t52.5 90t17 114v16q0 92 -31.5 147t-93 84t-151.5 37.5t-208 8.5q-80 0 -145.5 -2.5t-112.5 -8.5v-569z" />
<glyph unicode="C" horiz-adv-x="1159" d="M154 672v131q0 197 39.5 330t114.5 213.5t183.5 114.5t247.5 34q88 0 169 -7.5t137 -18.5q12 -3 9 -15l-7 -33q-3 -11 -15 -10q-64 13 -142.5 18t-150.5 5q-123 0 -219.5 -29.5t-163 -100.5t-102 -191t-35.5 -300v-151q0 -181 35 -300.5t101.5 -191t163.5 -100.5t220 -29 q95 0 170 7.5t132 19.5q13 1 14 -10l8 -34q1 -12 -10 -15q-57 -14 -140 -21.5t-174 -7.5q-139 0 -247.5 34t-183.5 114.5t-114.5 213t-39.5 330.5z" />
<glyph unicode="D" horiz-adv-x="1386" d="M215 12v1451q0 12 12 13q45 3 94.5 4.5t97.5 2.5t90.5 1.5t72.5 0.5q96 0 181.5 -9.5t157.5 -36t129.5 -74t97.5 -124t61.5 -186.5t21.5 -260v-113q0 -150 -21 -260.5t-61 -188t-97 -126t-129 -76t-157.5 -37.5t-181.5 -10q-81 0 -176 3.5t-181 11.5q-12 1 -12 13z M276 57q35 -3 74.5 -5.5t79.5 -4t79 -2t73 -0.5q96 0 177 10t146.5 36t114.5 71.5t82.5 115.5t50 168.5t16.5 231.5v119q0 132 -17 229.5t-50 167.5t-82.5 114t-115 70t-146.5 35.5t-178 9.5q-29 0 -70 -0.5t-83.5 -1.5t-82.5 -2.5t-68 -3.5v-1358z" />
<glyph unicode="E" horiz-adv-x="1177" d="M216 12v1451q0 12 12 12h801q12 0 12 -12v-38q0 -12 -12 -12h-752v-563h668q12 0 12 -12v-38q0 -12 -12 -12h-668v-727h752q12 0 12 -12v-37q0 -12 -12 -12h-801q-12 0 -12 12z" />
<glyph unicode="F" horiz-adv-x="1090" d="M216 12v1451q0 12 12 12h814q12 0 12 -12v-38q0 -12 -12 -12h-765v-563h615q12 0 12 -12v-38q0 -12 -12 -12h-615v-776q0 -12 -12 -12h-37q-12 0 -12 12z" />
<glyph unicode="G" horiz-adv-x="1245" d="M156 672v131q0 197 38.5 330t113 213.5t184 114.5t251.5 34q85 0 163.5 -7.5t132.5 -20.5q12 -3 9 -15l-7 -31q-3 -11 -15 -10q-62 13 -137.5 18t-145.5 5q-128 0 -225.5 -29.5t-163.5 -100.5t-99.5 -191t-33.5 -300v-151q0 -181 31.5 -300.5t94.5 -191t157 -100.5 t219 -29q96 0 169 7t132 20v624h-355q-12 0 -12 12v38q0 12 12 12h404q12 0 12 -12v-707q0 -12 -12 -15q-94 -24 -179.5 -32t-170.5 -8q-140 0 -246 34t-177.5 114.5t-107.5 213t-36 330.5z" />
<glyph unicode="H" horiz-adv-x="1380" d="M216 12v1451q0 12 12 12h37q12 0 12 -12v-613h826v613q0 12 12 12h37q12 0 12 -12v-1451q0 -12 -12 -12h-37q-12 0 -12 12v776h-826v-776q0 -12 -12 -12h-37q-12 0 -12 12z" />
<glyph unicode="I" horiz-adv-x="493" d="M216 12v1451q0 12 12 12h37q12 0 12 -12v-1451q0 -12 -12 -12h-37q-12 0 -12 12z" />
<glyph unicode="J" horiz-adv-x="492" d="M-32 -208l9 34q3 11 14 8q20 -6 41.5 -7t43.5 -1q31 0 57 5t44 23t28 52.5t10 93.5v1463q0 12 12 12h37q12 0 12 -12v-1463q0 -80 -15 -127t-42 -71t-63.5 -31t-79.5 -7q-23 0 -50 3.5t-49 10.5q-10 2 -10 10q0 2 1 4z" />
<glyph unicode="K" horiz-adv-x="1116" d="M216 12v1451q0 12 12 12h37q12 0 12 -12v-679l696 683q9 8 21 8h64q13 0 3 -8l-639 -623l662 -835q3 -3 3 -5q0 -4 -8 -4h-56q-13 0 -19 9l-629 791l-98 -91v-697q0 -12 -12 -12h-37q-12 0 -12 12z" />
<glyph unicode="L" horiz-adv-x="1029" d="M216 12v1451q0 12 12 12h37q12 0 12 -12v-1402h701q12 0 12 -12v-37q0 -12 -12 -12h-750q-12 0 -12 12z" />
<glyph unicode="M" horiz-adv-x="1608" d="M216 12v1451q0 12 12 12h42q11 0 18 -10l450 -795q12 -20 23.5 -40.5t21 -37t15.5 -26.5l6 -11l6 11t15.5 27.5t21.5 37t24 41.5l449 793q7 10 18 10h42q12 0 12 -12v-1451q0 -12 -12 -12h-38q-12 0 -12 12l-2 1334q-2 -1 -15 -24t-30 -52l-440 -775q-7 -10 -18 -10h-42 q-11 0 -18 10l-436 769q-19 34 -33 58t-16 24l-3 -1334q0 -12 -12 -12h-37q-12 0 -12 12z" />
<glyph unicode="N" horiz-adv-x="1388" d="M216 12v1451q0 12 12 12h54q12 0 18 -10l735 -1242q34 -59 54 -91t21 -32l1 1363q0 12 12 12h37q12 0 12 -12v-1451q0 -12 -12 -12h-53q-12 0 -18 10l-732 1233q-16 28 -30 52t-24.5 41.5l-16.5 27.5l-7 10l-2 -1362q0 -12 -12 -12h-37q-12 0 -12 12z" />
<glyph unicode="O" horiz-adv-x="1415" d="M158 672v131q0 197 36.5 330t106.5 213.5t173 114.5t235 34q133 0 235 -34t171.5 -114.5t105.5 -213.5t36 -330v-131q0 -198 -36 -330.5t-105.5 -213t-171.5 -114.5t-235 -34q-132 0 -235 34t-173 114.5t-106.5 213t-36.5 330.5zM223 662q0 -181 32.5 -300t94.5 -189.5 t152.5 -99t206.5 -28.5t206 28.5t151.5 99.5t93.5 190t32 301v149q0 180 -32 299t-93.5 189.5t-151.5 99.5t-206 29t-206 -29t-152.5 -99.5t-95 -189.5t-32.5 -299v-151z" />
<glyph unicode="P" horiz-adv-x="1242" d="M216 12v1455q0 12 12 13q30 2 68 4t76 3.5t72 2.5t55 1q163 0 282.5 -15t198 -61.5t116.5 -133t38 -230.5v-64q0 -144 -38 -230.5t-116.5 -133t-198 -61.5t-282.5 -15q-23 0 -58 1t-69.5 2.5t-61.5 2.5t-33 2v-543q0 -12 -12 -12h-37q-12 0 -12 12zM277 616q16 -2 46 -3 t63.5 -2.5t64 -2t48.5 -0.5q160 0 270 15.5t177 57.5t96.5 117t29.5 195v51q0 120 -29.5 195.5t-96.5 117.5t-177 57.5t-270 15.5q-18 0 -48.5 -1t-64 -2t-63.5 -3t-46 -3v-805z" />
<glyph unicode="Q" horiz-adv-x="1416" d="M158 672v131q0 197 36.5 330t106.5 213.5t173 114.5t235 34q133 0 235 -34t171.5 -114.5t105.5 -213.5t36 -330v-131q0 -185 -31.5 -312.5t-92 -209t-150 -121t-206.5 -46.5l227 -362q7 -10 -6 -10h-48q-13 0 -18 10l-226 359q-132 0 -234 34.5t-171.5 114.5t-106 213 t-36.5 330zM223 662q0 -181 32.5 -300t94.5 -189.5t152.5 -99t206.5 -28.5t206 28.5t151.5 99.5t93.5 190t32 301v149q0 180 -32 299t-93.5 189.5t-151.5 99.5t-206 29t-206 -29t-152.5 -99.5t-95 -189.5t-32.5 -299v-151z" />
<glyph unicode="R" horiz-adv-x="1314" d="M215 12v1449q0 12 12 13q91 8 175 9.5t169 1.5q101 0 184.5 -4t149.5 -17.5t115.5 -40.5t82 -73t48.5 -114t16 -165v-82q0 -122 -28.5 -199.5t-91.5 -123.5q-42 -30 -97.5 -48t-127.5 -28l20 -27l372 -553q3 -4 3 -6q0 -4 -8 -4h-50q-13 0 -19 10l-385 574 q-84 -6 -188 -6h-70t-68.5 1t-72 2.5t-80.5 4.5v-574q0 -12 -12 -12h-37q-12 0 -12 12zM276 647q36 -3 78 -4.5t82 -2.5t74.5 -1h56.5q145 0 247.5 10t167 47.5t94.5 111t30 200.5v57q0 129 -32 201t-98 107t-167.5 42.5t-239.5 7.5h-81t-83.5 -1t-75 -2.5t-53.5 -4.5v-768z " />
<glyph unicode="S" horiz-adv-x="1147" d="M127 1159q0 88 27.5 151.5t89.5 104.5t162 61t245 19q42 0 84 -1.5t82 -5t75.5 -8t64.5 -10.5q12 -1 9 -13l-11 -34q-3 -11 -15 -10q-27 6 -63 10t-75 6.5t-79 3.5t-76 1q-128 0 -215.5 -14t-141.5 -46t-78 -84.5t-24 -130.5q0 -79 22.5 -130t67 -87t110.5 -63t153 -58 l147 -53q102 -37 168 -74t104.5 -82t53 -102t14.5 -135q0 -60 -7.5 -113t-28 -97t-57.5 -78.5t-96.5 -58t-145 -36t-201.5 -12.5q-44 0 -90 2t-91 5.5t-86 9t-74 12.5q-13 3 -7 14l15 34q6 11 17 9q92 -14 169.5 -19.5t146.5 -5.5q162 0 256.5 23t143 66.5t62 105 t13.5 139.5q0 48 -5 85t-19 67t-40 54.5t-67 48.5t-100 49t-140 56l-125 47q-88 34 -153 65t-107.5 71.5t-63 97.5t-20.5 143z" />
<glyph unicode="T" horiz-adv-x="1174" d="M32 1425v38q0 12 12 12h1086q12 0 12 -12v-38q0 -12 -12 -12h-513v-1401q0 -12 -12 -12h-37q-12 0 -12 12v1401h-512q-12 0 -12 12z" />
<glyph unicode="U" horiz-adv-x="1411" d="M199 500v963q0 12 12 12h37q12 0 12 -12v-945q0 -120 21.5 -209.5t72.5 -149t135.5 -89t210.5 -29.5q130 0 217 29.5t139.5 88.5t74.5 149t22 210v945q0 12 12 12h35q12 0 12 -12v-963q0 -142 -34 -241t-99 -161t-160.5 -90t-218.5 -28q-120 0 -213.5 28t-157.5 90 t-97 161t-33 241z" />
<glyph unicode="V" horiz-adv-x="1270" d="M41 1464q-1 3 -1 5q0 6 9 6h41q12 0 16 -11l527 -1403h2l526 1403q4 11 16 11h44q9 0 9 -6q0 -2 -1 -5l-547 -1453q-4 -11 -16 -11h-64q-12 0 -16 11z" />
<glyph unicode="W" horiz-adv-x="1784" d="M77 1463q-1 2 -1 4q0 8 10 8h41q12 0 15 -12l262 -1170l52 -236l6 23q7 22 17 56.5t21 75t22 77.5l331 1174q3 12 15 12h44q12 0 15 -12l333 -1166q11 -42 23 -84.5t22 -77t17 -56.5l6 -22l54 244l258 1162q3 12 15 12h43q10 0 10 -8q0 -2 -1 -4l-332 -1451 q-3 -12 -15 -12h-66q-12 0 -15 12l-359 1268q-6 20 -11 39t-9 34t-6 24l-3 9l-2 -9q-2 -9 -6 -24t-8.5 -34t-10.5 -39l-361 -1268q-3 -12 -15 -12h-64q-12 0 -15 12z" />
<glyph unicode="X" horiz-adv-x="1203" d="M62 10l503 726l-503 729q-3 4 -3 6q0 4 8 4h56q13 0 19 -10l460 -683l460 683q6 10 19 10h56q8 0 8 -4q0 -2 -3 -6l-504 -729l504 -726q3 -4 3 -6q0 -4 -8 -4h-56q-13 0 -19 10l-460 681l-460 -681q-6 -10 -19 -10h-56q-8 0 -8 4q0 2 3 6z" />
<glyph unicode="Y" horiz-adv-x="1129" d="M39 1464q-2 4 -2 6q0 5 8 5h43q11 0 18 -11l459 -860l459 860q7 11 18 11h42q8 0 8 -5q0 -2 -2 -6l-494 -941v-511q0 -12 -12 -12h-37q-12 0 -12 12v511z" />
<glyph unicode="Z" horiz-adv-x="1149" d="M98 12v37q0 12 7 22l876 1342h-859q-12 0 -12 12v38q0 12 12 12h912q12 0 12 -12v-38q0 -12 -7 -22l-871 -1342h866q12 0 12 -12v-37q0 -12 -12 -12h-924q-12 0 -12 12z" />
<glyph unicode="[" horiz-adv-x="550" d="M190 -377v1921q0 12 12 12h353q12 0 12 -12v-37q0 -12 -12 -12h-303v-1823h303q12 0 12 -12v-37q0 -12 -12 -12h-353q-12 0 -12 12z" />
<glyph unicode="\" horiz-adv-x="753" d="M86 1545q-5 11 8 11h39q12 0 16 -11l506 -1534q5 -11 -8 -11h-39q-12 0 -16 11z" />
<glyph unicode="]" horiz-adv-x="550" d="M-17 -340q0 12 12 12h303v1823h-303q-12 0 -12 12v37q0 12 12 12h353q12 0 12 -12v-1921q0 -12 -12 -12h-353q-12 0 -12 12v37z" />
<glyph unicode="^" horiz-adv-x="1188" d="M278 1181l273 283q8 9 20 9h46q12 0 20 -9l273 -283q7 -9 -4 -9h-77q-12 0 -20 9l-215 235l-215 -235q-8 -9 -20 -9h-77q-12 0 -4 9z" />
<glyph unicode="_" horiz-adv-x="897" d="M59 -135q0 12 12 12h755q12 0 12 -12v-37q0 -12 -12 -12h-755q-12 0 -12 12v37z" />
<glyph unicode="`" d="M255 1507q-8 9 4 9h62q13 0 19 -9l184 -238q7 -9 -5 -9h-46q-12 0 -20 9z" />
<glyph unicode="a" horiz-adv-x="1082" d="M110 311q0 93 24 155t87 99t173 52.5t281 15.5h172v96q0 91 -12 149.5t-45 91.5t-92.5 45.5t-153.5 12.5q-47 0 -87.5 -2t-79 -6t-75.5 -10t-76 -13q-12 -1 -12 10v38q0 13 12 14q39 8 82 14t85 9.5t81 5.5t70 2q123 0 195 -20.5t109.5 -67.5t48.5 -123t11 -187v-668 q0 -13 -12 -14q-41 -7 -86 -12.5t-89 -9.5t-84.5 -6t-70.5 -2q-116 0 -201.5 14.5t-142 51.5t-84.5 101t-28 164zM171 309q0 -89 28 -142t79.5 -81t125 -36.5t164.5 -8.5q75 0 144 5.5t135 14.5v510h-184q-157 0 -253.5 -10t-149.5 -38.5t-71 -80t-18 -133.5z" />
<glyph unicode="b" horiz-adv-x="1133" d="M183 24v1566q0 12 11 16l40 12q3 1 5 1q6 0 6 -9v-545q27 4 59.5 8.5t66.5 8.5t68 6t66 2q141 0 234.5 -26.5t148.5 -86t77.5 -155t22.5 -234.5v-107q0 -145 -24 -241.5t-80 -154t-147.5 -81.5t-227.5 -24q-70 0 -148 6t-166 24q-12 1 -12 14zM245 61q63 -9 129 -14.5 t135 -5.5q127 0 208.5 21.5t128 74t64 140.5t17.5 221v75q0 88 -7 155.5t-25 118.5t-49 85.5t-77.5 55.5t-111 30.5t-150.5 9.5q-29 0 -62.5 -1.5t-68.5 -4.5t-69 -7.5t-62 -10.5v-943z" />
<glyph unicode="c" horiz-adv-x="964" d="M144 494v84q0 141 23 238.5t79.5 158.5t150.5 88t235 27q63 0 121 -5t106 -14q9 -1 9 -8q0 -2 -1 -5l-12 -35q-4 -10 -16 -9q-47 8 -102.5 11t-104.5 3q-126 0 -208.5 -22.5t-130.5 -76t-67.5 -143t-19.5 -223.5v-57q0 -137 19.5 -226.5t67.5 -142.5t130.5 -74.5 t208.5 -21.5q55 0 110.5 3.5t100.5 12.5q12 1 15 -10l10 -36q1 -2 1 -4q0 -8 -10 -9q-24 -5 -52 -8t-58 -5.5t-60 -3.5t-57 -1q-135 0 -228 22t-150.5 79t-83.5 157t-26 256z" />
<glyph unicode="d" horiz-adv-x="1133" d="M145 481v107q0 141 23 237.5t78.5 155t148 84t230.5 25.5q66 0 136.5 -8t127.5 -19v527q0 12 11 16l39 12q3 1 5 1q6 0 6 -9v-1586q0 -13 -12 -14q-85 -16 -161.5 -23t-145.5 -7q-139 0 -232.5 24.5t-149.5 83t-80 154.5t-24 239zM207 498q0 -133 17.5 -221t64 -140.5 t129 -74t213.5 -21.5q66 0 132 5.5t126 14.5v940q-29 6 -63 11t-69.5 8.5t-69.5 5.5t-62 2q-127 0 -208 -21.5t-127.5 -74t-64.5 -140t-18 -219.5v-75z" />
<glyph unicode="e" horiz-adv-x="1147" d="M142 510v70q0 128 23.5 224t76.5 159.5t138 95t207 31.5q119 0 203 -30t137 -88.5t77.5 -145t24.5 -199.5q0 -33 -2 -56t-4 -35q-1 -12 -14 -12h-805v-14q0 -128 19 -217t64.5 -145t122 -81.5t191.5 -25.5q42 0 81.5 0.5t79 3t80 8t85.5 14.5q12 1 15 -10l11 -35 q3 -12 -9 -13q-41 -8 -80 -13.5t-80 -9t-85 -5t-96 -1.5q-125 0 -212.5 27.5t-142.5 89.5t-80.5 163.5t-25.5 249.5zM204 584h766q0 113 -18.5 196.5t-62.5 138.5t-117.5 82t-184.5 27q-108 0 -180.5 -26.5t-117.5 -81t-64.5 -138t-20.5 -198.5z" />
<glyph unicode="f" horiz-adv-x="684" d="M50 1032v27q0 12 12 12h226v238q0 84 14 143.5t48 97t91.5 55t143.5 17.5q47 0 91 -2.5t81 -7.5q9 -1 9 -8q0 -2 -1 -5l-13 -36q-4 -10 -16 -9q-17 2 -37 3.5t-40.5 2t-39.5 1t-34 0.5q-72 0 -117.5 -13.5t-72 -43.5t-36.5 -78t-10 -117v-238h291q13 0 8 -11l-10 -35 q-4 -11 -16 -11h-273v-1002q0 -12 -12 -12h-37q-12 0 -12 12v1002l-226 6q-12 0 -12 12z" />
<glyph unicode="g" horiz-adv-x="1133" d="M145 479v109q0 144 23.5 240.5t79 154.5t147.5 82.5t230 24.5q69 0 147 -5.5t166 -23.5q12 -1 12 -14v-1047q0 -147 -27 -238.5t-83.5 -143.5t-144 -70.5t-208.5 -18.5q-24 0 -58 1.5t-71 4.5t-73.5 8.5t-65.5 13.5q-12 3 -9 14l8 36q3 12 15 9q55 -15 120 -20.5 t134 -5.5q105 0 181 14t125 58t72.5 126t23.5 218q-53 -11 -120.5 -18.5t-129.5 -7.5q-145 0 -240.5 26.5t-151.5 85.5t-79 154.5t-23 232.5zM207 494q0 -130 17.5 -217t65 -139.5t131.5 -74.5t218 -22q27 0 59.5 2t65.5 5.5t65.5 8.5t59.5 11v942q-126 18 -264 18 q-129 0 -210.5 -22t-127.5 -75t-63 -140.5t-17 -219.5v-77z" />
<glyph unicode="h" horiz-adv-x="1169" d="M184 12v1578q0 12 11 16l40 12q3 1 5 1q6 0 6 -9v-625q42 25 91 44.5t100.5 33t102.5 20.5t95 7q112 0 182 -21t109 -72.5t53 -137.5t14 -216v-631q0 -12 -12 -12h-37q-12 0 -12 12v629q0 117 -12 192t-45 118.5t-91 60t-149 16.5q-44 0 -94 -6.5t-101 -19.5t-100.5 -33 t-93.5 -47v-910q0 -12 -12 -12h-38q-12 0 -12 12z" />
<glyph unicode="i" horiz-adv-x="444" d="M185 1272v252q0 12 12 15l50 14q2 1 4 1q8 0 8 -10v-272q0 -12 -12 -12h-50q-12 0 -12 12zM192 12v1047q0 12 12 12h37q12 0 12 -12v-1047q0 -12 -12 -12h-37q-12 0 -12 12z" />
<glyph unicode="j" horiz-adv-x="444" d="M-158 -442l9 35q3 11 15 10q29 -5 62.5 -9t62.5 -4q59 0 98 10t62 37t32 74t9 121v1227q0 12 12 12h37q12 0 12 -12v-1227q0 -98 -15 -157.5t-47 -91.5t-81.5 -43t-118.5 -11q-31 0 -70 3t-71 12q-9 2 -9 10q0 2 1 4zM185 1272v252q0 12 12 15l50 14q2 1 4 1q8 0 8 -10 v-272q0 -12 -12 -12h-50q-12 0 -12 12z" />
<glyph unicode="k" horiz-adv-x="1000" d="M184 12v1578q0 12 11 16l40 12q3 1 5 1q6 0 6 -9v-992l576 446q10 7 21 7h73q12 0 3 -7l-468 -363l509 -691q3 -4 3 -6q0 -4 -8 -4h-57q-13 0 -19 10l-477 654l-156 -121v-531q0 -12 -12 -12h-38q-12 0 -12 12z" />
<glyph unicode="l" horiz-adv-x="461" d="M200 12v1578q0 12 11 16l39 12q3 1 5 1q6 0 6 -9v-1598q0 -12 -12 -12h-37q-12 0 -12 12z" />
<glyph unicode="m" horiz-adv-x="1703" d="M184 12v1066q0 12 12 12h23q11 0 14 -12l12 -92q31 23 68 42t78 33t84.5 21.5t87.5 7.5q91 0 154.5 -20.5t103.5 -71.5q90 46 182 69t173 23q98 0 165 -19.5t108 -63.5t59 -117t18 -179v-699q0 -12 -12 -12h-38q-12 0 -12 12v666q0 111 -14.5 179.5t-48 106.5t-89 51 t-136.5 13q-79 0 -157 -18t-167 -62q23 -50 34 -119.5t11 -164.5v-652q0 -12 -12 -12h-37q-12 0 -12 12v650q0 115 -15.5 186.5t-48.5 111.5t-85.5 54t-127.5 14q-36 0 -74.5 -4.5t-78.5 -16.5t-80.5 -32.5t-79.5 -51.5v-911q0 -12 -12 -12h-38q-12 0 -12 12z" />
<glyph unicode="n" horiz-adv-x="1169" d="M184 12v1066q0 12 12 12h23q11 0 14 -12l12 -94q99 51 200.5 78.5t199.5 27.5q103 0 170.5 -23.5t107 -74.5t55 -132.5t15.5 -196.5v-651q0 -12 -12 -12h-37q-12 0 -12 12v649q0 105 -15 175t-49 113t-89 61t-134 18q-98 0 -201 -26t-198 -80v-910q0 -12 -12 -12h-38 q-12 0 -12 12z" />
<glyph unicode="o" horiz-adv-x="1173" d="M142 492v83q0 135 25 232.5t78.5 160.5t138 92.5t203.5 29.5q120 0 204 -29.5t137.5 -92.5t78 -160.5t24.5 -232.5v-83q0 -135 -24.5 -232t-78 -159.5t-137.5 -91.5t-204 -29q-119 0 -203.5 29t-138 91.5t-78.5 159.5t-25 232zM204 502q0 -120 18.5 -207t62.5 -143.5 t117.5 -83.5t184.5 -27q109 0 182.5 27t118 83t63.5 143.5t19 209.5v63q0 119 -18.5 206t-62.5 143.5t-117.5 84t-184.5 27.5q-109 0 -182.5 -27t-118 -83.5t-63.5 -143.5t-19 -207v-65z" />
<glyph unicode="p" horiz-adv-x="1133" d="M183 -439v1486q0 13 12 14q88 17 166 23t148 6q136 0 227.5 -23.5t147.5 -81.5t80 -154.5t24 -242.5v-105q0 -140 -22.5 -236t-77.5 -155t-147.5 -85.5t-233.5 -26.5q-65 0 -136 7.5t-126 18.5v-445q0 -12 -12 -12h-38q-12 0 -12 12zM245 68q28 -6 62 -11t69 -8.5 t68.5 -5.5t62.5 -2q86 0 150.5 9.5t111 30.5t77.5 55.5t49 85.5t25 118.5t7 155.5v75q0 133 -17.5 221t-64 140.5t-128 74t-208.5 21.5q-138 0 -264 -18v-942z" />
<glyph unicode="q" horiz-adv-x="1133" d="M145 483v105q0 146 24 242.5t80 154.5t148 81.5t228 23.5q70 0 147.5 -6t165.5 -23q12 -1 12 -14v-1486q0 -12 -12 -12h-37q-12 0 -12 12v445q-28 -5 -60 -10t-66 -8.5t-68.5 -5.5t-65.5 -2q-141 0 -234.5 26.5t-149 85.5t-78 155t-22.5 236zM207 496q0 -132 17.5 -219.5 t64 -140t128.5 -74t212 -21.5q27 0 60.5 2t68.5 5.5t68.5 8.5t62.5 11v942q-126 18 -264 18q-128 0 -209 -21.5t-127.5 -74t-64 -140.5t-17.5 -221v-75z" />
<glyph unicode="r" horiz-adv-x="669" d="M184 12v1066q0 12 12 12h23q11 0 14 -12l9 -74q60 41 141 63.5t166 22.5q42 0 70 -5q11 -1 11 -9q0 -2 -1 -4l-6 -36q-1 -12 -14 -11q-14 2 -28 2.5t-32 0.5q-78 0 -151 -17t-152 -66v-933q0 -12 -12 -12h-38q-12 0 -12 12z" />
<glyph unicode="s" horiz-adv-x="973" d="M124 842q0 69 21.5 116.5t69.5 76.5t125.5 42t188.5 13q78 0 150.5 -6t122.5 -13q12 -1 8 -13l-12 -35q-4 -12 -16 -9q-24 3 -49 6t-54.5 4.5t-65.5 2.5t-82 1q-101 0 -167.5 -8.5t-106 -29.5t-56 -57t-16.5 -91q0 -45 8 -76t32.5 -55.5t71 -47t124.5 -51.5l153 -57 q76 -29 130.5 -54t89 -57t51 -75.5t16.5 -108.5q0 -78 -23 -131.5t-73.5 -86.5t-131.5 -47.5t-198 -14.5q-27 0 -64.5 1.5t-78 5t-81 9.5t-74.5 16q-11 4 -7 15l10 33q4 12 16 9q71 -17 137.5 -22.5t141.5 -5.5q102 0 171.5 9.5t112.5 34.5t62 66.5t19 106.5q0 51 -11 84.5 t-39.5 60t-78 49.5t-127.5 52l-183 69q-56 22 -100 43t-74.5 50t-46.5 71t-16 105z" />
<glyph unicode="t" horiz-adv-x="745" d="M36 1034v25q0 12 12 12h223v201q0 12 11 16l40 13q3 1 5 1q6 0 6 -9v-222h350q10 0 10 -8q0 -2 -1 -4l-10 -33q-3 -12 -15 -12h-334v-778q0 -65 8 -103.5t25 -59t45 -26.5t69 -6q39 0 80 4.5t70 12.5q12 3 15 -9l8 -34q3 -11 -9 -14q-30 -8 -74.5 -14.5t-89.5 -6.5 q-53 0 -92 8.5t-65 35.5t-39 77.5t-13 134.5v778l-223 8q-12 0 -12 12z" />
<glyph unicode="u" horiz-adv-x="1166" d="M175 418v641q0 12 12 12h38q12 0 12 -12v-641q0 -116 17 -189.5t58.5 -115t111.5 -57t175 -15.5q41 0 85 3t86.5 7.5t81.5 11t71 13.5v983q0 12 12 12h37q12 0 12 -12v-1018q0 -12 -12 -15q-69 -17 -164 -31.5t-207 -14.5q-128 0 -210.5 23t-130.5 75t-66.5 135.5 t-18.5 204.5z" />
<glyph unicode="v" horiz-adv-x="983" d="M54 1060q-1 3 -1 5q0 6 9 6h40q12 0 16 -11l373 -986l374 986q4 11 16 11h40q9 0 9 -6q0 -2 -1 -5l-394 -1049q-4 -11 -16 -11h-55q-12 0 -16 11z" />
<glyph unicode="w" horiz-adv-x="1614" d="M67 1059q-1 2 -1 4q0 8 10 8h42q12 0 15 -12l267 -909q4 -13 8 -26.5t7 -24.5t5 -18t3 -7q2 1 9.5 24.5t17.5 53.5l315 908q4 11 16 11h54q12 0 16 -11l311 -910q11 -29 19 -52.5t10 -23.5q2 1 9 25.5t15 50.5l268 909q3 12 15 12h41q10 0 10 -8q0 -2 -1 -4l-311 -1047 q-3 -12 -15 -12h-54q-12 0 -16 11l-322 923q-8 23 -14 43t-8 20q-2 -1 -8.5 -20.5t-14.5 -42.5l-323 -923q-4 -11 -16 -11h-54q-12 0 -15 12z" />
<glyph unicode="x" horiz-adv-x="1006" d="M74 10l392 524l-392 527q-3 4 -3 6q0 4 8 4h49q13 0 19 -10l355 -483l356 483q6 10 19 10h50q8 0 8 -4q0 -2 -3 -6l-394 -527l394 -524q3 -4 3 -6q0 -4 -8 -4h-50q-13 0 -19 10l-356 479l-355 -479q-6 -10 -19 -10h-49q-8 0 -8 4q0 2 3 6z" />
<glyph unicode="y" horiz-adv-x="940" d="M35 -442l8 35q3 12 15 9q23 -5 49 -8.5t46 -3.5q40 0 70.5 4t55.5 18.5t47 41.5t43.5 72.5t45.5 112.5t54 161h-5q-12 0 -17 11q-8 17 -18 44l-375 1005q-5 11 8 11h42q12 0 16 -11l330 -878q15 -42 25 -72t14 -30l325 980q4 11 16 11h42q9 0 9 -6q0 -2 -1 -5l-377 -1142 q-29 -86 -53.5 -148.5t-48.5 -106t-49 -70t-54 -40.5t-64.5 -19t-80.5 -5q-23 0 -53.5 3.5t-56.5 10.5q-9 3 -9 11q0 2 1 4z" />
<glyph unicode="z" horiz-adv-x="981" d="M105 12v33q0 10 1.5 15.5t6.5 11.5l692 938h-688q-12 0 -12 12v37q0 12 12 12h746q12 0 12 -12v-37q0 -8 -2.5 -13t-5.5 -10l-689 -938h685q12 0 12 -12v-37q0 -12 -12 -12h-746q-12 0 -12 12z" />
<glyph unicode="{" horiz-adv-x="585" d="M100 520v46q0 12 10 18q36 23 58 45t34.5 52t16.5 72t4 107v393q0 72 9.5 116t31.5 67.5t57 31t85 7.5h141q12 0 12 -12v-38q0 -12 -12 -12h-139q-39 0 -63 -5t-37.5 -21.5t-18 -48.5t-4.5 -85v-393q0 -65 -5 -113t-18.5 -85.5t-37.5 -66t-62 -52.5q38 -25 62 -53.5 t37.5 -66t18.5 -86t5 -112.5v-393q0 -53 4.5 -84.5t18 -48.5t37.5 -22t63 -5h139q12 0 12 -12v-37q0 -12 -12 -12h-141q-50 0 -85 7.5t-57 31t-31.5 67t-9.5 115.5v393q0 64 -4 106.5t-16.5 72.5t-34.5 52t-58 46q-10 6 -10 18z" />
<glyph unicode="|" horiz-adv-x="444" d="M191 -377v1840q0 12 12 12h38q12 0 12 -12v-1840q0 -12 -12 -12h-38q-12 0 -12 12z" />
<glyph unicode="}" horiz-adv-x="585" d="M26 -340v-37q0 -12 12 -12h141q50 0 85 7.5t57 31t31.5 67t9.5 115.5v393q0 64 4 106.5t16.5 72.5t34.5 52t58 46q10 6 10 18v46q0 12 -10 18q-36 23 -58 45t-34.5 52t-16.5 72t-4 107v393q0 72 -9.5 116t-31.5 67.5t-57 31t-85 7.5h-141q-12 0 -12 -12v-38q0 -12 12 -12 h139q39 0 63 -5t37.5 -21.5t18 -48.5t4.5 -85v-393q0 -65 5 -113t18.5 -85.5t37.5 -66t62 -52.5q-38 -25 -62 -53.5t-37.5 -66t-18.5 -86t-5 -112.5v-393q0 -53 -4.5 -84.5t-18 -48.5t-37.5 -22t-63 -5h-139q-12 0 -12 -12z" />
<glyph unicode="~" horiz-adv-x="998" d="M161 678v23q0 78 16 124t40 70t52.5 30.5t53.5 6.5q48 0 86.5 -22.5t70.5 -53.5l64 -59q35 -32 68 -54t73 -22q24 0 42.5 6t31 26.5t19.5 58.5t8 102q0 12 12 12h35q12 0 12 -12v-23q0 -78 -16 -123.5t-40 -69t-52.5 -30t-53.5 -6.5q-48 0 -87 21.5t-71 52.5l-63 59 q-35 32 -68 55t-73 23q-24 0 -42.5 -6.5t-31 -27t-19.5 -59t-8 -102.5q0 -12 -12 -12h-35q-12 0 -12 12z" />
<glyph unicode="&#xa2;" horiz-adv-x="939" d="M128 508v110q0 129 17.5 223t58.5 157t109 97.5t170 45.5v240q0 12 12 12h37q12 0 12 -12v-235q13 0 26 0.5t27 0.5q61 0 117 -5t101 -15q12 -3 8 -14l-11 -34q-4 -12 -16 -9q-45 8 -98 11.5t-101 3.5q-14 0 -27 -0.5t-26 -1.5v-1041q13 0 26 -0.5t27 -0.5q54 0 107.5 4 t95.5 13q12 3 15 -9l9 -36q3 -11 -9 -14q-44 -9 -104 -14t-114 -5q-14 0 -27 0.5t-26 0.5v-235q0 -12 -12 -12h-37q-12 0 -12 12v239q-97 9 -164.5 38.5t-110 90t-61.5 157t-19 237.5zM190 522q0 -123 13.5 -209t47.5 -142t90 -85.5t142 -39.5v1033q-86 -11 -142 -41 t-90 -86.5t-47.5 -142t-13.5 -205.5v-82z" />
<glyph unicode="&#xa3;" horiz-adv-x="1054" d="M124 12v46q0 12 10 18q36 23 58 45t34.5 52t16.5 72t4 107v418h-111q-12 0 -12 12v37q0 12 12 12h111v218q0 119 18 200.5t70 131.5t146 72t245 22h142q12 0 12 -12v-38q0 -12 -12 -12h-139q-133 0 -215.5 -17.5t-128 -59.5t-61 -112t-15.5 -175v-218h508q12 0 9 -12 l-8 -37q-3 -12 -15 -12h-494v-418q0 -57 -4 -101.5t-14 -79.5t-27.5 -61.5t-45.5 -48.5h716q12 0 12 -12v-37q0 -12 -12 -12h-798q-12 0 -12 12z" />
<glyph unicode="&#xa5;" horiz-adv-x="1201" d="M69 1464q-6 11 6 11h43q11 0 18 -11l459 -860l459 860q7 11 18 11h42q12 0 6 -11l-452 -860h329q12 0 9 -12l-8 -37q-3 -12 -15 -12h-347l-10 -20v-146h373q12 0 9 -12l-8 -38q-3 -12 -15 -12h-359v-303q0 -12 -12 -12h-37q-12 0 -12 12v303h-320q-12 0 -9 12l8 38 q3 12 15 12h306v146l-11 20h-309q-12 0 -9 12l8 37q3 12 15 12h263z" />
<glyph unicode="&#xa8;" d="M223 1272v252q0 12 12 15l50 14q12 3 12 -9v-272q0 -12 -12 -12h-50q-12 0 -12 12zM481 1272v252q0 12 12 15l50 14q12 3 12 -9v-272q0 -12 -12 -12h-50q-12 0 -12 12z" />
<glyph unicode="&#xa9;" horiz-adv-x="1526" d="M150 770q0 98 10 184.5t36 159t70 130.5t112 98t162.5 61.5t221.5 21.5q189 0 309 -47.5t188 -133.5t93.5 -206.5t25.5 -267.5t-25.5 -268t-93.5 -207.5t-188 -134t-309 -47.5q-126 0 -221 21.5t-163 62t-112 98.5t-70 131t-36 159.5t-10 184.5zM209 770q0 -89 8.5 -168 t30.5 -145t61 -118.5t100.5 -89t148 -56t204.5 -19.5t204.5 19.5t148 56t100.5 89t61 118.5t30.5 145t8.5 168t-8.5 167.5t-30.5 144.5t-61 118.5t-100.5 88.5t-148 55.5t-204.5 19.5t-204.5 -19.5t-148 -55.5t-100.5 -88.5t-61 -118.5t-30.5 -144.5t-8.5 -167.5zM453 729 v80q0 114 18.5 189t59.5 119.5t107.5 62.5t162.5 18q92 0 162 -14q12 -1 9 -13l-10 -33q-3 -11 -15 -10q-33 6 -71.5 8.5t-72.5 2.5q-86 0 -142 -16.5t-88.5 -55.5t-45.5 -104.5t-13 -163.5v-60q0 -98 13 -163.5t45.5 -104.5t88.5 -55.5t142 -16.5q38 0 76 2.5t70 9.5 q12 3 15 -9l8 -35q3 -12 -9 -13q-33 -7 -78 -10.5t-84 -3.5q-96 0 -162.5 18t-107.5 62.5t-59.5 119.5t-18.5 189z" />
<glyph unicode="&#xab;" horiz-adv-x="1082" d="M79 522q-8 9 0 18l371 371q8 9 20 9h62q13 0 3 -8l-385 -381l385 -382q10 -8 -3 -8h-62q-12 0 -20 9zM480 522q-8 9 0 18l371 371q8 9 20 9h62q13 0 3 -8l-385 -381l385 -382q10 -8 -3 -8h-62q-12 0 -20 9z" />
<glyph unicode="&#xad;" horiz-adv-x="817" d="M169 598v37q0 12 12 12h455q12 0 12 -12v-37q0 -12 -12 -12h-455q-12 0 -12 12z" />
<glyph unicode="&#xae;" horiz-adv-x="1262" d="M149 1006q0 115 20 210t73 162.5t147 104.5t241 37t241.5 -37t148.5 -104.5t74.5 -162.5t20.5 -210q0 -116 -20.5 -212t-74.5 -164t-148.5 -105.5t-241.5 -37.5t-241 37.5t-147 105.5t-73 164t-20 212zM210 1006q0 -69 6 -130t22.5 -112.5t46 -92t76 -68.5t113 -43 t156.5 -15q136 0 219 33t128.5 93.5t61 145.5t15.5 189q0 103 -15.5 187.5t-61 144t-128.5 92t-219 32.5q-90 0 -156.5 -14.5t-113 -42.5t-76 -67.5t-46 -90.5t-22.5 -111.5t-6 -129.5zM425 674v645q0 12 12 13q43 4 83.5 4.5t80.5 0.5q64 0 114 -6t84.5 -26t53 -57.5 t18.5 -100.5v-45q0 -78 -26.5 -118.5t-89.5 -56.5l147 -253q1 -5 -1 -7l-2 -2q-3 -3 -8 -3h-44q-11 0 -18 10l-136 245q-20 -2 -43 -3t-49 -1q-28 0 -55.5 0.5t-59.5 4.5v-244q0 -12 -12 -12h-37q-12 0 -12 12zM486 977q28 -3 60.5 -3.5t54.5 -0.5q58 0 97.5 4t64.5 18.5 t36 42.5t11 76v27q0 48 -12 75.5t-37 41t-65 17t-95 3.5h-30.5t-33 -0.5t-30 -1.5t-21.5 -2v-297z" />
<glyph unicode="&#xb4;" d="M254 1269l184 238q6 9 19 9h62q11 0 4 -9l-198 -238q-8 -9 -20 -9h-46q-12 0 -5 9z" />
<glyph unicode="&#xb8;" d="M282 -378l141 265q7 11 18 11h44q12 0 7 -11l-133 -265q-6 -11 -17 -11h-54q-12 0 -6 11z" />
<glyph unicode="&#xbb;" horiz-adv-x="1082" d="M146 149l385 382l-385 381q-10 8 3 8h62q12 0 20 -9l371 -371q8 -9 0 -18l-371 -372q-8 -9 -20 -9h-62q-13 0 -3 8zM547 149l385 382l-385 381q-10 8 3 8h62q12 0 20 -9l371 -371q8 -9 0 -18l-371 -372q-8 -9 -20 -9h-62q-13 0 -3 8z" />
<glyph unicode="&#x2c6;" d="M151 1279l199 228q8 9 20 9h38q12 0 20 -9l199 -228q7 -9 -4 -9h-53q-12 0 -20 9l-151 180h-20l-151 -180q-8 -9 -20 -9h-53q-12 0 -4 9z" />
<glyph unicode="&#x2da;" d="M203 1399q0 85 47 125.5t137 40.5q88 0 136 -40.5t48 -123.5q0 -85 -48 -125.5t-136 -40.5q-90 0 -137 40t-47 124zM260 1399q0 -60 30.5 -85.5t96.5 -25.5t95.5 25.5t29.5 87.5q0 60 -28.5 85t-96.5 25q-66 0 -96.5 -25t-30.5 -87z" />
<glyph unicode="&#x2dc;" d="M82 1288v21q0 70 14.5 111t36 62.5t47 27.5t47.5 6q44 0 78.5 -19t63.5 -47l57 -53q31 -29 60.5 -48.5t64.5 -19.5q20 0 36 5.5t27.5 23.5t17.5 51.5t7 89.5q0 12 12 12h33q12 0 12 -12v-20q0 -70 -14.5 -111t-36 -62.5t-47 -27.5t-47.5 -6q-43 0 -77.5 18.5t-63.5 46.5 l-58 54q-31 29 -60.5 48t-64.5 19q-20 0 -36 -5.5t-27.5 -23t-17.5 -51t-7 -90.5q0 -12 -12 -12h-33q-12 0 -12 12z" />
<glyph unicode="&#x401;" horiz-adv-x="1177" d="M216 12v1451q0 12 12 12h801q12 0 12 -12v-38q0 -12 -12 -12h-752v-563h668q12 0 12 -12v-38q0 -12 -12 -12h-668v-727h752q12 0 12 -12v-37q0 -12 -12 -12h-801q-12 0 -12 12zM466 1620v191q0 12 12 15l48 14q12 3 12 -9v-211q0 -12 -12 -12h-48q-12 0 -12 12zM722 1620 v191q0 12 12 15l48 14q12 3 12 -9v-211q0 -12 -12 -12h-48q-12 0 -12 12z" />
<glyph unicode="&#x402;" horiz-adv-x="1484" d="M33 1425v38q0 12 12 12h1086q12 0 12 -12v-38q0 -12 -12 -12h-513v-413q41 21 87.5 38t93.5 28.5t93 17.5t87 6q112 0 182 -21t109 -72.5t53 -137.5t14 -216v-346q0 -102 -15 -164.5t-46 -96t-79 -45t-114 -11.5q-31 0 -68 4t-68 12q-11 4 -8 15l8 34q3 12 15 9 q28 -6 60 -9.5t61 -3.5q56 0 93.5 11t59.5 39.5t31 78t9 127.5v344q0 117 -12 192t-45 118.5t-91 60t-149 16.5q-41 0 -86.5 -5.5t-92.5 -17t-93.5 -28.5t-88.5 -39v-926q0 -12 -12 -12h-37q-12 0 -12 12v1401h-512q-12 0 -12 12z" />
<glyph unicode="&#x403;" horiz-adv-x="1036" d="M216 12v1451q0 12 12 12h764q12 0 12 -12v-38q0 -12 -12 -12h-715v-1401q0 -12 -12 -12h-37q-12 0 -12 12zM521 1616l204 178q9 8 21 8h97q12 0 2 -7l-238 -180q-10 -7 -22 -7h-61q-11 0 -3 8z" />
<glyph unicode="&#x404;" horiz-adv-x="1168" d="M157 672q0 -198 37.5 -330.5t109 -213t175.5 -114.5t237 -34q45 0 89.5 2.5t83.5 6t71 9t54 11.5q7 2 9.5 4t2.5 9l-8 38q-3 11 -15 8q-56 -11 -125 -19t-162 -8q-118 0 -210 29t-155 100.5t-96 191t-33 300.5v126h732q12 0 12 12v38q0 12 -12 12h-731q3 169 38 281.5 t98 179.5t153 95t204 28q66 0 141.5 -5t139.5 -18q8 -2 9.5 1t3.5 10l7 34q2 7 -1 9t-10 4q-52 11 -129 18.5t-161 7.5q-133 0 -237 -34t-175.5 -114.5t-109 -213.5t-37.5 -330v-131z" />
<glyph unicode="&#x405;" horiz-adv-x="1147" d="M127 1159q0 88 27.5 151.5t89.5 104.5t162 60.5t245 19.5q42 0 84 -1.5t82 -5t75.5 -8t64.5 -10.5q12 -1 9 -13l-11 -34q-3 -11 -15 -10q-27 6 -63 10t-75 6.5t-79 3.5t-76 1q-128 0 -215.5 -14t-141.5 -46t-78 -84.5t-24 -130.5q0 -79 22.5 -130t67 -87t110.5 -63 t153 -58l147 -53q102 -37 168 -74t104.5 -82t53 -102t14.5 -135q0 -60 -7.5 -113t-28 -97t-57.5 -78.5t-96.5 -58t-145 -36t-201.5 -12.5q-44 0 -90 2t-91 5.5t-86 9t-74 12.5q-13 3 -7 14l15 34q6 11 17 9q92 -14 169.5 -19.5t146.5 -5.5q162 0 256.5 23t143 66.5t62 105 t13.5 139.5q0 48 -5 85t-19 67t-40 54.5t-67 48.5t-100 49t-140 56l-125 47q-88 34 -153 65t-107.5 71.5t-63 97.5t-20.5 143z" />
<glyph unicode="&#x406;" horiz-adv-x="493" d="M216 12v1451q0 12 12 12h37q12 0 12 -12v-1451q0 -12 -12 -12h-37q-12 0 -12 12z" />
<glyph unicode="&#x407;" horiz-adv-x="493" d="M84 1620v191q0 12 12 15l48 14q12 3 12 -9v-211q0 -12 -12 -12h-48q-12 0 -12 12zM216 12v1451q0 12 12 12h37q12 0 12 -12v-1451q0 -12 -12 -12h-37q-12 0 -12 12zM340 1620v191q0 12 12 15l48 14q12 3 12 -9v-211q0 -12 -12 -12h-48q-12 0 -12 12z" />
<glyph unicode="&#x408;" horiz-adv-x="492" d="M-32 -208l9 34q3 11 14 8q20 -6 41.5 -7t43.5 -1q31 0 57 5t44 23t28 52.5t10 93.5v1463q0 12 12 12h37q12 0 12 -12v-1463q0 -80 -15 -127t-42 -71t-63.5 -31t-79.5 -7q-23 0 -50 3.5t-49 10.5q-12 3 -9 14z" />
<glyph unicode="&#x409;" horiz-adv-x="2014" d="M36 43q-3 11 9 14q78 19 126 107.5t75 254t36.5 412.5t9.5 582v50q0 12 12 12h768q12 0 12 -12v-591q22 3 54.5 5.5t70 4t77.5 2.5t76 1q135 0 237.5 -14t171.5 -58.5t103.5 -128t34.5 -223.5v-58q0 -93 -15.5 -160.5t-46 -114.5t-76.5 -76t-107 -45t-136.5 -21.5 t-165.5 -5.5q-74 0 -161.5 3.5t-166.5 11.5q-12 1 -12 13v1405h-669q0 -252 -6 -450.5t-19.5 -350.5t-35.5 -261.5t-55 -182t-77 -112.5t-102 -54q-12 -3 -15 9zM1084 51q68 -5 137 -7.5t141 -2.5q83 0 151.5 3.5t122.5 16t94 36.5t66 64t39 99.5t13 142.5v58 q0 125 -29 197.5t-89 109t-151.5 46t-216.5 9.5q-70 0 -138 -3t-140 -10v-759z" />
<glyph unicode="&#x40a;" horiz-adv-x="2095" d="M216 12v1451q0 12 12 12h37q12 0 12 -12v-613h825v613q0 11 9 12h3h38h3l6 -2q0 -1 1 -1q0 -1 0.5 -2t0.5 -2l1 -2v-3v-591q22 3 54.5 5.5t70 4t77.5 2.5t76 1q135 0 237.5 -14t171.5 -58.5t103.5 -128t34.5 -223.5v-58q0 -93 -15.5 -160.5t-46 -114.5t-76.5 -76 t-107 -45t-136.5 -21.5t-165.5 -5.5q-74 0 -161.5 3.5t-166.5 11.5q-12 1 -12 13v780h-825v-776q0 -12 -12 -12h-37q-12 0 -12 12zM1164 51q68 -5 137 -7.5t141 -2.5q83 0 151.5 3.5t122.5 16t94 36.5t66 64t39 99.5t13 142.5v58q0 125 -29 197.5t-89 109t-151.5 46 t-216.5 9.5q-70 0 -138 -3t-140 -10v-759z" />
<glyph unicode="&#x40b;" horiz-adv-x="1492" d="M33 1425v38q0 12 12 12h1086q12 0 12 -12v-38q0 -12 -12 -12h-513v-407q41 19 87.5 35t93.5 26.5t93 16.5t87 6q112 0 182 -21t109 -72.5t53 -137.5t14 -216v-631q0 -12 -12 -12h-37q-12 0 -12 12v629q0 117 -12 192t-45 118.5t-91 60t-149 16.5q-41 0 -86.5 -5.5 t-92.5 -17t-93.5 -28.5t-88.5 -39v-926q0 -12 -12 -12h-37q-12 0 -12 12v1401h-512q-12 0 -12 12z" />
<glyph unicode="&#x40c;" horiz-adv-x="1075" d="M216 12v1451q0 12 12 12h37q12 0 12 -12v-613l659 617q9 8 21 8h64q11 0 3 -8l-716 -674l737 -784q7 -9 -4 -9h-62q-12 0 -20 9l-682 726v-723q0 -12 -12 -12h-37q-12 0 -12 12zM491 1616l204 178q9 8 21 8h97q12 0 2 -7l-238 -180q-10 -7 -22 -7h-61q-11 0 -3 8z" />
<glyph unicode="&#x40e;" horiz-adv-x="1017" d="M61 1464q-6 11 7 11h42q11 0 17 -11l392 -947q11 -27 19 -49t13 -36l353 1032q4 11 16 11h44q13 0 8 -11l-388 -1116q-28 -83 -52.5 -142.5t-48.5 -100.5t-48.5 -65.5t-53 -38t-62.5 -17.5t-77 -4q-28 0 -59.5 4t-60.5 12q-11 4 -8 15l9 34q3 12 15 9q26 -6 54 -9.5 t52 -3.5q52 0 88.5 9.5t66.5 41t58.5 92.5t64.5 164zM281 1790q-3 12 10 12h37q11 0 14 -12q7 -41 25 -69t43 -45t55 -24.5t60 -7.5t60 7.5t55 24.5t43 45t25 69q3 12 14 12h37q13 0 10 -12q-6 -44 -24 -81t-48.5 -63t-73 -40.5t-98.5 -14.5t-98.5 14.5t-72.5 40.5t-48 63 t-25 81z" />
<glyph unicode="&#x40f;" horiz-adv-x="1337" d="M216 12v1451q0 12 12 12h37q12 0 12 -12v-1402h783v1402q0 12 12 12h37q12 0 12 -12v-1451q0 -12 -12 -12h-410v-269q0 -12 -12 -12h-37q-12 0 -12 12v269h-410q-12 0 -12 12z" />
<glyph unicode="&#x410;" horiz-adv-x="1272" d="M43 11l545 1453q4 11 16 11h64q12 0 16 -11l547 -1453q5 -11 -8 -11h-44q-12 0 -16 11l-172 458h-711l-172 -458q-4 -11 -16 -11h-41q-13 0 -8 11zM303 530h665l-333 883z" />
<glyph unicode="&#x411;" horiz-adv-x="1229" d="M215 8v1455q0 12 12 12h764q12 0 12 -12v-38q0 -12 -12 -12h-715v-541q22 3 54.5 5.5t70 4t77.5 2.5t77 1q135 0 237.5 -14t171 -58.5t103.5 -128t35 -223.5v-58q0 -93 -15.5 -160.5t-46.5 -114.5t-76.5 -76t-106.5 -45t-136.5 -21.5t-165.5 -5.5q-37 0 -78.5 1t-84 2.5 t-84.5 4.5t-81 7q-12 1 -12 13zM276 51q68 -5 137.5 -7.5t141.5 -2.5q83 0 151.5 3.5t122.5 16t93.5 36.5t66 64t39 99.5t12.5 142.5v58q0 125 -29 197.5t-88.5 109t-151 46t-216.5 9.5q-70 0 -138.5 -3t-140.5 -10v-759z" />
<glyph unicode="&#x412;" horiz-adv-x="1282" d="M214 8v1455q0 12 12 13q62 8 144 11.5t166 3.5q133 0 234 -12.5t169.5 -48.5t103.5 -101t35 -170v-12q0 -65 -13.5 -116.5t-37 -89.5t-55.5 -63.5t-69 -38.5q56 -12 100.5 -40t75 -74t47 -112t16.5 -154v-56q0 -93 -16 -160.5t-48.5 -114.5t-80.5 -76t-111.5 -45 t-142.5 -21.5t-173 -5.5q-38 0 -81.5 1t-88 2.5t-89 4.5t-85.5 7q-12 1 -12 13zM275 51q72 -5 145 -7.5t150 -2.5q88 0 160 3.5t128.5 16t98 36.5t69 64t41 99.5t13.5 142.5v58q0 95 -22 158t-61.5 100.5t-94 53t-119.5 15.5h-508v-737zM275 850h449q77 2 132.5 23.5 t91 59.5t52.5 90t17 114v16q0 92 -31.5 147t-93 84t-151.5 37.5t-208 8.5q-80 0 -145.5 -2.5t-112.5 -8.5v-569z" />
<glyph unicode="&#x413;" horiz-adv-x="1037" d="M216 12v1451q0 12 12 12h764q12 0 12 -12v-38q0 -12 -12 -12h-715v-1401q0 -12 -12 -12h-37q-12 0 -12 12z" />
<glyph unicode="&#x414;" horiz-adv-x="1349" d="M33 49q0 12 12 12h29q41 0 74 28.5t58 92.5t43 168t29.5 254t16.5 350.5t5 458.5v50q0 12 12 12h805q12 0 12 -12v-1402h50q12 0 12 -12v-313q0 -12 -12 -12h-38q-12 0 -12 12v264h-1034v-264q0 -12 -12 -12h-38q-12 0 -12 12v313zM193 61h875v1352h-707 q0 -320 -7 -554.5t-25.5 -397t-51.5 -259.5t-84 -141z" />
<glyph unicode="&#x415;" horiz-adv-x="1177" d="M216 12v1451q0 12 12 12h801q12 0 12 -12v-38q0 -12 -12 -12h-752v-563h668q12 0 12 -12v-38q0 -12 -12 -12h-668v-727h752q12 0 12 -12v-37q0 -12 -12 -12h-801q-12 0 -12 12z" />
<glyph unicode="&#x416;" horiz-adv-x="1658" d="M29 9l738 784l-716 674q-8 8 3 8h64q12 0 21 -8l658 -617v613q0 12 12 12h38q12 0 12 -12v-613l658 617q9 8 21 8h65q11 0 3 -8l-716 -674l737 -784q7 -9 -4 -9h-62q-12 0 -20 9l-682 726v-723q0 -12 -12 -12h-38q-12 0 -12 12v723l-682 -726q-8 -9 -20 -9h-62 q-12 0 -4 9z" />
<glyph unicode="&#x417;" horiz-adv-x="1116" d="M148 12l2 38q0 12 12 11q64 -8 141.5 -14t148.5 -6q115 0 199 18t139 59.5t81.5 109t26.5 167.5v41q0 37 -6.5 77.5t-21 79.5t-39 74.5t-60.5 62t-85 42.5t-113 16h-371q-12 0 -12 12v38q0 12 12 12h371q98 0 161 27.5t99.5 68t50.5 86t14 82.5v25q0 89 -31 146.5 t-88.5 91t-140.5 46.5t-186 13q-68 0 -141 -5.5t-137 -13.5q-12 -1 -13 11l-2 35q-1 12 11 13q59 7 132 13t150 6q119 0 213 -16.5t159.5 -57t100.5 -109.5t35 -173v-25q0 -47 -14 -93.5t-44.5 -87t-79 -71t-116.5 -45.5q76 -20 125.5 -63t78 -97t39.5 -112t11 -109v-41 q0 -120 -34.5 -200t-100 -128t-159.5 -67.5t-214 -19.5q-80 0 -156 5.5t-136 13.5q-12 1 -12 13z" />
<glyph unicode="&#x418;" horiz-adv-x="1388" d="M216 12v1451q0 12 12 12h37q12 0 12 -12l2 -1362l6.5 10t17 27.5t24.5 41.5t30 52l732 1233q6 10 18 10h53q12 0 12 -12v-1451q0 -12 -12 -12h-37q-12 0 -12 12l-1 1363q-1 0 -21 -32t-54 -91l-735 -1242q-6 -10 -18 -10h-54q-12 0 -12 12z" />
<glyph unicode="&#x419;" horiz-adv-x="1388" d="M216 12v1451q0 12 12 12h37q12 0 12 -12l2 -1362l6.5 10t17 27.5t24.5 41.5t30 52l732 1233q6 10 18 10h53q12 0 12 -12v-1451q0 -12 -12 -12h-37q-12 0 -12 12l-1 1363q-1 0 -21 -32t-54 -91l-735 -1242q-6 -10 -18 -10h-54q-12 0 -12 12zM446 1790q-3 12 10 12h37 q11 0 14 -12q7 -41 25 -69t43 -45t55 -24.5t60 -7.5t60 7.5t55 24.5t43 45t25 69q3 12 14 12h37q13 0 10 -12q-6 -44 -24 -81t-48.5 -63t-73 -40.5t-98.5 -14.5t-98.5 14.5t-72.5 40.5t-48 63t-25 81z" />
<glyph unicode="&#x41a;" horiz-adv-x="1075" d="M216 12v1451q0 12 12 12h37q12 0 12 -12v-613l659 617q9 8 21 8h64q11 0 3 -8l-716 -674l737 -784q7 -9 -4 -9h-62q-12 0 -20 9l-682 726v-723q0 -12 -12 -12h-37q-12 0 -12 12z" />
<glyph unicode="&#x41b;" horiz-adv-x="1300" d="M36 43q-3 11 9 14q78 19 126 107.5t75 254t36.5 412.5t9.5 582v50q0 12 12 12h768q12 0 12 -12v-1451q0 -12 -12 -12h-38q-12 0 -12 12v1401h-669q0 -252 -6 -450.5t-19.5 -350.5t-35.5 -261.5t-55 -182t-77 -112.5t-102 -54q-12 -3 -15 9z" />
<glyph unicode="&#x41c;" horiz-adv-x="1608" d="M216 12v1451q0 12 12 12h42q11 0 18 -10l450 -795q12 -20 23.5 -40.5t21 -37t15.5 -27l6 -10.5l6 11t15.5 27.5t21.5 37t24 41.5l449 793q7 10 18 10h42q12 0 12 -12v-1451q0 -12 -12 -12h-38q-12 0 -12 12l-2 1334q-2 -1 -15 -24t-30 -52l-440 -775q-7 -10 -18 -10h-42 q-11 0 -18 10l-436 769q-19 34 -33 58t-16 24l-3 -1334q0 -12 -12 -12h-37q-12 0 -12 12z" />
<glyph unicode="&#x41d;" horiz-adv-x="1380" d="M216 12v1451q0 12 12 12h37q12 0 12 -12v-613h826v613q0 12 12 12h37q12 0 12 -12v-1451q0 -12 -12 -12h-37q-12 0 -12 12v776h-826v-776q0 -12 -12 -12h-37q-12 0 -12 12z" />
<glyph unicode="&#x41e;" horiz-adv-x="1415" d="M158 672v131q0 197 36.5 330t106.5 213.5t173 114.5t235 34q133 0 235 -34t171.5 -114.5t105.5 -213.5t36 -330v-131q0 -198 -36 -330.5t-105.5 -213t-171.5 -114.5t-235 -34q-132 0 -235 34t-173 114.5t-106.5 213t-36.5 330.5zM223 662q0 -181 32.5 -300t94.5 -189.5 t152.5 -99t206.5 -28.5t206 28.5t151.5 99.5t93.5 190t32 301v149q0 180 -32 299t-93.5 189.5t-151.5 99.5t-206 29t-206 -29t-152.5 -99.5t-95 -189.5t-32.5 -299v-151z" />
<glyph unicode="&#x41f;" horiz-adv-x="1380" d="M216 12v1451q0 12 12 12h924q12 0 12 -12v-1451q0 -12 -12 -12h-37q-12 0 -12 12v1401h-826v-1401q0 -12 -12 -12h-37q-12 0 -12 12z" />
<glyph unicode="&#x420;" horiz-adv-x="1242" d="M216 12v1455q0 12 12 13q30 2 68 4t76 3.5t72 2.5t55 1q163 0 282.5 -15t198 -61.5t116.5 -133t38 -230.5v-64q0 -144 -38 -230.5t-116.5 -133t-198 -61.5t-282.5 -15q-23 0 -58 1t-69.5 2.5t-61.5 2.5t-33 2v-543q0 -12 -12 -12h-37q-12 0 -12 12zM277 616q16 -2 46 -3 t63.5 -2.5t64 -2t48.5 -0.5q160 0 270 15.5t177 57.5t96.5 117t29.5 195v51q0 120 -29.5 195.5t-96.5 117.5t-177 57.5t-270 15.5q-18 0 -48.5 -1t-64 -2t-63.5 -3t-46 -3v-805z" />
<glyph unicode="&#x421;" horiz-adv-x="1159" d="M154 672v131q0 197 39.5 330t114.5 213.5t183.5 114.5t247.5 34q88 0 169 -7.5t137 -18.5q12 -3 9 -15l-7 -33q-3 -11 -15 -10q-64 13 -142.5 18t-150.5 5q-123 0 -219.5 -29.5t-163 -100.5t-102 -191t-35.5 -300v-151q0 -181 35 -300.5t101.5 -191t163.5 -100.5t220 -29 q95 0 170 7.5t132 19.5q13 1 14 -10l8 -34q1 -12 -10 -15q-57 -14 -140 -21.5t-174 -7.5q-139 0 -247.5 34t-183.5 114.5t-114.5 213t-39.5 330.5z" />
<glyph unicode="&#x422;" horiz-adv-x="1176" d="M33 1425v38q0 12 12 12h1086q12 0 12 -12v-38q0 -12 -12 -12h-513v-1401q0 -12 -12 -12h-37q-12 0 -12 12v1401h-512q-12 0 -12 12z" />
<glyph unicode="&#x423;" horiz-adv-x="1017" d="M61 1464q-6 11 7 11h42q11 0 17 -11l392 -947q11 -27 19 -49t13 -36l353 1032q4 11 16 11h44q13 0 8 -11l-388 -1116q-28 -83 -52.5 -142.5t-48.5 -100.5t-48.5 -65.5t-53 -38t-62.5 -17.5t-77 -4q-28 0 -59.5 4t-60.5 12q-11 4 -8 15l9 34q3 12 15 9q26 -6 54 -9.5 t52 -3.5q52 0 88.5 9.5t66.5 41t58.5 92.5t64.5 164z" />
<glyph unicode="&#x424;" horiz-adv-x="1691" d="M132 659v125q0 168 36.5 271t103 159t160 74.5t208.5 18.5h33.5t44 -1t48.5 -3t48 -5v165q0 12 12 12h37q12 0 12 -12v-165q23 3 48 5t48.5 3t44 1h35.5q114 0 208 -18.5t160.5 -74.5t103 -159t36.5 -271v-125q0 -106 -16.5 -183.5t-47.5 -132t-75.5 -88.5t-101 -53.5 t-124 -26.5t-143.5 -7q-18 0 -46 1t-55 2.5t-48.5 3t-26.5 1.5v-164q0 -12 -12 -12h-37q-12 0 -12 12v164q-5 0 -26 -1.5t-48 -3t-54.5 -2.5t-45.5 -1q-76 0 -143.5 7t-124 26.5t-101 53.5t-75.5 88.5t-47.5 132t-16.5 183.5zM195 666q0 -135 29 -220.5t85 -133.5 t139.5 -65.5t191.5 -17.5q14 0 38 1.5t50 3t49.5 3t36.5 1.5v999q-13 3 -36.5 4.5t-49.5 2.5t-50 1h-38q-108 0 -191.5 -19t-139.5 -70.5t-85 -142.5t-29 -235v-112zM875 238q13 0 36.5 -1.5t50 -3t50.5 -3t39 -1.5q108 0 191 17.5t139.5 65.5t85.5 133.5t29 220.5v112 q0 144 -29 234.5t-85 142.5t-139.5 71t-191.5 19h-39t-50.5 -1t-50 -2.5t-36.5 -4.5v-999z" />
<glyph unicode="&#x425;" horiz-adv-x="1203" d="M62 10l503 726l-503 729q-8 10 5 10h56q13 0 19 -10l460 -683l460 683q6 10 19 10h56q13 0 5 -10l-504 -729l504 -726q8 -10 -5 -10h-56q-13 0 -19 10l-460 681l-460 -681q-6 -10 -19 -10h-56q-13 0 -5 10z" />
<glyph unicode="&#x426;" horiz-adv-x="1340" d="M216 12v1451q0 12 12 12h37q12 0 12 -12v-1402h783v1402q0 12 12 12h37q12 0 12 -12v-1402h49q12 0 12 -12v-318q0 -12 -12 -12h-37q-12 0 -12 12v269h-893q-12 0 -12 12z" />
<glyph unicode="&#x427;" horiz-adv-x="1165" d="M120 1012v451q0 12 12 12h37q12 0 12 -12v-449q0 -84 14 -144t50 -98.5t99.5 -57t162.5 -18.5q42 0 91 5t99 16t99 28.5t92 42.5v675q0 12 12 12h37q12 0 12 -12v-1451q0 -12 -12 -12h-37q-12 0 -12 12v708q-36 -20 -83.5 -35.5t-99 -26.5t-103 -17t-95.5 -6 q-114 0 -189 22t-119 67.5t-61.5 117t-17.5 170.5z" />
<glyph unicode="&#x428;" horiz-adv-x="1976" d="M216 12v1451q0 12 12 12h37q12 0 12 -12v-1402h680v1402q0 12 12 12h38q12 0 12 -12v-1402h680v1402q0 12 12 12h37q12 0 12 -12v-1451q0 -12 -12 -12h-1520q-12 0 -12 12z" />
<glyph unicode="&#x429;" horiz-adv-x="1980" d="M216 12v1451q0 12 12 12h37q12 0 12 -12v-1402h680v1402q0 12 12 12h38q12 0 12 -12v-1402h681v1402q0 12 12 12h37q12 0 12 -12v-1451q0 -12 -12 -12h-1521q-12 0 -12 12zM1763 49q0 12 12 12h37q12 0 12 -12v-318q0 -12 -12 -12h-37q-12 0 -12 12v318z" />
<glyph unicode="&#x42a;" horiz-adv-x="1347" d="M46 1425v38q0 12 12 12h345q12 0 12 -12v-591q22 3 54.5 5.5t70 4t77.5 2.5t76 1q135 0 237.5 -14t171.5 -58.5t103.5 -128t34.5 -223.5v-58q0 -93 -15.5 -160.5t-46 -114.5t-76.5 -76t-107 -45t-136.5 -21.5t-165.5 -5.5q-74 0 -161.5 3.5t-166.5 11.5q-12 1 -12 13 v1405h-295q-12 0 -12 12zM415 51q68 -5 137 -7.5t141 -2.5q83 0 151.5 3.5t122.5 16t94 36.5t66 64t39 99.5t13 142.5v58q0 125 -29 197.5t-89 109t-151.5 46t-216.5 9.5q-70 0 -138 -3t-140 -10v-759z" />
<glyph unicode="&#x42b;" horiz-adv-x="1716" d="M215 8v1455q0 12 12 12h38q12 0 12 -12v-591q22 3 54.5 5.5t70 4t77.5 2.5t76 1q135 0 237.5 -14t171.5 -58.5t103.5 -128t34.5 -223.5v-58q0 -93 -15.5 -160.5t-46 -114.5t-76.5 -76t-107 -45t-136.5 -21.5t-165.5 -5.5q-74 0 -161.5 3.5t-166.5 11.5q-12 1 -12 13z M277 51q68 -5 137 -7.5t141 -2.5q83 0 151.5 3.5t122.5 16t94 36.5t66 64t39 99.5t13 142.5v58q0 125 -29 197.5t-89 109t-151.5 46t-216.5 9.5q-70 0 -138 -3t-140 -10v-759zM1438 12v1451q0 12 12 12h38q12 0 12 -12v-1451q0 -12 -12 -12h-38q-12 0 -12 12z" />
<glyph unicode="&#x42c;" horiz-adv-x="1208" d="M215 8v1455q0 12 12 12h38q12 0 12 -12v-591q22 3 54.5 5.5t70 4t77.5 2.5t76 1q135 0 237.5 -14t171.5 -58.5t103.5 -128t34.5 -223.5v-58q0 -93 -15.5 -160.5t-46 -114.5t-76.5 -76t-107 -45t-136.5 -21.5t-165.5 -5.5q-74 0 -161.5 3.5t-166.5 11.5q-12 1 -12 13z M277 51q68 -5 137 -7.5t141 -2.5q83 0 151.5 3.5t122.5 16t94 36.5t66 64t39 99.5t13 142.5v58q0 125 -29 197.5t-89 109t-151.5 46t-216.5 9.5q-70 0 -138 -3t-140 -10v-759z" />
<glyph unicode="&#x42d;" horiz-adv-x="1168" d="M142 22l8 38q3 11 15 8q56 -11 125 -19t162 -8q118 0 210 29t155 100.5t96 191t33 300.5v126h-732q-12 0 -12 12v38q0 12 12 12h731q-3 169 -38 281.5t-98 179.5t-153 95t-204 28q-66 0 -141.5 -5t-139.5 -18q-8 -2 -9.5 1t-3.5 10l-7 34q-2 7 1 9t10 4q52 11 129 18.5 t161 7.5q133 0 237 -34t175.5 -114.5t109 -213.5t37.5 -330v-131q0 -198 -37.5 -330.5t-109 -213t-175.5 -114.5t-237 -34q-45 0 -89.5 2.5t-83.5 6t-71 9t-54 11.5q-7 2 -9.5 4t-2.5 9z" />
<glyph unicode="&#x42e;" horiz-adv-x="1937" d="M216 12v1451q0 12 12 12h37q12 0 12 -12v-613h402h1q4 183 42.5 307t108.5 199t170.5 107t229.5 32q133 0 235 -34t171.5 -114.5t105.5 -213.5t36 -330v-131q0 -198 -36 -330.5t-105.5 -213t-171.5 -114.5t-235 -34q-132 0 -235 34t-173 114.5t-106.5 213t-36.5 330.5 v116h-1h-402v-776q0 -12 -12 -12h-37q-12 0 -12 12zM745 662q0 -181 32.5 -300t94.5 -189.5t152.5 -99t206.5 -28.5t206 28.5t151.5 99.5t93.5 190t32 301v149q0 180 -32 299t-93.5 189.5t-151.5 99.5t-206 29t-206 -29t-152.5 -99.5t-95 -189.5t-32.5 -299v-151z" />
<glyph unicode="&#x42f;" horiz-adv-x="1314" d="M100 10q-8 -10 5 -10h50q13 0 19 10l385 574q84 -6 188 -6h70t68.5 1t72 2.5t80.5 4.5v-574q0 -12 12 -12h37q12 0 12 12v1449q0 12 -12 13q-91 8 -175 9.5t-169 1.5q-101 0 -184.5 -4t-149.5 -17.5t-115.5 -40.5t-82 -73t-48.5 -114t-16 -165v-82q0 -122 28.5 -199.5 t91.5 -123.5q42 -30 97.5 -48t127.5 -28l-20 -27zM208 1008v57q0 129 32 201t98 107t167.5 42.5t239.5 7.5h81t83.5 -1t75 -2.5t53.5 -4.5v-768q-36 -3 -78 -4.5t-82 -2.5t-74.5 -1h-56.5q-145 0 -247.5 10t-167 47.5t-94.5 111t-30 200.5z" />
<glyph unicode="&#x430;" horiz-adv-x="1082" d="M110 311q0 93 24 155t87 99t173 52.5t281 15.5h172v96q0 91 -12 149.5t-45 91.5t-92.5 45.5t-153.5 12.5q-47 0 -87.5 -2t-79 -6t-75.5 -10t-76 -13q-12 -1 -12 10v38q0 13 12 14q39 8 82 14t85 9.5t81 5.5t70 2q123 0 195 -20.5t109.5 -67.5t48.5 -123t11 -187v-668 q0 -13 -12 -14q-41 -7 -86 -12.5t-89 -9.5t-84.5 -6t-70.5 -2q-116 0 -201.5 14.5t-142 51.5t-84.5 101t-28 164zM171 309q0 -89 28 -142t79.5 -81t125 -36.5t164.5 -8.5q75 0 144 5.5t135 14.5v510h-184q-157 0 -253.5 -10t-149.5 -38.5t-71 -80t-18 -133.5z" />
<glyph unicode="&#x431;" horiz-adv-x="1163" d="M164 501v61q0 148 5 261t21.5 198.5t48.5 146t85 103.5t131.5 71.5t188.5 49.5q172 32 255 78t89 121q0 12 12 12h37q12 0 12 -12q-5 -98 -98.5 -158.5t-286.5 -98.5q-101 -20 -176 -44.5t-127.5 -70t-84 -120t-46.5 -195.5q52 97 142 141.5t221 44.5q115 0 196.5 -30 t133 -93t75 -162t23.5 -237v-67q0 -137 -23.5 -235t-75 -162t-133 -94t-196.5 -30t-196.5 30t-133 94t-75.5 162t-24 235zM226 511q0 -123 17.5 -211.5t60 -146t113 -85t176.5 -27.5q104 0 174.5 27.5t113 85t60.5 147t18 212.5v45q0 122 -17.5 210.5t-59.5 146.5 t-112.5 85.5t-176.5 27.5q-105 0 -175 -27.5t-113 -85t-61 -146t-18 -211.5v-47z" />
<glyph unicode="&#x432;" horiz-adv-x="1111" d="M183 12v1047q0 13 12 14q28 4 61.5 6t69 3.5t70 2t66.5 0.5q118 0 204 -10t142.5 -37t83.5 -75t27 -124v-16q0 -77 -34 -131t-108 -82q47 -9 85 -28t64.5 -51.5t41 -80.5t14.5 -114v-40q0 -102 -31 -163t-92.5 -93.5t-153.5 -42.5t-214 -10q-67 0 -145.5 3t-150.5 9 q-12 1 -12 13zM245 55q60 -5 121.5 -6t126.5 -1q111 0 191.5 6.5t133 32t78 74.5t25.5 135v42q0 72 -19.5 116t-55 69t-83.5 33.5t-105 8.5h-413v-510zM245 620h416h20q55 13 89.5 35.5t54 49t26 55t6.5 53.5v20q0 64 -24 101.5t-73 57.5t-123.5 26t-174.5 6h-57.5t-59.5 -1 t-55.5 -2.5t-44.5 -4.5v-396z" />
<glyph unicode="&#x433;" horiz-adv-x="749" d="M185 12v1047q0 12 12 12h499q12 0 12 -12v-37q0 -12 -12 -12h-449v-998q0 -12 -12 -12h-38q-12 0 -12 12z" />
<glyph unicode="&#x434;" horiz-adv-x="1071" d="M37 49q0 12 12 12h24q64 0 108 48.5t71 160t39 293t12 447.5v49q0 12 12 12h554q12 0 12 -12v-998h49q12 0 12 -12v-313q0 -12 -12 -12h-37q-12 0 -12 12v264h-783v-264q0 -12 -12 -12h-37q-12 0 -12 12v313zM208 61h611v949h-454q0 -102 -1.5 -204.5t-6.5 -199t-15 -184 t-27.5 -159t-43.5 -124t-63 -78.5z" />
<glyph unicode="&#x435;" horiz-adv-x="1147" d="M142 510v70q0 128 23.5 224t76.5 159.5t138 95t207 31.5q119 0 203 -30t137 -88.5t77.5 -145t24.5 -199.5q0 -33 -2 -56t-4 -35q-1 -12 -14 -12h-805v-14q0 -128 19 -217t64.5 -145t122 -81.5t191.5 -25.5q42 0 81.5 0.5t79 3t80 8t85.5 14.5q12 1 15 -10l11 -35 q3 -12 -9 -13q-41 -8 -80 -13.5t-80 -9t-85 -5t-96 -1.5q-125 0 -212.5 27.5t-142.5 89.5t-80.5 163.5t-25.5 249.5zM204 584h766q0 113 -18.5 196.5t-62.5 138.5t-117.5 82t-184.5 27q-108 0 -180.5 -26.5t-117.5 -81t-64.5 -138t-20.5 -198.5z" />
<glyph unicode="&#x436;" horiz-adv-x="1436" d="M47 8l607 566l-589 489q-8 8 3 8h67q12 0 21 -8l531 -443v439q0 12 12 12h38q12 0 12 -12v-439l531 443q9 8 21 8h67q11 0 3 -8l-589 -489l607 -566q8 -8 -3 -8h-66q-12 0 -21 8l-550 517v-513q0 -12 -12 -12h-38q-12 0 -12 12v512l-550 -516q-9 -8 -21 -8h-66 q-11 0 -3 8z" />
<glyph unicode="&#x437;" horiz-adv-x="990" d="M137 1055q-4 11 8 14q51 9 122.5 15t149.5 6q107 0 187 -10.5t133.5 -39t80 -80.5t26.5 -134v-17q0 -36 -8.5 -76t-32.5 -73.5t-67.5 -56t-113.5 -25.5q70 -9 113.5 -36.5t67.5 -64.5t32.5 -77.5t8.5 -74.5v-30q0 -98 -27 -159t-81 -95.5t-134 -47t-185 -12.5 q-75 0 -147 5t-123 16q-12 3 -9 15l8 35q2 7 5 8.5t10 0.5q25 -4 56.5 -7.5t65.5 -6t68.5 -4t65.5 -1.5q96 0 165 10.5t113.5 39t65.5 78.5t21 128v29q0 35 -9 74.5t-40.5 72.5t-91.5 54.5t-162 21.5h-295q-12 0 -12 12v35q0 12 12 12h295q73 0 124 9.5t84.5 25t52.5 36 t28.5 42.5t11.5 44t2 41v17q0 67 -23 107.5t-69 62t-114 28.5t-159 7q-68 0 -134 -5.5t-120 -13.5q-12 -1 -16 10z" />
<glyph unicode="&#x438;" horiz-adv-x="1147" d="M185 12v1047q0 12 12 12h38q12 0 12 -12l1 -974l5 9t12.5 23t18 31.5t22.5 36.5l573 876q6 10 19 10h52q12 0 12 -12v-1047q0 -12 -12 -12h-38q-12 0 -12 12l-1 974l-5.5 -10t-14 -25t-18.5 -32.5t-20 -32.5l-573 -876q-6 -10 -19 -10h-52q-12 0 -12 12z" />
<glyph unicode="&#x439;" horiz-adv-x="1147" d="M185 12v1047q0 12 12 12h38q12 0 12 -12l1 -974l5 9t12.5 23t18 31.5t22.5 36.5l573 876q6 10 19 10h52q12 0 12 -12v-1047q0 -12 -12 -12h-38q-12 0 -12 12l-1 974l-5.5 -10t-14 -25t-18.5 -32.5t-20 -32.5l-573 -876q-6 -10 -19 -10h-52q-12 0 -12 12zM326 1504 q-1 12 11 12h40q12 0 13 -12q6 -50 22.5 -84t40.5 -54t54.5 -28.5t63.5 -8.5t63 8.5t54 28.5t41 54t23 84q1 12 13 12h40q12 0 11 -12q-6 -51 -22.5 -94t-46 -73.5t-73 -47.5t-103.5 -17t-103.5 17t-72.5 47.5t-45.5 73.5t-23.5 94z" />
<glyph unicode="&#x43a;" horiz-adv-x="934" d="M185 12v1047q0 12 12 12h38q12 0 12 -12v-439l531 443q9 8 21 8h67q11 0 3 -8l-589 -489l607 -566q8 -8 -3 -8h-66q-12 0 -21 8l-550 517v-513q0 -12 -12 -12h-38q-12 0 -12 12z" />
<glyph unicode="&#x43b;" horiz-adv-x="1054" d="M40 43q-1 11 10 14q69 11 115.5 69.5t74.5 173t40 289.5t12 421v49q0 12 12 12h554q12 0 12 -12v-1047q0 -12 -12 -12h-38q-12 0 -12 12v998h-454q0 -270 -15.5 -457t-50.5 -305.5t-91.5 -176.5t-138.5 -70q-11 -1 -14 11z" />
<glyph unicode="&#x43c;" horiz-adv-x="1364" d="M185 12v1047q0 12 12 12h42q13 0 19 -10l370 -562q20 -31 36.5 -55.5t17.5 -25.5l54 81l370 562q6 10 19 10h42q12 0 12 -12v-1047q0 -12 -12 -12h-38q-12 0 -12 12l-2 947q-1 0 -5 -6.5t-9.5 -16t-12.5 -21t-14 -21.5l-354 -540q-6 -10 -19 -10h-38q-13 0 -19 10 l-354 540q-7 11 -14 22.5t-13 21t-9.5 15.5t-4.5 6l-2 -947q0 -12 -12 -12h-38q-12 0 -12 12z" />
<glyph unicode="&#x43d;" horiz-adv-x="1187" d="M185 12v1047q0 12 12 12h38q12 0 12 -12v-466h693v466q0 12 12 12h38q12 0 12 -12v-1047q0 -12 -12 -12h-38q-12 0 -12 12v520h-693v-520q0 -12 -12 -12h-38q-12 0 -12 12z" />
<glyph unicode="&#x43e;" horiz-adv-x="1173" d="M142 492v83q0 135 25 232.5t78.5 160.5t138 92.5t203.5 29.5q120 0 204 -29.5t137.5 -92.5t78 -160.5t24.5 -232.5v-83q0 -135 -24.5 -232t-78 -159.5t-137.5 -91.5t-204 -29q-119 0 -203.5 29t-138 91.5t-78.5 159.5t-25 232zM204 502q0 -120 18.5 -207t62.5 -143.5 t117.5 -83.5t184.5 -27q109 0 182.5 27t118 83t63.5 143.5t19 209.5v63q0 119 -18.5 206t-62.5 143.5t-117.5 84t-184.5 27.5q-109 0 -182.5 -27t-118 -83.5t-63.5 -143.5t-19 -207v-65z" />
<glyph unicode="&#x43f;" horiz-adv-x="1153" d="M185 12v1047q0 12 12 12h759q12 0 12 -12v-1047q0 -12 -12 -12h-38q-12 0 -12 12v998h-659v-998q0 -12 -12 -12h-38q-12 0 -12 12z" />
<glyph unicode="&#x440;" horiz-adv-x="1133" d="M183 -439v1486q0 13 12 14q88 17 166 23t148 6q136 0 227.5 -23.5t147.5 -81.5t80 -154.5t24 -242.5v-105q0 -140 -22.5 -236t-77.5 -155t-147.5 -85.5t-233.5 -26.5q-65 0 -136 7.5t-126 18.5v-445q0 -12 -12 -12h-38q-12 0 -12 12zM245 68q28 -6 62 -11t69 -8.5 t68.5 -5.5t62.5 -2q86 0 150.5 9.5t111 30.5t77.5 55.5t49 85.5t25 118.5t7 155.5v75q0 133 -17.5 221t-64 140.5t-128 74t-208.5 21.5q-138 0 -264 -18v-942z" />
<glyph unicode="&#x441;" horiz-adv-x="964" d="M144 494v84q0 141 23 238.5t79.5 158.5t150.5 88t235 27q63 0 121 -5.5t106 -13.5q12 -1 8 -13l-12 -35q-4 -10 -16 -9q-47 8 -102.5 11t-104.5 3q-126 0 -208.5 -22.5t-130.5 -76t-67.5 -143t-19.5 -223.5v-57q0 -137 19.5 -226.5t67.5 -142.5t130.5 -74.5t208.5 -21.5 q55 0 110.5 3.5t100.5 12.5q12 1 15 -10l10 -36q3 -12 -9 -13q-24 -5 -52 -8t-58 -5.5t-60 -3.5t-57 -1q-135 0 -228 22t-150.5 79t-83.5 157t-26 256z" />
<glyph unicode="&#x442;" horiz-adv-x="901" d="M45 1022v37q0 12 12 12h787q12 0 12 -12v-37q0 -12 -12 -12h-363v-998q0 -12 -12 -12h-37q-12 0 -12 12v998h-363q-12 0 -12 12z" />
<glyph unicode="&#x443;" horiz-adv-x="940" d="M35 -442l8 35q3 12 15 9q23 -5 49 -8.5t46 -3.5q40 0 70.5 4t55.5 18.5t47 41.5t43.5 72.5t45.5 112.5t54 161h-5q-12 0 -17 11q-8 17 -18 44l-375 1005q-5 11 8 11h42q12 0 16 -11l330 -878q15 -42 25 -72t14 -30l325 980q4 11 16 11h42q13 0 8 -11l-377 -1142 q-29 -86 -53.5 -148.5t-48.5 -106t-49 -70t-54 -40.5t-64.5 -19t-80.5 -5q-23 0 -53.5 3.5t-56.5 10.5q-11 4 -8 15z" />
<glyph unicode="&#x444;" horiz-adv-x="1660" d="M146 482v105q0 146 21.5 243t71.5 154.5t132.5 81.5t204.5 24q54 0 107 -6t116 -20v525q0 12 11 16l39 12q11 5 11 -8v-545q48 11 109 18.5t115 7.5q122 0 204.5 -24t132.5 -81.5t71.5 -154.5t21.5 -243v-105q0 -139 -20 -234.5t-69.5 -155t-133 -85.5t-209.5 -26 q-26 0 -55 2t-58 5.5t-57 8t-52 9.5v-445q0 -12 -12 -12h-37q-12 0 -12 12v443q-53 -11 -112.5 -17t-108.5 -6q-126 0 -209.5 26t-133 85.5t-69.5 155t-20 234.5zM207 496q0 -131 15 -218.5t56 -140t113.5 -74t186.5 -21.5q23 0 50 1t56 3.5t58.5 7t56.5 11.5v939 q-53 13 -112.5 18.5t-110.5 5.5q-113 0 -184.5 -21.5t-112.5 -74t-56.5 -140t-15.5 -220.5v-76zM860 67q50 -12 111 -18.5t111 -6.5q114 0 186.5 21.5t113 74t55.5 140t15 218.5v76q0 133 -15 220.5t-56 140t-112.5 74t-184.5 21.5q-51 0 -111 -5.5t-113 -18.5v-937z" />
<glyph unicode="&#x445;" horiz-adv-x="1006" d="M74 10l392 524l-392 527q-7 10 5 10h49q13 0 19 -10l355 -483l356 483q6 10 19 10h50q12 0 5 -10l-394 -527l394 -524q7 -10 -5 -10h-50q-13 0 -19 10l-356 479l-355 -479q-6 -10 -19 -10h-49q-12 0 -5 10z" />
<glyph unicode="&#x446;" horiz-adv-x="1158" d="M185 12v1047q0 12 12 12h38q12 0 12 -12v-998h659v998q0 12 12 12h38q12 0 12 -12v-998h49q12 0 12 -12v-313q0 -12 -12 -12h-37q-12 0 -12 12v264h-771q-12 0 -12 12z" />
<glyph unicode="&#x447;" horiz-adv-x="1083" d="M118 841v218q0 12 12 12h38q12 0 12 -12v-216q0 -123 12 -202.5t43.5 -125.5t86.5 -63.5t142 -17.5q42 0 89 7t95.5 20.5t96.5 34.5t92 49v514q0 12 12 12h38q12 0 12 -12v-1047q0 -12 -12 -12h-38q-12 0 -12 12v470q-36 -26 -82 -46t-95.5 -34.5t-100 -22t-95.5 -7.5 q-110 0 -178 22t-105.5 76t-50 144t-12.5 227z" />
<glyph unicode="&#x448;" horiz-adv-x="1731" d="M185 12v1047q0 12 12 12h38q12 0 12 -12v-998h588v998q0 12 12 12h37q12 0 12 -12v-998h588v998q0 12 12 12h38q12 0 12 -12v-1047q0 -12 -12 -12h-1337q-12 0 -12 12z" />
<glyph unicode="&#x449;" horiz-adv-x="1736" d="M185 12v1047q0 12 12 12h38q12 0 12 -12v-998h588v998q0 12 12 12h37q12 0 12 -12v-998h588v998q0 12 12 12h38q12 0 12 -12v-1007q1 9 12 9h37q12 0 12 -12v-313q0 -12 -12 -12h-37q-12 0 -12 12v272q-1 -8 -12 -8h-1337q-12 0 -12 12z" />
<glyph unicode="&#x44a;" horiz-adv-x="1186" d="M47 1022v37q0 12 12 12h294q12 0 12 -12v-403q52 6 120 10t130 4q136 0 225.5 -16t142.5 -53.5t75 -98t22 -149.5v-56q0 -92 -23 -153t-77 -97.5t-143 -51.5t-220 -15q-67 0 -142 4.5t-160 14.5q-12 1 -12 13v998h-244q-12 0 -12 12zM365 45q60 -3 123 -6.5t129 -3.5 q123 0 201 13t122.5 44.5t61 84.5t16.5 134v29q0 79 -16.5 131.5t-61 84t-123 44.5t-202.5 13q-27 0 -59.5 -1t-66 -2.5t-65.5 -4.5t-59 -7v-553z" />
<glyph unicode="&#x44b;" horiz-adv-x="1522" d="M184 12v1047q0 12 12 12h38q12 0 12 -12v-403q52 6 120 10t130 4q136 0 225.5 -16t142.5 -53.5t75 -98t22 -149.5v-56q0 -92 -23 -153t-77 -97.5t-143 -51.5t-220 -15q-67 0 -142 4.5t-160 14.5q-12 1 -12 13zM246 45q60 -3 123 -6.5t129 -3.5q123 0 201 13t122.5 44.5 t61 84.5t16.5 134v29q0 79 -16.5 131.5t-61 84t-123 44.5t-202.5 13q-27 0 -59.5 -1t-66 -2.5t-65.5 -4.5t-59 -7v-553zM1276 12v1047q0 12 12 12h37q12 0 12 -12v-1047q0 -12 -12 -12h-37q-12 0 -12 12z" />
<glyph unicode="&#x44c;" horiz-adv-x="1066" d="M184 12v1047q0 12 12 12h38q12 0 12 -12v-403q52 6 120 10t130 4q136 0 225.5 -16t142.5 -53.5t75 -98t22 -149.5v-56q0 -92 -23 -153t-77 -97.5t-143 -51.5t-220 -15q-67 0 -142 4.5t-160 14.5q-12 1 -12 13zM246 45q60 -3 123 -6.5t129 -3.5q123 0 201 13t122.5 44.5 t61 84.5t16.5 134v29q0 79 -16.5 131.5t-61 84t-123 44.5t-202.5 13q-27 0 -59.5 -1t-66 -2.5t-65.5 -4.5t-59 -7v-553z" />
<glyph unicode="&#x44d;" horiz-adv-x="960" d="M121 14l8 35q3 12 15 9q45 -9 103 -13t115 -4q109 0 184 22.5t121.5 76t67 142t20.5 220.5v25h-537q-12 0 -12 12v37q0 12 12 12h537q-2 126 -23.5 210.5t-68.5 135.5t-121 72.5t-180 21.5q-52 0 -109 -3.5t-105 -12.5q-12 -1 -16 10l-10 34q-4 11 8 14q47 10 106.5 15 t125.5 5q117 0 202.5 -23.5t141.5 -81t83 -156t27 -248.5v-93q0 -150 -27 -248t-83 -155.5t-141.5 -81t-202.5 -23.5q-29 0 -60 1.5t-61.5 3.5t-59 5.5t-51.5 8.5q-12 3 -9 15z" />
<glyph unicode="&#x44e;" horiz-adv-x="1674" d="M185 12v1047q0 12 12 12h38q12 0 12 -12v-461h396q2 129 28 222t80 153t137 88.5t200 28.5q120 0 204 -29.5t137.5 -92.5t78 -160.5t24.5 -232.5v-83q0 -135 -24.5 -232t-78 -159.5t-137.5 -91.5t-204 -29q-119 0 -203.5 29t-138 91.5t-78.5 159.5t-25 232v45h-396v-525 q0 -12 -12 -12h-38q-12 0 -12 12zM705 502q0 -120 18.5 -207t62.5 -143.5t117.5 -83.5t184.5 -27q109 0 182.5 27t118 83t63.5 143.5t19 209.5v63q0 119 -18.5 206t-62.5 143.5t-117.5 84t-184.5 27.5q-109 0 -182.5 -27t-118 -83.5t-63.5 -143.5t-19 -207v-65z" />
<glyph unicode="&#x44f;" horiz-adv-x="1101" d="M89 10l284 426q-62 11 -104 32t-68.5 55.5t-38 83.5t-11.5 116v54q0 105 28.5 166t87 91.5t148.5 38.5t213 8q69 0 137 -2t140 -7q12 -1 12 -13v-1047q0 -12 -12 -12h-37q-12 0 -12 12v413q-66 -5 -117.5 -5.5t-107.5 -0.5q-57 0 -104.5 1.5t-89.5 6.5l-275 -417 q-6 -10 -19 -10h-49q-13 0 -5 10zM213 739q0 -89 20.5 -140.5t68.5 -77.5t128.5 -33t200.5 -7h45t57.5 0.5t62.5 2t60 3.5v527q-46 4 -107 5t-121 1q-107 0 -185.5 -5t-129.5 -29.5t-75.5 -74.5t-24.5 -140v-32z" />
<glyph unicode="&#x451;" horiz-adv-x="1147" d="M142 510v70q0 128 23.5 224t76.5 159.5t138 95t207 31.5q119 0 203 -30t137 -88.5t77.5 -145t24.5 -199.5q0 -33 -2 -56t-4 -35q-1 -12 -14 -12h-805v-14q0 -128 19 -217t64.5 -145t122 -81.5t191.5 -25.5q42 0 81.5 0.5t79 3t80 8t85.5 14.5q12 1 15 -10l11 -35 q3 -12 -9 -13q-41 -8 -80 -13.5t-80 -9t-85 -5t-96 -1.5q-125 0 -212.5 27.5t-142.5 89.5t-80.5 163.5t-25.5 249.5zM204 584h766q0 113 -18.5 196.5t-62.5 138.5t-117.5 82t-184.5 27q-108 0 -180.5 -26.5t-117.5 -81t-64.5 -138t-20.5 -198.5zM416 1272v252q0 12 12 15 l50 14q12 3 12 -9v-272q0 -12 -12 -12h-50q-12 0 -12 12zM674 1272v252q0 12 12 15l50 14q12 3 12 -9v-272q0 -12 -12 -12h-50q-12 0 -12 12z" />
<glyph unicode="&#x452;" horiz-adv-x="1170" d="M42 1310v38q0 12 12 12h131v230q0 12 11 16l40 12q11 5 11 -8v-250h320q12 0 12 -12v-38q0 -12 -12 -12h-320v-314q42 25 91.5 45t101 33.5t102 20.5t94.5 7q75 0 130.5 -9t95.5 -30t65.5 -55t40.5 -83.5t20.5 -116.5t5.5 -153v-750q0 -116 -15 -187.5t-45.5 -110.5 t-78.5 -52.5t-114 -13.5q-31 0 -68.5 4.5t-68.5 12.5q-11 4 -8 15l9 34q3 12 15 9q27 -6 59.5 -9.5t61.5 -3.5q56 0 93 13t59 47t31 92.5t9 149.5v751q0 115 -12 189.5t-44.5 118t-90.5 60t-150 16.5q-44 0 -94 -6.5t-101 -19.5t-100.5 -33.5t-93.5 -47.5v-909 q0 -12 -12 -12h-38q-12 0 -12 12v1286h-131q-12 0 -12 12z" />
<glyph unicode="&#x453;" horiz-adv-x="749" d="M185 12v1047q0 12 12 12h499q12 0 12 -12v-37q0 -12 -12 -12h-449v-998q0 -12 -12 -12h-38q-12 0 -12 12zM376 1269l184 238q6 9 19 9h62q11 0 4 -9l-198 -238q-8 -9 -20 -9h-46q-12 0 -5 9z" />
<glyph unicode="&#x454;" horiz-adv-x="959" d="M144 488q0 -150 27 -248t83 -155.5t141.5 -81t202.5 -23.5q29 0 60 1.5t61.5 3.5t59 5.5t51.5 8.5q12 3 9 15l-8 35q-3 12 -15 9q-45 -9 -103 -13t-115 -4q-109 0 -184 22.5t-121.5 76t-67 142t-20.5 220.5v25h537q12 0 12 12v37q0 12 -12 12h-537q2 126 23.5 210.5 t68.5 135.5t121 72.5t180 21.5q52 0 109 -3.5t105 -12.5q12 -1 16 10l10 34q4 11 -8 14q-47 10 -106.5 15t-125.5 5q-117 0 -202.5 -23.5t-141.5 -81t-83 -156t-27 -248.5v-93z" />
<glyph unicode="&#x455;" horiz-adv-x="973" d="M124 842q0 69 21.5 116.5t69.5 76.5t125.5 42t188.5 13q78 0 150.5 -6t122.5 -13q12 -1 8 -13l-12 -35q-4 -12 -16 -9q-24 3 -49 6t-54.5 4.5t-65.5 2.5t-82 1q-101 0 -167.5 -8.5t-106 -29.5t-56 -57t-16.5 -91q0 -45 8 -76t32.5 -55.5t71 -47t124.5 -51.5l153 -57 q76 -29 130.5 -54t89 -57t51 -75.5t16.5 -108.5q0 -78 -23 -131.5t-73.5 -86.5t-131.5 -47.5t-198 -14.5q-27 0 -64.5 1.5t-78 5t-81 9.5t-74.5 16q-11 4 -7 15l10 33q4 12 16 9q71 -17 137.5 -22.5t141.5 -5.5q102 0 171.5 9.5t112.5 34.5t62 66.5t19 106.5q0 51 -11 84.5 t-39.5 60t-78 49.5t-127.5 52l-183 69q-56 22 -100 43t-74.5 50t-46.5 71t-16 105z" />
<glyph unicode="&#x456;" horiz-adv-x="430" d="M179 1272v252q0 12 12 15l50 14q12 3 12 -9v-272q0 -12 -12 -12h-50q-12 0 -12 12zM186 12v1047q0 12 12 12h37q12 0 12 -12v-1047q0 -12 -12 -12h-37q-12 0 -12 12z" />
<glyph unicode="&#x457;" horiz-adv-x="430" d="M50 1272v252q0 12 12 15l50 14q12 3 12 -9v-272q0 -12 -12 -12h-50q-12 0 -12 12zM186 12v1047q0 12 12 12h37q12 0 12 -12v-1047q0 -12 -12 -12h-37q-12 0 -12 12zM308 1272v252q0 12 12 15l50 14q12 3 12 -9v-272q0 -12 -12 -12h-50q-12 0 -12 12z" />
<glyph unicode="&#x458;" horiz-adv-x="430" d="M-164 -442l9 35q3 11 15 10q29 -5 62.5 -9t62.5 -4q59 0 98 10t62 37t32 74t9 121v1227q0 12 12 12h37q12 0 12 -12v-1227q0 -98 -15 -157.5t-47 -91.5t-81.5 -43t-118.5 -11q-31 0 -70 3t-71 12q-11 3 -8 14zM179 1272v252q0 12 12 15l50 14q12 3 12 -9v-272 q0 -12 -12 -12h-50q-12 0 -12 12z" />
<glyph unicode="&#x459;" horiz-adv-x="1688" d="M40 43q-1 11 10 14q69 11 115.5 69.5t74.5 173t40 290t12 420.5v49q0 12 12 12h554q12 0 12 -12v-403q52 6 120 10t130 4q109 0 187.5 -10t132.5 -33t85.5 -60t45.5 -90q14 -54 14 -124v-56q0 -92 -23 -153t-77 -97.5t-143 -51.5t-220 -15q-67 0 -142 4.5t-160 14.5 q-12 1 -12 13v998h-454q0 -270 -15.5 -457t-50.5 -305.5t-91.5 -176.5t-138.5 -70q-11 -1 -14 11zM870 45q60 -3 123 -6.5t129 -3.5q123 0 201 13t122.5 44.5t61 84.5t16.5 134v29q0 79 -16.5 131.5t-61 84t-123 44.5t-202.5 13q-27 0 -59.5 -1t-66 -2.5t-65.5 -4.5t-59 -7 v-553z" />
<glyph unicode="&#x45a;" horiz-adv-x="1822" d="M185 12v1047q0 12 12 12h38q12 0 12 -12v-466h693v466q0 12 12 12h38q12 0 12 -12v-403q52 6 120 10t130 4q109 0 187.5 -10t132.5 -33t85.5 -60t45.5 -90q14 -54 14 -124v-56q0 -92 -23 -153t-77 -97.5t-143 -51.5t-220 -15q-67 0 -142 4.5t-160 14.5q-12 1 -12 13v520 h-693v-520q0 -12 -12 -12h-38q-12 0 -12 12zM1002 45q60 -3 123 -6.5t129 -3.5q123 0 201 13t122.5 44.5t61 84.5t16.5 134v29q0 79 -16.5 131.5t-61 84t-123 44.5t-202.5 13q-27 0 -59.5 -1t-66 -2.5t-65.5 -4.5t-59 -7v-553z" />
<glyph unicode="&#x45b;" horiz-adv-x="1170" d="M31 1310v38q0 12 12 12h142v230q0 12 11 16l40 12q11 5 11 -8v-250h309q12 0 12 -12v-38q0 -12 -12 -12h-309v-313q42 25 91 44.5t100.5 33t102.5 20.5t95 7q112 0 182 -21t109 -72.5t53 -137.5t14 -216v-631q0 -12 -12 -12h-37q-12 0 -12 12v629q0 117 -12 192 t-45 118.5t-91 60t-149 16.5q-44 0 -94 -6.5t-101 -19.5t-100.5 -33t-93.5 -47v-910q0 -12 -12 -12h-38q-12 0 -12 12v1286h-142q-12 0 -12 12z" />
<glyph unicode="&#x45c;" horiz-adv-x="934" d="M185 12v1047q0 12 12 12h38q12 0 12 -12v-439l531 443q9 8 21 8h67q11 0 3 -8l-589 -489l607 -566q8 -8 -3 -8h-66q-12 0 -21 8l-550 517v-513q0 -12 -12 -12h-38q-12 0 -12 12zM456 1269l184 238q6 9 19 9h62q11 0 4 -9l-198 -238q-8 -9 -20 -9h-46q-12 0 -5 9z" />
<glyph unicode="&#x45e;" horiz-adv-x="940" d="M35 -442l8 35q3 12 15 9q23 -5 49 -8.5t46 -3.5q40 0 70.5 4t55.5 18.5t47 41.5t43.5 72.5t45.5 112.5t54 161h-5q-12 0 -17 11q-8 17 -18 44l-375 1005q-5 11 8 11h42q12 0 16 -11l330 -878q15 -42 25 -72t14 -30l325 980q4 11 16 11h42q13 0 8 -11l-377 -1142 q-29 -86 -53.5 -148.5t-48.5 -106t-49 -70t-54 -40.5t-64.5 -19t-80.5 -5q-23 0 -53.5 3.5t-56.5 10.5q-11 4 -8 15zM235 1504q-1 12 11 12h40q12 0 13 -12q6 -50 22.5 -84t40.5 -54t54.5 -28.5t63.5 -8.5t63 8.5t54 28.5t41 54t23 84q1 12 13 12h40q12 0 11 -12 q-6 -51 -22.5 -94t-46 -73.5t-73 -47.5t-103.5 -17t-103.5 17t-72.5 47.5t-45.5 73.5t-23.5 94z" />
<glyph unicode="&#x45f;" horiz-adv-x="1153" d="M185 12v1047q0 12 12 12h38q12 0 12 -12v-998h659v998q0 12 12 12h38q12 0 12 -12v-1047q0 -12 -12 -12h-349v-264q0 -12 -12 -12h-37q-12 0 -12 12v264h-349q-12 0 -12 12z" />
<glyph unicode="&#x490;" horiz-adv-x="1032" d="M216 12v1451q0 12 12 12h715v207q0 12 12 12h37q12 0 12 -12v-257q0 -12 -12 -12h-715v-1401q0 -12 -12 -12h-37q-12 0 -12 12z" />
<glyph unicode="&#x491;" horiz-adv-x="749" d="M185 12v1047q0 12 12 12h449v192q0 12 12 12h38q12 0 12 -12v-241q0 -12 -12 -12h-449v-998q0 -12 -12 -12h-38q-12 0 -12 12z" />
<glyph unicode="&#x2000;" horiz-adv-x="920" />
<glyph unicode="&#x2001;" horiz-adv-x="1840" />
<glyph unicode="&#x2002;" horiz-adv-x="920" />
<glyph unicode="&#x2003;" horiz-adv-x="1840" />
<glyph unicode="&#x2004;" horiz-adv-x="613" />
<glyph unicode="&#x2005;" horiz-adv-x="460" />
<glyph unicode="&#x2006;" horiz-adv-x="306" />
<glyph unicode="&#x2007;" horiz-adv-x="306" />
<glyph unicode="&#x2008;" horiz-adv-x="230" />
<glyph unicode="&#x2009;" horiz-adv-x="368" />
<glyph unicode="&#x200a;" horiz-adv-x="102" />
<glyph unicode="&#x2010;" horiz-adv-x="817" d="M169 598v37q0 12 12 12h455q12 0 12 -12v-37q0 -12 -12 -12h-455q-12 0 -12 12z" />
<glyph unicode="&#x2011;" horiz-adv-x="817" d="M169 598v37q0 12 12 12h455q12 0 12 -12v-37q0 -12 -12 -12h-455q-12 0 -12 12z" />
<glyph unicode="&#x2012;" horiz-adv-x="817" d="M169 598v37q0 12 12 12h455q12 0 12 -12v-37q0 -12 -12 -12h-455q-12 0 -12 12z" />
<glyph unicode="&#x2013;" horiz-adv-x="1116" d="M169 598v37q0 12 12 12h754q12 0 12 -12v-37q0 -12 -12 -12h-754q-12 0 -12 12z" />
<glyph unicode="&#x2014;" horiz-adv-x="1894" d="M169 598v37q0 12 12 12h1532q12 0 12 -12v-37q0 -12 -12 -12h-1532q-12 0 -12 12z" />
<glyph unicode="&#x2018;" horiz-adv-x="389" d="M94 1483q-3 12 9 9l66 -14q13 -3 14 -15l82 -407q1 -12 -10 -12h-37q-12 0 -15 12z" />
<glyph unicode="&#x2019;" horiz-adv-x="389" d="M124 1056l82 407q1 12 14 15l66 14q12 3 9 -9l-109 -427q-3 -12 -15 -12h-37q-11 0 -10 12z" />
<glyph unicode="&#x201a;" horiz-adv-x="415" d="M89 -214l82 407q1 12 14 15l66 14q12 3 9 -9l-109 -427q-3 -12 -15 -12h-37q-11 0 -10 12z" />
<glyph unicode="&#x201c;" horiz-adv-x="604" d="M94 1483q-3 12 9 9l66 -14q13 -3 14 -15l82 -407q1 -12 -10 -12h-37q-12 0 -15 12zM309 1483q-3 12 9 9l66 -14q13 -3 14 -15l82 -407q1 -12 -10 -12h-37q-12 0 -15 12z" />
<glyph unicode="&#x201d;" horiz-adv-x="604" d="M124 1056l82 407q1 12 14 15l66 14q12 3 9 -9l-109 -427q-3 -12 -15 -12h-37q-11 0 -10 12zM339 1056l82 407q1 12 14 15l66 14q12 3 9 -9l-109 -427q-3 -12 -15 -12h-37q-11 0 -10 12z" />
<glyph unicode="&#x201e;" horiz-adv-x="630" d="M89 -214l82 407q1 12 14 15l66 14q12 3 9 -9l-109 -427q-3 -12 -15 -12h-37q-11 0 -10 12zM304 -214l82 407q1 12 14 15l66 14q12 3 9 -9l-109 -427q-3 -12 -15 -12h-37q-11 0 -10 12z" />
<glyph unicode="&#x2022;" horiz-adv-x="672" d="M139 580q-8 8 0 16l189 189q8 8 16 0l189 -189q8 -8 0 -16l-189 -189q-8 -8 -16 0z" />
<glyph unicode="&#x2026;" horiz-adv-x="1042" d="M157 12v181q0 12 12 15l49 14q12 3 12 -9v-201q0 -12 -12 -12h-49q-12 0 -12 12zM481 12v181q0 12 12 15l49 14q12 3 12 -9v-201q0 -12 -12 -12h-49q-12 0 -12 12zM804 12v181q0 12 12 15l49 14q12 3 12 -9v-201q0 -12 -12 -12h-49q-12 0 -12 12z" />
<glyph unicode="&#x202f;" horiz-adv-x="368" />
<glyph unicode="&#x2039;" horiz-adv-x="681" d="M79 522q-8 9 0 18l371 371q8 9 20 9h62q13 0 3 -8l-385 -381l385 -382q10 -8 -3 -8h-62q-12 0 -20 9z" />
<glyph unicode="&#x203a;" horiz-adv-x="681" d="M146 149l385 382l-385 381q-10 8 3 8h62q12 0 20 -9l371 -371q8 -9 0 -18l-371 -372q-8 -9 -20 -9h-62q-13 0 -3 8z" />
<glyph unicode="&#x205f;" horiz-adv-x="460" />
<glyph unicode="&#x20ac;" horiz-adv-x="1265" d="M103 565l8 37q3 12 15 12h121q-1 14 -1 28.5v29.5v131v30t1 29h-135q-12 0 -9 12l8 38q3 12 15 12h124q12 162 56 271t118.5 176t176.5 95.5t230 28.5q88 0 169 -7.5t137 -18.5q12 -3 9 -15l-7 -33q-3 -11 -15 -10q-64 13 -142.5 18t-150.5 5q-113 0 -204 -24.5 t-157 -83.5t-105.5 -157t-50.5 -245h620q12 0 9 -12l-9 -38q-3 -12 -15 -12h-607q-1 -12 -1 -24v-25v-151v-25t1 -23h552q12 0 9 -12l-8 -37q-3 -12 -15 -12h-536q10 -148 49.5 -246.5t105.5 -157.5t157 -83.5t205 -24.5q95 0 170 7.5t132 19.5q13 1 14 -10l8 -34 q1 -12 -10 -15q-57 -14 -140 -21.5t-174 -7.5q-128 0 -230.5 28.5t-176.5 95.5t-118 177t-56 272h-138q-12 0 -9 12z" />
<glyph unicode="&#x2122;" horiz-adv-x="1673" d="M81 1446v37q0 12 12 12h598q12 0 12 -12v-37q0 -12 -12 -12h-268v-742q0 -12 -12 -12h-38q-12 0 -12 12v742h-268q-12 0 -12 12zM779 692v791q0 12 12 12h46q11 0 17 -11l241 -485q6 -12 12.5 -24t11.5 -22.5t8.5 -17.5l3.5 -7l3.5 6.5t9 17t12.5 23.5l14 26l239 483 q5 11 17 11h48q12 0 12 -12v-791q0 -12 -12 -12h-40q-12 0 -12 12l-1 670q-1 -1 -9.5 -16.5t-17.5 -32.5l-229 -448q-6 -11 -17 -11h-31q-12 0 -17 11l-227 444q-12 24 -20 38.5t-9 14.5l-1 -670q0 -12 -12 -12h-40q-12 0 -12 12z" />
<glyph unicode="&#x25fc;" horiz-adv-x="1070" d="M0 0v1070h1070v-1070h-1070z" />
</font>
</defs>
</svg>
