<?xml version="1.0" standalone="no"?>
<!DOCTYPE svg PUBLIC "-//W3C//DTD SVG 1.1//EN" "http://www.w3.org/Graphics/SVG/1.1/DTD/svg11.dtd" >
<svg xmlns="http://www.w3.org/2000/svg">
<metadata></metadata>
<defs>
<font id="vw_head_officeregular" horiz-adv-x="1208" >
<font-face units-per-em="2048" ascent="1612" descent="-436" />
<missing-glyph horiz-adv-x="514" />
<glyph horiz-adv-x="0" />
<glyph unicode="&#xd;" horiz-adv-x="514" />
<glyph unicode=" "  horiz-adv-x="514" />
<glyph unicode="&#x09;" horiz-adv-x="514" />
<glyph unicode="&#xa0;" horiz-adv-x="514" />
<glyph unicode="!" horiz-adv-x="540" d="M141 102q0 59 36 96.5t95 37.5t94 -37t35 -97q0 -59 -34.5 -96t-94.5 -37q-59 0 -95 37t-36 96zM176 1042v351h189v-351l-35 -612h-119z" />
<glyph unicode="&#x22;" horiz-adv-x="782" d="M141 1188v205h189v-205l-35 -361h-119zM452 1188v205h189v-205l-35 -361h-119z" />
<glyph unicode="#" horiz-adv-x="1411" d="M84 354v152h238l108 387h-199v151h242l98 349h170v-21l-92 -328h305l99 349h168v-21l-93 -328h199v-151h-242l-108 -387h203v-152h-246l-98 -354h-170v20l94 334h-305l-99 -354h-170v20l93 334h-195zM498 506h305l108 387h-305z" />
<glyph unicode="$" d="M150 121l83 149q66 -53 143 -84.5t171 -40.5v484l-43 16q-154 53 -239 146.5t-85 230.5q0 156 95.5 263.5t271.5 131.5v160h143v-158q94 -10 185.5 -43t146.5 -67l-76 -152q-59 35 -124.5 57.5t-131.5 30.5v-467q86 -33 152.5 -70.5t114 -85t72 -107.5t24.5 -136 q0 -78 -26 -145.5t-74 -120t-114.5 -88t-148.5 -48.5v-198h-143v192q-129 10 -227.5 53.5t-169.5 96.5zM371 1036q0 -37 7 -67.5t27.5 -56t54.5 -47t87 -40.5v420q-92 -20 -134 -75.5t-42 -133.5zM690 145q78 18 125 72t47 150q0 84 -40 128t-132 85v-435z" />
<glyph unicode="%" horiz-adv-x="1591" d="M88 1042q0 78 18 144.5t55 114.5t91.5 76t125.5 28q72 0 126.5 -28t91 -76t55 -114.5t18.5 -144.5t-18.5 -144.5t-55 -114.5t-91 -75.5t-126.5 -27.5t-126 27.5t-91 75.5t-55 114.5t-18 144.5zM237 1042q0 -121 36 -179t105 -58q70 0 106 58t36 179q0 119 -36 178.5 t-106 59.5q-68 0 -104.5 -59.5t-36.5 -178.5zM264 0v20l916 1373h155v-21l-915 -1372h-156zM922 346q0 78 18 144.5t55 114.5t91.5 76t125.5 28q72 0 126.5 -28t91 -76t55 -114.5t18.5 -144.5t-18.5 -144.5t-55 -114.5t-91 -75.5t-126.5 -27.5t-126 27.5t-91 75.5t-55 114.5 t-18 144.5zM1071 346q0 -121 36 -179t105 -58q70 0 106 58t36 179q0 119 -36 178.5t-106 59.5q-68 0 -104.5 -59.5t-36.5 -178.5z" />
<glyph unicode="&#x26;" horiz-adv-x="1431" d="M109 334q0 70 25.5 127t66.5 103t91 81t97 62l49 28l-18 19q-72 72 -121 150.5t-49 166.5q0 68 25.5 131.5t74.5 112.5t119 78.5t160 29.5q84 0 152.5 -29.5t117.5 -78.5t77 -112.5t28 -129.5q0 -57 -18.5 -104t-49.5 -85t-70 -69t-80 -55l-90 -55l289 -289 q45 59 90 128.5t92 155.5l144 -90q-53 -92 -104.5 -171t-104.5 -144l274 -275v-20h-215l-168 170q-100 -98 -211.5 -149.5t-246.5 -51.5q-104 0 -184.5 28t-133.5 77t-80.5 115.5t-27.5 144.5zM303 334q0 -84 60.5 -137.5t177.5 -53.5q180 0 333 148l-321 327l-51 -30 q-92 -57 -145.5 -114.5t-53.5 -139.5zM442 1067q0 -47 26 -101.5t101 -129.5l15 -17l100 58q59 35 92 83t33 107q0 74 -44 128t-136 54q-100 0 -143.5 -53t-43.5 -129z" />
<glyph unicode="'" horiz-adv-x="471" d="M141 1188v205h189v-205l-35 -361h-119z" />
<glyph unicode="(" horiz-adv-x="583" d="M106 514q0 150 20.5 283t55.5 251.5t81 222t99 195.5l134 -61q-98 -205 -146.5 -428t-48.5 -465t48 -465t147 -428l-134 -61q-53 92 -99 195.5t-81 222t-55.5 252.5t-20.5 286z" />
<glyph unicode=")" horiz-adv-x="583" d="M88 -381q98 205 146.5 428t48.5 465t-48.5 465t-146.5 428l131 61q53 -92 100.5 -195.5t82 -222t55 -251.5t20.5 -283q0 -152 -20.5 -286t-55 -252.5t-82 -222t-100.5 -195.5z" />
<glyph unicode="*" horiz-adv-x="874" d="M117 993l196 103v4l-196 102l69 127l185 -125l4 2l-10 228h143l-14 -228l4 -2l186 125l72 -125l-197 -102v-4l197 -103l-70 -127l-190 127l-2 -2l14 -229h-143l12 227l-2 2l-187 -125z" />
<glyph unicode="+" d="M115 477v152h407v438h158v-438h412v-152h-412v-440h-158v440h-407z" />
<glyph unicode="," horiz-adv-x="522" d="M84 -309l84 518h211v-21l-150 -518h-145v21z" />
<glyph unicode="-" horiz-adv-x="837" d="M147 477v152h543v-152h-543z" />
<glyph unicode="." horiz-adv-x="520" d="M129 102q0 59 36 96.5t95 37.5t95 -37t36 -97q0 -59 -36 -96t-95 -37t-95 37t-36 96z" />
<glyph unicode="/" horiz-adv-x="825" d="M63 0v20l531 1373h168v-21l-529 -1372h-170z" />
<glyph unicode="0" d="M76 696q0 168 29.5 302.5t94 228.5t165 145t241.5 51t240.5 -51t163 -145t93.5 -228.5t30 -302.5t-30 -302t-93.5 -228t-162.5 -145.5t-241 -51.5q-141 0 -241.5 51.5t-165 145.5t-94 228t-29.5 302zM270 696q0 -129 16.5 -232.5t55.5 -174t103.5 -108.5t160.5 -38 t159.5 38t102.5 108.5t54.5 174t15.5 232.5t-15.5 232.5t-54.5 174.5t-102.5 108.5t-159.5 37.5t-160.5 -37.5t-103.5 -108.5t-55.5 -174.5t-16.5 -232.5z" />
<glyph unicode="1" d="M229 0v170h320v1024h-4l-269 -86h-26v166l332 119h155v-1223h289v-170h-797z" />
<glyph unicode="2" d="M141 1249q31 27 72 57.5t92 56.5t115.5 43t144.5 17q100 0 186.5 -31.5t150 -88t99 -137.5t35.5 -179q0 -68 -16 -125t-46 -107t-70 -96.5t-89 -93.5l-405 -391v-4h641v-170h-906v150l517 514q35 35 67.5 70.5t57 74.5t40 83t15.5 95q0 111 -73 186.5t-204 75.5 q-121 0 -196.5 -37.5t-139.5 -93.5z" />
<glyph unicode="3" d="M119 74l65 153q90 -45 179.5 -64.5t189.5 -19.5q63 0 118.5 15.5t97.5 46.5t66.5 76t24.5 104q0 49 -14.5 93t-50 77t-94 51.5t-146.5 18.5h-236v170h248q137 0 197.5 66.5t60.5 160.5t-64.5 160.5t-193.5 66.5q-96 0 -181 -18.5t-173 -52.5l-57 153q39 20 89 37.5 t103 30t109.5 18.5t111.5 6q217 0 334 -105.5t117 -283.5q0 -57 -17.5 -107t-45 -90t-62.5 -70t-70 -44v-4q100 -39 165 -128t65 -218q0 -92 -37 -166t-103.5 -127t-158.5 -82t-201 -29q-135 0 -246.5 29t-189.5 76z" />
<glyph unicode="4" d="M57 295v143l426 955h191l-408 -924v-4h479v518h189v-518h201v-170h-201v-295h-189v295h-688z" />
<glyph unicode="5" d="M131 51l49 164q166 -72 336 -72q78 0 142.5 15.5t109.5 49.5t69.5 87t24.5 129q0 127 -76.5 192.5t-255.5 65.5q-66 0 -147.5 -3t-142.5 -7l-19 22l86 699h699v-170h-547l-47 -371q29 2 66.5 3t76.5 1q111 0 204 -24.5t158.5 -77t102.5 -134t37 -196.5q0 -113 -40 -198 t-110.5 -142t-171 -86t-219.5 -29q-45 0 -97 7.5t-104.5 18.5t-99.5 25.5t-84 30.5z" />
<glyph unicode="6" d="M113 446q0 98 30.5 195.5t81.5 179.5l357 572h202v-21l-344 -514l4 -4q29 23 88.5 40t126.5 17q100 0 183.5 -33.5t142.5 -94t92 -146.5t33 -191q0 -100 -34 -187t-97.5 -151.5t-155.5 -101.5t-211 -37q-121 0 -213 37t-156.5 101.5t-97 151.5t-32.5 187zM307 446 q0 -137 82 -220t223 -83q137 0 220 83t83 220q0 141 -82.5 216t-220.5 75q-141 0 -223 -74.5t-82 -216.5z" />
<glyph unicode="7" d="M158 1223v170h895v-144l-496 -1249h-199v20l490 1199v4h-690z" />
<glyph unicode="8" d="M98 383q0 125 67.5 214t168.5 134v4q-35 18 -66.5 44t-58.5 63t-42 84t-15 108q0 82 26.5 154t81.5 124t141 81.5t203 29.5t202 -29.5t140 -81.5t82 -124t27 -154q0 -121 -56.5 -192.5t-124.5 -106.5v-4q100 -45 167 -134t67 -214q0 -90 -32 -166t-94 -131t-157.5 -86 t-220.5 -31q-127 0 -221 31t-157.5 86t-95.5 131t-32 166zM293 393q0 -111 75.5 -180.5t235.5 -69.5t234.5 70t74.5 180q0 111 -74.5 180.5t-234.5 69.5q-166 0 -238.5 -69.5t-72.5 -180.5zM346 1030q0 -104 64.5 -160.5t193.5 -56.5q127 0 191.5 56.5t64.5 160.5 t-64.5 161.5t-191.5 57.5q-129 0 -193.5 -57t-64.5 -162z" />
<glyph unicode="9" d="M98 946q0 100 34 187.5t97.5 152t155.5 101t211 36.5t212 -36.5t157.5 -101t97.5 -151.5t33 -188q0 -98 -31 -196.5t-82 -178.5l-356 -571h-203v20l344 515l-4 4q-29 -23 -88.5 -40.5t-126.5 -17.5q-100 0 -183 34t-142.5 94.5t-92.5 146.5t-33 190zM293 946 q0 -141 83 -216t220 -75q141 0 223 75t82 216q0 137 -82 220t-223 83q-137 0 -220 -83t-83 -220z" />
<glyph unicode=":" horiz-adv-x="557" d="M147 102q0 59 36 96.5t95 37.5t95 -37t36 -97q0 -59 -36 -96t-95 -37t-95 37t-36 96zM147 884q0 59 36 96.5t95 37.5t95 -37t36 -97q0 -59 -36 -96t-95 -37t-95 37t-36 96z" />
<glyph unicode=";" horiz-adv-x="587" d="M107 -309l84 518h211v-21l-150 -518h-145v21zM182 884q0 59 36 96.5t95 37.5t95 -37t36 -97q0 -59 -36 -96t-95 -37t-95 37t-36 96z" />
<glyph unicode="&#x3c;" d="M90 483v142l959 432h18v-172l-780 -328v-6l780 -328v-172h-18z" />
<glyph unicode="=" d="M156 258v152h895v-152h-895zM156 702v152h895v-152h-895z" />
<glyph unicode="&#x3e;" d="M139 51v172l781 328v6l-781 328v172h19l958 -432v-142l-958 -432h-19z" />
<glyph unicode="?" horiz-adv-x="948" d="M59 1274q31 25 71 50.5t89 48t104.5 36.5t114.5 14q96 0 175 -27.5t134.5 -79.5t85 -126t29.5 -164q0 -82 -29.5 -146.5t-77.5 -114.5t-107.5 -87t-119.5 -64l-24 -184h-146l-2 283q70 27 127.5 54.5t98.5 64t63.5 84t22.5 110.5q0 45 -15.5 85t-45 70.5t-71.5 49 t-98 18.5q-86 0 -161.5 -32.5t-135.5 -77.5zM297 102q0 59 36 96.5t95 37.5t94 -37t35 -97q0 -59 -35 -96t-94 -37t-95 37t-36 96z" />
<glyph unicode="@" horiz-adv-x="1806" d="M109 541q0 184 57 351t167.5 295t273.5 202.5t372 74.5q178 0 316.5 -60.5t233.5 -163.5t144 -240.5t49 -290.5q0 -154 -37.5 -268.5t-98 -190.5t-137.5 -114t-153 -38q-86 0 -134 41t-70 90h-2q-51 -39 -122 -72.5t-151 -33.5q-68 0 -124 22.5t-97 67.5t-63.5 112.5 t-22.5 155.5q0 104 26.5 203.5t79 178.5t126 126t169.5 47q86 0 149.5 -30.5t108.5 -67.5h2l37 74h113l-98 -580q-6 -33 -6 -67.5t9 -63.5t28.5 -47t54.5 -18q45 0 91 26.5t84 83.5t61.5 147.5t23.5 217.5q0 123 -36 235.5t-109.5 196.5t-185.5 134t-261 50 q-166 0 -298 -64.5t-222 -172t-138.5 -250t-48.5 -297.5q0 -150 43 -277t122 -219t192.5 -144.5t255.5 -52.5q117 0 200.5 23t141.5 45l43 -123q-66 -31 -169.5 -56.5t-219.5 -25.5q-172 0 -314.5 58.5t-244 167t-156.5 261t-55 341.5zM682 477q0 -98 43 -152.5t127 -54.5 q20 0 48 5.5t54.5 13.5t51 20.5t41.5 24.5l77 487q-29 29 -80 47.5t-98 18.5q-61 0 -110.5 -36t-83 -93.5t-52 -131t-18.5 -149.5z" />
<glyph unicode="A" horiz-adv-x="1292" d="M25 0l526 1393h190l527 -1393h-197l-125 348h-600l-127 -348h-194zM408 508h475l-236 663h-4z" />
<glyph unicode="B" horiz-adv-x="1280" d="M186 0v1393h457q233 0 351 -88t118 -271q0 -121 -53 -201.5t-129 -109.5v-4q113 -35 177 -120t64 -222q0 -176 -117.5 -276.5t-334.5 -100.5h-533zM375 170h323q63 0 115.5 11.5t88.5 37t55.5 67.5t19.5 105q0 127 -75 175t-206 48h-321v-444zM375 784h254q70 0 124 9.5 t91 34t55.5 66.5t18.5 110t-17.5 109.5t-53.5 66t-90.5 34t-127.5 9.5h-254v-439z" />
<glyph unicode="C" horiz-adv-x="1224" d="M117 696q0 162 42 296t122.5 230.5t200.5 148.5t278 52q90 0 184 -23.5t186 -66.5l-51 -149q-88 39 -164.5 52t-154.5 13q-117 0 -202 -39t-140.5 -110.5t-81 -174t-25.5 -229.5t25.5 -229t81 -174t140.5 -111t202 -39q78 0 154.5 13.5t164.5 52.5l51 -150 q-92 -43 -186 -66.5t-184 -23.5q-158 0 -278 52.5t-200.5 148.5t-122.5 229t-42 297z" />
<glyph unicode="D" horiz-adv-x="1406" d="M186 0v1393h385q193 0 328 -45t221 -134.5t125 -219.5t39 -298q0 -170 -39 -299t-125 -218t-221 -134t-328 -45h-385zM375 170h170q162 0 267.5 30.5t166.5 95t86 164t25 236.5t-25 236.5t-86 164t-166.5 95.5t-267.5 31h-170v-1053z" />
<glyph unicode="E" horiz-adv-x="1200" d="M186 0v1393h887v-170h-698v-428h633v-170h-633v-455h704v-170h-893z" />
<glyph unicode="F" horiz-adv-x="1161" d="M186 0v1393h887v-170h-698v-459h633v-170h-633v-594h-189z" />
<glyph unicode="G" horiz-adv-x="1353" d="M119 696q0 158 35.5 291t113.5 230.5t200 151.5t292 54q143 0 253.5 -41t194.5 -88l-67 -149q-84 45 -185.5 74.5t-195.5 29.5q-121 0 -205 -37.5t-138.5 -109.5t-79 -174.5t-24.5 -231.5q0 -121 22.5 -222t73 -175t132.5 -115t200 -41q84 0 156 13.5t129 48.5v319 l-276 41v129h464v-583q-86 -59 -213 -100.5t-260 -41.5q-164 0 -280.5 54.5t-193.5 150.5t-112.5 230.5t-35.5 291.5z" />
<glyph unicode="H" horiz-adv-x="1439" d="M186 0v1393h189v-598h690v598h188v-1393h-188v625h-690v-625h-189z" />
<glyph unicode="I" horiz-adv-x="561" d="M186 0v1393h189v-1393h-189z" />
<glyph unicode="J" horiz-adv-x="950" d="M41 119l94 131q23 -18 46.5 -37.5t51 -35t62.5 -25t78 -9.5q49 0 89 17.5t67.5 56.5t42 97.5t14.5 142.5v936h188v-951q0 -233 -107.5 -353t-293.5 -120q-104 0 -189.5 46t-142.5 104z" />
<glyph unicode="K" horiz-adv-x="1230" d="M186 0v1393h189v-684h4l571 684h219v-21l-587 -690l616 -662v-20h-231l-588 635h-4v-635h-189z" />
<glyph unicode="L" horiz-adv-x="1073" d="M186 0v1393h189v-1223h637v-170h-826z" />
<glyph unicode="M" horiz-adv-x="1693" d="M186 0v1393h179l479 -811h4l479 811h180v-1393h-188v1047h-4l-400 -697h-135l-401 697h-4v-1047h-189z" />
<glyph unicode="N" horiz-adv-x="1458" d="M186 0v1393h193l700 -1096h4v1096h189v-1393h-195l-698 1096h-4v-1096h-189z" />
<glyph unicode="O" horiz-adv-x="1472" d="M119 696q0 154 34.5 287t109.5 231.5t191.5 153.5t282.5 55t283 -55t190.5 -153.5t108.5 -231.5t35 -287t-35 -287t-108.5 -231t-190.5 -153.5t-283 -55.5t-282.5 55.5t-191.5 153.5t-109.5 231.5t-34.5 286.5zM313 696q0 -117 20.5 -218t70 -175t131 -117t202.5 -43 q123 0 204 43t129 117t68.5 175.5t20.5 217.5q0 117 -20.5 218.5t-68.5 175t-129 116.5t-204 43q-121 0 -202.5 -43t-131 -116.5t-70 -175t-20.5 -218.5z" />
<glyph unicode="P" horiz-adv-x="1214" d="M186 0v1393h494q117 0 202 -30t140 -85t81.5 -134t26.5 -179t-27.5 -179t-82.5 -134.5t-140 -85t-200 -29.5h-305v-537h-189zM375 707h289q145 0 208.5 70.5t63.5 187.5t-63.5 187.5t-208.5 70.5h-289v-516z" />
<glyph unicode="Q" horiz-adv-x="1472" d="M119 696q0 154 34.5 287t109.5 231.5t191.5 153.5t282.5 55t283 -55t190.5 -153.5t108.5 -231.5t35 -287q0 -115 -18.5 -218t-58.5 -189t-100.5 -152.5t-146.5 -107.5l324 -160l-82 -164l-488 266q-10 -2 -22 -2h-25q-166 0 -282.5 55.5t-191.5 153.5t-109.5 231.5 t-34.5 286.5zM313 696q0 -117 20.5 -218t70 -175t131 -117t202.5 -43q123 0 204 43t129 117t68.5 175.5t20.5 217.5q0 117 -20.5 218.5t-68.5 175t-129 116.5t-204 43q-121 0 -202.5 -43t-131 -116.5t-70 -175t-20.5 -218.5z" />
<glyph unicode="R" horiz-adv-x="1314" d="M186 0v1393h525q213 0 335.5 -100.5t122.5 -297.5q0 -166 -90 -262t-243 -125l417 -575v-33h-204l-424 598h-250v-598h-189zM375 768h325q133 0 204 57.5t71 169.5q0 113 -70.5 170.5t-204.5 57.5h-325v-455z" />
<glyph unicode="S" horiz-adv-x="1097" d="M94 121l84 149q37 -29 78 -52t86 -39.5t95 -26t106 -9.5q117 0 188.5 53.5t71.5 170.5q0 45 -12.5 79.5t-39 61.5t-70.5 48.5t-106 43.5l-126 45q-154 53 -239 146.5t-85 230.5q0 86 30.5 159.5t89 128t142.5 84t193 29.5q53 0 108 -10t106.5 -26.5t95.5 -37t77 -40.5 l-76 -152q-74 41 -153 66.5t-158 25.5q-131 0 -196 -60.5t-65 -152.5q0 -74 38 -123t147 -88l135 -47q86 -31 152.5 -68.5t112.5 -86t69.5 -108.5t23.5 -136q0 -90 -32.5 -165t-92 -129t-143.5 -85t-186 -31q-74 0 -138.5 12.5t-120 34t-103.5 49t-87 56.5z" />
<glyph unicode="T" horiz-adv-x="1132" d="M66 1223v170h1001v-170h-405v-1223h-189v1223h-407z" />
<glyph unicode="U" horiz-adv-x="1421" d="M172 512v881h188v-863q0 -88 20.5 -159.5t63.5 -121.5t108.5 -78t158.5 -28q92 0 157.5 28t107.5 78t62.5 121.5t20.5 159.5v863h188v-883q0 -125 -31.5 -224.5t-97 -170t-167 -108.5t-240.5 -38q-141 0 -242.5 38t-167 108.5t-97.5 171t-32 225.5z" />
<glyph unicode="V" horiz-adv-x="1286" d="M29 1372v21h196l416 -1166h4l414 1166h198v-21l-520 -1372h-190z" />
<glyph unicode="W" horiz-adv-x="2000" d="M51 1372v21h197l305 -1131h4l342 1131h201l342 -1131h4l305 1131h197v-21l-402 -1372h-192l-353 1163h-4l-350 -1163h-192z" />
<glyph unicode="X" horiz-adv-x="1204" d="M59 0v20l424 676l-424 676v21h203l338 -568h4l340 568h203v-21l-426 -676l426 -676v-20h-203l-340 565h-4l-338 -565h-203z" />
<glyph unicode="Y" horiz-adv-x="1146" d="M18 1372v21h203l350 -627h4l357 627h201v-21l-465 -784v-588h-189v588z" />
<glyph unicode="Z" horiz-adv-x="1130" d="M86 0v152l707 1067v4h-670v170h905v-152l-709 -1067v-4h709v-170h-942z" />
<glyph unicode="[" horiz-adv-x="677" d="M168 -406v1840h434v-111l-246 -47v-1524l246 -47v-111h-434z" />
<glyph unicode="\" horiz-adv-x="825" d="M63 1372v21h170l529 -1373v-20h-170z" />
<glyph unicode="]" horiz-adv-x="679" d="M76 -295l248 47v1524l-248 47v111h436v-1840h-436v111z" />
<glyph unicode="^" horiz-adv-x="1036" d="M84 762v20l369 652h137l368 -652v-20h-170l-262 487h-8l-264 -487h-170z" />
<glyph unicode="_" horiz-adv-x="1009" d="M147 -41h715v-152h-715v152z" />
<glyph unicode="`" d="M438 1434v20h201l131 -248v-20h-158z" />
<glyph unicode="a" horiz-adv-x="1064" d="M84 274q0 90 35 150.5t97.5 97.5t147.5 52.5t187 15.5h158v51q0 106 -51.5 160.5t-170.5 54.5q-72 0 -148.5 -25.5t-133.5 -60.5l-70 139q66 47 158 78t199 31q193 0 297 -97.5t104 -283.5v-447q0 -27 9 -40t48 -13h56v-145q-23 -6 -47.5 -11.5t-53.5 -5.5 q-72 0 -108.5 31t-53.5 82h-4q-68 -55 -151.5 -87t-181.5 -32q-68 0 -127.5 20.5t-102.5 58.5t-67.5 95.5t-24.5 130.5zM272 287q0 -80 44 -118t126 -38q70 0 141.5 22.5t125.5 61.5v231h-129q-88 0 -146.5 -11t-94.5 -31.5t-51.5 -50t-15.5 -66.5z" />
<glyph unicode="b" horiz-adv-x="1173" d="M156 0v1434h184v-516h4q53 39 125 69.5t186 30.5q109 0 188 -42t129 -112.5t74.5 -167t24.5 -202.5q0 -109 -24.5 -204t-74.5 -166t-129 -113t-188 -42q-57 0 -107 11.5t-93 30t-79 40t-63 39.5h-4l-22 -90h-131zM340 227q49 -43 120.5 -69.5t145.5 -26.5 q78 0 131.5 28.5t85 78t46 116t14.5 140.5t-14.5 140t-46 115.5t-85 78t-131.5 28.5q-74 0 -145.5 -26.5t-120.5 -69.5v-533z" />
<glyph unicode="c" horiz-adv-x="985" d="M100 494q0 117 33 213t94.5 164.5t151.5 107.5t207 39q78 0 161.5 -21.5t147.5 -50.5l-47 -143q-45 18 -117 35.5t-143 17.5q-78 0 -134.5 -30.5t-93 -82t-54 -117t-17.5 -132.5q0 -68 17.5 -133.5t54 -116.5t93 -82t134.5 -31q72 0 143.5 17.5t116.5 35.5l47 -143 q-63 -29 -147 -50.5t-162 -21.5q-117 0 -207 39t-151.5 107.5t-94.5 165t-33 213.5z" />
<glyph unicode="d" horiz-adv-x="1173" d="M102 494q0 106 24 202.5t75 167t130 112.5t187 42q113 0 185.5 -31t125.5 -69h5v516h184v-1434h-131l-21 90h-4q-27 -18 -62.5 -39.5t-79.5 -40t-94.5 -30t-107.5 -11.5q-109 0 -187.5 42t-129.5 113t-75 166t-24 204zM291 494q0 -74 13 -140.5t46 -116t86 -78t131 -28.5 q74 0 146.5 26.5t120.5 69.5v533q-47 43 -120 69.5t-147 26.5q-78 0 -131 -28.5t-86 -78t-46 -116t-13 -139.5z" />
<glyph unicode="e" horiz-adv-x="1099" d="M100 498q0 100 29 194t87 166t145.5 116t203.5 44q117 0 200 -36t137 -94.5t79 -136t25 -159.5q0 -39 -4.5 -85t-8.5 -73h-706q0 -68 22.5 -124t63.5 -97t98 -63.5t129 -22.5q102 0 172 26.5t123 61.5l72 -139q-66 -43 -160 -75t-223 -32q-127 0 -218.5 43t-150.5 115 t-87 168t-28 203zM287 582h538q2 10 2 21v22q0 51 -17 94t-50 74.5t-82 49t-113 17.5q-61 0 -111.5 -20.5t-86 -57.5t-56 -88t-24.5 -112z" />
<glyph unicode="f" horiz-adv-x="743" d="M57 836v110l176 41v135q0 170 81 246t235 76q31 0 70.5 -4t68.5 -8v-164q-23 4 -58.5 9t-64.5 5q-74 0 -110.5 -30.5t-36.5 -114.5v-150h270v-151h-270v-836h-185v836h-176z" />
<glyph unicode="g" horiz-adv-x="1173" d="M102 498q0 106 25 201.5t76 166t130 111.5t187 41q57 0 107.5 -11.5t93.5 -30t78 -40t59 -39.5h4l25 90h131v-991q0 -96 -31 -176t-89 -137.5t-141 -88t-190 -30.5q-106 0 -195 21.5t-163 52.5l49 145q66 -27 145.5 -42t163.5 -15q123 0 195 59t72 188v105h-5 q-53 -39 -123.5 -70t-185.5 -31q-109 0 -187.5 41t-129.5 112t-76 165t-25 203zM291 498q0 -74 13 -139.5t45 -114.5t85 -77t131 -28q74 0 146.5 27t122.5 70v524q-49 43 -122 69.5t-147 26.5q-78 0 -131 -27.5t-85 -77t-45 -115t-13 -138.5z" />
<glyph unicode="h" horiz-adv-x="1167" d="M156 0v1434h184v-516h4q23 14 55.5 32.5t73.5 32.5t88 24.5t101 10.5q166 0 263 -95.5t97 -281.5v-641h-184v604q0 127 -54.5 189.5t-167.5 62.5q-39 0 -78.5 -9t-77.5 -23.5t-69 -32t-51 -31.5v-760h-184z" />
<glyph unicode="i" horiz-adv-x="495" d="M131 1298q0 53 32 84t85 31q55 0 87 -30.5t32 -84.5q0 -53 -32 -84.5t-87 -31.5q-53 0 -85 31.5t-32 84.5zM156 0v987h184v-987h-184z" />
<glyph unicode="j" horiz-adv-x="495" d="M-94 -264q27 -4 62.5 -7t60.5 -3q66 0 96.5 33.5t30.5 115.5v1112h184v-1106q0 -152 -72.5 -234.5t-220.5 -82.5q-29 0 -69.5 4t-71.5 10v158zM131 1298q0 53 32 84t85 31q55 0 87 -30.5t32 -84.5q0 -53 -32 -84.5t-87 -31.5q-53 0 -85 31.5t-32 84.5z" />
<glyph unicode="k" horiz-adv-x="1026" d="M156 0v1434h184v-906h4l406 459h217v-14l-432 -475l448 -482v-16h-221l-418 457h-4v-457h-184z" />
<glyph unicode="l" horiz-adv-x="542" d="M158 203v1231h184v-1244q0 -27 9 -40t48 -13h88v-145q-23 -6 -54.5 -11.5t-65.5 -5.5q-111 0 -160 60.5t-49 167.5z" />
<glyph unicode="m" horiz-adv-x="1824" d="M156 0v987h125l22 -90h4q25 16 60.5 36.5t81 39t97.5 32t111 13.5q109 0 178.5 -34t112.5 -99h6q29 20 66 42.5t82 43t98 34t115 13.5q180 0 272 -95.5t92 -281.5v-641h-184v604q0 127 -47 189.5t-176 62.5q-78 0 -149.5 -38t-123.5 -79q4 -23 7.5 -47t3.5 -51v-641h-185 v604q0 63 -9 110.5t-32.5 79t-64.5 47t-105 15.5q-86 0 -156.5 -34t-117.5 -62v-760h-184z" />
<glyph unicode="n" horiz-adv-x="1167" d="M156 0v987h131l22 -90h4q23 16 60 36.5t83 39t99 32t107 13.5q166 0 263 -95.5t97 -281.5v-641h-184v604q0 127 -54.5 189.5t-167.5 62.5q-39 0 -78.5 -9t-77.5 -23.5t-69 -32t-51 -31.5v-760h-184z" />
<glyph unicode="o" horiz-adv-x="1175" d="M100 494q0 106 27 202.5t85 167t150.5 112.5t221.5 42q131 0 224 -42t152.5 -112.5t87 -167t27.5 -202.5q0 -109 -27.5 -204t-87 -166t-152.5 -113t-224 -42q-129 0 -221.5 42t-150.5 113t-85 166t-27 204zM289 494q0 -76 15 -142.5t50 -116t91.5 -77t138.5 -27.5 q84 0 141 27.5t93 77t52.5 116t16.5 142.5t-16.5 142t-52.5 115.5t-93 77t-141 27.5q-82 0 -138.5 -27.5t-91.5 -77t-50 -115.5t-15 -142z" />
<glyph unicode="p" horiz-adv-x="1173" d="M156 -406v1393h129l22 -90h4q53 39 142.5 80t203.5 41q109 0 188 -42t129 -112.5t73.5 -167t23.5 -202.5q0 -109 -23.5 -204t-73.5 -166t-129 -113t-188 -42q-115 0 -187.5 31t-125.5 70h-4v-476h-184zM340 227q47 -43 121 -69.5t147 -26.5q78 0 131.5 28.5t85 78t45 116 t13.5 140.5t-13.5 140t-45 115.5t-85 78t-131.5 28.5q-74 0 -147.5 -26.5t-120.5 -69.5v-533z" />
<glyph unicode="q" horiz-adv-x="1173" d="M102 494q0 106 24 202.5t74 167t129 112.5t187 42q57 0 108.5 -11.5t95.5 -30t80 -40t62 -39.5h4l23 90h129v-1393h-184v476h-5q-53 -39 -125.5 -70t-187.5 -31q-109 0 -187.5 42t-128.5 113t-74 166t-24 204zM291 494q0 -74 13 -140.5t45 -116t85 -78t131 -28.5 q74 0 147.5 26.5t121.5 69.5v533q-47 43 -121 69.5t-148 26.5q-78 0 -131 -28.5t-85 -78t-45 -116t-13 -139.5z" />
<glyph unicode="r" horiz-adv-x="733" d="M156 0v987h131l22 -106h4q25 31 54.5 56.5t64.5 42.5t74 27.5t82 10.5q29 0 57.5 -4t48.5 -10l-26 -166q-23 4 -50.5 7t-50.5 3q-96 0 -144 -40t-83 -103v-705h-184z" />
<glyph unicode="s" horiz-adv-x="921" d="M88 63l66 148q63 -39 134.5 -61.5t155.5 -22.5q102 0 152.5 36t50.5 103q0 53 -34.5 84t-112.5 53l-119 33q-63 18 -114.5 42t-86.5 57.5t-54.5 78.5t-19.5 103q0 135 97.5 218t269.5 83q102 0 182 -18.5t156 -51.5l-57 -149q-66 31 -135.5 46t-135.5 15q-100 0 -146 -36 t-46 -101q0 -49 30.5 -78t114.5 -51l117 -31q63 -16 114.5 -41.5t88.5 -60.5t56 -82t19 -109q0 -68 -25.5 -124t-72.5 -95t-116.5 -60.5t-155.5 -21.5q-127 0 -212 25.5t-161 68.5z" />
<glyph unicode="t" horiz-adv-x="747" d="M55 836v110l176 41v230h185v-230h264v-151h-264v-588q0 -61 28.5 -89t79.5 -28q41 0 86 9.5t68 15.5v-158q-29 -8 -81 -18.5t-114 -10.5q-123 0 -187.5 62.5t-64.5 181.5v623h-176z" />
<glyph unicode="u" horiz-adv-x="1153" d="M145 346v641h185v-604q0 -127 49 -189.5t164 -62.5q39 0 77.5 9.5t74.5 23.5t67 31.5t51 31.5v760h184v-987h-131l-22 90h-4q-23 -16 -60 -36.5t-81 -39t-96 -32t-105 -13.5q-166 0 -259.5 95.5t-93.5 281.5z" />
<glyph unicode="v" horiz-adv-x="1032" d="M43 967v20h184l287 -768h4l289 768h182v-20l-385 -967h-176z" />
<glyph unicode="w" horiz-adv-x="1675" d="M53 967v20h187l243 -747h4l256 747h189l258 -747h4l242 747h186v-20l-336 -967h-178l-268 766h-4l-269 -766h-178z" />
<glyph unicode="x" horiz-adv-x="1015" d="M61 0v20l330 474l-330 473v20h191l254 -385h4l252 385h192v-20l-329 -473l329 -474v-20h-192l-252 383h-4l-254 -383h-191z" />
<glyph unicode="y" horiz-adv-x="1034" d="M41 967v20h184l293 -768h6l281 768h182v-20l-414 -1098q-59 -158 -142 -231.5t-200 -73.5q-41 0 -85 7t-72 13v156q31 -4 68.5 -9t72.5 -5q66 0 106.5 36.5t69.5 116.5l47 131z" />
<glyph unicode="z" horiz-adv-x="921" d="M82 0v106l510 725v5h-481v151h714v-106l-510 -725v-4h510v-152h-743z" />
<glyph unicode="{" horiz-adv-x="690" d="M76 436v156q80 0 120 33.5t40 115.5v385q0 70 12 126.5t49 96.5t102.5 62.5t171.5 22.5h39v-111q-59 0 -95 -10t-57.5 -33t-28.5 -60.5t-7 -95.5v-366q0 -106 -43 -162.5t-117 -79.5v-4q74 -23 117 -79t43 -163v-366q0 -57 7 -95t28.5 -61.5t57.5 -33t95 -9.5v-111h-39 q-106 0 -171.5 23t-102.5 62.5t-49 96t-12 126.5v385q0 82 -40 115.5t-120 33.5z" />
<glyph unicode="|" horiz-adv-x="483" d="M168 -406v1840h147v-1840h-147z" />
<glyph unicode="}" horiz-adv-x="692" d="M80 -295q59 0 96 9.5t58.5 33t28.5 61t7 95.5v366q0 106 43 162.5t115 79.5v4q-72 23 -115 79t-43 163v366q0 57 -7 95t-28.5 61t-58.5 33t-96 10v111h39q106 0 172.5 -22.5t103.5 -62.5t49.5 -96.5t12.5 -126.5v-385q0 -82 40 -115.5t119 -33.5v-156q-80 0 -119.5 -33.5 t-39.5 -115.5v-385q0 -70 -12.5 -126.5t-49.5 -96t-103.5 -62.5t-172.5 -23h-39v111z" />
<glyph unicode="~" horiz-adv-x="1089" d="M127 561q33 53 95.5 88t154.5 35q49 0 94 -16.5t88 -36t84 -35.5t84 -16q47 0 85 15t77 54l74 -102q-51 -68 -114 -93.5t-134 -25.5q-45 0 -90 16.5t-88 36t-85 35.5t-79 16q-41 0 -85 -13t-87 -58z" />
<glyph unicode="&#xa2;" d="M209 494q0 104 25.5 192t76.5 155.5t124 111.5t169 59v172h148v-170q66 -6 132 -25.5t120 -42.5l-48 -143q-37 14 -91 28.5t-113 20.5v-719q59 6 113.5 20.5t90.5 30.5l48 -143q-53 -25 -120 -43t-132 -25v-170h-148v172q-96 14 -169 57.5t-124 111t-76.5 156.5 t-25.5 194zM397 494q0 -57 12.5 -112.5t38 -103t64.5 -83t92 -52.5v699q-53 -16 -92 -52t-64.5 -82t-38 -101.5t-12.5 -112.5z" />
<glyph unicode="&#xa3;" d="M154 606v152h145q-8 68 -13 135.5t-5 130.5q0 195 112.5 297t298.5 102q88 0 175 -25.5t175 -68.5l-53 -151q-88 39 -154.5 55t-142.5 16q-45 0 -84 -12t-68.5 -40t-47 -71t-17.5 -104q0 -53 6 -122t15 -142h391v-152h-373q6 -57 10 -106t4 -86q0 -92 -37.5 -150.5 t-78.5 -89.5v-4h626v-170h-864v145q18 14 45 34t52.5 49.5t44 69.5t18.5 97q0 47 -5 100.5t-12 110.5h-163z" />
<glyph unicode="&#xa5;" d="M78 1372v21h203l319 -586h4l326 586h200v-21l-342 -592h281v-151h-373v-189h373v-151h-373v-289h-188v289h-371v151h371v189h-371v151h281z" />
<glyph unicode="&#xa8;" d="M281 1298q0 53 31.5 84t84.5 31q55 0 87 -30.5t32 -84.5q0 -53 -31.5 -84.5t-87.5 -31.5q-53 0 -84.5 31.5t-31.5 84.5zM688 1298q0 53 32 84t85 31q55 0 87 -30.5t32 -84.5q0 -53 -32 -84.5t-87 -31.5q-53 0 -85 31.5t-32 84.5z" />
<glyph unicode="&#xa9;" horiz-adv-x="1683" d="M115 696q0 154 55 287t153.5 231.5t231.5 153.5t287 55t287 -55t231 -153.5t153.5 -231.5t55.5 -287t-55.5 -287t-153.5 -231t-231.5 -153.5t-286.5 -55.5q-154 0 -287 55.5t-231.5 153.5t-153.5 231t-55 287zM229 696q0 -131 46.5 -244.5t128 -196.5t194.5 -130t244 -47 t243.5 47t194.5 130t128 196.5t46 244.5t-46 245t-128 197t-194.5 130t-243.5 47t-244 -47t-194.5 -130t-128 -197t-46.5 -245zM465 696q0 180 96 290t283 110q53 0 110.5 -12.5t110.5 -36.5l-39 -115q-51 23 -93 31t-89 8q-113 0 -171.5 -75t-58.5 -200t58.5 -199.5 t171.5 -74.5q47 0 89 8t93 31l39 -115q-53 -25 -110.5 -37t-110.5 -12q-186 0 -282.5 109.5t-96.5 289.5z" />
<glyph unicode="&#xab;" horiz-adv-x="1034" d="M88 541v24l318 428l118 -78l-250 -362l250 -363l-118 -77zM491 541v24l318 428l118 -78l-250 -362l250 -363l-118 -77z" />
<glyph unicode="&#xad;" horiz-adv-x="837" d="M147 477v152h543v-152h-543z" />
<glyph unicode="&#xae;" horiz-adv-x="1163" d="M115 1149q0 100 35.5 185t98 148.5t148.5 99.5t185 36q98 0 184 -36t148.5 -99.5t98.5 -148.5t36 -185q0 -98 -36 -184t-98.5 -148.5t-148.5 -98.5t-184 -36t-184.5 36t-149 98.5t-98 148.5t-35.5 184zM211 1149q0 -80 27.5 -148.5t78 -119t118 -79t147.5 -28.5 t147.5 28.5t117.5 79t77.5 119t27.5 148.5t-27.5 148.5t-77.5 119.5t-117.5 80t-147.5 29t-147.5 -29t-118 -80t-78 -119.5t-27.5 -148.5zM406 932v446h190q78 0 118 -35.5t40 -97.5q0 -51 -24.5 -87t-76.5 -46l129 -170v-10h-104l-125 174h-51v-174h-96zM502 1188h80 q39 0 57 11t18 46q0 31 -18 41t-57 10h-80v-108z" />
<glyph unicode="&#xb4;" d="M438 1186v20l131 248h201v-20l-174 -248h-158z" />
<glyph unicode="&#xb8;" d="M406 -408l28 113q20 -8 48 -15t61 -7q47 0 72.5 15t25.5 56q0 45 -36 60.5t-89 15.5l-12 20l59 164h139l-47 -112q66 -10 106 -47t40 -101q0 -104 -68.5 -147t-173.5 -43q-49 0 -90 9t-63 19z" />
<glyph unicode="&#xbb;" horiz-adv-x="1034" d="M106 190l250 363l-250 362l119 78l318 -428v-24l-318 -428zM509 190l250 363l-250 362l119 78l318 -428v-24l-318 -428z" />
<glyph unicode="&#x2c6;" d="M307 1186v20l193 248h209l192 -248v-20h-168l-129 151l-129 -151h-168z" />
<glyph unicode="&#x2da;" d="M395 1307q0 92 58.5 141t150.5 49t149.5 -49t57.5 -141t-57.5 -142.5t-149.5 -50.5t-150.5 50.5t-58.5 142.5zM516 1307q0 -41 23.5 -61.5t64.5 -20.5t64.5 20.5t23.5 61.5t-23.5 60t-64.5 19t-64.5 -19t-23.5 -60z" />
<glyph unicode="&#x2dc;" d="M291 1298q29 41 74 79t110 38q33 0 68 -13t68.5 -28.5t66.5 -28t63 -12.5q35 0 65 18.5t56 53.5l56 -102q-37 -51 -81 -84t-104 -33q-35 0 -67.5 12t-66.5 27.5t-67.5 29t-66.5 13.5t-63.5 -19.5t-55.5 -52.5z" />
<glyph unicode="&#x400;" horiz-adv-x="1200" d="M186 0v1393h887v-170h-698v-428h633v-170h-633v-455h704v-170h-893zM412 1788v20h200l111 -247v-21h-158z" />
<glyph unicode="&#x401;" horiz-adv-x="1200" d="M186 0v1393h887v-170h-698v-428h633v-170h-633v-455h704v-170h-893zM287 1671q0 53 32 84t85 31q55 0 87 -31t32 -84t-32 -85t-87 -32q-53 0 -85 32t-32 85zM736 1671q0 53 31.5 84t84.5 31q55 0 87 -31t32 -84t-31.5 -85t-87.5 -32q-53 0 -84.5 32t-31.5 85z" />
<glyph unicode="&#x402;" horiz-adv-x="1421" d="M59 1223v170h928v-170h-436v-441q72 23 163 39.5t183 16.5q104 0 187 -31t140.5 -88t88 -141t30.5 -191q0 -90 -23.5 -171t-63 -156.5t-92 -145.5t-109.5 -135l-133 104q49 55 91 115.5t71.5 125t47 131.5t17.5 132q0 68 -19.5 120t-56.5 88t-89 54.5t-118 18.5 q-78 0 -157.5 -16.5t-157.5 -39.5v-612h-189v1223h-303z" />
<glyph unicode="&#x403;" horiz-adv-x="1134" d="M186 0v1393h887v-170h-698v-1223h-189zM549 1540v21l110 247h201v-20l-154 -248h-157z" />
<glyph unicode="&#x404;" horiz-adv-x="1220" d="M117 696q0 162 42 296t122.5 230.5t200.5 148.5t278 52q90 0 184 -23.5t186 -66.5l-51 -149q-88 39 -164.5 52t-154.5 13q-213 0 -321.5 -125t-125.5 -340h613v-170h-613q16 -219 124 -345t323 -126q78 0 154.5 13.5t164.5 52.5l51 -150q-92 -43 -186 -66.5t-184 -23.5 q-158 0 -278 52.5t-200.5 148.5t-122.5 229t-42 297z" />
<glyph unicode="&#x405;" horiz-adv-x="1097" d="M94 121l84 149q37 -29 78 -52t86 -39.5t95 -26t106 -9.5q117 0 188.5 53.5t71.5 170.5q0 45 -12.5 79.5t-39 61.5t-70.5 48.5t-106 43.5l-126 45q-154 53 -239 146.5t-85 230.5q0 86 30.5 159.5t89 128t142.5 84t193 29.5q53 0 108 -10t106.5 -26.5t95.5 -37t77 -40.5 l-76 -152q-74 41 -153 66.5t-158 25.5q-131 0 -196 -60.5t-65 -152.5q0 -74 38 -123t147 -88l135 -47q86 -31 152.5 -68.5t112.5 -86t69.5 -108.5t23.5 -136q0 -90 -32.5 -165t-92 -129t-143.5 -85t-186 -31q-74 0 -138.5 12.5t-120 34t-103.5 49t-87 56.5z" />
<glyph unicode="&#x406;" horiz-adv-x="561" d="M186 0v1393h189v-1393h-189z" />
<glyph unicode="&#x407;" horiz-adv-x="561" d="M-64 1671q0 53 32 84t85 31q55 0 87 -31t32 -84t-32 -85t-87 -32q-53 0 -85 32t-32 85zM186 0v1393h189v-1393h-189zM385 1671q0 53 31.5 84t84.5 31q55 0 87 -31t32 -84t-31.5 -85t-87.5 -32q-53 0 -84.5 32t-31.5 85z" />
<glyph unicode="&#x408;" horiz-adv-x="950" d="M41 119l94 131q23 -18 46.5 -37.5t51 -35t62.5 -25t78 -9.5q49 0 89 17.5t67.5 56.5t42 97.5t14.5 142.5v936h188v-951q0 -233 -107.5 -353t-293.5 -120q-104 0 -189.5 46t-142.5 104z" />
<glyph unicode="&#x409;" horiz-adv-x="1990" d="M27 -20v170q59 0 102 13t71.5 71.5t46 179.5t27.5 338l27 641h821v-555h324q219 0 338 -110t119 -310q0 -197 -119 -307.5t-338 -110.5h-512v1223h-459l-20 -471q-8 -178 -23.5 -305.5t-39 -213.5t-57.5 -136t-79 -76.5t-102.5 -33.5t-126.5 -7zM1122 170h303 q129 0 206 56.5t77 191.5t-76 192.5t-207 57.5h-303v-498z" />
<glyph unicode="&#x40a;" horiz-adv-x="2041" d="M186 0v1393h189v-555h610v555h189v-555h323q219 0 338 -110t119 -310q0 -197 -119 -307.5t-338 -110.5h-512v668h-610v-668h-189zM1174 170h303q129 0 205.5 56.5t76.5 191.5t-75.5 192.5t-206.5 57.5h-303v-498z" />
<glyph unicode="&#x40b;" horiz-adv-x="1466" d="M59 1223v170h928v-170h-434v-322q55 16 155.5 35.5t223.5 19.5q94 0 172 -23.5t133 -71.5t85 -118.5t30 -162.5v-580h-189v535q0 127 -64.5 189t-205.5 62q-45 0 -95 -7t-96.5 -16t-85 -19.5t-63.5 -16.5v-727h-188v1223h-306z" />
<glyph unicode="&#x40c;" horiz-adv-x="1230" d="M186 0v1393h189v-684h4l571 684h219v-21l-587 -690l616 -662v-20h-231l-588 635h-4v-635h-189zM551 1540v21l110 247h201v-20l-154 -248h-157z" />
<glyph unicode="&#x40d;" horiz-adv-x="1437" d="M186 0v1393h189v-1117h4l659 1117h213v-1393h-188v1116h-4l-658 -1116h-215zM490 1788v20h200l111 -247v-21h-158z" />
<glyph unicode="&#x40e;" horiz-adv-x="1132" d="M43 1372v21h197l354 -779h6l315 779h195v-21l-451 -1063q-35 -82 -73.5 -140t-87.5 -96t-112.5 -55.5t-147.5 -17.5h-78v172h59q47 0 83 6t65.5 24.5t54 50.5t47.5 83l33 72zM299 1696l61 86q47 -39 111.5 -52.5t132.5 -13.5q70 0 134.5 13.5t111.5 52.5l61 -86 q-49 -70 -128 -101.5t-179 -31.5q-98 0 -177 31.5t-128 101.5z" />
<glyph unicode="&#x40f;" horiz-adv-x="1419" d="M186 0v1393h189v-1223h669v1223h189v-1393h-434l-17 -289h-147l-19 289h-430z" />
<glyph unicode="&#x410;" horiz-adv-x="1292" d="M25 0l526 1393h190l527 -1393h-197l-125 348h-600l-127 -348h-194zM408 508h475l-236 663h-4z" />
<glyph unicode="&#x411;" horiz-adv-x="1255" d="M186 0v1393h885v-170h-696v-385h323q219 0 338 -110t119 -310q0 -197 -118.5 -307.5t-338.5 -110.5h-512zM375 170h303q129 0 206 56.5t77 191.5t-76 192.5t-207 57.5h-303v-498z" />
<glyph unicode="&#x412;" horiz-adv-x="1280" d="M186 0v1393h457q233 0 351 -88t118 -271q0 -121 -53 -201.5t-129 -109.5v-4q113 -35 177 -120t64 -222q0 -176 -117.5 -276.5t-334.5 -100.5h-533zM375 170h323q63 0 115.5 11.5t88.5 37t55.5 67.5t19.5 105q0 127 -75 175t-206 48h-321v-444zM375 784h254q70 0 124 9.5 t91 34t55.5 66.5t18.5 110t-17.5 109.5t-53.5 66t-90.5 34t-127.5 9.5h-254v-439z" />
<glyph unicode="&#x413;" horiz-adv-x="1134" d="M186 0v1393h887v-170h-698v-1223h-189z" />
<glyph unicode="&#x414;" horiz-adv-x="1411" d="M25 170h100q43 53 75.5 108.5t57.5 126t41 166t25 230.5l36 592h828v-1223h125l-27 -459h-147l-17 289h-907l-16 -289h-148zM336 170h663v1053h-464l-31 -435q-10 -133 -23.5 -230t-34 -169t-47 -124t-63.5 -95z" />
<glyph unicode="&#x415;" horiz-adv-x="1200" d="M186 0v1393h887v-170h-698v-428h633v-170h-633v-455h704v-170h-893z" />
<glyph unicode="&#x416;" horiz-adv-x="1900" d="M33 0v20l616 662l-588 690v21h224l567 -684h4v684h188v-684h5l567 684h223v-21l-588 -690l617 -662v-20h-236l-583 635h-5v-635h-188v635h-4l-584 -635h-235z" />
<glyph unicode="&#x417;" horiz-adv-x="1118" d="M74 74l65 153q90 -45 179.5 -64.5t189.5 -19.5q63 0 118.5 15.5t97.5 46.5t66.5 76t24.5 104q0 49 -14.5 93t-50 77t-94 51.5t-146.5 18.5h-236v170h248q137 0 197.5 66.5t60.5 160.5t-64.5 160.5t-193.5 66.5q-96 0 -181 -18.5t-173 -52.5l-57 153q39 20 89 37.5t103 30 t109.5 18.5t111.5 6q217 0 334 -105.5t117 -283.5q0 -57 -17.5 -107t-45 -90t-62.5 -70t-70 -44v-4q100 -39 165 -128t65 -218q0 -92 -37 -166t-103.5 -127t-159 -82t-200.5 -29q-135 0 -246.5 29t-189.5 76z" />
<glyph unicode="&#x418;" horiz-adv-x="1437" d="M186 0v1393h189v-1117h4l659 1117h213v-1393h-188v1116h-4l-658 -1116h-215z" />
<glyph unicode="&#x419;" horiz-adv-x="1437" d="M186 0v1393h189v-1117h4l659 1117h213v-1393h-188v1116h-4l-658 -1116h-215zM432 1696l61 86q47 -39 111.5 -52.5t132.5 -13.5q70 0 134.5 13.5t111.5 52.5l61 -86q-49 -70 -128 -101.5t-179 -31.5q-98 0 -177 31.5t-128 101.5z" />
<glyph unicode="&#x41a;" horiz-adv-x="1230" d="M186 0v1393h189v-684h4l571 684h219v-21l-587 -690l616 -662v-20h-231l-588 635h-4v-635h-189z" />
<glyph unicode="&#x41b;" horiz-adv-x="1390" d="M27 -20v170q59 0 102 13t71.5 71.5t46 179.5t27.5 338l27 641h903v-1393h-188v1223h-541l-20 -471q-8 -178 -23.5 -305.5t-39 -213.5t-57.5 -136t-79 -76.5t-102.5 -33.5t-126.5 -7z" />
<glyph unicode="&#x41c;" horiz-adv-x="1693" d="M186 0v1393h179l479 -811h4l479 811h180v-1393h-188v1047h-4l-400 -697h-135l-401 697h-4v-1047h-189z" />
<glyph unicode="&#x41d;" horiz-adv-x="1439" d="M186 0v1393h189v-598h690v598h188v-1393h-188v625h-690v-625h-189z" />
<glyph unicode="&#x41e;" horiz-adv-x="1472" d="M119 696q0 154 34.5 287t109.5 231.5t191.5 153.5t282.5 55t283 -55t190.5 -153.5t108.5 -231.5t35 -287t-35 -287t-108.5 -231t-190.5 -153.5t-283 -55.5t-282.5 55.5t-191.5 153.5t-109.5 231.5t-34.5 286.5zM313 696q0 -117 20.5 -218t70 -175t131 -117t202.5 -43 q123 0 204 43t129 117t68.5 175.5t20.5 217.5q0 117 -20.5 218.5t-68.5 175t-129 116.5t-204 43q-121 0 -202.5 -43t-131 -116.5t-70 -175t-20.5 -218.5z" />
<glyph unicode="&#x41f;" horiz-adv-x="1439" d="M186 0v1393h1067v-1393h-188v1223h-690v-1223h-189z" />
<glyph unicode="&#x420;" horiz-adv-x="1214" d="M186 0v1393h494q117 0 202 -30t140 -85t81.5 -134t26.5 -179t-27.5 -179t-82.5 -134.5t-140 -85t-200 -29.5h-305v-537h-189zM375 707h289q145 0 208.5 70.5t63.5 187.5t-63.5 187.5t-208.5 70.5h-289v-516z" />
<glyph unicode="&#x421;" horiz-adv-x="1224" d="M117 696q0 162 42 296t122.5 230.5t200.5 148.5t278 52q90 0 184 -23.5t186 -66.5l-51 -149q-88 39 -164.5 52t-154.5 13q-117 0 -202 -39t-140.5 -110.5t-81 -174t-25.5 -229.5t25.5 -229t81 -174t140.5 -111t202 -39q78 0 154.5 13.5t164.5 52.5l51 -150 q-92 -43 -186 -66.5t-184 -23.5q-158 0 -278 52.5t-200.5 148.5t-122.5 229t-42 297z" />
<glyph unicode="&#x422;" horiz-adv-x="1132" d="M66 1223v170h1001v-170h-405v-1223h-189v1223h-407z" />
<glyph unicode="&#x423;" horiz-adv-x="1132" d="M43 1372v21h197l354 -779h6l315 779h195v-21l-451 -1063q-35 -82 -73.5 -140t-87.5 -96t-112.5 -55.5t-147.5 -17.5h-78v172h59q47 0 83 6t65.5 24.5t54 50.5t47.5 83l33 72z" />
<glyph unicode="&#x424;" horiz-adv-x="1677" d="M129 698q0 113 32 212.5t104.5 174t188 121.5t283.5 58v129h189v-129q166 -10 284.5 -57.5t194.5 -122t111.5 -174t35.5 -212.5q0 -115 -35.5 -213t-111.5 -173.5t-194.5 -123t-284.5 -57.5v-131h-189v131q-168 10 -283.5 57.5t-188 123t-104.5 174t-32 212.5zM324 698 q0 -84 19 -153.5t67.5 -121.5t127 -86t199.5 -42v807q-121 -10 -199.5 -43t-127 -85t-67.5 -122t-19 -154zM926 295q119 8 201.5 42t134 86t74 121.5t22.5 153.5t-22.5 154t-74 122t-134.5 85t-201 43v-807z" />
<glyph unicode="&#x425;" horiz-adv-x="1204" d="M59 0v20l424 676l-424 676v21h203l338 -568h4l340 568h203v-21l-426 -676l426 -676v-20h-203l-340 565h-4l-338 -565h-203z" />
<glyph unicode="&#x426;" horiz-adv-x="1456" d="M186 0v1393h189v-1223h669v1223h189v-1223h125l-27 -459h-147l-17 289h-981z" />
<glyph unicode="&#x427;" horiz-adv-x="1304" d="M131 752v641h188v-596q0 -127 65 -189.5t206 -62.5q45 0 95 7t96 16.5t85 19.5t64 16v789h188v-1393h-188v430q-55 -16 -155.5 -35.5t-223.5 -19.5q-96 0 -173 23.5t-132.5 71.5t-85 118.5t-29.5 163.5z" />
<glyph unicode="&#x428;" horiz-adv-x="2074" d="M186 0v1393h189v-1223h567v1223h191v-1223h567v1223h188v-1393h-1702z" />
<glyph unicode="&#x429;" horiz-adv-x="2111" d="M186 0v1393h189v-1223h567v1223h191v-1223h567v1223h188v-1223h125l-26 -459h-148l-16 289h-1637z" />
<glyph unicode="&#x42a;" horiz-adv-x="1400" d="M57 1223v170h475v-555h324q219 0 338 -110t119 -310q0 -197 -119 -307.5t-338 -110.5h-512v1223h-287zM532 170h304q129 0 205.5 56.5t76.5 191.5t-75.5 192.5t-206.5 57.5h-304v-498z" />
<glyph unicode="&#x42b;" horiz-adv-x="1722" d="M186 0v1393h189v-555h323q219 0 338 -110t119 -310q0 -197 -118.5 -307.5t-338.5 -110.5h-512zM375 170h303q129 0 206 56.5t77 191.5t-76 192.5t-207 57.5h-303v-498zM1347 0v1393h189v-1393h-189z" />
<glyph unicode="&#x42c;" horiz-adv-x="1243" d="M186 0v1393h189v-555h323q219 0 338 -110t119 -310q0 -197 -118.5 -307.5t-338.5 -110.5h-512zM375 170h303q129 0 206 56.5t77 191.5t-76 192.5t-207 57.5h-303v-498z" />
<glyph unicode="&#x42d;" horiz-adv-x="1224" d="M94 59l51 150q88 -39 165 -52.5t155 -13.5q215 0 322.5 126t123.5 345h-612v170h612q-16 215 -124.5 340t-321.5 125q-78 0 -155 -13t-165 -52l-51 149q92 43 186.5 66.5t184.5 23.5q156 0 276.5 -52t201.5 -148.5t123 -230.5t42 -296q0 -164 -42 -297t-123 -229 t-201.5 -148.5t-276.5 -52.5q-90 0 -184.5 23.5t-186.5 66.5z" />
<glyph unicode="&#x42e;" horiz-adv-x="2029" d="M186 0v1393h189v-598h303q10 135 50 250.5t116 199.5t187.5 131t262.5 47q166 0 283 -55t190.5 -153.5t108.5 -231.5t35 -287t-35 -287t-108.5 -231t-190.5 -153.5t-283 -55.5q-156 0 -269.5 49.5t-188 137.5t-113.5 207.5t-45 261.5h-303v-625h-189zM870 696 q0 -117 20.5 -218t70 -175t131.5 -117t202 -43q123 0 204 43t129 117t68.5 175.5t20.5 217.5q0 117 -20.5 218.5t-68.5 175t-129 116.5t-204 43q-121 0 -202.5 -43t-131 -116.5t-70 -175t-20.5 -218.5z" />
<glyph unicode="&#x42f;" horiz-adv-x="1314" d="M61 0v33l418 555q-154 29 -244 130t-90 267q0 195 123 301.5t336 106.5h524v-1393h-188v578h-254l-424 -578h-201zM340 985q0 -113 70.5 -175t203.5 -62h326v475h-326q-133 0 -203.5 -62.5t-70.5 -175.5z" />
<glyph unicode="&#x430;" horiz-adv-x="1064" d="M84 274q0 90 35 150.5t97.5 97.5t147.5 52.5t187 15.5h158v51q0 106 -51.5 160.5t-170.5 54.5q-72 0 -148.5 -25.5t-133.5 -60.5l-70 139q66 47 158 78t199 31q193 0 297 -97.5t104 -283.5v-447q0 -27 9 -40t48 -13h56v-145q-23 -6 -47.5 -11.5t-53.5 -5.5 q-72 0 -108.5 31t-53.5 82h-4q-68 -55 -151.5 -87t-181.5 -32q-68 0 -127.5 20.5t-102.5 58.5t-67.5 95.5t-24.5 130.5zM272 287q0 -80 44 -118t126 -38q70 0 141.5 22.5t125.5 61.5v231h-129q-88 0 -146.5 -11t-94.5 -31.5t-51.5 -50t-15.5 -66.5z" />
<glyph unicode="&#x431;" d="M121 547q0 135 7 265t46 240.5t122 195.5t236 132q57 18 130 29.5t146 20t136.5 15.5t104.5 15v-172q-41 -6 -99.5 -11t-124 -12.5t-131 -19.5t-119.5 -31q-78 -29 -128 -69.5t-80.5 -95t-43 -124t-14.5 -151.5l4 -4q51 57 147.5 99t201.5 42q100 0 182 -33.5t140 -94 t90 -146.5t32 -191q0 -100 -33 -187t-95.5 -151.5t-153.5 -101.5t-210 -37q-240 0 -366.5 151.5t-126.5 426.5zM309 446q0 -68 21.5 -126t61.5 -100t96.5 -65.5t125.5 -23.5q68 0 124.5 23.5t96 65.5t61.5 100t22 126q0 141 -83 222.5t-221 81.5q-141 0 -223 -81t-82 -223z " />
<glyph unicode="&#x432;" horiz-adv-x="1054" d="M156 0v987h372q186 0 282.5 -62.5t96.5 -201.5q0 -80 -40 -133t-99 -76v-2q86 -27 136 -84t50 -149q0 -137 -91 -208t-281 -71h-426zM338 152h227q98 0 148.5 33.5t50.5 105.5q0 74 -48 106.5t-149 32.5h-229v-278zM338 578h180q51 0 88 6t61.5 20t37 39t12.5 62 t-10.5 62.5t-34 40.5t-61.5 21.5t-91 6.5h-182v-258z" />
<glyph unicode="&#x433;" horiz-adv-x="909" d="M156 0v987h700v-151h-518v-836h-182z" />
<glyph unicode="&#x434;" horiz-adv-x="1165" d="M39 156h88q31 35 55.5 76.5t41 94t27.5 117t15 144.5l25 399h678v-831h110l-28 -402h-131l-19 246h-686l-16 -246h-131zM330 156h456v680h-331l-19 -252q-6 -82 -14 -147.5t-20.5 -118t-30 -92.5t-41.5 -70z" />
<glyph unicode="&#x435;" horiz-adv-x="1099" d="M100 498q0 100 29 194t87 166t145.5 116t203.5 44q117 0 200 -36t137 -94.5t79 -136t25 -159.5q0 -39 -4.5 -85t-8.5 -73h-706q0 -68 22.5 -124t63.5 -97t98 -63.5t129 -22.5q102 0 172 26.5t123 61.5l72 -139q-66 -43 -160 -75t-223 -32q-127 0 -218.5 43t-150.5 115 t-87 168t-28 203zM287 582h538q2 10 2 21v22q0 51 -17 94t-50 74.5t-82 49t-113 17.5q-61 0 -111.5 -20.5t-86 -57.5t-56 -88t-24.5 -112z" />
<glyph unicode="&#x436;" horiz-adv-x="1558" d="M41 0v14l453 471l-433 488v14h211l412 -479h2v479h184v-479h4l412 479h209v-14l-430 -488l453 -471v-14h-220l-424 444h-4v-444h-184v444h-2l-424 -444h-219z" />
<glyph unicode="&#x437;" horiz-adv-x="956" d="M70 45l43 148q37 -16 74.5 -27.5t77.5 -20t82 -11.5t85 -3q117 0 179.5 37t62.5 123q0 72 -53.5 105.5t-133.5 33.5h-258v152h246q61 0 114.5 29.5t53.5 97.5t-43 107.5t-162 39.5q-39 0 -76.5 -4t-74.5 -10t-74 -16.5t-74 -22.5l-39 147q70 31 159 49.5t181 18.5 q203 0 296 -80t93 -207q0 -84 -38.5 -139t-98.5 -78v-4q82 -29 125 -89.5t43 -154.5q0 -66 -28.5 -121t-83 -94t-134 -60.5t-182.5 -21.5q-117 0 -207 20.5t-155 55.5z" />
<glyph unicode="&#x438;" horiz-adv-x="1169" d="M156 0v987h182v-727h4l465 727h207v-987h-183v727h-4l-465 -727h-206z" />
<glyph unicode="&#x439;" horiz-adv-x="1169" d="M156 0v987h182v-727h4l465 727h207v-987h-183v727h-4l-465 -727h-206zM291 1319l61 86q47 -39 111.5 -52.5t132.5 -13.5q70 0 134.5 13.5t111.5 52.5l61 -86q-49 -70 -128 -101.5t-179 -31.5q-98 0 -177 31.5t-128 101.5z" />
<glyph unicode="&#x43a;" horiz-adv-x="1026" d="M156 0v987h182v-479h4l412 479h209v-14l-431 -488l453 -471v-14h-219l-424 444h-4v-444h-182z" />
<glyph unicode="&#x43b;" horiz-adv-x="1161" d="M49 -14v157q43 0 77 10.5t57.5 49.5t39 115.5t21.5 211.5l22 457h740v-987h-183v836h-389l-18 -314q-10 -178 -36 -284.5t-70 -162t-108.5 -72.5t-152.5 -17z" />
<glyph unicode="&#x43c;" horiz-adv-x="1374" d="M156 0v987h176l352 -541h4l354 541h177v-987h-183v670h-4l-276 -422h-140l-274 422h-4v-670h-182z" />
<glyph unicode="&#x43d;" horiz-adv-x="1167" d="M156 0v987h182v-409h491v409h183v-987h-183v422h-491v-422h-182z" />
<glyph unicode="&#x43e;" horiz-adv-x="1175" d="M100 494q0 106 27 202.5t85 167t150.5 112.5t221.5 42q131 0 224 -42t152.5 -112.5t87 -167t27.5 -202.5q0 -109 -27.5 -204t-87 -166t-152.5 -113t-224 -42q-129 0 -221.5 42t-150.5 113t-85 166t-27 204zM289 494q0 -76 15 -142.5t50 -116t91.5 -77t138.5 -27.5 q84 0 141 27.5t93 77t52.5 116t16.5 142.5t-16.5 142t-52.5 115.5t-93 77t-141 27.5q-82 0 -138.5 -27.5t-91.5 -77t-50 -115.5t-15 -142z" />
<glyph unicode="&#x43f;" horiz-adv-x="1167" d="M156 0v987h856v-987h-183v836h-491v-836h-182z" />
<glyph unicode="&#x440;" horiz-adv-x="1173" d="M156 -406v1393h129l22 -90h4q53 39 142.5 80t203.5 41q109 0 188 -42t129 -112.5t73.5 -167t23.5 -202.5q0 -109 -23.5 -204t-73.5 -166t-129 -113t-188 -42q-115 0 -187.5 31t-125.5 70h-4v-476h-184zM340 227q47 -43 121 -69.5t147 -26.5q78 0 131.5 28.5t85 78t45 116 t13.5 140.5t-13.5 140t-45 115.5t-85 78t-131.5 28.5q-74 0 -147.5 -26.5t-120.5 -69.5v-533z" />
<glyph unicode="&#x441;" horiz-adv-x="985" d="M100 494q0 117 33 213t94.5 164.5t151.5 107.5t207 39q78 0 161.5 -21.5t147.5 -50.5l-47 -143q-45 18 -117 35.5t-143 17.5q-78 0 -134.5 -30.5t-93 -82t-54 -117t-17.5 -132.5q0 -68 17.5 -133.5t54 -116.5t93 -82t134.5 -31q72 0 143.5 17.5t116.5 35.5l47 -143 q-63 -29 -147 -50.5t-162 -21.5q-117 0 -207 39t-151.5 107.5t-94.5 165t-33 213.5z" />
<glyph unicode="&#x442;" horiz-adv-x="907" d="M55 836v151h799v-151h-309v-836h-183v836h-307z" />
<glyph unicode="&#x443;" horiz-adv-x="1034" d="M41 967v20h184l293 -768h6l281 768h182v-20l-414 -1098q-59 -158 -142 -231.5t-200 -73.5q-41 0 -85 7t-72 13v156q31 -4 68.5 -9t72.5 -5q66 0 106.5 36.5t69.5 116.5l47 131z" />
<glyph unicode="&#x444;" horiz-adv-x="1753" d="M104 494q0 106 21.5 202.5t70 167t123 112.5t179.5 42q98 0 163.5 -22.5t118.5 -57.5h4v496h185v-496h4q53 35 118.5 57.5t163.5 22.5q104 0 179 -42t123.5 -112.5t70 -167t21.5 -202.5q0 -109 -21.5 -204t-70 -166t-123 -113t-179.5 -42q-57 0 -98 5.5t-73.5 16.5 t-58.5 26.5t-52 33.5h-4v-457h-185v457h-4q-27 -18 -52.5 -33.5t-58 -26.5t-73.5 -16.5t-98 -5.5q-104 0 -179 42t-123.5 113t-70 166t-21.5 204zM293 494q0 -74 11 -140.5t41 -116t79 -78t123 -28.5t132 17.5t105 54.5v581q-47 37 -105 54.5t-132 17.5t-123 -28.5t-79 -78 t-41 -116t-11 -139.5zM969 203q47 -37 105.5 -54.5t131.5 -17.5q74 0 123 28.5t79 78t41 116t11 140.5t-11 140t-41 115.5t-79 78t-123 28.5t-132 -17.5t-105 -54.5v-581z" />
<glyph unicode="&#x445;" horiz-adv-x="1015" d="M61 0v20l330 474l-330 473v20h191l254 -385h4l252 385h192v-20l-329 -473l329 -474v-20h-192l-252 383h-4l-254 -383h-191z" />
<glyph unicode="&#x446;" horiz-adv-x="1191" d="M156 0v987h182v-835h475v835h182v-835h111l-29 -398h-131l-16 246h-774z" />
<glyph unicode="&#x447;" horiz-adv-x="1050" d="M106 543v444h183v-416q0 -72 44 -110.5t142 -38.5q70 0 136.5 13.5t101.5 25.5v526h182v-987h-182v307q-47 -16 -119 -28.5t-164 -12.5q-76 0 -135 19.5t-101 55.5t-65 87t-23 115z" />
<glyph unicode="&#x448;" horiz-adv-x="1652" d="M156 0v987h182v-835h397v835h183v-835h395v835h184v-987h-1341z" />
<glyph unicode="&#x449;" horiz-adv-x="1693" d="M156 0v987h182v-835h397v835h183v-835h395v835h184v-835h111l-29 -398h-133l-16 246h-1274z" />
<glyph unicode="&#x44a;" horiz-adv-x="1130" d="M59 836v151h396v-371h235q178 0 270.5 -79.5t92.5 -229.5q0 -147 -92.5 -227t-270.5 -80h-418v836h-213zM455 152h219q45 0 81 10t60.5 30.5t36.5 49t12 65.5t-12 66.5t-35.5 50t-59.5 31t-83 10.5h-219v-313z" />
<glyph unicode="&#x44b;" horiz-adv-x="1406" d="M156 0v987h182v-371h235q178 0 271.5 -79.5t93.5 -229.5q0 -147 -93 -227t-272 -80h-417zM338 156h221q45 0 81 10t59.5 28.5t36 47t12.5 65.5t-12.5 65.5t-36 48t-59.5 30t-81 10.5h-221v-305zM1067 0v987h184v-987h-184z" />
<glyph unicode="&#x44c;" horiz-adv-x="1015" d="M156 0v987h182v-371h235q178 0 271.5 -79.5t93.5 -229.5q0 -147 -93 -227t-272 -80h-417zM338 156h221q45 0 81 10t59.5 28.5t36 47t12.5 65.5t-12.5 65.5t-36 48t-59.5 30t-81 10.5h-221v-305z" />
<glyph unicode="&#x44d;" horiz-adv-x="991" d="M88 43l49 143q68 -27 126.5 -38t119.5 -11q145 0 222 76t93 205h-446v151h446q-16 129 -94 205t-221 76q-61 0 -119.5 -11.5t-126.5 -37.5l-49 145q72 31 147.5 47.5t147.5 16.5q123 0 218 -38t159.5 -105.5t98.5 -162.5t34 -210t-34 -210.5t-98.5 -163t-159.5 -105.5 t-218 -38q-72 0 -147.5 16.5t-147.5 49.5z" />
<glyph unicode="&#x44e;" horiz-adv-x="1640" d="M156 0v987h182v-409h231q8 92 41 172.5t91.5 140t144.5 93.5t203 34q131 0 224 -42t152.5 -112.5t87 -167t27.5 -202.5q0 -109 -27.5 -204t-87 -166t-152.5 -113t-224 -42q-119 0 -206 35t-145.5 96.5t-90.5 143.5t-40 178h-229v-422h-182zM754 494q0 -76 15 -142.5 t50 -116t91.5 -77t138.5 -27.5q84 0 141 27.5t93 77t52.5 116t16.5 142.5t-16.5 142t-52.5 115.5t-93 77t-141 27.5q-82 0 -138.5 -27.5t-91.5 -77t-50 -115.5t-15 -142z" />
<glyph unicode="&#x44f;" horiz-adv-x="1099" d="M66 0v23l319 360q-123 23 -189.5 102.5t-66.5 194.5q0 70 24.5 127t71.5 97t118 61.5t161 21.5h440v-987h-184v371h-176l-324 -371h-194zM319 680q0 -66 51.5 -110t143.5 -44h246v305h-246q-92 0 -143.5 -43t-51.5 -108z" />
<glyph unicode="&#x450;" horiz-adv-x="1099" d="M100 498q0 100 29 194t87 166t145.5 116t203.5 44q117 0 200 -36t137 -94.5t79 -136t25 -159.5q0 -39 -4.5 -85t-8.5 -73h-706q0 -68 22.5 -124t63.5 -97t98 -63.5t129 -22.5q102 0 172 26.5t123 61.5l72 -139q-66 -43 -160 -75t-223 -32q-127 0 -218.5 43t-150.5 115 t-87 168t-28 203zM287 582h538q2 10 2 21v22q0 51 -17 94t-50 74.5t-82 49t-113 17.5q-61 0 -111.5 -20.5t-86 -57.5t-56 -88t-24.5 -112zM348 1434v20h201l131 -248v-20h-158z" />
<glyph unicode="&#x451;" horiz-adv-x="1099" d="M100 498q0 100 29 194t87 166t145.5 116t203.5 44q117 0 200 -36t137 -94.5t79 -136t25 -159.5q0 -39 -4.5 -85t-8.5 -73h-706q0 -68 22.5 -124t63.5 -97t98 -63.5t129 -22.5q102 0 172 26.5t123 61.5l72 -139q-66 -43 -160 -75t-223 -32q-127 0 -218.5 43t-150.5 115 t-87 168t-28 203zM258 1298q0 53 31.5 84t84.5 31q55 0 87 -30.5t32 -84.5q0 -53 -31.5 -84.5t-87.5 -31.5q-53 0 -84.5 31.5t-31.5 84.5zM287 582h538q2 10 2 21v22q0 51 -17 94t-50 74.5t-82 49t-113 17.5q-61 0 -111.5 -20.5t-86 -57.5t-56 -88t-24.5 -112zM665 1298 q0 53 32 84t85 31q55 0 87 -30.5t32 -84.5q0 -53 -32 -84.5t-87 -31.5q-53 0 -85 31.5t-32 84.5z" />
<glyph unicode="&#x452;" horiz-adv-x="1142" d="M29 1141v151h127v142h184v-142h231v-151h-231v-223h4q23 14 55.5 32.5t73.5 32.5t88 24.5t101 10.5q82 0 149.5 -25.5t115.5 -82t73.5 -146.5t25.5 -219q0 -127 -19.5 -247t-51 -230.5t-72.5 -211t-84 -188.5l-152 72q84 174 137.5 378t53.5 427q0 170 -54.5 240.5 t-167.5 70.5q-39 0 -78.5 -9t-77.5 -23.5t-69 -32t-51 -31.5v-760h-184v1141h-127z" />
<glyph unicode="&#x453;" horiz-adv-x="909" d="M156 0v987h700v-151h-518v-836h-182zM434 1186v20l131 248h201v-20l-174 -248h-158z" />
<glyph unicode="&#x454;" horiz-adv-x="989" d="M100 494q0 115 34 210t98.5 162.5t159.5 105.5t218 38q72 0 148 -16.5t147 -47.5l-49 -145q-68 27 -126 38t-120 11q-143 0 -221 -76t-94 -205h446v-151h-446q16 -129 93 -205t222 -76q61 0 119.5 11.5t126.5 37.5l49 -143q-72 -33 -147.5 -49.5t-147.5 -16.5 q-123 0 -218 38t-159.5 105.5t-98.5 163t-34 210.5z" />
<glyph unicode="&#x455;" horiz-adv-x="921" d="M88 63l66 148q63 -39 134.5 -61.5t155.5 -22.5q102 0 152.5 36t50.5 103q0 53 -34.5 84t-112.5 53l-119 33q-63 18 -114.5 42t-86.5 57.5t-54.5 78.5t-19.5 103q0 135 97.5 218t269.5 83q102 0 182 -18.5t156 -51.5l-57 -149q-66 31 -135.5 46t-135.5 15q-100 0 -146 -36 t-46 -101q0 -49 30.5 -78t114.5 -51l117 -31q63 -16 114.5 -41.5t88.5 -60.5t56 -82t19 -109q0 -68 -25.5 -124t-72.5 -95t-116.5 -60.5t-155.5 -21.5q-127 0 -212 25.5t-161 68.5z" />
<glyph unicode="&#x456;" horiz-adv-x="495" d="M131 1298q0 53 32 84t85 31q55 0 87 -30.5t32 -84.5q0 -53 -32 -84.5t-87 -31.5q-53 0 -85 31.5t-32 84.5zM156 0v987h184v-987h-184z" />
<glyph unicode="&#x457;" horiz-adv-x="495" d="M-71 1298q0 53 31.5 84t84.5 31q55 0 87 -30.5t32 -84.5q0 -53 -31.5 -84.5t-87.5 -31.5q-53 0 -84.5 31.5t-31.5 84.5zM156 0v987h184v-987h-184zM336 1298q0 53 32 84t85 31q55 0 87 -30.5t32 -84.5q0 -53 -32 -84.5t-87 -31.5q-53 0 -85 31.5t-32 84.5z" />
<glyph unicode="&#x458;" horiz-adv-x="495" d="M-94 -264q27 -4 62.5 -7t60.5 -3q66 0 96.5 33.5t30.5 115.5v1112h184v-1106q0 -152 -72.5 -234.5t-220.5 -82.5q-29 0 -69.5 4t-71.5 10v158zM131 1298q0 53 32 84t85 31q55 0 87 -30.5t32 -84.5q0 -53 -32 -84.5t-87 -31.5q-53 0 -85 31.5t-32 84.5z" />
<glyph unicode="&#x459;" horiz-adv-x="1609" d="M49 -14v157q43 0 77 10.5t57.5 49.5t39 115.5t21.5 211.5l22 457h668v-371h235q178 0 270.5 -79.5t92.5 -229.5q0 -147 -92 -227t-271 -80h-419v836h-316l-18 -314q-10 -178 -36 -284.5t-70 -162t-108.5 -72.5t-152.5 -17zM934 152h219q45 0 81 10t59.5 30.5t35.5 49 t12 65.5t-12 66.5t-35.5 50t-58.5 31t-82 10.5h-219v-313z" />
<glyph unicode="&#x45a;" horiz-adv-x="1634" d="M156 0v987h182v-371h438v371h182v-371h236q178 0 270 -79.5t92 -229.5q0 -147 -92 -227t-270 -80h-418v467h-438v-467h-182zM958 152h220q45 0 80.5 10t59 30.5t36 49t12.5 65.5t-12.5 66.5t-36 50t-58 32t-81.5 11.5h-220v-315z" />
<glyph unicode="&#x45b;" horiz-adv-x="1167" d="M29 1141v151h127v142h184v-142h231v-151h-231v-223h4q23 14 55.5 32.5t73.5 32.5t88 24.5t101 10.5q166 0 263 -95.5t97 -281.5v-641h-184v604q0 127 -54.5 189.5t-167.5 62.5q-39 0 -78.5 -9t-77.5 -23.5t-69 -32t-51 -31.5v-760h-184v1141h-127z" />
<glyph unicode="&#x45c;" horiz-adv-x="1026" d="M156 0v987h182v-479h4l412 479h209v-14l-431 -488l453 -471v-14h-219l-424 444h-4v-444h-182zM493 1186v20l131 248h201v-20l-174 -248h-158z" />
<glyph unicode="&#x45d;" horiz-adv-x="1169" d="M156 0v987h182v-727h4l465 727h207v-987h-183v727h-4l-465 -727h-206zM352 1434v20h201l131 -248v-20h-158z" />
<glyph unicode="&#x45e;" horiz-adv-x="1034" d="M41 967v20h184l293 -768h6l281 768h182v-20l-414 -1098q-59 -158 -142 -231.5t-200 -73.5q-41 0 -85 7t-72 13v156q31 -4 68.5 -9t72.5 -5q66 0 106.5 36.5t69.5 116.5l47 131zM227 1319l61 86q47 -39 111.5 -52.5t132.5 -13.5q70 0 134.5 13.5t111.5 52.5l61 -86 q-49 -70 -128 -101.5t-179 -31.5q-98 0 -177 31.5t-128 101.5z" />
<glyph unicode="&#x45f;" horiz-adv-x="1150" d="M156 0v987h182v-835h475v835h182v-987h-336l-18 -246h-131l-18 246h-336z" />
<glyph unicode="&#x462;" horiz-adv-x="1433" d="M78 1079v170h305v144h188v-144h435v-170h-435v-241h324q219 0 338 -110t119 -310q0 -197 -119 -307.5t-338 -110.5h-512v1079h-305zM571 170h303q129 0 206 56.5t77 191.5t-75.5 192.5t-207.5 57.5h-303v-498z" />
<glyph unicode="&#x463;" horiz-adv-x="1124" d="M59 836v151h213v449h183v-449h336v-151h-336v-220h235q178 0 271.5 -79.5t93.5 -229.5q0 -147 -93.5 -227t-271.5 -80h-418v836h-213zM455 152h221q45 0 81 10t59.5 30.5t35.5 49t12 65.5t-12 66.5t-35.5 50t-59.5 31t-81 10.5h-221v-313z" />
<glyph unicode="&#x472;" horiz-adv-x="1472" d="M119 696q0 154 34.5 287t109.5 231.5t191.5 153.5t282.5 55t283 -55t190.5 -153.5t108.5 -231.5t35 -287t-35 -287t-108.5 -231t-190.5 -153.5t-283 -55.5t-282.5 55.5t-191.5 153.5t-109.5 231.5t-34.5 286.5zM315 618q6 -102 31 -189t75 -150.5t127.5 -99.5t188.5 -36 t189 36t127 99.5t73.5 150.5t30.5 189h-842zM315 788h840q-6 98 -31.5 183.5t-75 147t-125 96t-186.5 34.5q-109 0 -185.5 -34.5t-126.5 -96t-75.5 -146.5t-34.5 -184z" />
<glyph unicode="&#x473;" horiz-adv-x="1175" d="M100 494q0 106 27 202.5t85 167t150.5 112.5t221.5 42q131 0 224 -42t152.5 -112.5t87 -167t27.5 -202.5q0 -109 -27.5 -204t-87 -166t-152.5 -113t-224 -42q-129 0 -221.5 42t-150.5 113t-85 166t-27 204zM293 418q6 -61 25.5 -114.5t55.5 -91.5t87 -59.5t123 -21.5 q145 0 214.5 81t84.5 206h-590zM293 580h588q-16 121 -85 198.5t-212 77.5q-70 0 -121 -20.5t-87 -57.5t-55.5 -88t-27.5 -110z" />
<glyph unicode="&#x474;" horiz-adv-x="1366" d="M31 1372v21h196l416 -1166h4l342 947q27 72 57.5 119.5t70.5 76.5t90 41t116 12v-174q-63 0 -101 -22.5t-67 -100.5l-416 -1126h-190z" />
<glyph unicode="&#x475;" horiz-adv-x="1116" d="M43 973v14h197l295 -788h4l235 618q20 51 45 88t57.5 59.5t77.5 34t105 11.5v-160q-47 0 -75 -19.5t-48 -68.5l-297 -762h-207z" />
<glyph unicode="&#x490;" horiz-adv-x="1130" d="M186 0v1393h693l24 288h146l24 -458h-698v-1223h-189z" />
<glyph unicode="&#x491;" horiz-adv-x="905" d="M156 0v987h512l20 215h148l20 -366h-518v-836h-182z" />
<glyph unicode="&#x2000;" horiz-adv-x="904" />
<glyph unicode="&#x2001;" horiz-adv-x="1808" />
<glyph unicode="&#x2002;" horiz-adv-x="904" />
<glyph unicode="&#x2003;" horiz-adv-x="1808" />
<glyph unicode="&#x2004;" horiz-adv-x="602" />
<glyph unicode="&#x2005;" horiz-adv-x="452" />
<glyph unicode="&#x2006;" horiz-adv-x="301" />
<glyph unicode="&#x2007;" horiz-adv-x="301" />
<glyph unicode="&#x2008;" horiz-adv-x="226" />
<glyph unicode="&#x2009;" horiz-adv-x="361" />
<glyph unicode="&#x200a;" horiz-adv-x="100" />
<glyph unicode="&#x2010;" horiz-adv-x="837" d="M147 477v152h543v-152h-543z" />
<glyph unicode="&#x2011;" horiz-adv-x="837" d="M147 477v152h543v-152h-543z" />
<glyph unicode="&#x2012;" horiz-adv-x="837" d="M147 477v152h543v-152h-543z" />
<glyph unicode="&#x2013;" horiz-adv-x="1161" d="M147 477v152h867v-152h-867z" />
<glyph unicode="&#x2014;" horiz-adv-x="1843" d="M147 477v152h1549v-152h-1549z" />
<glyph unicode="&#x2018;" horiz-adv-x="520" d="M113 854v20l149 519h146v-21l-84 -518h-211z" />
<glyph unicode="&#x2019;" horiz-adv-x="509" d="M125 854v21l84 518h211v-21l-150 -518h-145z" />
<glyph unicode="&#x201a;" horiz-adv-x="522" d="M84 -309l84 518h211v-21l-150 -518h-145v21z" />
<glyph unicode="&#x201c;" horiz-adv-x="882" d="M113 854v20l149 519h146v-21l-84 -518h-211zM475 854v20l149 519h146v-21l-84 -518h-211z" />
<glyph unicode="&#x201d;" horiz-adv-x="872" d="M125 854v21l84 518h211v-21l-150 -518h-145zM487 854v21l84 518h211v-21l-150 -518h-145z" />
<glyph unicode="&#x201e;" horiz-adv-x="884" d="M84 -309l84 518h211v-21l-150 -518h-145v21zM446 -309l84 518h211v-21l-150 -518h-145v21z" />
<glyph unicode="&#x2022;" horiz-adv-x="716" d="M184 596q0 78 47.5 127t126.5 49q80 0 127 -49t47 -127t-47 -127t-127 -49t-127 49t-47 127z" />
<glyph unicode="&#x2026;" horiz-adv-x="1437" d="M129 102q0 59 36 96.5t95 37.5t95 -37t36 -97q0 -59 -36 -96t-95 -37t-95 37t-36 96zM588 102q0 59 36 96.5t95 37.5t95 -37t36 -97q0 -59 -36 -96t-95 -37t-95 37t-36 96zM1047 102q0 59 36 96.5t95 37.5t95 -37t36 -97q0 -59 -36 -96t-95 -37t-95 37t-36 96z" />
<glyph unicode="&#x202f;" horiz-adv-x="361" />
<glyph unicode="&#x2039;" horiz-adv-x="630" d="M88 541v24l318 428l118 -78l-250 -362l250 -363l-118 -77z" />
<glyph unicode="&#x203a;" horiz-adv-x="630" d="M106 190l250 363l-250 362l119 78l318 -428v-24l-318 -428z" />
<glyph unicode="&#x205f;" horiz-adv-x="452" />
<glyph unicode="&#x20ac;" d="M59 446l45 152h105q-2 33 -2 54.5v43.5v41t2 49h-150l45 152h127q47 223 185.5 354t369.5 131q84 0 172.5 -23.5t171.5 -66.5l-51 -149q-78 37 -150.5 51t-142.5 14q-156 0 -241.5 -82t-120.5 -229h588l-43 -152h-570q-4 -27 -4 -48v-42q0 -23 1 -46t3 -52h525l-43 -152 h-457q37 -143 123 -223t239 -80q70 0 142.5 13.5t150.5 52.5l51 -150q-84 -43 -172 -66.5t-172 -23.5q-229 0 -367 128t-186 349h-174z" />
<glyph unicode="&#x2122;" horiz-adv-x="1509" d="M129 1325v109h479v-109h-172v-465h-133v465h-174zM719 860v574h151l162 -283l160 283h151v-574h-131v381h-2l-127 -244h-104l-125 244h-2v-381h-133z" />
<glyph unicode="&#x25fc;" horiz-adv-x="983" d="M0 0v983h983v-983h-983z" />
</font>
</defs>
</svg>
